<svg xmlns="http://www.w3.org/2000/svg" viewBox="325.6 -313 200 200" enable-background="new 325.6 -313 200 200"><path fill="#131313" d="M465.4-304.7h-11.6l12.1 13.1v6.3h-24.9v-7.3h12l-12.1-13.1v-6.3h24.5v7.3zm-29.4 0h-11.6l12.1 13.1v6.3h-24.9v-7.3h12.1l-12.1-13.1v-6.3h24.4v7.3zm-29.2.3h-12.6v11.5h12.6v7.6h-21.5v-26.7h21.5v7.6z"/><path fill="#1572B6" d="M368.2-129.9l-12.7-143.2h140.2l-12.8 143.2-57.4 15.9z"/><path fill="#33A9DC" d="M425.6-126.2l46.4-12.8 10.9-122.4h-57.3z"/><path fill="#fff" d="M425.6-209.5h23.2l1.6-18h-24.8v-17.5h44l-.4 4.7-4.3 48.4h-39.3z"/><path fill="#EBEBEB" d="M425.7-163.9h-.1l-19.5-5.3-1.3-14h-17.6l2.4 27.6 36 10h.1z"/><path fill="#fff" d="M447.3-192.7l-2.1 23.5-19.6 5.3v18.3l36-10 .3-3 3-34.1z"/><path fill="#EBEBEB" d="M425.6-245v17.5h-42.4l-.3-3.9-.8-8.9-.4-4.7zM425.6-209.5v17.6h-19.3l-.4-4-.8-8.9-.4-4.7z"/></svg>