<svg xmlns="http://www.w3.org/2000/svg" viewBox="0 48 200 106" enable-background="new 0 48 200 106"><radialGradient id="a" cx="77.914" cy="199.415" r="146" gradientTransform="matrix(1 0 0 -.9 -25.232 234.719)" gradientUnits="userSpaceOnUse"><stop offset="0" stop-color="#DDDCE9"/><stop offset=".37" stop-color="#5664A3"/><stop offset="1"/></radialGradient><ellipse fill="#6C7EB7" stroke="url(#a)" stroke-width="5.5" cx="100" cy="101" rx="96.7" ry="50.4"/><path stroke="#fff" stroke-width="2" stroke-linejoin="round" d="M30.4 130.8l10.6-53.6h24.5c10.6.7 15.9 6 15.9 15.2 0 15.9-12.6 25.2-23.9 24.5h-11.8l-2.7 13.9h-12.6zm17.9-23.8l3.3-19.9h8.6c4.6 0 8 2 8 6-.7 11.3-6 13.2-11.9 13.9h-8z"/><path stroke="#fff" stroke-width="2" stroke-linejoin="round" d="M77.5 116.9l10.6-53.7h12.6l-2.7 14h11.9c10.6.7 14.6 6 13.2 12.6l-4.6 27.2h-13.2l4.6-24.5c.7-3.3.7-5.3-4-5.3h-9.9l-6 29.8h-12.5z"/><path stroke="#fff" stroke-width="2" stroke-linejoin="round" d="M119.2 130.8l10.6-53.7h24.5c10.6.7 15.9 6 15.9 15.2 0 15.9-12.6 25.2-23.9 24.5h-11.9l-2.7 13.9h-12.5zm17.9-23.8l3.3-19.9h8.6c4.6 0 7.9 2 7.9 6-.7 11.3-6 13.2-11.9 13.9h-7.9z"/></svg>