<svg xmlns="http://www.w3.org/2000/svg" viewBox="325.6 -99.9 400 200" enable-background="new 325.6 -99.9 400 200"><path fill="#CD6799" d="M580.3 50.7c-.8-.6-.7-2.5 2.1-8.5 1.1-2.4 3.6-6.3 7.8-10.1.5 1.6.8 3.1.8 4.4-.1 9.3-6.7 12.7-10.7 14.2zm-35.3 8c-1.1.6-2.2 1-2.6.7-.4-.2.5-1 .5-1s5.7-6.2 8-9c1.3-1.6 2.8-3.6 4.5-5.7v.6c-.1 7.4-7.2 12.4-10.4 14.4zm-45.8-21.8c-2.7 6.5-8.2 23-11.6 22.1-2.9-.8-4.7-13.3-.6-25.7 2.1-6.2 6.4-13.7 9-16.6 4.2-4.6 8.7-6.2 9.8-4.3 1.5 2.5-4.9 20.4-6.6 24.5zm-55.4 37.7c-7.6 8.3-18.2 11.4-22.8 8.8-4.9-2.9-3-15.1 6.4-23.9 5.7-5.4 13-10.3 17.9-13.4 1.1-.7 2.7-1.6 4.7-2.8.3-.2.5-.3.5-.3l1.2-.7c3.3 12.5.1 23.5-7.9 32.3zm177-59.7c-9.2 0-17.2 2.3-23.9 5.6-2.5-4.9-4.9-9.2-5.3-12.4-.5-3.7-1.1-6-.5-10.4.6-4.5 3.2-10.8 3.1-11.2 0-.5-.6-2.7-5.9-2.8-5.3 0-9.9 1-10.4 2.4s-1.6 4.6-2.2 7.9c-.9 4.8-10.6 22-16.1 31.1-1.8-3.5-3.3-6.6-3.7-9.1-.5-3.7-1.1-6-.5-10.4.6-4.5 3.2-10.8 3.1-11.2 0-.5-.6-2.7-5.9-2.8-5.3 0-9.9 1-10.4 2.4s-1.1 4.7-2.2 7.9-14 31.9-17.4 39.4c-1.7 3.8-3.2 6.8-4.3 8.9s-.1.1-.2.4l-1.4 2.8c-.7 1.3-1.5 2.5-1.9 2.5-.3 0-.8-3.5.1-8.2 1.9-10 6.5-25.5 6.5-26 0-.3.9-3-3-4.4-3.8-1.4-5.1.9-5.4.9-.3 0-.6.8-.6.8s4.2-17.5-8-17.5c-7.6 0-18.2 8.3-23.3 15.9-3.3 1.8-10.3 5.6-17.7 9.7-2.9 1.6-5.8 3.2-8.5 4.7l-.6-.6c-14.8-15.7-42-26.9-40.9-48.1.4-7.7 3.1-28 52.4-52.5 40.4-20.1 72.8-14.6 78.4-2.3 8 17.5-17.3 50.2-59.3 54.9-16 1.8-24.4-4.4-26.5-6.7-2.2-2.4-2.5-2.5-3.4-2.1-1.3.7-.5 2.9 0 4.2 1.3 3.3 6.4 9 15.2 11.9 7.7 2.5 26.5 3.9 49.2-4.9 25.4-9.8 45.3-37.2 39.5-60.1-5.9-23.3-44.5-30.9-81-17.9-21.7 7.7-45.2 19.8-62.1 35.6-20.1 18.8-23.3 35.2-22 42 4.7 24.3 38.2 40.1 51.6 51.9-.7.4-1.3.7-1.8 1-6.7 3.3-32.3 16.7-38.6 30.8-7.2 16 1.2 27.5 6.7 29 17.2 4.8 34.9-3.8 44.4-18s8.3-32.6 4-41l-.2-.3c1.7-1 3.5-2.1 5.3-3.1 3.4-2 6.8-3.9 9.7-5.5-1.6 4.5-2.8 9.8-3.4 17.6-.7 9.1 3 20.8 7.9 25.5 2.1 2 4.7 2.1 6.4 2.1 5.7 0 8.3-4.7 11.1-10.3 3.5-6.8 6.6-14.8 6.6-14.8s-3.9 21.5 6.7 21.5c3.9 0 7.8-5 9.5-7.6s.1-.2.3-.5c.4-.6.6-1 .6-1v-.1c1.6-2.7 5-8.8 10.2-19 6.7-13.1 13.1-29.5 13.1-29.5s.6 4 2.5 10.6c1.1 3.9 3.6 8.2 5.5 12.4-1.5 2.1-2.5 3.4-2.5 3.4v.1c-1.2 1.6-2.6 3.4-4.1 5.1-5.3 6.3-11.5 13.4-12.4 15.5-1 2.4-.8 4.2 1.2 5.7 1.4 1.1 3.9 1.2 6.5 1 4.7-.3 8.1-1.5 9.7-2.2 2.6-.9 5.5-2.3 8.3-4.4 5.2-3.8 8.3-9.2 8-16.4-.2-4-1.4-7.9-3-11.6.5-.7.9-1.4 1.4-2 8.1-11.9 14.5-25 14.5-25s.6 4 2.5 10.6c1 3.4 2.9 7 4.7 10.6-7.7 6.2-12.4 13.5-14.1 18.2-3.1 8.8-.7 12.8 3.8 13.7 2 .4 4.9-.5 7.1-1.4 2.7-.9 5.9-2.4 8.9-4.6 5.2-3.8 10.1-9.1 9.8-16.3-.1-3.3-1-6.5-2.2-9.7 6.5-2.7 14.9-4.2 25.6-3 23 2.7 27.5 17 26.6 23-.9 6-5.7 9.3-7.3 10.3-1.6 1-2.1 1.3-2 2.1.2 1.1.9 1 2.3.8 1.9-.3 12.1-4.9 12.5-16 .5-14.2-13-29.7-36.9-29.5z"/></svg>