<svg xmlns="http://www.w3.org/2000/svg" viewBox="110.9 -313 200 200" enable-background="new 110.9 -313 200 200"><path fill="#E44F26" d="M153.5-129.9l-12.7-143.2h140.3l-12.8 143.2-57.5 15.9z"/><path fill="#F1662A" d="M210.9-126.2l46.4-12.8 11-122.4h-57.4z"/><path fill="#EBEBEB" d="M210.9-208.3h-23.2l-1.6-18h24.8v-17.5h-44l.4 4.7 4.3 48.4h39.3zM210.9-162.7l-.1.1-19.5-5.3-1.3-14h-17.6l2.5 27.5 35.9 10h.1z"/><path fill="#010101" d="M153.8-312h8.9v8.8h8.2v-8.8h8.9v26.7h-8.9v-8.9h-8.2v8.9h-8.9v-26.7zM191.6-303.1h-7.9v-8.9h24.6v8.9h-7.9v17.8h-8.9l.1-17.8zM212.3-312h9.3l5.7 9.4 5.7-9.4h9.3v26.7h-8.9v-13.2l-6.1 9.5h-.2l-6.1-9.5v13.2h-8.7v-26.7zM246.8-312h8.9v17.9h12.6v8.8h-21.5v-26.7z"/><path fill="#fff" d="M210.9-208.3v17.6h21.6l-2.1 22.8-19.5 5.2v18.3l36-10 .2-2.9 4.2-46.3.4-4.7h-4.8zM210.9-243.8v17.5h42.4l.3-3.9.8-8.9.5-4.7z"/></svg>