<svg xmlns="http://www.w3.org/2000/svg" viewBox="110.9 -100.4 200 200" enable-background="new 110.9 -100.4 200 200"><g fill="#00749A"><path d="M126-.6c0 33.6 19.5 62.7 47.8 76.4l-40.5-111c-4.7 10.7-7.3 22.3-7.3 34.6zM268.1-4.8c0-10.5-3.7-17.8-6.9-23.4-4.4-6.9-8.4-12.9-8.4-19.9 0-7.8 6-15 14.2-15h1.1c-15-13.9-35.2-22.3-57.3-22.3-29.7 0-55.7 15.2-70.9 38.3 1.9 0 3.9.2 5.5.2 8.9 0 22.6-1.1 22.6-1.1 4.5-.3 5.2 6.5.5 6.9 0 0-4.5.5-9.7.8l30.8 91.9 18.6-55.7-13.2-36.2c-4.5-.3-8.9-.8-8.9-.8-4.5-.3-4-7.3.5-6.9 0 0 14.1 1.1 22.3 1.1 8.9 0 22.6-1.1 22.6-1.1 4.5-.3 5.2 6.5.5 6.9 0 0-4.7.5-9.7.8l30.7 91.2 8.4-28.3c3.9-11.7 6.7-20.1 6.7-27.4zM212.4 6.8l-25.5 74c7.6 2.3 15.7 3.4 23.9 3.4 9.9 0 19.4-1.8 28.3-4.8-.2-.3-.5-.8-.6-1.1l-26.1-71.5zM285.4-41.3c.3 2.7.6 5.7.6 8.7 0 8.6-1.6 18.2-6.5 30.4l-26 74.9c25.2-14.7 42.2-42 42.2-73.3 0-14.7-3.7-28.6-10.3-40.7zM210.9-99.4c-54.6 0-99 44.4-99 99s44.4 99 99 99 99-44.4 99-99c-.1-54.6-44.6-99-99-99zm0 193.3c-52 0-94.5-42.3-94.5-94.5 0-52 42.3-94.5 94.5-94.5 52 0 94.5 42.3 94.5 94.5-.2 52.2-42.5 94.5-94.5 94.5z"/></g></svg>