<svg version="1.2" baseProfile="tiny" xmlns="http://www.w3.org/2000/svg" viewBox="0 0 205 205"><g><path fill="#353539" d="M55.464 106.01h91.656l.345 60.25h-91.655z"/><g><path fill="#353539" d="M100.52 109.689"/><path fill="#F8F6E4" d="M97.525 108.719c-.681-.114-1.588-.568-2.383-.454-2.156.34-2.496 2.156-.34 2.383.794.114 1.475-.227 2.156-.113.567.113.681 1.021 1.475.567.908-.567.454-2.383-.681-2.269l-.227-.114zM98.092 113.371c-.794-.454-4.425-1.475-4.198.227.113 1.135 2.269 1.021 3.063 1.021.681 0 2.95-.113 1.134-.908v-.34zM98.092 117.116c-.908-.681-5.446-1.134-3.631.794.34.34 3.404.908 3.858.794.794-.227 1.362-1.021.227-1.589h-.454zM97.979 120.633c-1.249-.908-5.56-.681-3.291 1.135.454.454 2.723.681 3.404.454 1.021-.341 1.929-1.702.227-1.702l-.34.113zM97.639 124.037c-2.042-.908-5.446.567-2.156 1.815.794.227 2.383.227 3.064-.227.794-.567 1.248-1.815-.227-1.702l-.681.114zM97.639 127.782c-.568-.227-1.475-.567-2.156-.454-1.362.227-2.156 1.362-.567 2.27 1.589.908 6.014-1.589 3.517-2.042l-.794.226zM98.433 131.526c-.908 0-5.559-.454-3.971 1.588.454.568 2.837.454 3.517.227.794-.227 2.61-1.475.794-1.475l-.34-.34zM86.691 139.128c-1.248-2.383.113-3.971 2.951-3.29 1.361.34 1.929 1.588 3.176 1.929 1.135.227 2.042-.567 3.291-.681 2.496-.113 4.085.114 6.581-1.021 2.837-1.361 4.766-.681 4.88 2.61 0 .34-.454.908-.567 1.248 2.836.34 5.787 1.475 2.155 4.085-1.021.681-2.269 1.475-3.29 2.042-1.135.454-2.723.454-3.404 1.475-1.702 1.929-.114 4.652-4.085 4.538-1.929 0-1.816-.794-2.723-2.042-.908-1.134-2.156-1.362-3.404-2.156-1.361-.908-2.269-2.383-3.971-2.836-1.135-.34-2.496-.114-3.744-.454-3.972-1.362-1.135-4.085 1.248-4.992l.906-.455z"/><path fill="#353539" d="M92.76 140.263c-.794-1.135-3.518-1.248-3.971.454-.794 2.496 3.29 2.61 3.744.34l.227-.794zM102.631 139.355c-1.135-1.134-3.971.341-3.404 2.043.794 2.155 4.312 1.021 3.631-1.362l-.227-.681z"/><path fill="#F8F6E4" d="M91.852 151.95c.227 0 1.021-.34 1.021-1.021 0-1.248-1.249-1.362-2.156-1.815-1.021-.454-6.354-5.219-5.901-1.135.113 1.475 1.929 1.815 2.837 2.723 1.021 1.135 1.021 2.156 1.021 3.631 0 2.156.114 4.312 0 6.468-.113 1.589-.454 3.291-.34 4.993 1.021.227 2.042 0 2.95.113.34-4.312-.567-8.964.228-13.162l.34-.795zM106.149 151.723c-1.248-.567-1.929-1.588-.681-2.723.794-.794 2.155-1.134 3.064-1.929 1.021-1.021 1.929-2.27 3.176-1.021 1.021 1.021.568 2.61-.113 3.517-1.135 1.362-1.929.908-2.042 2.95-.227 2.269-.113 4.652.34 6.694.453 2.269.681 4.425.908 6.695-1.135-.341-2.245.34-3.631 0-.227-4.539.227-9.077-.34-13.616l-.681-.567zM77.215 108.719c-.114-.114-.227.114-.34-.34 1.134-1.362 3.176 1.362 3.857 2.042.681.908 1.589 1.362.113 2.042-.794.34-1.702-.114-2.269-.681-1.135 1.021-1.702 3.063-2.723 4.425-1.135 1.475-2.837 2.723-3.858 4.312 1.021.681 1.021 2.156-.34 2.156-1.475 0-1.021-1.476-1.815-2.156-.453-.453-2.61-.227-1.929-1.588.567-.908 2.269-.114 3.064-.454 1.475-.908 3.517-4.085 4.539-5.56.794-1.135.681-1.475.681-2.496.113-.567-.681-1.475.227-1.362l.793-.34zM65.868 120.633c.908 0 1.021.681 1.702 1.135.227.34.227.681.567.908.34.227.794 0 1.021.113.568.34 1.475.453 1.249 1.475-.34 1.361-1.361.34-2.042.681-1.021.681-1.815 3.064-2.723 4.199l-3.518 3.744c.908.794.681 2.27-.567 1.702-.794-.454-.794-1.929-1.362-2.496-.681-.454-2.496-.227-2.383-1.589.113-1.589 1.815-.454 2.496-.681 1.021-.454 4.085-4.199 4.539-5.333.454-1.249-1.248-3.177.794-3.744l.227-.114zM117.722 112.35c-2.723.794-3.972-1.021-1.249-2.269.34-.114.681.227.908.113.341-.227.453-.794.908-.908.794-.454 1.248-.908 2.269-1.021 2.27-.113 2.61 1.362.568 2.27 1.021 2.269 4.085 4.425 5.787 6.127 1.702 1.815 3.064 3.404 4.312 5.446.681-.794 2.383-1.362 2.837-.113.794 2.042-1.475 1.475-2.27 1.929-1.021.681-.908 2.95-2.155 3.404-1.929.794-1.702-1.248-1.475-2.269.34-1.816.567-1.816-.567-3.404-.908-1.248-1.816-2.27-2.951-3.291-1.929-1.815-4.198-3.631-5.787-5.787.114.113.34.113.454.113l-1.589-.34zM134.288 129.824c-.794.113-1.702 0-1.588-1.021.113-1.021 1.248-.908 1.929-1.362.794-.568.681-2.042 2.156-1.135 1.021.681.113 1.475.681 2.383.34.568 1.929 1.248 2.61 1.702 1.588 1.021 3.177 2.043 4.879 2.723.34-.567 1.248-1.362 1.929-.908 1.248.794-.341 1.589-.795 2.042-.227.34-.681.113-1.021.567-.227.454.114 1.021-.113 1.362-.34.681-1.135 1.475-2.042.567-.454-.567.227-1.588-.114-2.269-.454-.794-1.929-1.135-2.723-1.475-1.588-.908-3.177-1.815-4.539-3.064l-1.249-.112zM91.738 109.741c-1.248 0-8.964-.908-8.283.794.568 1.248 9.531 1.815 8.624-.568l-.341-.226zM91.738 114.166c-1.248-.681-10.552-1.475-10.893.34 0 .227 9.985 2.496 10.779 0l.114-.34zM90.604 117.57c-1.702-.34-8.964-1.702-10.098-.114-.794 1.135 4.425 1.702 5.446 1.816 1.475.34 4.879.227 5.673-1.248-.113-.34-.34-.227-.681-.227l-.34-.227zM91.624 121.2c-1.248 0-2.496-.34-3.857-.34-1.135 0-4.425-.567-5.334 0-2.155 1.362 2.837 1.816 3.744 1.816l5.446-.454c.114-.227.114-.567.114-.794l-.113-.228zM91.058 124.378c-2.95.113-6.014-.227-8.964-.113-.453 1.475 3.178 1.361 4.312 1.589 1.474.227 3.971.681 5.219-.113l-.113-1.135-.454-.228zM90.944 127.895c-1.021 0-9.417-1.021-8.283.567.794 1.248 8.623 1.135 8.85-.454l-.567-.113zM104.787 111.443c-1.135-.114-2.951.681-3.291-.908 1.815-.341 10.439-1.589 10.666.908-1.588.794-4.085-.114-5.787.567l-1.588-.567zM106.83 115.073c-.908 0-3.178.34-3.858-.34-1.475-1.702 3.971-.794 4.879-.794.794 0 5.9-.681 5.106 1.134-.227.681-4.085 0-5.106.113l-1.021-.113zM105.128 118.024c-2.383.113-3.858-1.589-.568-1.476 2.723 0 5.446.227 8.17.454.681 2.383-2.383 1.134-3.631 1.248-1.135.114-2.269.227-3.404.227l-.567-.453zM105.354 122.676c-1.248-.227-4.539-1.362-2.042-2.496 1.702-.681 5.446.34 7.489.34.794 0 2.723-.34 3.064.454.794 1.361-1.475 1.361-2.269 1.361-1.249 0-2.27-.113-3.404.114-.908.113-1.475.567-2.383.227h-.455zM105.354 126.534c-1.815.227-3.744-1.135-1.021-1.589 1.929-.227 3.971.227 5.901.227.681 0 2.609-.681 2.383.567-.114 1.362-1.929.681-2.723.681-1.475-.114-2.723.454-4.085.113h-.455zM106.943 129.938c-.794.227-2.723.453-3.291-.114-2.042-1.588 2.269-1.135 3.064-1.135.794 0 5.22-.681 4.425.794-.34.681-3.404.681-4.085.567l-.113-.112z"/></g><g><path fill="#0C0C11" d="M52.18 132.107s7.019-11.801 5.642-1.702c0 0 6.808-3.404 3.064 3.177 0 0 6.901-1.475 1.124 3.518 0 0 7.663-3.29 2.305 2.269-5.358 5.56-14.972.908-12.135-7.262z"/><path fill="#FFDFA9" d="M50.988 132.107s7.019-11.801 5.643-1.702c0 0 6.808-3.404 3.063 3.177 0 0 6.901-1.475 1.124 3.518 0 0 7.664-3.29 2.305 2.269-5.358 5.56-14.971.908-12.135-7.262z"/></g><g><path fill="#0C0C11" d="M147.597 124.391c-2.948-1.123-9.077-.794-2.61 3.404 0 0-8.112 2.383.142 4.425 0 0-8.358 4.992-.62 4.199-2.262 2.274-4.736 5.608 1.045 4.356 8.658-1.874 11.574-12.753 2.043-16.384z"/><path fill="#FFDFA9" d="M148.538 123.711c-2.948-1.123-9.077-.794-2.609 3.404 0 0-8.112 2.383.142 4.425 0 0-8.358 4.992-.619 4.198 0 0-5.931 5.107 1.044 4.356 8.85-.952 11.574-12.753 2.042-16.383z"/></g></g><g><ellipse fill="#84999B" cx="98.736" cy="187.938" rx="33.346" ry="5.616"/><path fill="#353539" d="M86.101 180.832s-10.932.73-9.958 5.915c.991 5.276 15.454-.34 16.18-1.191.726-.851 1.608-16.809 1.608-16.809l-7.66-1.592-.17 13.677z"/><path fill="#0C0C11" d="M86.285 166.086l-.014 1.068 7.661 1.592.252-2.642zM113.325 166.086l-7.9.018.141 1.477 7.802 1.96z"/><path fill="#353539" d="M113.509 180.832l-.141-11.29-7.801-1.96s1.319 16.669 1.72 17.974c.401 1.305 15.189 6.468 16.18 1.191.973-5.186-9.958-5.915-9.958-5.915z"/><path fill="#E18256" d="M75.488 105.85s8.169-11.864 18.951-11.914c18.391-.085 25.939 11.849 25.981 11.914h-44.932z"/><path fill="#B25A38" d="M87.261 96.538l6.725 8.625 3.281-4.367 2.931 4.652 7.917-9.621s-10.502-4.804-20.854.711z"/><path fill="#F8F6E4" d="M89.913 91.495l7.142 7.433-3.156 5.43-6.307-8.064zM97.055 98.928l7.566-7.044 2.802 3.639-7.057 8.835z"/><path fill="#CCC9B6" d="M89.913 91.495l14.708.389-7.566 7.044z"/><path fill="#F0BA7D" d="M101.488 91.156v-1.872h-8.865v1.083c1.499.3 6.149 1.154 8.865.789z"/><path fill="#FFDFA9" d="M92.622 90.366v1.86l-.085 2.305 4.518 4.397 4.433-4.127v-3.646c-2.716.366-7.366-.488-8.866-.789z"/></g><g><g><path fill="#FFDFA9" d="M80.305 32.939c-6.127 6.562-6.468 18.374-6.808 27.889-.316 10.649 6.06 29.878 22.807 29.202 18.531-.748 19.115-15.708 20.477-29.16 1.362-14.765-.393-28.916-17.754-33.181-6.808-1.64-10.212 0-16.68 2.625l-2.042 2.625z"/><path fill="#F0BA7D" d="M80.228 35.268s7.811 5.334 15.088 6.242c10.329 1.289 13.96-1.135 13.96-1.135l6.405 15.257-2.32-23.768-33.133 3.404z"/><g fill="#353539"><path d="M86.141 55.632c-.35 0-.677.147-.958.4.573.019 1.033.47 1.033 1.027 0 .569-.478 1.03-1.069 1.03-.334 0-.629-.151-.825-.383-.051.262-.079.54-.079.828 0 1.603.85 2.902 1.898 2.902s1.898-1.299 1.898-2.902c0-1.603-.85-2.902-1.898-2.902zM82.504 52.072s2.714-2.393 5.429-.691c-.001 0-3.797-4.198-5.429.691zM106.512 55.632c-.35 0-.677.147-.958.4.573.019 1.033.47 1.033 1.027 0 .569-.478 1.03-1.069 1.03-.334 0-.629-.151-.825-.383-.051.262-.079.54-.079.828 0 1.603.85 2.902 1.898 2.902s1.898-1.299 1.898-2.902c0-1.603-.85-2.902-1.898-2.902zM104.621 51.949s4.314-1.989 5.562 1.729c0-.001-.681-6.381-5.562-1.729z"/></g><path fill="#F0BA7D" d="M90.816 66.872c.169.477.9 3.883 5.245 3.146 4.131-.701 4.829-2.821 4.576-3.943 0 0 1.812 2.333.185 3.872-2.213 2.093-4.55 2.138-6.485 1.727-3.521-.748-3.521-4.802-3.521-4.802z"/><path fill="#E18256" d="M103.512 73.517c-.003-.016-1.475 1.692-6.689 2.77-3.243.67-7.495-.092-7.489-.061.092.481.237.938.422 1.371l.098.218.21.422c1.439 2.585 4.5 4.072 7.664 3.468 2.075-.396 5.264-1.929 5.872-6.054l.024-.242.016-.339c.014-.491-.024-1.008-.128-1.553z"/></g><g><path fill="#353539" d="M122.68 39.226c-.527-4.896-4.098-5.746-6.984-8.182.745-1.813.585-3.79-1.061-5.773-4.085-5.25-15.205-3.325-20.991-6.278-3.404-1.641-5.446-4.265-7.148-7.547-3.404 2.297-6.127 6.379-3.064 9.66-2.723-1.969-3.744-4.739-4.085-6.707l-2.723 3.937c-1.293 3.225-1.666 6.15-1.249 8.723-4.751 3.516-6.087 7.464-5.899 13.807.34 4.265 1.191 15.531 4.595 18.812-.63-6.739 5.988-15.604 8.081-23.296 4.894 2.241 10.172 4.792 21.023 2.625 2.107-.421 5.892-1.207 8.283-2.625.162 3.261.63 5.282 1.278 8.418 1.702 5.578 3.034 9.956 3.714 15.535l2.723.984c.681-5.578 4.108-16.506 3.507-22.093z"/><path fill="#FFDFA9" d="M122.395 61.096c-1.325 3.262-4.009 5.299-5.995 4.549-1.986-.749-2.522-4.002-1.197-7.264 1.325-3.262 4.01-5.299 5.995-4.55 1.987.751 2.523 4.003 1.197 7.265zM75.73 57.802c.799 3.409-.285 6.55-2.421 7.015-2.136.465-4.515-1.922-5.314-5.331-.799-3.41.284-6.551 2.42-7.016 2.137-.464 4.517 1.922 5.315 5.332z"/></g></g></svg>