<svg xmlns="http://www.w3.org/2000/svg" viewBox="0 77 200 90" enable-background="new 0 77 200 90"><path fill="#B57B55" d="M194.8 141.3v24.3h-5.2v-19h-179v19h-5.4v-24.3h189.6z"/><path d="M97.8 146.6c.4-1.6.7-3.6.9-5.2h-1c.2 2.3-.2 3.5-.2 3.6-.1.2-.3.2-.5.2-.2-.1-.4-.1-.3-.4 0 0 .4-1.5.2-3.4h-1.3c.2 1.3.3 3.3.3 5.2h1.9zm6.6 0h1.2c-.4-2-1-3.6-1.6-5.2h-.4c.3.3.5 1.4.7 3.4.1.5.1 1.1.1 1.8zm-5.2 0c.4-2 .8-3.9 1-5.2h-.6c-.2 1.6-.5 3.3-.9 5.2h.5zm8.6 0c-.6-2-1.2-3.9-1.8-5.2h-1c.6 1.6 1.1 3.3 1.5 5.2h1.3zm-6.7 0c.1-.7.1-1.2.2-1.8.3-1.9.6-3.1.9-3.4h-1.2c-.2 1.3-.5 3.3-1 5.2h1.1zm1.1-2c-.1.6-.2 1.3-.2 1.9h1.6c-.1-2-.3-3.9-.6-4.7-.2.4-.4 1-.8 2.8zm18.2 2h1.5c-.7-1.3-1.4-1.9-2-2.7-.4-.5-1.2-1.6-2.3-2.5h-1.7c1.6 1.2 3.2 3.2 4.5 5.2zm2.5 0h3.6c-2-1.6-3.9-3.6-5.7-5.2h-2.1c.9 1 1.6 1.7 1.8 2 .6.5 1.5 1.5 2.4 3.2zm-13.2 0c-.5-2-1-3.6-1.7-5.2h-1.1c.6 1.3 1.2 3.3 1.8 5.2h1zm1.5 0c0-.7 0-1 .1-1.3.2-.8.8-1.2.8-1.3l.1-.1c.3-.1.6 0 1 0 1.6 0 3.3 1.3 4.7 2.6h1.5c-1.4-2-3-3.9-4.7-5.2h-5.7c.6 1.6 1.2 3.3 1.7 5.2l.5.1zm-29.6 0c-.3-1.3-1.1-3.3-2.2-5.2h-1.3c.5 1.6.7 3.6.7 5.2h2.8zm43.3-2.5c-.6-1-1.2-2.1-1.8-2.8h-1.1c.9.7 1.9 1.9 2.9 2.8zm-40.4 2.5c-.8-2-1.6-3.6-2.5-5.2h-1.6c1 2 1.9 3.9 2.1 5.2h2zm-12-3.1c-.2-.2-.4-.4-.5-.4-.2 0-.8.4-1.3.9-.4.5-.8 1.2-1 2.5h.9c0-.3.1-.5.1-.7.1-.2.3-.5.5-.4.2.1.4.5.3.7 0 .1 0 .1-.1.4h1c.5-1.9.2-2.7.1-3zm22.5 3.1c0-2-.2-3.9-.3-5.2h-1.5c.2 1.3.3 3.3.4 5.2h1.4zm-19.8 0h.7c.2-2-.1-3.6-.7-5.2h-1.3c1.1.9 1.8 2.5 1.3 5.2zm1.6 0h1.2c0-1.6-.2-3.6-.8-5.2h-1.1c.6 1.6.9 3.2.7 5.2zm15.9 0c-.1-2-.2-3.9-.4-5.2h-1.4c.3 2 .4 3.6.4 5.2h1.4zm-3.8-2.9c0-.5-.1-1.4-.3-2.4h-1.1c.3.3.5.9.8 1.4.2.6.4.8.6 1zm1.3 2.9v-.7c0-.1 0-.1.1-.1-.1-1.4-.2-3.1-.4-4.4h-.5c.6 3.3 0 3.3-.2 3.4l-.3-.1c-.5 0-1-.5-1.5-1.7-.3-.6-.6-1.1-1-1.7h-1c1 2 2.2 3.9 3.2 5.2l1.6.1zm-2.6 0c-1.1-1.6-2.3-3.9-3-5.2h-1.6c.9 1.6 1.7 3.3 2.4 5.2h2.2zm61.7 0h.3c-.7-1.3-1.5-2.1-2.3-3.3-.4-.6-.9-1.3-1.4-1.9h-.1c.8 1 1.5 2 2.1 3 .5.7 1 1.2 1.4 2.2zm34.5 0h2.2c-.6-1-1.3-1.5-2.3-2.2-1.5-1.2-2.9-2.4-4.1-3h-2.3c2.3 1.2 4.7 3.2 6.5 5.2zm-24.8-4.6c-1.1 1.3-1.3 3.2-1.2 4.5h1.7c0-1 .2-1.6.2-1.7.1-.2.3-.4.6-.4.2.1.3.5.2.7 0 .1-.2.4-.2 1.3h12.8c-3.3-1.6-7.5-2.6-9.7-2.9-.2 0-.4-.4-.4-.6 0-.2.3-.2.5-.2.4.1 7.2 1.1 11.5 3.7h3.9c-2.3-3-7-4.6-11.4-5.2h-7.7c-.3.1-.6.5-.8.8zm21.1 4.6h2.5c-1.7-1.6-4-3.6-6.9-5.2h-4.1c3.4.9 6.7 2.5 8.5 5.2zm-41.4-2.9c0 .4.6 1.5 1.6 2.8h.9c-.1-.3-.1-.4-.2-.5-.1-.2-.1-.6.1-.7.2-.1.5.1.6.2.2.2.4.6.6.9h.8c-1.4-1.3-3.1-2.6-4.4-2.7zm18.2 2.9c0-1.6.2-3.6 1.4-5.1l.1-.1h-2.4c-.4.7-.8 1.2-1.5 1.4h-.5c-.4 0-.9 0-1.5-.3-.5-.3-1-.7-1.5-1.1h-2.3c1.4 1.6 2.8 3.3 4.1 5.2h4.1zm-2.6-4.7c.3-.1.6-.3.8-.6h-2.7c.2 0 .5.2.7.4.4.3.8.3 1.2.2zm36.4 19.6c-.5-.2-.9-.4-1.2-.6v4.7h5.2v-3.4h-.5c-1.2 0-2.3-.2-3.5-.7zm-3.7-14.9h2.5v13.3c.3.3.9.6 1.6.9 1.2.5 2.4.7 3.7.6v-2h-.4c-.3 0-.6 0-.9-.1-1.7-.3-2.6-1.4-2.3-3 1-6.3-.4-11.4-4.2-15h-6c1 .7 2 1.5 3.2 2.4 1.2 1 2.2 1.9 2.8 2.9zm6.3-3.3c.4 0 .8-.6 1.2-1.3l.2-.5v-.1h-3.4c.8.9 1.4 1.9 2 1.9zm-1.3 13.1c-.2 1.2.4 1.8 1.6 2.1.4.1.7 0 1.2-.1v-1.1c-.2 0-.4-.1-.6-.2-1-.5-1.5-1.5-1.1-2.5.7-1.6.1-6.8-.1-8.7 0-.2.1-.5.4-.5.2 0 .5.1.5.4 0 .3.9 7 .1 9.1-.2.5.1 1.1.6 1.4l.3.1v-5.7c0-.2 0-.4-.1-.6-.1-1.3-.1-2.6.1-3.6v-3.6c-.5.5-.9 1.3-1.4 1.3-1.1 0-1.9-1.3-2.8-2.7 0-.1-.1-.2-.1-.2h-2.2c3.2 3.9 4.5 8.9 3.6 15.1zm-59.4-9.8h.6c-.5-1.6-.8-3.3-.9-5.2h-.3c0 .3 0 1.3.1 1.9 0 1.1.2 1.9.5 3.3zm17.8-.7c.1.1.2.3.3.6h1c-1.3-2-2.7-3.6-4.1-5.2h-.6c.3.3.7.9 1 1.3.8 1.3 1.6 2.3 2.4 3.3zm-20.2.7h1.5c-.3-1.3-.5-2.1-.6-3.3-.1-.7-.1-1.3-.1-2h-1.8s0 .3.1.5c.2 1.4.5 2.8.9 4.8zm-3.6-1.5c.1.1.3.1.3.2v-4h-2.7c.7 1 1.5 2.2 2.4 3.8zm-14.1-.2c-.1 0-.3.3-.4.7-.1.2-.1.3 0 .9h4.4c-1.6-1.3-3-1.9-4-1.6zm16.8 1.7c-.4-2-.7-3.3-.9-4.7 0-.2 0-.5-.1-.5h-.5v5.2h1.5zm5 0c-.6-1.6-.9-3.3-1-5.2h-.2c.1 2 .5 3.6 1 5.2h.2zm-66.3 0h.7c.2-1.6.7-2.6 1.2-3.1.7-.8 1.5-1.2 1.9-1.2.5 0 1 .4 1.2.8.5.7.5 1.8.2 3.5h1c.6-3-.4-4.3-1.7-5.2h-2.4c-1 .6-1.9 2.5-2.1 5.2zm78.8 0h1.5c-.3-.7-.7-1.1-1.1-1.7-.8-1.3-1.7-2.5-2.5-3.5h-3.4c1.9 1.2 3.9 3.2 5.5 5.2zm-10.4 0c-1-2.3-1.4-3.9-.9-5.2h-1.4c.1 2 .5 3.6 1.1 5.2h1.2zm1 0h1.8c-.9-1.3-1.5-2.6-1.2-3.3.1-.2.3-.4 1-.3 1.6.2 3.8 1.6 5.6 3.6h1.2c-1.8-2.3-4-4.3-5.9-5.2h-3.2v.1c-.9 1-.4 2.8.7 5.1zm-107.9 0c-.1-.5-.4-3.3.6-5.2h-2.5c-.2 0-.4 0-.6.1l-.5.2c-.4 0-.8-.3-1.3-.3h-2.9c1.4 1.6 2.8 3.3 4 5.2h3.2zm-9.3 0h1.3c-.5-1-1.1-2-1.8-3-.5-.8-1-1.5-1.5-2.2h-2.7c1.8 1.2 3.5 3.2 4.7 5.2zm-9.7 4.5c-2-2.4-4-5.5-4.6-9.8h-.1c.7 5.6 3.4 9 4.7 10.6v-.8zm12-4.5h.5c-.3-.7-.5-1-.8-1.4-.8-1.1-1.6-2.1-2.4-3.3-.1-.2-.3-.5-.4-.5h-.1c.4.3.8 1.2 1.2 1.7.7 1.1 1.4 2.1 2 3.5zm37.8 0h3c-.5-2-1.4-3.9-2.7-5.2h-5.3c.4.3.9.7 1.4 1 1.9 1.4 3 2.5 3.6 4.2zm-21.3 0h2.8c-1.2-.4-2.1-.4-2.8 0zm-28.5 1.1c-1.6-2.4-2.7-4.7-2.7-6.4h-1c.5 3.6 2 6.2 3.7 8.4v-2zm-5.3 11.1c1.2 2.1 2.5 4.8 3.9 6.7h1.4v-.7c-2-3.5-3.9-6.9-5.2-10.1v4.1zm17.7-14.2l1.2 1.9h1.1c-1.2-2-2.6-3.6-4-5.2h-.7.1c.7 1.2 1.5 2.3 2.3 3.3zm34.5 2h1.9c-.6-1.3-1.6-2.3-3.2-3.5-.8-.6-1.6-1.4-2.3-1.7h-2.2c2.3 1.2 4.4 3.2 5.8 5.2zm-46.9 6.5c-1-1.1-4-4.4-5.2-10v2.1c1.1 3.7 3.3 6.8 5.2 9.1v-1.2zm19.8-6.9v.4h1.8c-.4-1.6 0-2.9 0-3 .1-.2.3-.4.6-.4.2.1.3.5.2.7 0 .1-.4 1 .1 2.6h4.5c.9-1.3 3.5-1.6 7.1 0h3.4c-3.4-2.3-9.4-3.8-12.2-4.3-.2 0-.4-.4-.4-.6 0-.2.3-.2.5-.2.5.1 9.5 1.4 13.5 5.1h2.9c-1.2-2.6-4-4.3-7.1-5.2h-14.1c-1.2 2-.8 4.8-.8 4.9zm23 .4h3c-1.4-1.6-3.4-3.6-6.1-5.2h-2.6c2.5.9 4.7 2.5 5.7 5.2zm-48.1 17.8c.2.2.3.9.5 1.2h2.4c-1-1.6-1.9-3.5-2.9-5v3.8zm6.1-22l-.1.1c0 .5 1 2.1 2.7 4.1h.9c-.6-1-1.1-1.5-1.3-1.8-.1-.2-.1-.6.1-.7.2-.1.5.1.6.2.5.7 1.1 1.3 1.8 2.3h1c-1.6-2-4-4-5.7-4.2zm54.3 4.2c-.1-.7-.1-1.3-.2-1.7 0-.2.1-.6.4-.6.2 0 .5.3.5.5l.2 1.7h.7c.2-2.6.9-4.3 1.8-5.2h-1.2v.1c-.6 1-1.3 1.6-1.9 1.6-.8 0-1.4-1-2.1-1.6h-2.1c1.1 1.3 2 3.3 2.5 5.2h1.4zm-55.1 16.7v-7.7c-1.6-2-3.9-4.7-5.2-7.9v4.8c1.3 3.4 2.9 7 5.2 10.8zm2.3-16.7c-1.4-1.6-2.7-3.7-2.3-4.6.1-.2.3-.4 1-.3 2 .2 5.1 2.6 6.8 4.9h1c-1.3-2-3.2-3.9-5-5.2h-5.6c0 1.3.8 3.3 2 5.2h2.1zm53-4.6c.3 0 .6-.3.9-.7h-1.9c.4.3.7.7 1 .7z" fill="none"/><path opacity=".1" enable-background="new" d="M193.8 155c.9-2.1 0-8.8-.1-9.1 0-.2-.3-.4-.5-.4s-.4.3-.4.5c.3 1.9.8 7.1.1 8.7-.4.9.1 2 1.1 2.5.2.1.4.2.6.2v-.9l-.3-.1c-.4-.3-.7-.9-.5-1.4zm.9-4.8c0 .2 0 .4.1.6v-4.3c-.2 1.1-.2 2.3-.1 3.7zm-31.7-7.3c0 .2.1.7.4.7 2.2.3 6.4 1.3 9.7 2.9h2c-4.4-2.6-11.1-3.7-11.5-3.8-.3 0-.6 0-.6.2zm-2.6 2.3c.1-.2 0-.6-.2-.7-.2-.1-.5.2-.6.4 0 .1-.2.7-.2 1.7h.9c0-1 .1-1.4.1-1.4zm18.6 1.4h1.1c-1.8-2.6-5.1-4.3-8.6-5.2h-4c4.5.6 9.1 2.2 11.5 5.2zm-22.1 0h.9c0-1.3.1-3.3 1.2-4.5.2-.3.5-.7.8-.7h-1.4l-.1.1c-1.2 1.4-1.4 3.4-1.4 5.1zm-4.1 0c-1.3-2-2.6-3.6-4.1-5.2h-1.1c1.4 1.6 2.8 3.3 4.1 5.2h1.1zm1.2-4c.2 0 .3.2.5.1.7-.2 1.1-.8 1.5-1.4h-1c-.2.3-.5.5-.8.6-.3.1-.7.1-1.3-.2-.2-.1-.4-.4-.7-.4h-1.2c.6.3 1.1.7 1.5 1 .6.3 1.1.3 1.5.3zm-22.3 4h.9c-.3-1.3-.5-2.2-.6-3.3-.1-.6-.1-1.6-.1-1.9h-.9c0 .7 0 1.3.1 2 .1 1 .3 1.8.6 3.2zm2.4 0c-.5-1.6-.8-3.3-1-5.2h-.9c.1 2 .5 3.6.9 5.2h1zm11.6 0h1.1c-1.5-2-3.5-3.9-5.4-5.2h-1.6c1.8.9 4.1 2.9 5.9 5.2zm2.6 0h1c-.4-1-.9-1.5-1.3-2.2-.7-1-1.4-2.1-2.1-3h-1.1c.8 1 1.7 2.3 2.5 3.5.3.5.7 1 1 1.7zm-11.9 0h1c-1.1-2.3-1.6-4.1-.9-5.2v-.1h-1c-.5 1.3-.1 3 .9 5.3zm-1.1 0c-.6-1.6-1-3.3-1.1-5.2h-.9c.1 2 .5 3.6 1 5.2h1zm2.6-3.3c-.3.6.3 1.9 1.2 3.3h1.1c-1-1.3-1.6-2.5-1.6-2.8l.1.1c1.2.1 2.9 1.4 4.4 2.7h1.3c-1.7-2-4-3.4-5.6-3.6-.5-.1-.8.1-.9.3zm-8.6 3.3h.9c-.4-2-.7-3.4-.9-4.8 0-.2 0-.5-.1-.5h-.9s0 .3.1.5c.2 1.5.5 2.8.9 4.8zm11.8-1.3c-.2.1-.2.6-.1.8 0 .1.1.1.2.5h1.1c-.2-.3-.4-.8-.6-1-.1-.2-.4-.5-.6-.3zm8.5 1.3h1.1c-.1-.3-.2-.5-.3-.6-.8-1-1.6-2.1-2.4-3.3-.3-.5-.7-1-1-1.3h-1.1c.5.7.9 1.3 1.4 1.9.8 1.1 1.6 1.9 2.3 3.3zm41.5 9.7c-.2 1.6.7 2.7 2.3 3.1.3.1.6 0 .9 0l.4-.1v-.9c-.4 0-.8 0-1.2-.1-1.2-.2-1.8-.8-1.6-2 1-6.2-.3-11.2-3.9-15.1h-1.2c3.9 3.7 5.3 8.8 4.3 15.1zm0 4.4c-.7-.3-1.2-.6-1.6-.9v1c.3.2.7.4 1.2.6 1.1.5 2.3.7 3.5.7h.5v-.9c-1.2.2-2.4 0-3.6-.5zm-7.3-14.1c-1.8-2-4.2-3.9-6.5-5.2h-1.6c2.9 1.6 5.2 3.6 6.9 5.2h1.2zm9.5-2.3c.5 0 1-.8 1.4-1.3v-1.5l-.2.5c-.5.7-.9 1.3-1.2 1.3-.6 0-1.3-1-1.9-2h-1l.1.2c.9 1.5 1.7 2.8 2.8 2.8zm-7.4 2.3h1.1c-.7-1-1.6-1.9-2.9-2.9-1.1-.9-2.2-1.7-3.2-2.4h-1.5c1.3.7 2.6 1.9 4.1 3 1.1.8 1.9 1.3 2.4 2.3zm-73.8-2.7c-.1.1-.7.6-.9 1.4-.1.3-.1.7-.1 1.3h.9v-1.1c.1-.4.3-.5.4-.5 1-.3 2.4.3 4 1.6h1.3c-1.4-1.3-3.1-2.6-4.7-2.6-.2-.1-.5-.3-.9-.1zm-11 2.7h.9c0-.7.1-1.3.2-1.9.3-1.8.6-2.5.7-2.8.3.8.5 2.8.6 4.7h.9c0-.7-.1-1.3-.1-1.9-.2-2-.4-3-.7-3.4h-1.3c-.3.3-.6 1.5-.9 3.4l-.3 1.9zm5.4 0c-.4-2-1-3.6-1.5-5.2h-.9c.6 1.6 1.1 3.3 1.6 5.2h.8zm-33.3-3.6c-.3-.4-.7-.8-1.2-.8s-1.2.4-1.9 1.2c-.5.6-1.1 1.4-1.2 3.1h.9c.2-1.3.6-2.1 1-2.5.5-.6 1.1-.9 1.3-.9.2 0 .4.2.5.5.2.3.4 1 0 3h.9c.2-1.7.1-2.9-.3-3.6zm1.1 3.6h.9c.5-2.6-.2-4.3-1.3-5.2h-1.3c1.3.9 2.3 2.2 1.7 5.2zm-6.3 0c.2-2.6 1.1-4.6 2.2-5.2h-1.2c-.9 1-1.6 2.6-1.8 5.2h.8zm3.2-1.3c-.2-.1-.5.3-.5.5s-.1.4-.1.7h.9c0-.3 0-.4.1-.5 0-.2-.2-.6-.4-.7zm-5.4-1.1c-.2 0-.4.5-.4.7.1.4.1 1 .2 1.7h.9c-.1-1-.2-1.7-.2-1.8-.1-.3-.3-.7-.5-.6zm-28.3 2.4h1.5c.6-.3 1.6-.3 2.8 0h2.7c-3.5-1.7-6.1-1.4-7 0zm-2-5c0 .2.1.7.4.7 2.8.4 8.8 2 12.2 4.3h1.4c-3.9-3.6-13-5-13.5-5.1-.2-.1-.5-.1-.5.1zm-2.6 2.3c.1-.2 0-.6-.2-.7-.2-.1-.5.2-.6.4 0 .1-.5 1.3 0 3h.9c-.4-1.7-.1-2.7-.1-2.7zm19.4 2.7h1c-1-2.6-3.2-4.3-5.7-5.2h-2.3c3.1.9 5.8 2.5 7 5.2zm-22.8-.1l.9.1v-.3s-.4-3 .7-5h-1c-1 2-.7 4.8-.6 5.2zm-19 7.9c-2-2.3-4.1-5.4-5.2-9.1v2.5c1.4 3.2 3.6 5.9 5.2 7.9v-1.3zm0-1.3v-1.2c-1.3-1.6-4.1-5-4.7-10.6h-.6v1.8c1.3 5.7 4.3 9 5.3 10zm-5.3 12.5h.5l-.5-1.2v1.2zm5.3-15.9c-1.6-2.2-3.2-4.8-3.7-8.4h-.9c.6 4.3 2.6 7.4 4.6 9.8v-1.4zm-5.3 5.1c1.4 3.2 3.3 6.5 5.2 10.1v-1.6c-2.3-3.8-3.9-7.4-5.2-10.7v2.2zm0 5.7c.9 1.5 1.9 3.4 2.9 5h1c-1.4-2-2.7-4.6-3.9-6.7v1.7zm94.9-13.9c.4-2 .7-3.9 1-5.2h-.9c-.2 1.3-.5 3.3-1 5.2h.9zm-6.6 0c-.1-2-.2-3.9-.4-5.2h-.9c.2 1.3.3 3.3.4 5.2h.9zm-3.2-.8v.7h1c0-1.6-.1-3.3-.4-5.2h-.9c.2 1.3.3 3 .4 4.4l-.1.1zm8.4.8c.4-2 .7-3.6.9-5.2h-.9c-.2 1.6-.5 3.6-.9 5.2h.9zm-2-1.9c-.1.2.1.4.3.4.2.1.5.1.5-.1 0-.1.4-1.4.2-3.7h-.9c.3 2-.1 3.4-.1 3.4zm-37.4 1.9h1c-.6-1.6-1.8-2.7-3.7-4.2-.5-.4-.9-.7-1.4-1h-1.5c.7.3 1.5 1.1 2.3 1.7 1.7 1.2 2.7 2.1 3.3 3.5zm29.3 0c-.9-1.3-2.2-3.3-3.2-5.2h-.9c.8 1.3 1.9 3.6 3 5.2h1.1zm7.2 0c0-2-.1-3.9-.3-5.2h-.9c.2 1.3.3 3.3.3 5.2h.9zm-6.8-2l.3.2c.2-.1.8-.2.2-3.4h-.9c.2 1 .3 1.9.3 2.4-.1-.2-.3-.4-.6-1-.2-.5-.5-1.1-.8-1.4h-1c.3.7.7 1.1 1 1.7.5 1 1 1.5 1.5 1.5zm-23.2-1.6c.7 0 1.3-.6 2-1.6v-.1h-1.1c-.3.3-.7.7-.9.7-.3 0-.6-.3-1-.7h-1.1c.7.7 1.3 1.7 2.1 1.7zm13.1 3.6c0-1.6-.2-3.6-.7-5.2h-.9c.5 1.6.8 3.6.8 5.2h.8zm-3 0h.9c.2-2-.1-3.6-.6-5.2h-.9c.5 1.6.8 3.2.6 5.2zm9.5 0c-.7-2-1.6-3.6-2.4-5.2h-1c.9 1.6 1.7 3.3 2.5 5.2h.9zm-2.9 0c-.2-1.3-1-3.3-2.1-5.2h-1c1 2 1.9 3.9 2.2 5.2h.9zm-72 0h.2c-1.2-2-2-3.9-2-5.2h-.9c0 1.6 1 3.9 2.7 6.4v-1.2zm53.6 0c-.5-2-1.3-3.9-2.5-5.2h-1.1c1.2 1.3 2.1 3.3 2.7 5.2h.9zm-41.9-1.5c.3.4.6.8.8 1.4h1c-.4-.7-.8-1.3-1.2-1.9-.8-1-1.6-2.1-2.4-3.3h-1.2000000000000002c.1 0 .3.3.4.5 1 1.2 1.8 2.3 2.6 3.3zm-10.8-3.6c-.6-.1-.9.4-1 .6-.4.9.9 2.8 2.3 4.5h1.2c-1.7-2-2.7-3.7-2.7-4.2l.1.1c1.6.2 4.1 2.1 5.7 4h1.2c-1.7-2.2-4.8-4.8-6.8-5zm115.1 5.1h.7v-5.2h-.3v4c0-.1-.2-.1-.3-.2l-.1-.1c-.8-1.5-1.6-2.7-2.4-3.7h-1.1c.6.7 1.2 1.7 1.8 2.8-1-.9-1.9-2.1-2.9-2.8h-1.2c1.9 1.6 3.8 3.5 5.8 5.2zm-107.3 0h1c-1.2-2-2.9-3.9-4.7-5.2h-1.3c1.8 1.2 3.7 3.2 5 5.2zm2.3 0h1c-.6-1.3-1.3-2.4-2.1-3.5-.4-.6-.8-1.4-1.2-1.7h-1.1c.5.7 1 1.4 1.5 2.2.8 1 1.4 2 1.9 3zm100.4 0h1c-.9-1.6-1.8-2.6-2.4-3.3-.2-.3-.9-1-1.8-2h-1.2c1.1 1 1.9 2 2.3 2.5.7.8 1.4 1.4 2.1 2.8zm-108.3-2.7c-.2.1-.2.6-.1.8.2.3.7.8 1.3 1.8h1.2c-.6-1-1.3-1.7-1.8-2.3-.1-.1-.4-.4-.6-.3zm42.7 2.7h1.1c-1.4-2-3.5-3.9-5.7-5.2h-1.5c2.7 1.6 4.7 3.5 6.1 5.2zm-29.3-5.2c.2-.1.4-.1.6-.1h-2.4c.5 0 .9.3 1.3.3.2 0 .4-.1.5-.2zm83.7 5.2c-.5-2-1-3.6-1.7-5.2h-1c.6 1.6 1.2 3.3 1.7 5.2h1zm-2 0c-.5-2-1.2-3.9-1.8-5.2h-.9c.6 1.3 1.3 3.3 1.8 5.2h.9zm-82.5 0c-1.2-2-2.5-3.6-4-5.2h-1.1c1.4 1.6 2.8 3.3 4 5.2h1.1zm93.1 0h1.1c-1.3-2-2.9-3.9-4.5-5.2h-1.3c1.7 1.2 3.3 3.2 4.7 5.2z"/><path fill="#5C6566" d="M66.6 131.7c-1.5 0-2.9.9-3.5 2.1-.6-.2-1.2-.2-1.8 0-.7-1.2-2-1.7-3.4-1.7-2 0-3.6 1.6-3.9 3.6h-.2v1.3h.2c.3 1.6 1.9 3 3.9 3 2.2 0 3.9-1.9 3.9-4.1v-.1c.3-.1.5-.1.8 0 .1 2.1 1.9 3.8 4 3.8 2 0 3.6-1.4 3.9-3.3v-1.3c-.3-1.8-2-3.3-3.9-3.3zm-8.8 6.8c-1.4 0-2.6-1.2-2.6-2.6 0-1.4 1.2-2.6 2.6-2.6.9 0 1.8.5 2.2 1.2.2.3.3.6.4 1v.4c.1 1.4-1.1 2.6-2.6 2.6zm8.7-.2c-1.4 0-2.6-1.2-2.6-2.6v-.3c0-.3.1-.6.3-.9.4-.8 1.3-1.4 2.3-1.4 1.4 0 2.6 1.2 2.6 2.6 0 1.4-1.2 2.6-2.6 2.6z"/><path fill="#2E3233" d="M60.6 133l-.9.9c-.5-.5-1.1-.7-1.8-.7-.2 0-.5 0-.7.1-1.1.3-1.9 1.3-1.9 2.5 0 .7.3 1.4.7 1.8l-.9 1.2c-.6-.6-.9-1.2-1.1-1.8h-.2v-1.3h.2c.3-2 1.9-3.6 3.9-3.6l.1-.1c1 .1 1.9.4 2.6 1zm8.6-.2l-.9.9c-.5-.5-1.1-.7-1.8-.7-.2 0-.5 0-.7.1-1.1.3-1.9 1.3-1.9 2.5 0 .7.3 1.4.7 1.8l-.9 1.2c-.6-.6-.9-1.2-1.1-1.9v-1.3c.3-2 1.9-3.5 3.9-3.5l.1-.1c1 0 1.9.4 2.6 1z"/><path fill="#1E2121" d="M53.8 135.7v1.3h-.4c-.3 0-.6-.3-.6-.7s.3-.7.6-.7h.4zm17.8.4c0 .3-.3.7-.6.7h-.6l.1-.4v-.9h.5c.3-.1.6.2.6.6z"/><path fill="#66B4D4" d="M25.6 131.2c-.2 0-.4 0-.7.1v-.7c0-.7-.4-.8-1.2-.8h-7.2c-.7 0-1.5 0-1.5.8v6.6c0 1.4 1.3 3.2 2.8 3.2h4.6c1.4 0 2.5-1.7 2.5-3.2v-.6c1.3-.1 3.1-1.4 3.1-2.9 0-1.7-.9-2.5-2.4-2.5zm-.7 4.2v-2.8c.3-.1.5-.2.7-.2.9 0 1.2.4 1.2 1.3.1.7-.9 1.5-1.9 1.7z"/><path fill="#56A1C3" d="M20.3 129.8v10.5h-2.5c-1.4 0-2.8-1.7-2.8-3.2v-6.6c0-.7.7-.8 1.5-.8h3.8z"/><path fill="#6DCF6A" d="M169.5 108.2h8.5v32.1h-8.5v-32.1z"/><path fill="#2AA127" d="M169.5 111.1h8.5v1h-8.5v-1zm0 1.7h8.5v1h-8.5v-1zm0 22h8.5v1h-8.5v-1zm0 1.6h8.5v1h-8.5v-1z"/><path opacity=".07" enable-background="new" d="M169.5 108.2h8.7l-8.7 31.7v-31.7z"/><path fill="#68C3CB" d="M179.7 104.3h3.9v36.1h-3.9v-36.1z"/><path fill="#49ACB6" d="M179.7 104.3h3.9l-3.9 35.6v-35.6z"/><path fill="#fff" d="M179.7 106.2h3.9v1.6h-3.9v-1.6z"/><path fill="#9C60FD" d="M163 110.5h4.6v29.8h-4.6v-29.8z"/><path fill="#D8E6EC" d="M163 112.5h4.6v1h-4.6v-1zm0 24.9h4.6v1h-4.6v-1zm0-15.4h4.6v5.9h-4.6v-5.9z"/><circle fill="#4A7F8F" cx="165.2" cy="124.6" r="1.3"/><path fill="#D8E6EC" d="M163.9 128.2h2.6v.3h-2.6v-.3zm0 .7h2.6v.3h-2.6v-.3z"/><path opacity=".1" enable-background="new" d="M163 110.5h4.6l-4.6 29.4v-29.4z"/><path fill="#DEE4E7" d="M115.1 137.5v.9c0 .7-.5 1.9-1.2 1.9h-21.9c-.7 0-1.2-1.2-1.2-1.9v-.9c0-.7.4-.8 1.2-.8h2.5v-5.2h16.4v5.2h3.1c.6 0 1.1.1 1.1.8z"/><path opacity=".03" enable-background="new" d="M110.7 131.5l-4.1 4.1-4.6 4.7h-10c-.7 0-1.2-1.2-1.2-1.9v-.9c0-.7.4-.8 1.2-.8h2.5v-5.2h16.2z"/><path fill="#DEE4E7" d="M69.3 131.5c-.7 0-1.4-1.1-1.4-1.9v-46.5c0-.7.7-.8 1.4-.8h67.5c.3 0 .5-.2.7 0 .4.2.5.4.5.8v46.6c0 .7-.5 1.9-1.2 1.9h-67.5v-.1z"/><path fill="#2C3133" d="M138 83.1v41.2h-70.1v-41.2c0-.7.7-.8 1.4-.8h67.5c.8 0 1.2 0 1.2.8z"/><path fill="#F3F4F5" d="M71.1 84.9h63.9v36.1h-63.9v-36.1z"/><path fill="#fff" d="M121 89.5v26.9c0 .7-.6 1.3-1.3 1.3h-33.5c-.7 0-1.3-.6-1.3-1.3v-26.9c0-.7.6-1.3 1.3-1.3h33.4c.8 0 1.4.6 1.4 1.3z"/><path fill="#B8CED1" d="M121 89.5v2h-36.1v-2c0-.7.6-1.3 1.3-1.3h33.4c.8 0 1.4.6 1.4 1.3z"/><path fill="#fff" d="M87.5 90.5c0 .2-.1.3-.3.3h-1.3c-.2 0-.3-.1-.3-.3v-1.3c0-.2.1-.3.3-.3h1.3c.2 0 .3.1.3.3v1.3z"/><path stroke="#93BABF" stroke-miterlimit="10" d="M86.8 90.4l-.5-.5.5-.5" fill="none"/><path fill="#fff" d="M87.9 90.5c0 .2.1.3.3.3h1.3c.2 0 .3-.1.3-.3v-1.3c0-.2-.1-.3-.3-.3h-1.3c-.2 0-.3.1-.3.3v1.3zm3.6 0c0 .2.1.3.3.3h27.6c.2 0 .3-.1.3-.3v-1.3c0-.2-.1-.3-.3-.3h-27.6c-.2 0-.3.1-.3.3v1.3z"/><path stroke="#93BABF" stroke-miterlimit="10" d="M88.6 90.4l.5-.5-.5-.5" fill="none"/><path fill="#B8F1FF" d="M94.1 93.4h17.7v9.8h-17.7v-9.8z"/><path fill="#3C6470" d="M94.1 112.1h5.2v.3h-5.2v-.3zM94.1 111.1h3.6v.3h-3.6v-.3zm3.9 0h13.8v.3h-13.8v-.3zM94.1 110.2h7.2v.3h-7.2v-.3zm7.5 0h10.2v.3h-10.2v-.3zM94.1 109.2h10.8v.3h-10.8v-.3zm11.1 0h6.6v.3h-6.6v-.3zM94.1 108.2h3.6v.3h-3.6v-.3zm3.9 0h13.8v.3h-13.8v-.3zM94.1 107.2h10.8v.3h-10.8v-.3zm11.1 0h6.6v.3h-6.6v-.3zM94.1 106.2h3.6v.3h-3.6v-.3zm3.9 0h3.3v.3h-3.3v-.3zm3.6 0h10.2v.3h-10.2v-.3zM94.1 105.2h14.1v.3h-14.1v-.3zm14.4 0h3.3v.3h-3.3v-.3zM94.1 104.3h3.6v.3h-3.6v-.3zm3.9 0h6.9v.3h-6.9v-.3zm7.2 0h6.6v.3h-6.6v-.3zM104.9 104.3h.3v.7h-.3v-.7z"/><path opacity=".03" enable-background="new" d="M137.6 82.2l-2.6 2.5-36 36.2-10.4 10.6h-19.3c-.7 0-1.4-1.1-1.4-1.9v-46.5c0-.7.7-.8 1.4-.8h67.5c.3 0 .6-.2.8-.1z"/><path fill="#305A5E" d="M50 130.7c.2.5-.1 1.1-.6 1.3-.5.2-1.1-.1-1.3-.6l-15.4-42.5c-.2-.5.1-1.1.6-1.3.5-.2 1.1.1 1.3.6l15.4 42.5z"/><circle fill="#7BD1E3" cx="41.4" cy="109.9" r="20"/><path fill="#E5EBED" d="M59.9 113.6m-8.8-2.1l-.1.1h.1v-.1c-.1.1-.1 0 0 0m.3-12.5l-.1.1v-.1h-.2l-.2.1h-.2v.1h.3l.4-.2m1.6-.8l-.1.1h-.1v.1l-.1.1.1.1h.2s.1 0 .1-.1c0 0 0-.1.1-.1h-.1c-.1-.1-.1-.1-.1-.2m-5 .9c-.1 0-.1 0-.1.1-.2.2-.3.2-.5.1l-.1.1v.1h1v-.1s-.1 0-.1-.1c-.2 0-.1-.1-.2-.2m-2-.1c0-.1-.2-.2-.3-.2 0 .1 0 .1-.2.2l.2.1s.1.1.1.2c.1.2.1.2.3.2 0-.1 0-.1.2-.1 0-.1 0-.1-.1-.2l-.2-.2m-.5-.5c-.1-.2-.1-.2-.2-.2v.1c-.1.1-.1.1-.1.2h.30000000000000004v.1h.1s0-.1-.1-.2m.6-1.4h-.1l.2.1-.1-.1m3.9 0c0-.1-.1-.1 0 0h-.1c.1-.1.1-.1.1 0m.8-1.8l-.5.2c.1 0 .1.1.2.2h.1v-.1h.1v-.1c0-.1 0-.1.1-.2m-21.4 8.1h-.1s-.1 0-.1.1c0 0-.1.1-.1.2l.3-.1v-.2m.9-5.5-4.7 2.1c-.1-.1-.1-.1-.2 0l.1-.3-.1-.1v-.2l-.1.1v-.30000000000000004l-.1.1c-.1.2-.3.5-.3.6v.1l-.2.2v.1l.2-.1c0 .1 0 .1-.1.2 0 0 .1 0 .1-.1l.2-.2.1-.1c0-.1 0-.1.1-.2v.2h.2c0 .1 0 .1.1 0m1.5-2.2c-.1 0-.2 0-.3.2l-.1.2.2-.2c.1 0 .1 0 .2-.2m-1.7.4c.2-.4.2-.4.2-.5l-.1.1c-.1.1-.2.2-.2.3v.2c0 .1.1-.1.1-.1m34.5 16.4s.1-.4 0-1c-.1.2-.1.3-.1.5v-.1.2.1.2c-.2.3-.2.3-.2.4 0 0 0 .1-.1.1l-.1.1c-.2.5-.2.6-.2.8 0 .3-.3.9-.3.9-.1.2-.2.4-.2.6l-.1.6v.2c.6-.4 1.3-3.2 1.3-3.3-.2 0-.2-.3 0-.3-.1.1-.1.1-.1.2 0-.1 0-.1.1-.2m-22.5 7.6l.1-.1-.1.1m-5.5-1.7s-.1.1-.2.1h.1v.1l-.1.1.2-.1-.1-.1.1-.1m-4.3-2.5c-.2-.1-.4-.1-.4-.1v.1s.2.1.3.1v-.1h.1m2.4-1.1c-.1-.1-.1 0-.4 0l.1.1.2-.1h.1m-.8.5v-.4c0-.1-.3-.1-.5-.2h-.30000000000000004l-.1.1h-.1c-.1 0-.2 0-.2.1h.2l.1.1.1.1c-.1.1-.3.2-.4.2v.1l.2.1v-.1h.1c.1 0 .1 0 .3-.1l.2.1v-.3c.1.1.1.1.2 0 0-.1 0-.1.1-.1 0-.1 0-.1.2 0m-1.6-.1c-.1-.1-.2-.1-.4-.1v-.1h-.5c-.1-.1-.1-.1-.2-.1h-.1c-.2 0-.2 0-.4-.1-.2 0-.3 0-.4.1-.2.1-.2.1-.3.4l.1.1v.1c.1 0 .1-.1.1-.2l.1-.1c0-.1 0-.2.1-.2h.1l-.1.1h.30000000000000004l.3.1h.1c.1 0 .1-.1.3.2h.3v.3l.2-.1.3-.1c0-.1 0-.2.1-.3m-2.2-5.6l-.1-.1c.1 0 .1.1.1.1m-.1-.2 0 0 0 0 0-.1 3.2-5.2l-.1-.1-.1.1c0 .1 0 .1-.1.1 0-.1 0-.1.1-.2s.1-.2.1-.3h-.1l-.1.3v.2c0 .1.1.2.2.1 0 0 .1-.1.1-.2m-5.7 11.8c0-.1-.1-.2-.2-.3v.1s-.2-.5-.5-1.2l.2.5c.3.9.5 1.2.5 1.2v-.3"/><path d="M33.4 93.1v-.4l-.1.1v.3zm.5-1.7h.1-.1zm-.2.7zm.2-.7l-.1.1.1-.1zm.1-.1zm-3.2 3.5zm.6-2.2zm-1.1 1c.3-.2.5-.4.6-.5h-.1l.3-.2c.1-.1.1-.1.2-.1h.1v-.1c-.2.1-.3.3-.5.3.1-.1.2-.1.2-.2l-.3.2c-.3.3-.4.3-.4.4-.1.1-.1.1-.1.2zm.5 1.2zm2.6-2.1l.1-.1s0 .1-.1.1zm-.9-.6s-.9.5-1.1.7v.2h.2l.1-.1-.1.1h.2l.1-.1h.1c0-.5.3-.6.5-.8l.2-.1c-.1.1-.1.1-.2.1.2-.1.3-.2.4-.2-.2.1-.3.1-.5.3l.1-.1zm.6-.3zm0 0h-.2c.1.1.1.1.2 0zm1.8-.8zm.4 0c-.1 0-.2 0-.3.1h.1c0-.1.1-.1.2-.1zm-.4 0zm.2 3.1zm-.2-3zm-3.5 1.6zm.3-.2c-.1 0-.2.1-.3.2.1 0 .1 0 .2-.1l.1-.1zm-.3.2zm-.1.2l-.1.1s-.1 0-.1.1l.1-.1c.1 0 .2 0 .1-.1zm.3-.4l.1-.1-.3.2.2-.1zm-2.3 1.8zm1.9-1.6l.2-.1-.2.1zm-1.9 1.6zm-3.9 17zm16.6-12.6zm12.2-2.7c-.1 0 .1.3.2.4h-.1c0 .1.8 1 1.1.5 0 0-.5-.7-.7-.7h-.1v-.2h-.1c-.2-.1-.2-.2-.3-.3h.1c0-.1 0-.2-.4-.4l.2.2c-.2-.2-.4-.4-.7-.5-.3-.2-.4-.3-.5-.3h.1c-.1-.1-.1-.1-.2-.1v-.1h.2l-.5-.4h-.30000000000000004s.1.2.1.4l-.1.1.2.2.1.2c.1 0 .2.1.3.2l-.1-.1c.2.1.2.1 1.5.9z" fill="none"/><path fill="#E5EBED" d="M31.6 92.5l-.2.1.2-.1zm-.9 1.9zm3.2-3h-.1.1l-.1.1.1-.1zm-3.1 2.5zm.4-.8l.1-.1.1-.1v-.2h-.1c-.1.1-.1.1-.2.1l-.3.2h.1c-.1.1-.3.3-.6.5.1 0 .2.1.4-.1l.4-.3h.1zm-1 .3s-.1.1-.5.3l.2-.2-.1.1c.1.1.2 0 .4-.2l-.1.1.1-.1zm-.5.3zm1.5-.6zm-.1.1zm0 0zm0 0zm.2-.1zm0 0zm2.3-1.6zm-3 3.1c0-.1-.1 0 0 0zm.1.2zm0 .1zm-.6.3h.1-.1c.1 0 .1.1 0 0h.30000000000000004l.1-.1v-.2c-.1 0-.2.1-.1.1-.2.1-.2.1-.3.2zm1.1-2.1zm2.2-1.5z"/><path d="M31.1 93.2" fill="none"/><path fill="#E5EBED" d="M26.5 96.6l-.3.4.2-.2-.1.1c.1 0 .1 0 .2-.3.1 0 .2-.1.2-.1l.2-.2.4-.4v-.1l-.1.1.1-.1h-.1l-.2.2-.2.2.1-.2c-.3.4-.3.4-.4.6zm1-.9l-.5.5s-.4.4-.4.5l.3-.3h.1c.1-.2.6-.7.5-.7h.1-.1zm-1 .9l-.1.1.1-.1zm1.1-1.2c.1-.1.3-.2.4-.4.1 0 .1-.1.2-.2l-.2.3c.1-.1.1-.1.6-.5l-.2.2c-.1.1-.3.2-.4.4l-.2.1-.3.3.1-.2zm1.6-1.3l-.3.2.3-.2zm-4.3 4.4zm6.8-6l-.1.1-.2.1h.1-.1l.3-.2c0 .1 0 .1-.1.1-.1.1-.1.1-.2.1v.1c.2-.1 1.1-.7 1.1-.7l-.1.1c.1-.1.3-.2.5-.3l.1-.1c-.1 0-.2.1-.4.2l.2-.1c-.2.1-.5.2-.6.3l.2-.1-.3.1h.1c-.1.1-.1.1-.8.4l.3-.1zm-3.2 2.1l-.3.3c.1-.1.2-.1.3-.3l-.3.3-.1.1-.1.1.1-.1-.1.1-.2.2h.1l.4-.4c.3-.3.3-.3.2-.3l-.1.1c.1 0 .1-.1.1-.1zm.1 0l.2-.1.1-.1-.1.1c-.1 0-.2.1-.2.1zm-1.2 1zm-2.3 2.7c.1-.1.2-.1.3-.3l-.1.1c0-.1.1-.2.1-.2l.1-.1v.1l.6-.9.7-.8c-.2.2-.4.5-.7.7l.5-.6c-.2.3-.2.3-1.1 1.2l-.6.9c.1-.1.2-.3.4-.4l-.2.3zm5.6-5.2l.3-.2c-.1.1-.2.1-.2.2l.5-.3-.2.1.2-.1h-.1.1l-.3.2h.1-.2l.2-.1-.2.1-.2.1-.1.1-.1.1-.1.1-.3.2.2-.1-.1.1c.2-.2.2-.3.5-.5zm-2.2 1.8l-.1.1s.1-.1.1-.2l.3-.2.1-.1-.9.8.1-.1-.1.1.1-.1c.1-.1.1-.1.2-.1l-.2.2s.2-.1.2-.2v.1l.1-.1.1-.2c0 .2-.1.2-.1.3 0 0 .1 0 .2-.1l.3-.3v-.2l-.4.3zm.5-.5c.1.1.1-.1.2-.1-.1.1-.1.3-.1.3v.2l.1-.3v-.1c.1 0 .2-.1.3-.2h-.1c.1-.1.1-.1.2-.1h.1s.2-.1.4-.3h-.1l.1-.1s-.1 0-.4.3c-.1.1-.2.1-.2.2l.1-.2h-.1l.1-.2-.2.2c-.4.3-.4.3-.5.4 0 .1 0 .1.1 0zm.3-.1zm0 0zm-.5 3.3l-.1-.1c-.1.1-.1.1-.2.1v-.1l-.3.1.1-.1c0-.1 0-.2-.1-.2s-.3.1-.3.1v-.1l-.1-.1.1-.1v-.1l.2-.1v-.1h-.1c0-.1.2-.1.2-.3l-.2.2c.1-.1.3-.2.3-.3l-.2.1.1-.2-.2.1.2-.2-.1-.1c-.1.1-.1.2-.2.2l.1-.2s-.1.1-.2.1c0-.1.2-.2.2-.2l.1-.2c-.1 0-.1 0-.5.4l.1-.2c-.1 0-.1.1-.2.2.3-.4.4-.5.4-.6-.1.1-.4.3-.4.3v.1c-.2.1-.2.1-.3.4-.1 0-.2.1-.2.3 0 .1-.1.3-.3.3l.1-.1c.2-.4.3-.5.9-1h-.1c-.4.3-.8.8-1.1 1.1h.1l-.3.4c.1 0 .1 0 .1-.1l-.1.1h.1l.1-.1v.1l.1-.2s0 .1.1.1.1-.1.2-.2v-.2h.1c0 .1-.1.3-.1.3v.2c-.1.1-.2.1-.2.2l.1-.1.1-.1c-.1.2-.1.2 0 .2 0 0 .1 0-.1.4l-.5.6c-.1.1 0 .2 0 .3-.3.1-.3.2-.4.3v-.1c-.2-.1-.4.3-.4.4.2.1.2 0 .4-.2h.1l.1-.2h.2v.3h.1l-.1.2c0 .1.1.1.1.1h.2v.1h.5c0-.2 0-.3-.2-.4-.1-.1-.1-.1-.1-.2h.2v-.1c.1.2.1.2.3.2.1.1.1.1.1.2v-.6000000000000001c0 .1 0 .1.1.2v-.3c-.1-.1 0-.1 0-.2-.1 0-.1-.1-.1-.1l-.1.1v-.3h-.1v-.2s0 .1.1.1.1 0 .1-.1 0-.1.1-.3c.1 0 .1.2.2.1-.1.1-.1.1 0 .2l.1-.1c0 .1 0 .2.1.1 0-.2.1-.3.1-.4 0 .1 0 .1.1.1l.1-.2c0-.1-.1-.1-.1-.1l.7.1zm1-4c-.1 0-.4.3-.4.3s.1 0 .2-.2c.2 0 .2-.1.2-.1zm3.1-1.7l.2-.1-.2.1zm-3.5 2c-.1.1-.2.1-.2.2l.1-.1.9-.6-.2.1c-.1.1-.2.2-.4.3 0-.1-.2.1-.2.1zm8.8-3.5l.1.1-.1-.1zm.1.1zm.9-.4zm-.4.1l-.4.1c.3 0 .5-.1.7-.2-.1.1-.2.1-.3.1zm-4.1 1.1l.3.1-.2-.2s0-.1.1-.1c-.1.1-.1.2-.2.2zm.1-.2l.1-.1-.1.1.1-.1c-.1 0-.1 0-.3.1h.2zm4.9-1h.5-.4-.1-.2-.2l-.2.1h.3c.1-.1.1-.1.3-.1zm-1.6.5l-.3.2c.1 0 .2-.1.3-.2zm-3.2.4c.1 0 .3-.1.3-.1 0 .1-.1.1-.3.1h.2c.2 0 .3 0 .5-.1h-.2.2.1.1.1.1c.1 0 .3 0 .4-.1h-.8l-.4.1h.1l-.4.1.2-.1h.30000000000000004c-.2 0-.2 0-.4.1h-.1zm3.2-.4l.1-.1s-.1 0-.1.1zm.2-.3h.1-.1zm1.8-.2h1c.2-.1.5 0 .7 0h-.1.1c-.3-.1-1.7-.1-1.7 0zm-5.2 1zm13.6 37.5zm-4.6.9h-.5.5zm-10.3-37.6zm0 0z"/><path d="M33.8 92.2" fill="none"/><path fill="#E5EBED" d="M33.8 91.8zm0 .4z"/><path d="M34 91.4" fill="none"/><path fill="#E5EBED" d="M31.3 98zm0 0zm2.7-6.6zm0-.1zm-.2.5zm.1.5c-.1 0-.2 0-.2.1 0-.1.1-.1.2-.1zm-.1-.3zm-.1-.3zm0 .5l-.1.1.1-.1zm0-.3zm.3-.5zm0-.1zm-.2.9zm0 0zm-.7-.4c-.1.1-.1.1-.2.1l-.3.2h.1l-.2.1-.6.3h-.1l-.1.1h-.2l.1-.1-.1.1h-.2c0 .1 0 .2-.1.2l-.2.4-.1.1-.1.1h.1v.1l-.2.2v.1c0 .1-.1.1-.2.1l-.1.1h.1c-.1.1-.2.1-.2.2.1 0 .1 0 .3-.2l.1-.1-.1.1s.1 0 .2-.1l-.1.1.1-.1-.2.2s.1 0 .1-.1h-.30000000000000004.1.1c0 .1 0 .1-.1.1-.1-.1-.3.1-.3.1v.1h.4l.1-.1v.1l-.1.1-.1.1.1-.1-.2.1-.1.1h.1c-.1.1-.3.2-.5.3.1 0 .3-.2.3-.2h.1l-.1.1h.1l-.4.1h.1c-.2 0-.3.2-.3.3l.3-.3c.1 0 .1 0 .1-.1h.1l-.1.1-.2 1.1c.2 0 .3-.1.4-.2-.2 0-.3.1-.4.2l.2-.1c0 .1 0 .1-.2.2h.1l-.1.1c-.1 0-.1 0-.1.1v.1c.1 0 .4-.3.4-.4.1-.1.1.2.3 0v.2c-.1 0-.3-.1-.3 0h-.1c-.1.1-.3.2-.3.3l.1-.1-.1.1.1-.1v.1-.1c0 .1 0 .1-.1.2h.2v.1h.1c-.1 0-.1.1-.2.3l.2-.3c0-.1 0-.2.1-.3v.1h.1v.1h.1c-.1 0-.1 0-.2-.1 0 0-.1 0-.1.1s-.2.2-.2.2l.3-.2-.3.3-.1.1v.1l.2-.1-.2.2.2-.1c0 .1 0 .1-.1.2h.1v.1c.1 0 .1-.1.2-.2 0 .1-.1.2-.2.3h.2l-.1.1c.1 0 .1 0 .1-.1l.1.5.2-.1-.1.2-.1.1s.1 0 .1-.1l.1-.1-.1.1h.2v.1c0-.1 0-.1.1-.1v.1l-.1.1c.1 0 .1 0 .2-.1.1 0 .1 0 .1-.1l.2.1v.2s0-.3.1-.3c0-.1 0-.2.1-.2l-.1.1.1-.2h.1s0 .2-.1.2c0 0 0-.1.1-.2v.1c.1 0 .1-.1.1-.1v.1c0 .1 0 .1-.1.2.1-.1.1-.1.2-.1l.2-.2.2-.1h-.1l-.1.1.3-.3-.1.1h-.1l.1-.1h-.1l.1-.1v-.1h-.1s0-.1.1-.1l.1-.2h-.1c.1 0 .1-.1.1-.1l-.1-.1h-.2c.1 0 .1 0 .2-.1 0 0-.2 0-.1-.1l.1-.1-.1-.1h.2-.1-.1c.1 0 .1 0 .2-.1-.1 0-.1.1-.2 0 .1 0 .2 0 .2-.1h-.2l.2-.2c0-.1 0-.1-.2-.1l.2-.3h-.1l.1-.1h.1v-.1h.1l.2-.2h-.1l.1-.1v-.1h.1v.30000000000000004-.1l.1-.1c0-.1 0-.1.1-.1s.1 0 .1-.2h-.1c.1-.1.1-.1.2-.1.1-.1.1-.3.1-.3v-.1l.1-.4h-.2c.1.1.3-.1.3-.1h.1v-.1c.1 0 .1 0 .4-.4v-.1l.1-.1.1-.1v-.1c-.1.1-.1.1-.3.2l.1-.1h-.1c0-.1.2-.2.2-.2-.1 0-.3.2-.3.2l.1-.1.1-.1c.1-.1.1-.1.1-.2h.4c.1 0 .1-.1.1-.1h-.2.1l-.1-.1v.1-.1l-.2.1v-.1h-.1s0 .1-.1.1c.1 0 .1 0 .1-.1-.1 0-.1 0-.2.1v-.1c0-.1.1-.1.1-.1.1 0 .2-.1.2-.1 0-.1 0-.1.1-.1h-.1l.2-.1-.1.1v.2-.1-.1-.1l.1-.1.1-.1h-.1c0-.1.2-.2.2-.2h-.1l.1-.1h-.1.1l.1-.1h-.4c-.1 0-.2.1-.2.1l.1-.1-.3.1h.1l.1-.1-.1.1-.1.1h.1l-.7.2v-.1.1zm.6.3zm.2-.7l-.2.1.2-.1-.1.1c0-.1.1-.1.1-.1zm-.3 1.2c-.1.1-.1.2-.1.2v.2-.4h.1l-.1.1s0-.1.1-.1zm.7 1.6h-.2s.1 0 .1.1l-.2.1.1.1-.1.1s0 .1.2 0c.1-.1.1-.1.3-.1.1.2-.3.1-.3.3 0 0 .1 0 .2-.1h.2l-.1.2h.1l.3-.1h.4c.1 0 .1-.1.1-.2l.2-.1.1-.2c.1 0 .2 0 .1-.2l.1-.1v-.1c0-.1-.1-.1-.2-.1-.1.1-.1 0-.1-.1h-.2l-.1.1-.1.2v-.30000000000000004.1s-.1.1-.2.1l.1.1h-.1s-.1 0-.1.1v.1c-.1.1-.2-.1-.2-.1v.2l-.1.2c-.3-.2-.3-.2-.3-.3zm.8-.1zm3.9 1.9zm1.9.2l-.1.1v-.1l-.2-.2-.1-.1-.3-.1h-.1l-.2-.1c-.2-.2-.4-.1-.4-.1-.1 0-.2.2-.3.1.1 0 .1 0 .2-.2h-.1c.2-.1 0-.4 0-.4-.2-.1-.3.2-.5.2l.1-.3s-.1-.1-.2 0-.1.1-.3.1c0 .1 0 .1.1.1l-.1.1.1.1-.1.1h.1v.1s.1 0 .1.1v.2c.1 0 .1 0 .1-.1h.1c0 .2 0 .2.1.2.1-.1.1-.1.1-.2l.1.1v.1l.1.1v.2h.1c.1 0 .2-.1.2-.1h.1c0 .2 0 .2.1.2h.1c.1.2.1.2.2.3-.2.1-.3.2-.3.3l.1.1c0 .1-.1.2-.2.3h.6l.1-.1v.2c-.1 0-.1 0-.2.1l-.1-.4s0 .2-.2.4h.2c0-.1.1-.2.2-.2.2 0 .2 0 .1-.1.1-.1.1-.1.4-.1l.2-.1.3-.1.2-.1s0-.1.1-.1c0 0-.1 0-.3.1.1-.1.2-.3.2-.3 0-.5-.3-.5-.5-.4zm-2.5 1.3c.1 0 .1 0 .2.1l.3-.2c.1-.1.1-.1.1-.2l.2-.1.1-.1v-.3l-.3-.3c.1-.1.1-.1.1-.2-.2-.2-.3-.3-.5-.1h-.1c-.1.1-.1.1-.1.2-.1 0-.1 0-.1.1s0 .1-.1.1c-.2.1-.2.1-.3.1v.1h.1v.1h-.1v.1c.1 0 .3 0 .3-.1-.1.1-.1.1-.1.2v.1l.1-.1c0 .1 0 .1-.1.1v.1s-.1 0-.1.1h.1l.3.2zm-3.3-3.7zm6.7.5l.1.1v-.1c.1-.1.2-.1.3-.1v-.1l-.1-.1s-.1 0-.1.1v.2h-.2zm1 .1v.2c.1.1.1.1.2 0h.1v-.1h-.1v-.1h-.2l.1-.1s0 .1.1.1h-.2zm-12.7 10.5v.1h.1v-.4h-.1v-.1h-.1s0 .1-.1.1c0 0 0-.1-.1-.1l.2-.2-.1.1-.1-.1.1-.2h-.3c0 .1-.1.2-.3.1l.1-.2h-.1c-.1.1-.1.2-.2.2 0-.2.1-.4.2-.6l-.3.1c-.1.3-.2.5-.2.7l.1.1-.1.1v.1h.1c-.1.1-.2.2-.2.3v.2c.2-.1.2-.1.5-.2.1 0 .2 0 .2-.2h.1s.1 0 .1-.1h.2s-.3.3-.2.4h.1s.2-.3.3-.5h.1c.1.1 0 .2 0 .2-.1.2-.1.2 0 .1zm3.7-12.3l-.1.1h-.1s.1 0 .1-.1c.1.2.1.2.1 0zm25.8 12.7c-.1 0-.1 0-.4.3h-.1l-.1.2h-.1s-.1.1-.1.2c-.2-.2-.2-.2-.2-.3h-.1c.1-.2.1-.2-.9-1.2v.1c-.3-.4-1-1.3-1-1.3-.5-1-.5-1-.8-1.1l-1.9-2.1c.2.2.4.4.7.5 0-.3 0-.4-.2-.6h.1l.2.4c.2 0 1 .8 1 .8.5.6 1 1.1 1.5 1.6.4.5.4.5 1.2 1.9.2.3.3-.1.3-.1v-.1c.1-.1.1-.3.3-.4l.2-1.2s.1 0 .1-.1l-.1-.3c.1-.1 0-.4-.2-.9-.2-.7-.8-1.2-1.1-1.9l.2.8c-.1 0-.1.1-.2 0v.1h-.1l-.4-.6c0 .1 0 .1.2.5l-1.2-1.4v-.1l-.1-.1v-.2l.1.1c.1.1.2.1.2.2.1.1.1.1.9.7v-.3l.4.4c0 .1.1.1.2 0l.1.1v-.2s.2.4.4.7c-.2-.4-.4-.7-.5-1-1.1-1.8-1.1-1.8-1.8-2.6-1.4-1.6-1.4-1.6-2.2-2.2l-.8-.7-1.6-1.2-2.7-1.5c-1.9-.8-1.9-.8-2.9-1l-2-.4c-.2 0-.2.3-1 .1-.2 0-.3-.1-.3-.1l-.3-.1c.2.1.2.1.6.2l-.1.1-1-.1.6.1c.3 0 .3 0 .6.1h-.3c.1.1.1.1.7.3h-.5v.1c.2 0 .3 0 .5.1 0 0-.1.1-.9 0-.4-.1-.4-.1-1-.1l1-.1v-.1c-.8-.5-1.7 0-2.5-.1v.1h-1.2.1.2s.1 0 .1.1h-.2c.1.1.1.1.2.1l-.3-.1c0 .1.1.1.2.2h-.30000000000000004.1l.1.3-.1.1s-.1-.1-.1 0 0 .1.1.1h.1l.1.1h-.1v.1h.1-.1v.2h.1-.1l.1.1v.1l.2.1h-.1v.1h.1c-.2.1 0 .3 0 .4h-.1v.2c.7.5.6.5.6.6h.2l-.1.1v.1l-.1.1h.2-.1c0 .2 0 .2.2.2v.1h.1l.1.1h.1v.1h.1v.2h.1v-.1h.2v.1h.1-.1-.1c.1.1.7.4.8-.1v-.2h.1v-.1l-.1-.1h.2c.3.4.7.3 1.1.5v.1l.3.2.3-.1s0-.1-.1-.1c0-.2.3-.2.3-.2-.1-.2-.1-.3-.3-.5-.1-.1-.1-.1-.3-.1l.1-.1v-.30000000000000004c-.2.1-.2.1-.4.1.1-.1.3 0 .4-.2l-.7-.1c-.2-.1-.6-.4-.6-.4h.1v-.1h-.1l-.1-.5h-.2v-.1h-.1l-.1-.2h.8c0 .1 0 .1.2.4h-.1l.1.1h-.1c.4.4 1.1.6 1.3.5.2.1.2 0 .3 0h.1v-.2h.1v-.1h-.1c.1 0 .1 0 .2-.1v-.1l.5.1c-.1 0-.1.1-.2.2h.1v.1c-.3.1-.3.1-.6.3.3.3.4.2.5.1.1.1.2.2.4.2v.1h-.5l-.1.1.6.6h.1c-.1.1-.1.1-.3.2l.1.1-.1.1c-.1.1-.2-.1-.4 0l-.5.5h.1-.5l-.2.2h-.1v-.1h-.1c-.1 0-.5.1-.6-.2v-.2h.1v-.1l-.1-.1c-.1 0-.3-.1-.4 0v.1h-.1v.1h-.1v.1l.1.1.1.1h.1s.2.2.3.2v.1s.1 0 .1.1h.1c-.1 0-.1.1-.1.2-.1-.1-.1-.1-.3 0l.1.1c-.2 0-.2 0-.4.1v.1c.1.1.1.1.2.1v.1l-.1.1v-.2h-.1v.6c-.1 0-.1 0-.3.3 0 .3 0 .3-.1.5v.1c-.2.1-.2.1-.3.1-.1-.1-.1-.1-.2-.1v.1c.1 0 .1 0 .3.2h-.1c-.1.1-.1.1-.2.1l-.1-.1-.2.1-.2.2.2.1h-.1s.1 0 .1.1l.6-.1v.1h.2l.5.3v.2c0 .1 0 .1.1.2l.1.4c-.1 0-.1 0-.4.1 0 0-.1.2-.7.3 0 0-.8.2-.8.4-.2.1-.1.2-.1.2.4.1.5 1 .4 1.2 0 .1 0 .1.1.2.1 0 .1 0 .1-.1v.1h.1v.2l.1.3s.6-.5.8-.2c.1.1.2.2.3.1 0-.3.7-.6.9-.6l.1-.3.2-.2c-.1-.1-.1-.3.1-.5-.2 0-.3-.1-.3-.2l.1-.5v-.1l.4-.4-.1-.6c.2-.3.5 0 .8-.2l.4-.7h.1c.5-.2.7.3 1.1.4.3.1.6.1.9.1h.1l.1.1.1-.1.1-.1c.1 0 .1 0 .1.1h.3s.2.1.4.3c0 0-.1 0-.1.1.1.1.1.1 0 .2v-.4l-.1-.1h-.2c-.1-.1-.1-.3 0-.3s.1 0 .4.1v-.1c-.3-.1-.7 0-1-.2v-.1h-.1c-.2.1-.2.1-.3 0l-.2-.1c-.1-.1-.2-.2-.4-.2l-.4-.1-.2-.1v-.1c-.1 0-.1 0-.1-.1v-.1l.2-.2h.1v.1l.1.1h.30000000000000004c.2.1.3.2.5.2h-.1c.1.1.4.1.4.1h.3c.9.2.9.2 1 .2v.1c.2.3.2.3.3.4l.5.2h.2l-.1.1.2.1.2-.1h.3c0 .1 0 .1-.2.1l-.2.1v.1c.2.1.2.1.2.2s0 .1.1.1v-.1l.2.1c0-.1 0-.1.1-.1-.1-.1-.1-.1-.3-.2h.2v-.2l-.1-.1.1-.1.2.1-.1-.1c-.1-.1-.4-.1-.5-.1v-.1l-.1-.1c0-.1.1 0 .1 0-.4-.2-.4-.2-.4-.3v-.2c.1 0 .2 0 .2.1h.1c-.1 0-.1 0-.2-.1h.2l-.1-.1h.2l-.3-.1.1-.1c.1 0 .1 0 .1-.1.1 0 .2-.1.3 0h.2v.2c.1-.1.1-.2.1-.3v-.1c.1-.1.1-.1.2-.1v-.1h-.2c-.1 0-.2-.2-.4-.2 0-.1 0-.1-.1-.3l.1-.1c-.3-.3-.3-.4-.2-.5v-.1l-.1-.1v-.3l.1-.1v-.1h.1v.1h.4v.2h.2l.6-.2-.1-.1c-.1 0-.1 0-.2.1-.1-.1-.3-.1-.5-.2l.1-.1v-.1h.1c0-.2.3-.4.3-.4h.1c0 .1 0 .1-.1.2.2 0 .2.1.3.1v.1l.1.1v.1h.1c.4.2.9.2 1.4.4.3.2.5.5.3.6l-.5.1-.4-.1c-.1.1-.1 0-.2 0-.4.3-.4.3-.5.4l-.4.1v.1c.1.1.1.1.2 0l-.2.1h.1c-.1 0-.1 0-.2.1h.1-.2c-.1.1-.1.2 0 .4.1 0 .1 0 .2-.1v.1h.1v.1l.1.1v.1h-.1v.1h.2c.1.1.1.1.3.2h.2c0 .1 0 .1.1.1v-.1h.2c.2.1.2.1.4.1v-.1l-.1.9c.3-.1.8.2.8-.2h.2v-.1c.3.2.5.8.6 1.1.2.5.3.7.4.9l-.1-.1c-.2.3-.8 0-.9.5l-.8.1-.2-.1c-.3 0-.6-.2-.9 0-.3.2-.3.2 0 .8-.1.2-.1.2-2.9.1l-.1-.1c-.2.1-.2.1-.4-.1.1-.4.1-.4-.2-.7v-.3l-.2.1c-.2-.1-.3-.1-.3-.1-.5.3-.5.3-.6.3-.5.6-1.6.5-2 1.3-.3 0-.4.7-.8.5l-.9.1s-.1 0-.1.1c-.1.2.1.4 0 .7-.1.3-.5.5-.5.8v.7c.6.9-.6 1.4-.8 2.2 0 0-.4 1.6-.2 2.2.6-.1 1 1.7.8 2.1l-.1.1c.2 0 .3.2.4.2 0 .3 0 .7.6.5v.2c.1 0 .1 0 .2.1h.1l.7.4h.1v.1s2 1 2.5.4c.7-.8 1.4-.6 1.4-.6l1.7-1.3c.4 0 .6.2.6.2 0 .4.4.3.5.2.1-.1.3-.1.4-.3h.1l.2.1h.2v.1c.1.2.3.4.1.8l.1.1c0 .1 0 .2.1.2h-.1c0 .3 0 .3-.1.4l.2.2c.2.2.2.2.3.2 0 .1.1.1.2.2.5.3.6.3 1.1 1.3l.2 1.2-.1.1c-.3.8-.4 1.1-.4 1.7 0 .2.1.2.1.3.4.4.4.8.5 1.3 0 .3 0 .6.1.9.1.4.3.7.3 1.2 0 .2-.2.7-.2.7l.1-.1v.1c.6-.5.7-.5.8-.5l.1-.1.4-.4c.4-.4.7-1 1-1.4.1-.1.4-.5.5-1v-.1c.2-.3.6-.5.6-.9.1-.1.1-.2.2-.5 0-.2.1-.3 0-.5v-.1c1-1.4 1-1.4 1.2-2v-.1l.1-.6v-.2l-.1-2.6c0-.6.3-1.1.4-1.6.7-2.6.7-2.7.5-3.8 0-.1-.1-.5-.1-.5zm-17.5-6.6zm10.8-3.5c-.2-.2-.2-.2-.4-.2l-.1-.2-.2-.2.1-.1c0-.2-.1-.4-.1-.4h.30000000000000004l.5.4h-.2v.1c0 .1 0 .1.2.1h-.1c.1 0 .2 0 .5.3.2.1.4.3.7.5l-.2-.2c.4.2.4.3.4.4h-.1c0 .1.1.2.3.3h.1l.1.1h.1c.2 0 .7.7.7.7-.3.5-1.1-.5-1.1-.5h.1c-.1-.1-.3-.4-.3-.4h.1l-1.4-.7zm-4.7 33.5l-.3.1c-1.1.3-2.6.5-3 .4h-.8.1.1l.2-.1c-.1 0-.1 0-.6-.1l.2-.1v-.1c-.3-.1-.3-.1-1.1-.2.3-.1.3-.1.4-.1l.1-.1h.1c0-.1-.2-.3-.6-.6l-.1-.1h.1l.2.2c-.1-.1-.1-.2-.9-.9h-.1l.1-.3v-.1c0-.1 0-.1.2-.1v-.2l.5-.2c-.1-.1-.1-.1 0-.2l-.1-.1-.1-.4c0-.2-.3-.2-.2-.4l-.6-.7c-.1-.1-.1-.2-.2-.4h.1v-.2c0-.1-.2-.2 0-.3.2-.2.2-.6.1-.9 0-.1-.4-.5-.6-.5-.2-.1-.3.1-.4.1-.3 0-.6-.2-1-.2h-.1c-.1 0-.3.1-.4.2h-.5c-.1 0-.1.1-.2.3-.1-.1-.1-.2-.1-.2l-.3-.1v.1c-.1-.1-.1-.1-.5 0h-.30000000000000004l-.1.1-.1.5-.1-.1h-.2c.1 0 .2-.1.2-.2v-.30000000000000004c-.1 0-.2 0-.5.1 0 .1 0 .1.1.1l.1.1c-.1.2-.1.2-.2.2v-.2c0-.2.2-.4.1-.7-.2-.3-.6-.3-.9-.6l-1.7.1h-.1l-.5-.1v.1c-.4-.5-.6-.4-1.2-.2 0-.1 0-.2.1-.3-.1 0-.2 0-.4-.1l-.1.1-.2-.1h-.1c.1 0 .1 0 .2-.1l-.6.4s-1.2-.1-1.3-.2v.1h.1c0 .1-.2.2-.2.4.1.1.3.2.4.4v.1c-.3-.1-.3-.1-.6-.7l.1-.1v-.1h-.1l-.1.1v.2c0-.3-.5-.4-.5-.4h-.2l-.1.3c-.1 0-.1 0-.2.1-.8-.6-.8-.6-1-1l-.5-.8c0-.1-.1-.1-.2-.1l-.2.1c-.1.1-.1.1-.4.2v.1l-.1-.1c0-.2 0-.2-.2-.7v-.1l-.1-.1.1.1-.2-.4c-.1-.2 0-.5-.2-.7-.1-.1-.3.1-.4.2-.1.3.2.5.2.8v.1l.1.1h-.1c0 .1-.1.2-.1.2h-.1c-1.4-1.4-1.6-3.1-1.6-3.1l-.1-.1c.1-.6.1-.6 0-.8.2-.1.2-.1.3-.1l-.1-.1.2.1h.2v-.2s-.1-.1-.2-.1h.1v-.1h.1v-.1l.1.1h.1c.3-.1.3.1.4.1 0 0 .1-.1.1-.2h.1c.3.4.3.4.4.7 0 .1 0 .1.2.3l.4.6.1-.1v.1c-.1-.8-.9-1.4-.9-2.3 0-.7.5-1.2.7-1.7l-.1.1v-.2s-.1 0-.1-.1h.2c0-.1 0-.1.1-.2l-.1-.1v.1-.1l-.1.1.1-.1h.1l-.1-.1v-.1l-.1-.1h-.1l-.1-.1.1.1v-.2l-.1-.1h.1v-.1c-.1 0-.2-.1-.2-.1.1 0 .1 0 .2.1l-.1-.1v-.1l.1.1-.1-.3.1-.1v-.1.1.1.1h.1v.1h.1l-.1.1h.1c-.1-.2-.1-.4 0-.6v.1l.1.2s.1-.3.1-.7l-.1-.1c0-.1.1-.2.1-.2v.1c.3-.3.3-.3.5-.4v-.1h.1l.1-.1h.1l.1-.1-.1.1-.1-.2c0-.1 0-.1.1-.2-.1-.1-.1-.1 0-.4h.1v-.1c.1-.1.1-.1.2-.3v.1l.3-.3v-.2c.3-.2.3-.2.5-.5l.1-.1c0 .1-.1.2-.1.2l.3-.1-.2.1h-.1l-.2.3-.1.1.1-.1c-.1.2 0 .3.1.4 0 0 .1-.1.2-.1.1-.2.1-.2.1-.3v-.2h.1v-.1c.1-.1.1-.1.4-.3h.1v-.2h-.2l-.1.1h-.1c-.1.1-.1.1-.3 0l.1-.1c-.2 0-.3 0-.3-.3h-.1c.1-.1.1-.1.1-.3h-.1l-.1.1h-.2c.5-.4.5-.4.5-.5 0 0-.5-.4-1.5 1.4.5-1.7 1.2-2 1.9-2.2.5-.2.6-.4.7-.5v-.1c.2-.3.6-.4.8-.8l-.1-.1c0-.1.1-.5-.1-.4l-.1.1v-.2s-.1-.1-.2 0l-.5.5c.1-.4.5-.5.6-.8-.2 0-.3-.1-.5 0l-.2.1c0-.3 0-.3-.1-.4-.1-.1-.1-.2-.1-.2.2-.1.2-.1.2-.2-.1-.1-.1-.1-.2-.1 0 0 0-.1.1-.1l-.1-.3h-.1v-.1c-.1-.2-.1-.3-.3-.5v.1c0 .1-.2.2-.1.3l-.2.4v-.1c-.1.2-.1.2-.3.4 0-.1.1-.2 0-.2l-.2.2v-.2h.1l.2-.8h-.3v-.1c-.1-.1-.1-.2-.2-.2l-.3.2c-.1 0-.2-.1-.3 0-.1.1-.2.3-.2.4 0 .1 0 .1-.2.4h.1c0 .1 0 .1-.1.3l-.3.6c0 .1 0 .2.1.2.2.3-.1 1-.4 1.4-.1.1-.2.1-.2.2s.1.2.1.4v.2c0 .2 0 .2-.1.8l-.1-.1c-.1.1-.1.2-.1.2 0-.3-.3-.5-.2-.8.1-.2.1-.7.1-.7l-.4.1c-.1-.1-.2-.1-.2-.2 0-.5-.3-.4-.3-.4l-.1.1.2-.7c0-.2.4-1.1.8-1.9v-.1c.1 0 .1 0 .2-.1v-.1c-.1-.1-.1-.1-.1-.2.1 0 .1 0 .1.1l.1-.3v.1h.1l.4-.5h-.1v-.2l.1-.1v.2s.4-.4.4-.5c.1-.1.1-.1.2-.1v.1l.2-.3v.2c.4-.3.4-.8.7-1.1v.1c.1 0 .1-.1.2-.3v-.1c-.1-.2-.3.2-.3.3 0 .1-.7 1-.7 1 0-.3.3-.5.4-.9-.2.1-.2.3-.4.5.3-.4.4-.6.4-.6s0-.1.1-.2l.5-.8c-.1 0-.7.8-.8 1v-.1l-.2.2c-.1.4-.5.6-.6.9 0-.2.2-.3.3-.5h-.1l-.2.3v-.1l-.2.1c0-.1 0-.1.1-.2-.1.1-.2.2-.6.8 0-.1.1-.2.4-.6l-.2.3-1.5 2.7c-.8 1.9-.8 1.9-1 2.9l-.4 2-.1 1.1c-.1 2.1-.1 2.1-.1 3.1.2 2.1.2 2.1.4 3.1l.3 1.4v.1c.1.4 1.2 4 2.8 4.4l.1-.2c.1 0 .1.2.8.7.1 0 .1.2.1.2v-.4l.5.1v-.1l.1.1c.2.2.5.2.7.5l.1.1c0 .1 0 .1.3.3l-.1-.2c.2.1.6.4.6.4h.1l-.1-.1.2.1c.1-.1.1-.1.4 0v-.1c.1 0 .1.1.2.2l.1-.1c0-.1-.1-.1-.2-.2v-.3c.2 0 .4.1.4.1v.1l.2.1-.1.1h-.1v.1h-.1c-.1.3.1.6.2.8l.1.1-.2-.1h-.1l.2.2v.2c.6.4 1.1 1.1 1.1 1.1l-.1.1s.1.1.1.2l.1.1c0 .1 0 .2.3.5.1.2.3.2.3.4h.1l.1-.1.8.8c.9.2 1.7.7 2.6 1h.1c1.1.3 2.3.4 3.3.9 1.3.3 2.6 1 4 1.2h.5c.8.1 1.6-.1 2.4-.1h.4c.3 0 .7-.1 1.3-.3h.1c.2-.1.5-.2.5-.2h-.1.1c-.3.3-.2.3-.1.3zm-22.8-17.4zm20 18.2zm-19-21zm0-.1zm-1 2.1v.3-.3zm0 0z"/><path fill="#7D8B8C" d="M51.8 129.6l-1.8.9c-2.7 1.1-5.6 1.8-8.7 1.8-12.3 0-22.3-10-22.3-22.3 0-10.1 6.7-18.6 15.8-21.3.6-.2 1.3-.4 1.9-.5l.5 1.2c-.7.1-1.3.3-1.9.5-8.6 2.6-14.9 10.6-14.9 20.1 0 11.6 9.4 21 21 21 2.9 0 5.7-.6 8.3-1.7.6-.3 1.2-.5 1.8-.9l.3 1.2z"/><path fill="#E5EBED" d="M48 138.8c0 .4 0 .8-.1 1.1h-13.1c-.1-.3-.1-.7-.1-1.1v-.9c.4-3.1 3-5.5 6.2-5.7h.4c3.4 0 6.1 2.5 6.6 5.7v.1l.1.8z"/><path fill="#7D8B8C" d="M33.8 137.9h15.1v2h-15.1v-2z"/><path opacity=".1" fill="#5E6061" enable-background="new" d="M52.8 126.3c-3.2 2.2-7.2 3.6-11.4 3.6-11 0-20-9-20-20 0-8.2 4.9-15.2 11.9-18.3-4.3 3.7-7 9.2-7 15.3 0 11.2 9.1 20.3 20.3 20.3 2.2.1 4.2-.3 6.2-.9z"/><path opacity=".05" enable-background="new" d="M40.9 132.2v7.7h-7.1v-2h1c.4-3.1 2.9-5.5 6.1-5.7z"/><path fill="#222F33" d="M153.8 105.5v33.4c0 .5-.4 1.1-1 1.1h-24.9c-.5 0-1-.6-1-1.1v-33.4c0-.5.4-.9 1-.9h24.9c.2 0 .5 0 .6.2.2.1.4.4.4.7z"/><path fill="#F8FAFB" d="M129.2 108.2h22.3v28.8h-22.3v-28.8z"/><ellipse fill="#F3F9FB" cx="140.2" cy="138.4" rx="1" ry="1.1"/><path fill="#586E85" d="M130.5 133.8h.3v1h-.3v-1zm0-1.7h.3v1h-.3v-1zm0-1.6h.3v1h-.3v-1zm0-1.6h.3v1h-.3v-1zm0-1.7h.3v1h-.3v-1zm0-1.6h.3v1h-.3v-1zm0-1.7h.3v1h-.3v-1zm0-1.6h.3v1h-.3v-1zm0-1.6h.3v1h-.3v-1zm0-1.7h.3v1h-.3v-1zm0-1.6h.3v1h-.3v-1zm0-1.7h.3v1h-.3v-1zm0-1.6h.3v1h-.3v-1zm0-1.6h.3v1h-.3v-1zm0-1.7h.3v1h-.3v-1zm18.7 24.3h1v.3h-1v-.3zm-1.7 0h1v.3h-1v-.3zm-1.6 0h1v.3h-1v-.3zm-1.6 0h1v.3h-1v-.3zm-1.7 0h1v.3h-1v-.3zm-1.6 0h1v.3h-1v-.3zm-1.7 0h1v.3h-1v-.3zm-1.6 0h1v.3h-1v-.3zm-1.6 0h1v.3h-1v-.3zm-1.7 0h1v.3h-1v-.3zm-1.6 0h1v.3h-1v-.3zm-1.7 0h1v.3h-1v-.3z"/><path class="rightBar" fill="#FD8560" d="M144.9 128.2h3.6v6.2h-3.6v-6.2z"/><path class="middleBar" fill="#7274AD" d="M138.4 116.4h3.6v18h-3.6v-18z"/><path class="leftBar" fill="#AD72A8" d="M131.8 122.6h3.6v11.8h-3.6v-11.8z"/><path opacity=".03" enable-background="new" d="M153.4 104.8l-26.5 33.2v-32.5c0-.5.4-.9 1-.9h24.9c.2 0 .4 0 .6.2z"/></svg>