<svg xmlns="http://www.w3.org/2000/svg" viewBox="0 0 610 400"><path fill="none" d="M0 0h610v400h-610z"/>
<g>
	<g class="desk"><path fill="#B57B55" d="M594 326v74h-16v-58h-546v58h-16v-74z"/><path d="M298.263 342c1.115-5 2.118-11 2.763-16h-2.909c.587 7-.638 10.796-.73 11.102-.21.698-.944.759-1.643.548-.698-.209-1.094-.44-.885-1.138.02-.069 1.161-4.512.572-10.512h-4.107c.531 4 .881 10 .976 16h5.963zM318.535 342h3.647c-1.31-6-3.085-11-4.811-16h-1.331c.766 1 1.501 4.27 2.083 10.285.182 1.879.321 3.715.412 5.715zM302.536 342c1.302-6 2.313-12 2.978-16h-1.865c-.615 5-1.568 10-2.697 16h1.584zM328.862 342c-1.703-6-3.584-12-5.528-16h-3.172c1.71 5 3.44 10 4.709 16h3.991zM308.462 342c.154-2 .394-3.631.753-5.614 1.04-5.747 1.935-9.386 2.857-10.386h-3.922c-.649 4-1.643 10-2.921 16h3.233zM311.812 336.182c-.329 1.818-.555 3.818-.705 5.818h4.805c-.273-6-.967-12.023-1.861-14.43-.466 1.045-1.243 3.114-2.239 8.612zM367.183 342h4.554c-2.026-4-4.17-5.839-6.162-8.258-1.293-1.568-3.741-4.742-7.018-7.742h-5.194c5.114 4 9.886 10 13.82 16zM374.876 342h10.979c-6.12-5-11.997-11-17.36-16h-6.405c2.837 3 4.773 5.156 5.522 6.064 1.628 1.977 4.46 4.936 7.264 9.936zM334.689 342c-1.495-6-3.185-11-5.086-16h-3.442c1.923 4 3.775 10 5.449 16h3.079zM339.135 342c-.119-2-.052-3.005.217-4.012.674-2.522 2.339-3.746 2.526-3.839l.17-.238c.933-.31 1.929.122 2.96.122 4.906 0 10.076 3.967 14.281 7.967h4.568c-4.195-6-9.205-12-14.428-16h-16.909c1.887 5 3.557 10 5.033 16h1.582zM248.767 342c-.885-4-3.399-10-6.582-16h-3.835c1.537 5 2.237 11 2.268 16h8.149zM380.843 334.415c-1.842-3.133-3.634-6.415-5.362-8.415h-3.34c2.792 2 5.695 5.733 8.702 8.415zM257.596 342c-2.31-6-4.803-11-7.475-16h-5.024c3.197 6 5.662 12 6.389 16h6.11zM220.994 332.762c-.512-.759-1.165-1.255-1.622-1.255-.699 0-2.388 1.151-3.946 2.885-1.241 1.38-2.574 3.608-3.035 7.608h2.777c.127-1 .249-1.632.362-2.101.17-.708.886-1.481 1.592-1.311.709.171 1.145 1.389.975 2.097-.067.278-.133.315-.199 1.315h3.119c1.335-6 .527-8.425-.023-9.238zM289.658 342c-.098-6-.462-12-1.01-16h-4.613c.507 4 .924 10 1.265 16h4.358zM229.373 342h2.188c.582-6-.22-11-1.996-16h-4.079c3.277 3 5.375 8 3.887 16zM234.206 342h3.766c-.032-5-.76-11-2.365-16h-3.311c1.668 5 2.436 10 1.91 16zM282.661 342c-.342-6-.76-12-1.272-16h-4.379c.807 6 1.131 11 1.244 16h4.407zM271.022 333.242c.087-1.552-.194-4.242-.806-7.242h-3.392c.808 1 1.597 2.764 2.341 4.278.834 1.697 1.44 2.368 1.857 2.964zM275.252 342c.027-1 .043-1.612.043-2.179 0-.297.102-.232.267-.451-.176-4.283-.561-9.37-1.215-13.37h-1.463c1.71 10 .06 10.175-.681 10.509-.261.118-.517-.161-.77-.161-1.555 0-2.96-1.663-4.636-5.073-.927-1.888-1.93-3.274-2.955-5.274h-3.147c3.091 6 6.81 12 9.673 16h4.884zM267.035 342c-3.474-5-6.933-12-9.222-16h-4.717c2.64 5 5.102 10 7.385 16h6.554zM455.363 342h.965c-2.259-4-4.624-6.499-7.126-10.079-1.35-1.933-2.742-3.921-4.153-5.921h-.299c2.299 3 4.498 6.146 6.52 9.271 1.41 2.179 2.787 3.729 4.093 6.729zM560.583 342h6.558c-1.774-3-4.076-4.427-7.053-6.727-4.548-3.514-8.752-7.273-12.595-9.273h-6.875c7.19 4 14.46 10 19.965 16zM484.936 328.126c-3.352 3.885-3.837 9.874-3.765 13.874h5.064c-.068-3 .572-5.004.655-5.215.27-.677 1.036-1.346 1.715-1.074.676.269 1.006 1.537.74 2.213-.068.179-.536 1.076-.468 4.076h38.99c-10.141-5-22.919-7.929-29.602-8.963-.721-.111-1.214-1.122-1.103-1.843.111-.72.783-.708 1.506-.598 1.251.194 21.81 3.403 35.215 11.403h12.01c-7.166-9-21.371-14-34.907-16h-23.466c-.971.001-1.836 1.263-2.584 2.127zM549.221 342h7.56c-5.123-5-12.138-11-21.068-16h-12.624c10.636 3 20.714 8 26.132 16zM423.093 333.31c-.076 1.09 1.722 4.69 4.764 8.69h2.889c-.243-1-.446-1.241-.596-1.435-.445-.577-.339-1.742.239-2.188.576-.445 1.405.166 1.851.743.585.759 1.232 1.879 1.912 2.879h2.564c-4.419-4-9.576-7.98-13.294-8.345-.15-.013-.257-.349-.329-.344zM478.522 342c-.077-5 .503-11.065 4.416-15.599.123-.143.26-.401.388-.401h-7.488c-1.144 2-2.389 3.67-4.573 4.345-.475.146-.969-.117-1.486-.117-1.342 0-2.838.012-4.532-.982-1.386-.814-2.963-2.245-4.658-3.245h-7.068c4.383 5 8.634 10 12.45 16h12.551zM470.486 327.822c.928-.287 1.679-.822 2.378-1.822h-8.345c.73 0 1.423.761 2.065 1.137 1.648.968 2.963.973 3.902.685zM581.715 387.557c-1.489-.634-2.715-1.291-3.715-1.969v14.412h16v-10.298c-.56.032-1.004.05-1.562.05-3.696 0-7.245-.718-10.723-2.195zM570.461 342h7.539v40.47c1 .916 2.731 1.8 4.747 2.656 3.666 1.559 7.337 2.159 11.253 1.907v-6.034c-.403.028-.802.048-1.192.048-1 0-1.956-.093-2.856-.273-5.039-1.012-7.808-4.14-7.054-9.011 2.986-19.294-1.185-34.763-12.72-45.763h-18.143c3.023 2 6.244 4.54 9.667 7.185 3.896 3.009 6.724 5.815 8.759 8.815zM589.604 332h.019c1.058 0 2.349-1.818 3.731-4.03.212-.339.428-1.293.646-1.604v-.366h-10.303c2.071 3 4.17 6 5.907 6zM585.508 372.166c-.544 3.511 1.266 5.613 4.964 6.356 1.078.217 2.267-.065 3.528-.177v-3.501c-.693-.127-1.349-.326-1.947-.605-3.063-1.425-4.472-4.682-3.276-7.577 1.987-4.815.38-20.714-.407-26.434-.1-.723.405-1.388 1.127-1.487.723-.101 1.389.405 1.487 1.127.12.869 2.896 21.348.232 27.802-.655 1.589.165 3.346 1.95 4.176.252.117.532.215.834.293v-17.261c-.07-.617-.138-1.254-.201-1.92-.391-4.107-.272-7.811.201-11.104v-10.939c-1.416 1.629-2.851 4.084-4.347 4.084h-.053c-3.315 0-5.802-3.91-8.679-8.276-.128-.193-.261-.724-.39-.724h-6.815c10.756 12.001 14.724 27.219 11.792 46.167zM404.448 342h1.746c-1.426-5-2.458-10-2.802-16h-1.04c.034 1 .118 3.883.278 5.834.291 3.533.922 6.166 1.818 10.166zM458.723 340.134c.294.405.567.866.85 1.866h3.09c-3.921-6-8.226-11-12.552-16h-1.834c1.031 1 2.062 2.602 3.089 4.071 2.589 3.706 5.034 6.868 7.357 10.063zM397.214 342h4.511c-.839-4-1.441-6.498-1.726-9.95-.166-2.026-.255-4.05-.289-6.05h-5.578c.063 0 .121.913.19 1.381.651 4.387 1.583 8.619 2.892 14.619zM386.101 337.434c.266.213.899.423.899.633v-12.067h-8.316c2.308 3 4.758 6.704 7.231 11.253.147.271.233-.102.186.181zM343.005 336.881c-.178.125-.834.992-1.135 2.252-.153.645-.217.867-.086 2.867h13.459c-4.768-4-9.039-6.108-12.238-5.119zM394.498 342c-1.264-6-2.172-10.054-2.809-14.383-.081-.55-.146-1.617-.22-1.617h-1.469v16h4.498zM409.765 342c-1.68-5-2.834-10-3.202-16h-.531c.358 6 1.445 11 2.921 16h.812zM207.475 342h2.26c.499-5 2.173-7.814 3.727-9.542 2.16-2.401 4.533-3.591 5.909-3.591 1.528 0 2.917 1.264 3.81 2.586 1.413 2.091 1.59 5.547.553 10.547h2.971c1.765-9-1.177-13-5.219-16h-7.437c-3.211 2-5.97 8-6.574 16zM447.631 342h4.682c-1.018-2-2.103-3.506-3.259-5.295-2.476-3.828-5.037-7.705-7.608-10.705h-10.286c5.692 4 11.759 10 16.471 16zM416.13 342c-3.023-7-4.318-12-2.679-16h-4.232c.396 6 1.621 11 3.392 16h3.519zM419.049 342h5.433c-2.77-4-4.668-7.952-3.772-9.914.276-.603 1.029-1.246 2.97-1.058 4.75.465 11.666 4.972 16.97 10.972h3.683c-5.393-7-12.301-13-18.111-16h-9.793c-.041 0-.087.109-.126.171-2.08 3.32-.677 8.829 2.746 15.829zM89.925 342l.003-.278c-.161-1.197-1.092-9.722 1.88-15.722h-7.583c-.53 0-1.122.131-1.814.345-.474.146-.968.556-1.486.556-1.213 0-2.562-.9-4.059-.9h-8.974c4.337 5 8.462 10 12.067 16h9.966zM61.714 342h3.993c-1.608-3-3.449-6.114-5.506-9.295-1.508-2.332-3.05-4.705-4.605-6.705h-8.19c5.35 4 10.578 10 14.308 16zM32 355.779c-6-7.284-12.165-16.779-13.904-29.779h-.549c2.085 17 10.453 27.441 14.453 32.281v-2.502zM68.697 342h1.602c-.807-2-1.652-3.06-2.564-4.315-2.336-3.214-4.788-6.386-7.385-10.102-.441-.632-.894-1.584-1.344-1.584h-.169c1.238 1 2.44 3.508 3.58 5.271 2.226 3.444 4.373 6.73 6.28 10.73zM183.988 342h9.025c-1.661-6-4.38-12-8.169-16h-16.192c1.365 1 2.763 2.076 4.197 3.185 5.736 4.43 9.175 7.815 11.139 12.815zM119.096 342h8.647c-3.761-1-6.667-1-8.647 0zM32 345.442c-5-7.422-8.12-14.442-8.112-19.442h-3.115c1.547 11 6.227 19.009 11.227 25.686v-6.244zM16 379.472c3.705 6.424 7.714 14.528 11.845 20.528h4.155v-2.022c-6-10.743-11.805-21.052-16-30.699v12.193zM69.869 336.134c1.314 1.809 2.509 3.866 3.616 5.866h3.219c-3.709-6-7.899-11-12.203-16h-2.274c.095 0 .191-.065.286.071 2.59 3.706 5.035 6.868 7.356 10.063zM175.135 342h5.868c-1.88-4-4.946-7.001-9.769-10.727-2.445-1.889-4.786-4.273-7.03-5.273h-6.587c6.752 4 13.123 10 17.518 16zM32 362.021c-3-3.243-12.263-13.324-16-30.541v6.527c3.426 11.308 10 20.713 16 27.774v-3.76zM92.559 340.797c.015.099.018.536.01.636l-.002.567h5.448c-1.37-5-.096-8.91.025-9.215.27-.677 1.036-1.346 1.714-1.074.676.269 1.006 1.537.741 2.213-.106.276-1.172 3.076.29 8.076h13.65c2.832-4 10.546-5 21.577 0h10.539c-10.249-7-28.629-11.647-37.135-12.963-.721-.111-1.214-1.122-1.103-1.843.112-.72.784-.708 1.506-.598 1.456.225 29.077 4.403 41.117 15.403h8.721c-3.741-8-12.054-13-21.706-16h-43.181c-3.527 6.001-2.226 14.696-2.211 14.798zM162.568 342h9.089c-4.231-5-10.456-11-18.712-16h-7.878c7.861 3 14.407 8 17.501 16zM16 396.37c.458.733.921 2.63 1.389 3.63h7.32c-2.997-5-5.922-10.683-8.709-15.394v11.764zM34.568 329.318c-.15-.015-.256.323-.329.329-.1 1.453 3.115 6.353 8.195 12.353h2.813c-1.869-3-3.337-4.64-3.95-5.435-.445-.577-.339-1.742.238-2.188.577-.445 1.406.166 1.852.743 1.546 2.003 3.491 3.879 5.465 6.879h3.071c-4.914-5.999-12.407-12.196-17.355-12.681zM200.044 342c-.186-2-.373-3.968-.529-5.098-.099-.723.405-1.726 1.128-1.824.723-.101 1.388.91 1.488 1.632.034.249.287 2.29.566 5.29h2.145c.533-8 2.726-13 5.521-16h-3.567l-.058.224c-1.938 3.098-3.88 4.776-5.939 4.776h-.052c-2.399 0-4.365-3-6.358-5h-6.326c3.49 4 6.02 10 7.593 16h4.388zM32 393.018v-23.388c-5-6.108-11.75-14.215-16-24v14.779c4.021 10.122 9 21.089 16 32.609zM38.891 342c-4.29-5-8.255-11.242-7.035-13.914.275-.603 1.029-1.246 2.97-1.058 5.982.585 15.403 7.972 20.71 14.972h3.042c-4.083-6-9.739-12-15.216-16h-16.888c-.037 4 2.299 10 5.99 16h6.427zM200.751 328h.018c.822 0 1.786-1 2.824-2h-5.855c1.067 1 2.091 2 3.013 2z" fill="none"/><path opacity=".1" d="M591.216 367.67c2.664-6.454-.112-26.933-.232-27.802-.099-.722-.765-1.228-1.487-1.127-.722.1-1.227.765-1.127 1.487.787 5.72 2.395 21.619.407 26.434-1.195 2.895.213 6.152 3.276 7.577.599.279 1.254.479 1.947.605v-2.706c-.302-.078-.582-.176-.834-.293-1.785-.829-2.606-2.586-1.95-4.175zM593.799 352.958c.064.666.131 1.303.201 1.92v-13.023c-.474 3.292-.592 6.996-.201 11.103zM497.165 330.857c-.111.721.382 2.068 1.103 2.18 6.683 1.034 19.461 3.963 29.602 8.963h6.017c-13.404-8-33.964-11.378-35.215-11.571-.724-.111-1.396-.291-1.507.428zM489.347 337.756c.266-.676-.064-1.776-.74-2.045-.679-.272-1.445.565-1.715 1.243-.083.21-.724 2.046-.655 5.046h2.643c-.07-3 .398-4.065.467-4.244zM545.896 342h3.325c-5.418-8-15.496-13-26.133-16h-12.1c13.536 2 27.741 7 34.908 16zM478.522 342h2.649c-.072-4 .412-9.989 3.765-13.874.747-.864 1.612-2.126 2.586-2.126h-4.196c-.128 0-.265.259-.388.401-3.913 4.534-4.493 10.599-4.416 15.599zM465.97 342c-3.816-6-8.067-11-12.45-16h-3.408c4.326 5 8.631 10 12.552 16h3.306zM469.778 329.891c.518 0 1.012.6 1.486.454 2.185-.675 3.43-2.345 4.573-4.345h-2.974c-.699 1-1.45 1.535-2.378 1.822-.939.288-2.254.283-3.902-.686-.642-.376-1.334-1.137-2.065-1.137h-3.932c1.695 1 3.272 2.263 4.658 3.076 1.696.996 3.192.816 4.534.816zM401.725 342h2.724c-.896-4-1.527-6.633-1.817-10.166-.16-1.951-.244-4.834-.278-5.834h-2.642c.034 2 .123 4.023.289 6.05.282 3.452.885 5.95 1.724 9.95zM408.952 342c-1.475-5-2.562-10-2.921-16h-2.639c.344 6 1.376 11 2.802 16h2.758zM444.333 342h3.298c-4.712-6-10.779-12-16.471-16h-4.939c5.811 3 12.719 9 18.112 16zM452.312 342h3.051c-1.307-3-2.684-4.55-4.094-6.729-2.022-3.126-4.221-6.271-6.52-9.271h-3.305c2.571 3 5.133 6.877 7.608 10.705 1.158 1.789 2.243 3.295 3.26 5.295zM416.13 342h2.919c-3.423-7-4.826-12.509-2.746-15.829.039-.061.085-.171.126-.171h-2.977c-1.641 4-.346 9 2.678 16zM412.611 342c-1.771-5-2.996-10-3.392-16h-2.657c.368 6 1.522 11 3.202 16h2.847zM420.709 332.086c-.896 1.962 1.003 5.914 3.772 9.914h3.375c-3.042-4-4.84-7.6-4.764-8.69.072-.006.18.33.329.345 3.718.364 8.875 4.345 13.294 8.345h3.935c-5.305-6-12.221-10.507-16.972-10.972-1.94-.188-2.693.455-2.969 1.058zM394.498 342h2.716c-1.309-6-2.241-10.232-2.892-14.619-.069-.468-.127-1.381-.19-1.381h-2.663c.074 0 .139 1.067.22 1.617.637 4.329 1.545 8.383 2.809 14.383zM430.389 338.041c-.578.445-.685 1.947-.239 2.524.149.193.353.435.596 1.435h3.406c-.68-1-1.327-2.289-1.912-3.047-.446-.578-1.275-1.357-1.851-.912zM456.328 342h3.245c-.283-1-.557-1.461-.85-1.866-2.322-3.194-4.768-6.357-7.357-10.062-1.027-1.47-2.058-3.071-3.089-4.071h-3.228c1.411 2 2.803 3.988 4.153 5.921 2.502 3.579 4.867 6.078 7.126 10.078zM582.898 371.763c-.754 4.871 2.015 8.336 7.054 9.348.899.181 1.856.104 2.856.104.391 0 .789-.188 1.192-.216v-2.653c-1.262.111-2.45.057-3.528-.16-3.698-.742-5.508-2.509-4.964-6.02 2.932-18.948-1.036-34.166-11.791-46.166h-3.538c11.534 11 15.706 26.469 12.719 45.763zM582.747 385.126c-2.016-.857-3.747-1.74-4.747-2.656v3.118c1 .678 2.226 1.335 3.715 1.969 3.479 1.478 7.027 2.195 10.723 2.195.559 0 1.003-.017 1.562-.05v-2.669c-3.916.252-7.587-.348-11.253-1.907zM560.583 342c-5.505-6-12.775-12-19.965-16h-4.906c8.931 5 15.945 11 21.068 16h3.803zM589.601 335h.053c1.496 0 2.931-2.455 4.347-4.084v-4.55c-.219.311-.435 1.265-.646 1.604-1.383 2.212-2.674 4.03-3.731 4.03h-.019c-1.736 0-3.836-3-5.906-6h-3.165c.129 0 .262.53.39.724 2.875 4.366 5.361 8.276 8.677 8.276zM567.141 342h3.32c-2.035-3-4.863-5.806-8.759-8.815-3.423-2.645-6.643-5.185-9.667-7.185h-4.542c3.843 2 8.047 5.76 12.595 9.273 2.977 2.3 5.278 3.727 7.053 6.727zM342.048 333.743l-.17.069c-.188.093-1.853 1.654-2.526 4.176-.269 1.007-.336 2.012-.217 4.012h2.649c-.131-2-.067-2.56.086-3.204.301-1.26.957-1.453 1.135-1.578 3.199-.989 7.47.782 12.238 4.782h4.046c-4.205-4-9.375-8.051-14.281-8.051-1.031 0-2.028-.516-2.96-.206zM308.462 342h2.646c.149-2 .376-4 .705-5.818.995-5.498 1.772-7.566 2.238-8.611.895 2.406 1.588 8.43 1.861 14.43h2.623c-.091-2-.23-3.836-.412-5.715-.582-6.016-1.317-9.285-2.083-10.285h-3.969c-.922 1-1.816 4.639-2.857 10.386-.359 1.982-.598 3.613-.752 5.613zM324.871 342c-1.269-6-2.999-11-4.709-16h-2.791c1.727 5 3.502 10 4.811 16h2.689zM223.182 331.284c-.893-1.321-2.282-2.417-3.81-2.417-1.376 0-3.749 1.357-5.909 3.76-1.554 1.728-3.228 4.373-3.727 9.373h2.655c.46-4 1.794-6.397 3.035-7.776 1.559-1.733 3.247-2.717 3.946-2.717.458 0 1.11.664 1.622 1.423.55.814 1.357 3.07.023 9.07h2.718c1.037-5 .859-8.624-.553-10.716zM226.706 342h2.667c1.488-8-.61-13-3.886-16h-4c4.041 3 6.983 7 5.219 16zM207.475 342c.604-8 3.363-14 6.575-16h-3.686c-2.795 3-4.989 8-5.521 16h2.632zM217.122 338.252c-.706-.17-1.421.94-1.592 1.647-.113.469-.235 1.101-.362 2.101h2.729c.066-1 .132-1.204.199-1.482.172-.709-.265-2.095-.974-2.266zM200.643 334.741c-.722.1-1.227 1.439-1.128 2.161.156 1.13.343 3.098.529 5.098h2.653c-.28-3-.532-5.209-.566-5.458-.1-.722-.765-1.901-1.488-1.801zM114.434 342h4.662c1.98-1 4.887-1 8.647 0h8.268c-11.031-5-18.745-4-21.577 0zM108.312 326.857c-.111.721.382 2.068 1.103 2.18 8.505 1.316 26.886 5.963 37.135 12.963h4.385c-12.04-11-39.661-15.346-41.117-15.571-.723-.111-1.395-.291-1.506.428zM100.494 333.756c.265-.676-.065-1.776-.741-2.045-.678-.272-1.445.565-1.714 1.243-.121.304-1.395 4.046-.025 9.046h2.77c-1.462-5-.396-7.968-.29-8.244zM159.656 342h2.913c-3.094-8-9.641-13-17.502-16h-7.116c9.651 3 17.964 8 21.705 16zM89.928 341.722l-.003.278h2.642l.002-.904-.01.038c-.015-.103-1.316-9.134 2.211-15.134h-2.962c-2.972 6-2.04 14.524-1.88 15.722zM32 365.781c-6-7.061-12.574-16.467-16-27.774v7.623c4.25 9.785 11 17.892 16 24v-3.849zM32 362.021v-3.739c-4-4.841-12.368-15.282-14.454-32.282h-1.546v5.479c3.737 17.217 13 27.298 16 30.542zM16 400h1.389c-.468-1-.931-2.897-1.389-3.63v3.63zM32 351.686c-5-6.677-9.68-14.686-11.227-25.686h-2.677c1.739 13 7.904 22.495 13.904 29.779v-4.093zM16 367.279c4.195 9.647 10 19.956 16 30.699v-4.96c-7-11.521-11.979-22.487-16-32.609v6.87zM16 384.606c2.787 4.711 5.712 10.394 8.709 15.394h3.136c-4.131-6-8.14-14.104-11.845-20.528v5.134zM305.228 342c1.278-6 2.272-12 2.921-16h-2.636c-.665 4-1.676 10-2.978 16h2.693zM285.3 342c-.34-6-.757-12-1.265-16h-2.646c.512 4 .93 10 1.272 16h2.639zM275.295 339.821c0 .566-.016 1.179-.043 2.179h3.002c-.113-5-.437-10-1.244-16h-2.663c.655 4 1.039 9.087 1.215 13.37-.165.22-.267.154-.267.451zM300.952 342c1.129-6 2.082-11 2.697-16h-2.624c-.645 5-1.648 11-2.763 16h2.69zM294.858 336.343c-.21.698.186 1.098.885 1.307.699.211 1.434.319 1.643-.38.092-.306 1.317-4.27.73-11.27h-2.686c.589 6-.552 10.274-.572 10.343zM181.003 342h2.985c-1.964-5-5.404-8.385-11.14-12.815-1.434-1.108-2.832-2.185-4.197-3.185h-4.448c2.245 1 4.585 3.385 7.03 5.273 4.824 3.726 7.891 6.727 9.77 10.727zM270.368 342c-2.864-4-6.583-10-9.673-16h-2.882c2.29 4 5.749 11 9.222 16h3.333zM292.299 342c-.095-6-.445-12-.976-16h-2.674c.548 4 .912 10 1.01 16h2.64zM271.432 336.011c.253 0 .509.616.77.498.741-.334 2.391-.509.681-10.509h-2.668c.612 3 .893 5.69.806 7.242-.417-.596-1.023-1.268-1.857-2.964-.744-1.515-1.533-3.278-2.341-4.278h-2.982c1.025 2 2.027 3.219 2.955 5.105 1.676 3.411 3.081 4.906 4.636 4.906zM200.748 331h.052c2.059 0 4.002-1.679 5.939-4.776l.058-.224h-3.203c-1.038 1-2.002 2-2.824 2h-.018c-.921 0-1.945-1-3.012-2h-3.349c1.992 2 3.958 5 6.357 5zM240.618 342c-.03-5-.731-11-2.268-16h-2.743c1.605 5 2.333 11 2.365 16h2.646zM231.561 342h2.645c.525-6-.242-11-1.911-16h-2.73c1.776 5 2.578 10 1.996 16zM260.481 342c-2.283-6-4.745-11-7.385-16h-2.975c2.672 5 5.165 10 7.475 16h2.885zM251.485 342c-.727-4-3.191-10-6.389-16h-2.912c3.183 6 5.697 12 6.582 16h2.719zM32 342h.464c-3.691-6-6.027-12-5.99-16h-2.586c-.008 5 3.112 12.02 8.112 19.442v-3.442zM195.657 342c-1.573-6-4.103-12-7.593-16h-3.22c3.79 4 6.508 10 8.169 16h2.644zM67.734 337.685c.912 1.255 1.758 2.315 2.564 4.315h3.187c-1.106-2-2.301-4.058-3.616-5.866-2.321-3.194-4.767-6.357-7.356-10.062-.095-.136-.19-.071-.286-.071h-3.222c.449 0 .902.952 1.344 1.584 2.597 3.715 5.049 6.887 7.385 10.1zM34.826 326.691c-1.941-.189-2.694 1.129-2.97 1.731-1.22 2.673 2.745 8.578 7.035 13.578h3.543c-5.08-6-8.295-11.237-8.194-12.69.073-.006.179.33.329.345 4.947.485 12.44 6.345 17.353 12.345h3.613c-5.306-7-14.727-14.724-20.709-15.309zM385.855 342h2.145v-16h-1v12.066c0-.21-.634-.42-.899-.633.048-.282-.038.091-.186-.181-2.474-4.549-4.924-8.253-7.231-11.253h-3.203c1.729 2 3.521 5.282 5.362 8.415-3.007-2.682-5.91-6.415-8.702-8.415h-3.646c5.363 5.001 11.24 11.001 17.36 16.001zM58.578 342h3.136c-3.729-6-8.958-12-14.309-16h-4.043c5.477 4 11.133 10 15.216 16zM65.706 342h2.99c-1.907-4-4.054-7.286-6.28-10.729-1.141-1.764-2.342-4.271-3.58-5.271h-3.242c1.555 2 3.097 4.373 4.605 6.705 2.059 3.181 3.899 6.295 5.507 9.295zM371.736 342h3.14c-2.804-5-5.636-7.959-7.265-9.936-.748-.907-2.685-3.064-5.522-6.064h-3.533c3.276 3 5.725 6.174 7.018 7.742 1.992 2.419 4.136 4.258 6.162 8.258zM41.535 334.041c-.577.445-.684 1.947-.238 2.524.613.795 2.081 2.435 3.95 5.435h3.604c-1.974-3-3.919-5.044-5.465-7.047-.445-.578-1.274-1.357-1.851-.912zM171.657 342h3.478c-4.395-6-10.766-12-17.519-16h-4.672c8.257 5 14.482 11 18.713 16zM82.411 326.345c.692-.214 1.284-.345 1.814-.345h-7.358c1.497 0 2.845.9 4.059.9.517 0 1.012-.41 1.485-.555zM337.554 342c-1.477-6-3.146-11-5.033-16h-2.917c1.901 5 3.591 10 5.086 16h2.864zM331.61 342c-1.674-6-3.526-12-5.449-16h-2.827c1.944 4 3.825 10 5.528 16h2.748zM79.96 342c-3.604-6-7.729-11-12.067-16h-3.392c4.304 5 8.494 10 12.203 16h3.256zM363.857 342h3.325c-3.934-6-8.706-12-13.82-16h-3.933c5.223 4 10.233 10 14.428 16z"/></g>
	<g class="glasses"><path fill="#5C6566" d="M202.99 296.814c-4.66 0-8.79 2.66-10.78 6.54-1.74-.471-3.635-.471-5.375 0-2.08-3.59-5.983-5.231-10.433-5.231-5.98 0-10.942 4.878-11.852 10.878h-.55v4h.54c.9 5 5.85 9.241 11.84 9.241 6.63 0 12-5.818 12-12.449l-.01-.424c.8-.221 1.66-.303 2.45-.022.22 6.43 5.68 11.523 12.17 11.523 5.97 0 11.01-4.416 12.01-10.136v-3.82c-1-5.721-6.04-10.1-12.01-10.1zm-26.61 20.529c-4.42 0-8-3.579-8-8 0-4.42 3.58-8 8-8 2.88 0 5.41 1.521 6.81 3.81.54.87.92 1.86 1.09 2.91.07.42.1.84.1 1.279 0 4.422-3.58 8.001-8 8.001zm26.43-.529c-4.42 0-8-3.58-8-8 0-.33.02-.66.06-.98.12-.96.4-1.88.83-2.7 1.34-2.56 4.02-4.319 7.11-4.319 4.41 0 8 3.59 8 8 0 4.418-3.59 7.999-8 7.999z"/><path fill="#2E3233" d="M184.77 300.753l-2.83 2.84c-1.44-1.4-3.4-2.25-5.56-2.25-.75 0-1.47.1-2.16.29-3.37.95-5.84 4.04-5.84 7.71 0 2.16.85 4.12 2.25 5.56l-2.83 3.719c-1.69-1.74-2.87-3.622-3.26-5.622h-.54v-4h.55c.91-6 5.85-10.878 11.83-10.878l.37-.38c3.12.09 5.94.991 8.02 3.011zM211.145 300.133l-2.83 2.841c-1.44-1.4-3.4-2.25-5.56-2.25-.75 0-1.47.1-2.16.29-3.37.949-5.84 4.039-5.84 7.71 0 2.159.85 4.119 2.25 5.56l-2.83 3.528c-1.69-1.74-2.87-3.811-3.26-5.811h.085v-4h-.075c.91-6 5.85-10.689 11.83-10.689l.37-.284c3.12.089 5.94 1.085 8.02 3.105z"/><path fill="#1E2121" d="M164 309v4h-1.31c-1.04 0-1.88-.96-1.88-2s.84-2 1.88-2h1.31zM218.38 310.005c0 1.03-.84 1.995-1.88 1.995h-1.85s.35-1.287.35-1.267v-2.733h1.5c1.04 0 1.88.965 1.88 2.005z"/></g>
	<g class="mug"><path fill="#66B4D4" d="M78.178 295.179c-.68 0-1.178.09-2.178.269v-2.16c0-2.2-1.344-2.288-3.544-2.288h-22c-2.2 0-4.456.088-4.456 2.288v20c0 4.4 4.056 9.712 8.456 9.712h14c4.4 0 7.544-5.311 7.544-9.712v-1.87c4-.399 9.434-4.12 9.434-8.859 0-4.851-2.916-7.38-7.256-7.38zm-2.178 12.699v-8.67c1-.34 1.468-.529 2.178-.529 2.68 0 3.756 1.199 3.756 3.88 0 2.38-2.934 4.88-5.934 5.319z"/><path fill="#56A1C3" d="M62 291v32h-7.544c-4.4 0-8.456-5.311-8.456-9.712v-20c0-2.2 2.256-2.288 4.456-2.288h11.544z"/></g>
	<g class="bookMiddle"><path fill="#6DCF6A" d="M517 225h26v98h-26z"/><path fill="#2AA127" d="M517 234h26v3h-26zM517 239h26v3h-26zM517 306h26v3h-26zM517 311h26v3h-26z"/><path opacity=".07" d="M517 225h26.5l-26.5 96.653z"/></g>
	<g class="bookRight"><path fill="#68C3CB" d="M548 213h12v110h-12z"/><path fill="#49ACB6" d="M548 213h12l-12 108.653z"/><path fill="#fff" d="M548 219h12v5h-12z"/></g>
	<g class="bookLeft"><path fill="#9C60FD" d="M497 232h14v91h-14z"/><path fill="#D8E6EC" d="M497 238h14v3h-14zM497 314h14v3h-14zM497 267h14v18h-14z"/><circle fill="#4A7F8F" cx="504" cy="274.897" r="3.881"/><path fill="#D8E6EC" d="M500 286h8v1h-8zM500 288h8v1h-8z"/><path opacity=".1" d="M497 232h14l-14 89.653z"/></g>
	<g class="computer"><path fill="#DEE4E7" d="M351 314.41v2.82c0 2.199-1.41 5.77-3.61 5.77h-66.88c-2.2 0-3.51-3.57-3.51-5.77v-2.82c0-2.2 1.31-2.41 3.51-2.41h7.49v-16h50v16h9.39c2.2 0 3.61.21 3.61 2.41z"/><path opacity=".03" d="M337.56 296l-12.52 12.59-14.13 14.41h-30.4c-2.2 0-3.51-3.57-3.51-5.77v-2.82c0-2.2 1.31-2.41 3.51-2.41h7.49v-16h49.56z"/><path fill="#DEE4E7" d="M211.36 296c-2.2 0-4.36-3.447-4.36-5.647v-142c0-2.2 2.16-2.353 4.36-2.353h206c.819 0 1.399-.573 2.029-.144 1.08.71 1.61 1.117 1.61 2.497v142c0 2.199-1.44 5.647-3.64 5.647h-205.999z"/><path fill="#2C3133" d="M421 148.357v125.643h-214v-125.643c0-2.2 2.161-2.357 4.361-2.357h206c2.2 0 3.639.157 3.639 2.357z"/><path fill="#F3F4F5" d="M217 154h195v110h-195z"/><path class="browser" fill="#fff" d="M369 168v82c0 2.21-1.79 4-4 4h-102c-2.21 0-4-1.79-4-4v-82c0-2.21 1.79-4 4-4h102c2.21 0 4 1.79 4 4z"/>
	<g class="toolbar"><path fill="#B8CED1" d="M369 168v6h-110v-6c0-2.21 1.79-4 4-4h102c2.21 0 4 1.79 4 4z"/>
	<path fill="#fff" d="M267 171.153c0 .55-.45 1-1 1h-4c-.55 0-1-.45-1-1v-4c0-.55.45-1 1-1h4c.55 0 1 .45 1 1v4z"/><path stroke="#93BABF" stroke-miterlimit="10" fill="none" d="M264.75 170.653l-1.5-1.5 1.5-1.5"/><path fill="#fff" d="M268 171.153c0 .55.45 1 1 1h4c.55 0 1-.45 1-1v-4c0-.55-.45-1-1-1h-4c-.55 0-1 .45-1 1v4zM279 171.153c0 .55.45 1 1 1h84.06c.55 0 1-.45 1-1v-4c0-.55-.45-1-1-1h-84.06c-.55 0-1 .45-1 1v4z"/><path stroke="#93BABF" stroke-miterlimit="10" fill="none" d="M270.25 170.653l1.5-1.5-1.5-1.5"/></g>
	<g class="content"><path fill="#B8F1FF" d="M287 180h54v30h-54z"/><path fill="#3C6470" d="M287 237h16v1h-16z"/><g fill="#3C6470"><path d="M287 234h11v1h-11zM299 234h42v1h-42z"/></g>
	<g fill="#3C6470"><path d="M287 231h22v1h-22zM310 231h31v1h-31z"/></g>
	<g fill="#3C6470"><path d="M287 228h33v1h-33zM321 228h20v1h-20z"/></g><g fill="#3C6470"><path d="M287 225h11v1h-11zM299 225h42v1h-42z"/></g>
	<g fill="#3C6470"><path d="M287 222h33v1h-33zM321 222h20v1h-20z"/></g><g fill="#3C6470"><path d="M287 219h11v1h-11zM299 219h10v1h-10zM310 219h31v1h-31z"/></g><g fill="#3C6470"><path d="M287 216h43v1h-43zM331 216h10v1h-10z"/></g>
	<g fill="#3C6470"><path d="M287 213h11v1h-11zM299 213h21v1h-21zM321 213h20v1h-20z"/></g><path fill="#3C6470" d="M320 213.023h1v2h-1z"/></g><path opacity=".03" d="M419.57 145.856l-7.891 7.479-109.639 110.258-31.79 32.407h-58.89c-2.2 0-4.36-3.447-4.36-5.647v-142c0-2.2 2.16-2.353 4.36-2.353h206c.82 0 1.58-.573 2.21-.144z"/></g>
	<g class="globe"><path fill="#305A5E" d="M152.429 293.702c.564 1.551-.243 3.281-1.793 3.845-1.551.564-3.281-.242-3.845-1.793l-47.2-129.677c-.564-1.55.243-3.281 1.794-3.845 1.55-.564 3.281.243 3.845 1.793l47.199 129.677z"/><circle fill="#7BD1E3" cx="126.214" cy="230.163" r="61"/><path fill="#E5EBED" d="M182.585 241.442l.099-.035-.044-.069-.055.104M155.76 235.026l.014-.019c-.087-.085-.138-.1-.286-.079l-.01.027-.085.317-.085.129.007.025.006.024.006.024.006.024.006.024.006.024.006.024.006.025.172-.029c.053-.037.091-.094.114-.169.041-.121.033-.259.117-.371M156.647 196.897l-.024-.047-.227.316-.084-.013-.099-.171c-.172.094-.281.13-.511.108-.078-.007-.078-.007-.544.246-.116-.054-.116-.054-.188-.044l-.005-.091-.069-.045-.062.117c-.174.001-.178.001-.265-.037l-.024-.035-.001.015.044.105-.08.03.137.294 1.028-.134.011.016.011.016.011.016.011.016.011.016.011.016.011.016.01.016.989-.465c-.014-.073-.028-.131-.102-.277M161.588 194.591l-.005-.08-.045.066-.138.198-.094.131-.095.131-.201.042-.101.021-.102.021c.079.066.103.099.132.18-.036.051-.219.223-.291.269h-.002c.161.165.331.293.332.293l.159-.003c.154-.006.195.001.275.023l-.04-.122c.147-.073.176-.132.227-.295.044-.143.087-.174.158-.217l-.208-.13c-.015-.177.039-.351.039-.528M146.491 197.299l-.014-.02c-.154.025-.248.102-.367.199-.66.54-.947.524-1.483.44l-.058.106c-.128.124-.303.192-.406.346-.044.065-.011.184.001.261.103.061.16.095.273.106l.471-.024c.428.024.852.091 1.28.124.386.029.605.014.764.003.041-.125.035-.261.1-.379-.059-.135-.211-.141-.309-.223-.3-.256-.138-.635-.252-.939M140.257 196.965c-.096-.288-.606-.516-.916-.546l-.043.109c-.093.158-.135.229-.523.469-.051.032-.133.074-.15.131l.549.362c.117.11.209.209.328.47.32.701.347.758.795.713.049-.368.049-.368.49-.41l-.02-.143c-.029-.314-.048-.336-.353-.705l-.128-.178-.029-.272M138.815 195.353c-.428-.648-.443-.651-.581-.681l-.023.029.124.252c-.36.451-.36.451-.395.534l.132.098-.036.08c.066.07.066.07.253.139l-.046.105c.073.049.073.049.202-.011l.011.017-.035.122.004.04.231-.001-.014.155.139.035.175-.045.057.086.121-.025c.038-.164.03-.401-.319-.929M140.744 191.126l-.006-.018-.517.196.518.333c.066-.097.1-.244.1-.246l-.037-.107-.058-.158M152.499 191.042c-.118-.041-.175-.059-.282-.044l-.042-.092c.224.027.224.027.327.093l-.003.043M155.074 185.729l-.009-.018-1.544.575c.182.072.29.182.486.49l.047.046c.165-.02.351-.042.379-.117l-.01-.25c.025-.067.025-.067.157-.139l.122-.065-.023-.261c.046-.049.098-.045.201-.032.097.012.097.012.248-.114l-.054-.115M89.819 210.295l.013-.089-.042-.087-.135.026-.291.219c-.085.064-.184.108-.254.191-.029.033-.184.224-.42.711l.847-.334c.013-.154-.002-.238-.062-.358.27-.202.344-.279.344-.279M92.419 193.66l.008-.074-.023.053.015.021M78.005 199.974l.025-.029c-.089-.197-.089-.197-.118-.202-.148-.026-.259.077-.39.111.118-.27.297-.678.297-.774l-.005-.085-.192-.186c-.07-.175.013-.378-.099-.546l-.2.306c-.067.006-.152-.03.032-.343.096-.164.096-.164.127-.48l-.172.285c-.285.467-.878 1.44-1.046 1.91l-.106.295-.57.723-.087.155-.034.078.6-.452c-.065.208-.103.305-.286.737.08-.048.181-.123.245-.191.182-.19.319-.417.493-.614l.302-.285c.137-.374.137-.374.247-.555l.15-.003c.081.181-.127.376.027.553.04.046.152.023.243.005l.2-.02c.112-.165.147-.204.317-.393M82.661 193.287c.146-.28-.083-.292-.085-.292l-.038.027c-.293.208-.415.294-.78.851-.424.647-.309.73-.263.741.117.026.43-.201.698-.505.101-.117.101-.117.468-.822M77.582 194.574l.027-.037c.651-1.218.651-1.218.702-1.349l-.011.009-.072.062-.3.395c-.232.309-.493.595-.736.895l-.013.159-.07.235-.009.059.042.051c.069-.025.379-.404.44-.479M182.544 244.421c.033-.12.316-1.223.148-2.989l-.107.011c-.219.49-.275 1.026-.428 1.534l-.036-.172-.061-.043-.076.67-.122.166c-.041.409-.041.409-.129.617l-.039-.076-.006-.029c-.474.959-.474.959-.536 1.232l-.142-.03c-.128.067-.145.213-.221.317l-.069-.019c-.103.087-.159.223-.288.283-.568 1.639-.615 1.773-.589 2.515.035.996-.809 2.689-.817 2.702-.439.618-.495 1.152-.566 1.828-.062.594-.306 1.14-.446 1.714-.055.226.151.393.138.608 1.719-1.369 4.034-9.855 4.035-9.924 0-.007.019-.692.131-.887l.022-.047c-.006.31-.006.312.007.477.061-.075.109-.137.197-.458M114.107 267.683l.412-.162-.107-.008-.305.17M97.415 262.448l-.014-.021-.012.005-.012.005-.012.004-.012.005-.012.005-.012.005-.012.005-.011.004c-.043.072-.121.167-.357.264l.003.066c.065-.018.126-.036.219.029l.013.035c.034.094.102.157.152.204l-.161.226.007.064.015.02c.22-.088.399-.175.564-.272l-.208-.342-.092-.156-.046-.155M84.206 254.839l-.04-.11c-.451-.345-1.065-.171-1.309-.08l-.007.002-.007.003-.006.003-.007.003-.007.003-.007.002-.007.003-.007.003-.061.229c.152.104.663.268.815.262.092-.003.119-.004.14-.135.016-.104.03-.169.112-.192l.388.01h.001l.001-.001h.002l.001-.001h.001l.001-.001.003-.003M91.448 251.482l-.03-.1c-.258-.083-.424-.021-1.12.241l-.03.138c.047.057.047.057.251.429.214-.015.329-.211.513-.28l.322-.114.043-.028c.09-.07.072-.196.051-.286M89 253v-1.044c0-.312-1.056-.186-1.531-.643-.58.123-.494.123-.682-.021l.008.022-.062.101c-.041.068-.03.068-.268.125-.109.026-.126.136-.189.205-.048.053-.064.072-.44.088-.45.02-.515.067-.71.211l-.003.1.041.086c.203.03.417-.064.613.051l.075.056.223.45.401.212c-.233.454-1.02.494-1.347.49l-.011.227c.054.048.054.048.55.262l.138-.284c.088-.069.194-.035.292-.054.316-.06.316-.06.815-.34.61.382.61.382.712.398-.098-.523-.083-.724.081-1.017.331.214.391.252.476-.027.086-.286.129-.282.369-.261.134-.186.134-.186.751.03.038-.123-.131.32-.131.085M84.477 251.994l-.002-.048c-.403-.184-.694-.316-1.15-.129l-.129-.021-.045-.316c-.223-.102-.305-.107-.801-.058-.429.044-.472.011-.532-.035-.447-.342-.447-.342-.559-.364-.101-.021-.204-.042-.451-.024-.537.039-.537.039-1.242-.411l-.021.009-.021.009-.021.008-.021.009-.021.009-.021.008-.021.009-.021.009c-.521.003-.767.042-1.142.178l-.007.003-.008.004-.008.003-.007.003-.007.003-.008.003-.007.003-.008.003c-.558.363-.617.401-.881 1.106l.008.065.011.06.162.373c.021.118-.028.23-.031.345.209.061.304-.183.204-.52l.271-.214c.115-.217.081-.491.266-.68.044-.046.157-.1.437-.098l.083.096.011.025-.211.239.233.075.709-.124.904.229c.065.003.147-.041.208-.072.287-.151.417-.221.792.488.336.093.692-.02 1.026.099.014.042.014.042-.041.777l.012.024c.218-.078.37-.257.56-.378.284-.181.641-.092.931-.251.239-.135.387-.382.617-.531M77.827 234.705l.05.032-.262-.48.006.02c.067.224.204.427.206.428M77.602 234.262l.013-.005-.057-.146.001.005.043.146M77.544 234.116l.013-.005-.027-.064.014.069M77.513 234.03l.013-.005-.026-.064.013.069M77.484 233.968l.016-.006-.028-.059.012.065M87.142 218.098l.01-.063c-.075-.08-.214-.228-.337-.137-.071.053-.119.142-.194.308-.102.226-.143.307-.244.403l-.141-.055c-.031-.209.002-.25.19-.475.223-.268.18-.614.272-.921l-.335-.149-.02.075c-.102.309-.254.599-.344.912-.031.109-.09.314-.064.513.035.272.248.481.63.297.239-.117.515-.397.577-.708M69.894 254.108c-.142-.354-.32-.691-.471-1.041l.068.206c-.007-.015-.694-1.59-1.438-3.799l.489 1.422.01.026c.989 2.746 1.533 3.698 1.539 3.708l-.197-.522"/><path d="M102 179h.069s-.036-.649.032-.696c.057-.023.085-.508.137-.645l-.238.153v1.188zM103.361 173.776l.308-.14.088-.038-.138.056-.035.015-.117.052-.106.055zM102.752 175.821l.002-.001-.003-.006h-.002l.003.007zM103.273 173.809l-.311.161.474-.234-.352.162.189-.089zM103.757 173.598l.001-.001.016-.007-.017.008zM94 184.183l-.101.018-.011.016.112-.027v-.007zM95.77 177.525v-.01l-.236.147.236-.137zM92.408 180.409c.782-.579 1.658-1.243 1.839-1.44-.082-.005-.082-.005-.211.059.297-.223.648-.348.966-.532l.052-.033c.251-.248.251-.248.549-.45l.002.067.176-.097-.008-.287-.088.051-.011.004-.011.005-.011.004-.011.005-.011.004-.011.004-.01.004h-.001l-.011.004c-.531.321-.954.802-1.542 1.039.224-.202.475-.37.71-.557l-.016.006-.016.006-.016.007-.016.006-.016.006-.016.006-.016.006-.015.006c-.086.016-.107.019-.966.634l.138-.092c-.963.827-1.09.936-1.33 1.109-.078.129-.155.271-.236.315l.164.131zM94.019 184.023c-.118.049-.184.135-.278.206l.159-.028.119-.178zM102 177.809l.267-.188-.028.038.184-.103h-.033c-.258.003-.353.059-.46.145l.07-.005v.113zM146.004 108.705h.093l-.093-.012v.012zM99.157 175.901c-.028.019-2.66 1.662-3.375 2.082l.007.154-.083.168c.131-.094.183-.102.35-.114l.017-.083c.115-.086.115-.086.232-.074.101-.087.214-.163.303-.265l-.356.184.067-.078.03-.03.159-.1-.047.005.214-.142-.012-.058.28-.222.208-.128c.564-.416 1.221-.675 1.801-1.063l.703-.448c-.151.093-.151.093-.269.132.304-.19.646-.386.966-.565l-.095.03.046-.03c-.512.251-1.058.441-1.493.833l.347-.188zM100.912 174.949l.016-.06-.064.041-.005.048.053-.029zM100.848 175.11l.011-.132-.507.278c.164-.058.328-.071.492-.153l.004.007zM106.57 172.687l.004-.001.007-.012-.183.082.144-.015.032-.055-.004.001zM107.515 172.461c-.16.025-.654.143-.932.21l-.002.004.231-.044c.235-.055.472-.101.703-.17zM106.591 172.659l-.001.001zM107.043 181.939l-.003.061h.002l.001-.061zM106.378 172.719l.01-.001.195-.047.006-.011-.211.059zM95.71 177.669l.063-.036v-.007l-.063.043zM96.662 177.142c-.306.147-.594.326-.889.492l.002.063c.186-.109.239-.136.564-.301.26-.183.26-.183.323-.254zM95.772 177.603l.001.024.218-.148-.219.124zM95.491 178.47l.085-.019-.166.129-.005.093-.279.181-.007-.002c-.089.053-.21.126-.4.4l.102-.049.073-.039.123-.097-.042.054.062-.022.108-.086-.067.071.144-.051.146-.093-.076.081-.003.003.023-.003.221-.164-.091.133.084-.062c.061-.134.122-.43.183-.622l-.218.164zM96.34 177.238l.023-.014.022-.013.022-.014.022-.013.022-.013.021-.013.046-.028.218-.142c-.331.163-.647.352-.966.537l.002.053.545-.326.023-.014zM89.399 182.618l-.009.067.121-.13-.112.063zM95.307 177.868l.465-.266-.001-.025-.464.291zM89.444 182.508l-.011.015-.011.019-.006.016.039-.061-.011.011zM77.41 234.601l-.132-.305.006.097.126.208zM128.146 195.922l.175.079.05-.019-.153-.087-.072.027zM165.254 187.81l-.042-.007-.191.035c.001.002.622.887.89 1.216l-.19-.13.006.04c.092.194 2.565 3.182 3.442 1.585-.015-.022-1.657-2.193-2.256-2.181l-.013-.014-.014-.014-.014-.014-.013-.014-.014-.014-.014-.014-.013-.014.065-.15-.198-.121-.262-.255-.163.052c-.468-.365-.722-.729-.831-.885l.152.117.19-.029.136.128.029-.004c-.002-.24-.006-.601-1.33-1.216l-.119.125c.249.252.508.495.748.755l-.123-.096c-.693-.473-1.296-1.071-2.038-1.477l-.011.004-.011.004-.011.004-.011.004-.012.004-.011.004-.011.004-.011.004c-.814-.713-1.198-.8-1.427-.852l-.028-.024-.027-.024-.027-.023-.027-.023-.027-.023-.027-.023-.027-.024-.028-.024.027-.065c.103 0 .242-.027.338-.065-.411-.181-.442-.201-.562-.396l-.02.007-.074-.076-.09-.216.488-.053c-.638-.3-1.002-.973-1.674-1.226l-.193.127c-.13-.045-.328-.054-.46-.012.002.004.229.705.338 1.199l-.153.154.504.555.026-.009.308.487.12.095c.357.075.527.178 1.067.652l.007-.002-.259-.282.03-.011.131.138c.159.175.159.175 3.932 2.524l.083.079z" fill="none"/><path fill="#E5EBED" d="M96.309 177.159l-.542.316.002.018c.211-.123.424-.245.626-.384l-.086.05zM93.675 182.823c-.088.116-.07.161-.031.148l.095-.083c.029-.048-.005-.078-.052-.065l-.007.002.006-.016-.011.014zM103.299 173.784l-.009.004-.108.047.004-.002-.048.021-.127.058-.011.004-.027.012.054-.026-.092.042h.001l-.036.019.079-.035.177-.081.143-.063zM93.909 181.484l.107-.195-.013.008c-.05.044-.293.26-.201.268l.107-.081zM95.118 178.851l.007.002.279-.181.005-.093.166-.129-.085.019.216-.165.083-.168-.007-.154-.176.097-.002-.067c-.298.202-.298.202-.549.45l-.052.033c-.318.184-.669.309-.966.532.129-.065.129-.065.211-.059-.181.197-1.057.861-1.839 1.44.221.148.643.288 1.079-.409h.001l-.03.136 1.361-.934-.102.049c.19-.273.311-.346.4-.399zM92.153 179.852c-.109.056-.335.156-1.43 1.035l-.086.116c.035-.003.035-.005.658-.472l-.39.333c.34-.23.654-.497.989-.734l-.174.152-.011.019.429-.306.039-.092-.024-.051zM90.701 180.905l.023-.018.005-.006-.028.024zM95.257 179.059l.052-.039-.023.003-.029.036zM94.976 179.188l.244-.156-.144.051-.1.105zM94.955 179.145l.007.005-.021.021.004-.001.09-.072-.062.022-.018.025zM94.892 179.163l.081-.042.042-.054-.123.096zM95.365 178.939l-.146.093.067-.009.003-.003.076-.081zM95.531 178.856l-.221.164.156-.021h.001l.057-.073-.084.062.091-.132zM102.457 174.18l.231-.119c-.211.096-.418.215-.423.219l.192-.1zM93.346 183.411l.06-.205-.017.011c-.003.002-.28.282-.18.285.078.002.087-.001.137-.091zM93.74 184.229l-.044.036.082-.022.109-.026.011-.016-.158.028zM93.585 184.444l.021-.106-.013.015-.217.236-.015.139.029-.005c.061-.064.152-.188.195-.279zM91.912 185.308l.238-.014.098-.054.01-.004-.007.039.107-.044.003.014c-.099.078-.232.108-.309.218-.03.043-.015.121.061.136l.086-.018.007-.005.23-.184.236-.13c.316-.244.454-.446.456-.448.067-.1.063-.142.048-.161l-.132-.057-.087-.028-.091-.174-.1-.019-.118.035c-.22.097-.497.381-.431.413l.032.06c-.108.035-.128.041-.198.157l.063.126-.199.104-.003.038zM95.035 179.098l.04-.015.067-.071-.107.086zM101.911 174.448l.023-.013.184-.101-.008.004-.217.116.018-.006z"/><path d="M94.82 179.202l.073-.039" fill="none"/><path fill="#E5EBED" d="M80.813 189.694c-.006.009-.872 1.239-.91 1.308l.013.017c.187-.175.187-.175.52-.631l.012-.015.012-.015.012-.015.012-.015.012-.015.012-.015.012-.015.012-.014-.201.325c.093-.054.098-.057.569-.606.361-.42.391-.451.624-.69.095-.097.334-.358.504-.679l-.021-.002-.033.026c.04-.08.04-.08 1.132-1.144l.122-.181-.053.029-.353.3.175-.214-.156.134-.016-.015-.074.063c-.08.085-.268.287-.635.734l-.016.018-.017.019-.017.018-.017.018-.017.019-.017.018-.017.019-.018.019c-.112.103-.227.218-.617.628.091-.196.252-.339.382-.506-.475.498-.525.55-.932 1.075zM83.986 186.806l-.229.154-1.188 1.23c-.057.062-1.115 1.266-1.135 1.39l.013.009c.399-.207.516-.666.84-.939.099-.083.148-.095.227-.094l.08-.014c.111-.099 1.528-1.527 1.542-1.54l.059-.063.123-.175-.016-.009c-.093.049-.147.167-.274.157l.003-.139-.045.033zM80.697 189.526l-.241.27-.047.053.357-.399-.069.076zM84.083 186.085c.432-.364.84-.755 1.26-1.132.167-.15.335-.299.495-.458l-.559.495c.408-.389.408-.389 1.754-1.541l-.022.018-.729.611c-.435.377-.861.762-1.292 1.143l.056-.054-.5.457-.009.008-.016.015c-.292.27-.577.546-.864.821l.58-.547-.154.164zM88.924 181.939l-.053.04-.727.564-.008.006.892-.691-.104.081zM75.972 195.479l.005-.006zM96.735 176.988l-.218.142-.046.028-.021.013-.022.013-.022.013-.022.014-.022.013-.023.014-.023.014-.545.326.001.025.218-.125-.218.148v.007c.295-.165.583-.345.889-.492-.063.072-.063.072-.323.253-.325.165-.378.192-.564.301l.008.287c.715-.42 3.346-2.064 3.375-2.082l-.347.187c.435-.392.981-.582 1.493-.833l.45-.291c-.277.128-.746.345-1.088.525l.687-.38c-.653.282-1.471.736-1.911.984l-.126.065c.142-.101.501-.315.504-.316-.268.13-.553.283-.83.431l.197-.113c-.331.158-.331.158-2.401 1.345l-.017.01v.01c.32-.184.637-.372.967-.536zM87 183.541v-.006l-.113.13c-.288.256-.529.532-.83.774.204-.254.5-.425.716-.667-.202.164-.445.382-.736.646l-.013.015-.268.217-.034.03-.034.03-.034.03-.033.03-.034.03-.033.03-.033.03-.033.03-.161.158.346-.261-.211.216-.017.015-.016.015-.017.016-.017.015-.017.015-.017.016-.017.015-.016.015c-.256.213-.588.517-.674.631l.161-.104.013.027c.426-.375.835-.771 1.257-1.151 1.032-.931 1.032-.931 1.143-1.047l-.499.374c.098-.119.271-.208.271-.314zM87.218 183.626l.023.051.484-.419.289-.267-.055.015.132-.144h-.007l-.29.207c-.218.188-.423.392-.633.589l.057-.032zM83.486 186.63l-.079.077.25-.238-.171.161zM76.599 194.898l.042.009c.226-.165.417-.45.732-.921l-.216.206c.117-.189.34-.479.342-.481l.308-.33c-.125.221-.126.225-.133.282l.017-.001.03-.037c.657-.918 1.243-1.887 1.958-2.763.669-.821 1.406-1.585 2.05-2.427l-.118.125c-.684.73-1.33 1.495-1.996 2.24.505-.616 1.048-1.199 1.564-1.804-.75.813-.75.813-3.224 3.791l-.001.002c-.682.878-1.323 1.787-1.981 2.684.379-.44.693-.931 1.076-1.368-.124.278-.388.477-.45.793zM93.677 178.949c.86-.615.88-.619.966-.634l.015-.006.016-.006.016-.006.016-.006.016-.006.016-.007.016-.006.016-.006c-.235.187-.486.355-.71.557.588-.237 1.011-.718 1.542-1.039l.011-.004h.001l.01-.004.011-.004.011-.004.011-.005.011-.004.011-.005.011-.004.088-.051-.002-.063-.063.036.063-.043-.001-.024-.465.266.465-.29-.002-.053-.236.137.236-.147-.001-.021c-.274.16-.548.32-.807.505l.178-.1c-.914.599-.914.599-.996.665.206-.136.404-.281.621-.4l-.616.42-.101.067-.1.067-.1.067-.1.068-.1.068-.099.068-.099.068-.098.068-.309.227.126-.058-.212.175.08-.073-.897.597-.023.051c.486-.372.514-.262.541-.293-.058.032-.115.121-.172.215.239-.173.366-.281 1.33-1.109l-.142.089zM86.939 184.547l-.023-.002c.034-.116.194-.152.187-.294l-.584.449c.09-.13.375-.413.432-.469l.08-.132-.071.008c.042-.047.042-.047.77-.619l.226-.283-.019.008-.019.007-.019.008-.019.008-.018.007-.018.008-.018.007-.018.007c-.784.581-2.563 2.43-2.638 2.508l.013.016.335-.293.032-.032c-.294.353-.318.382-.347.449.049.01.253-.184.255-.186.275-.265.325-.313.516-.439-.283.289-.399.415-.497.538.143.052.508-.315.665-.472l-.055.187c.074.013.4-.22.42-.236l.486-.502c-.076.248-.339.366-.425.606.003 0 .38-.078.66-.418.191-.232.191-.232.863-.792l.048-.045c.121-.158.132-.176.133-.217-.057-.049-.057-.049.145-.362-.003 0-.403.019-1.478.972zM88.508 182.904l-.229.267c.441-.066.654-.463.99-.683-.281.314-.281.874-.317.971l.099.542h.008c.103 0 .205-.764.308-.863l.01-.286c.218-.133.533-.343.913-.656l.029-.028.029-.028.029-.027.029-.028.029-.028.029-.027.029-.028.029-.027.093-.106-.304-.013.015-.1-.008.003c.291-.232.384-.3.494-.359.11.093.149.065.293-.037.013-.009.621-.449 1.302-.954l-.159-.128c.08-.044.158-.186.236-.315l-.12.085.067-.139c-.146.026-.219.039-1.327.891l-.065.052.121-.055.008.059c-.242.189-.477.386-.712.583l.148-.013.006.004-.426.345c-.156.114-.189.124-.269.148.043-.086.043-.086.447-.487l-.053-.043-.113.078c-.398.332-.549.482-.724.657-1.333 1.016-1.333 1.016-1.41 1.125.076-.045.076-.045.446-.352zm.914-.362l.011-.019.011-.015.011-.012-.039.061.006-.015zm-.023.076l.111-.063-.121.13.01-.067zM87.887 192.733h.088l.025-.052-.285-.302c-.183.219-.264.283-.479.321-.011-.083-.011-.083.119-.346-.276.086-.516.251-.779.366l.012-.032.011-.032.012-.031.011-.03.011-.031.011-.03.011-.031.011-.031.336-.232.019-.008c.004-.306-.049-.472-.173-.536-.161.057-.829.368-.83.369.022-.142.151-.261.09-.42-.077-.201-.439-.147-.415-.426.317-.179.317-.179.396-.301l-.044-.177-.005-.076c.193-.24.532-.058.74-.254l.005-.163-.071-.069c-.233.027-.233.027-.301-.023.071-.379.732-.407.589-.888l-.079-.033c-.187.196-.187.196-.743.62l-.04-.06c.165-.406 1.01-.461.769-1.009-.018.001-.018.001-.605.366-.012-.152-.012-.152.2-.531l-.534.356.548-.629.009-.015c-.041-.111-.051-.121-.203-.194-.216.241-.417.496-.649.721l.236-.59c-.139.066-.273.183-.51.444-.093-.208.605-.737.613-.743l.009-.013.009-.013.009-.013.009-.013.009-.013.009-.013.009-.014.009-.013.167-.559c-.354-.054-.354-.054-1.616 1.274-.001-.023-.001-.023.262-.501l-.067-.031c-.275.137-.397.44-.653.598l-.019-.06.046-.061.046-.061.046-.061.046-.06.046-.061.046-.061.046-.06c1.04-1.187 1.319-1.506 1.286-1.772-.437.179-1.156.848-1.162.854-.038.101-.054.211-.119.302-.483.224-.483.224-.99 1.155-.167.088-.516.27-.737.764-.12.269-.402.898-.77.944l-.033-.019.018-.024.018-.024.018-.025.019-.025.019-.025.019-.025.019-.025c.269-.237.269-.237.337-.321.615-1.245.841-1.468 2.603-3.202l-.04-.06-.214.113c-1.368 1.031-2.534 2.495-3.306 3.464l.171.067-.94 1.343c.166-.014.166-.014.381-.28l.075-.006c-.038.103-.038.103-.275.441l.013.071.042-.006.04-.017.04-.016.04-.017.04-.016.041-.017.041-.017.042-.017c.186.042.186.042.432-.077l.026.138c.229-.206.229-.206.298-.232l.006.258.276-.523.011-.016.125-.085c.074.063.082.178.178.224.314-.125.44-.448.494-.586l-.083-.47.109-.09.074.139c.068-.001.068-.001.202-.108-.083.35-.188.918-.188.919l.147-.022c.02.573.02.573-.003.611-.171.291-.524.411-.674.721l-.017.05.438-.32.02-.008.02-.008.02-.008.02-.008.02-.008.02-.008.02-.008.02-.008.278-.294c-.198.61-.198.61-.053.693.09.051.257.147-.179 1.288-.291.762-1.079 1.114-1.474 1.79-.153.261.093.542-.042.804l-.03.067c-.777.232-.899.55-1.068.989l-.009.003-.017-.296c-.579-.351-1.135.816-1.347 1.334.553.229.738-.017 1.107-.507l.32.056c.076-.067.107-.096.193-.462l.027-.07c.163-.004.317.089.484.037-.131.496-.145.621.017.818.22-.024.22-.024.384.131-.034.222-.293.33-.29.571.003.187.203.17.301.257.144-.048.144-.048.257.06.174-.033.174-.033.244-.002.071.239.071.239.134.307.89.011.89.011 1.44.11-.003-.569-.093-1-.525-1.251-.343-.199-.356-.35-.306-.697.139-.042.139-.042.478.128l.076-.394c.416.729.416.729.766.574.231.451.231.451.352.496l-.052-.583.152-.011.062-.008c.058-.367-.061-.739.039-1.104.135.188.046.455.225.628.138-.521.152-.649-.012-.823-.272-.288-.143-.379.037-.506l.04-.021c-.191-.088-.264-.305-.443-.407l-.2.248c-.017-.391-.017-.598.003-.924l-.174.024c-.094-.164-.018-.573.019-.742.151.118.152.175.153.348.153-.082.153-.082.262-.192-.095-.4-.095-.4.259-.799.322-.009.326.484.677.429l.04.059c-.19.38-.19.38-.136.615.072-.017.072-.017.27-.196.004.421.005.521.319.42l.032-.017c.089-.615.203-.997.338-1.137.045.226.074.236.159.266.15-.277.178-.407.413-.556.03-.203-.222-.291-.222-.373v-.028l.88-.608zM90.992 180.544l-.001.001h-.002c-.263.14-1.35 1.012-1.358 1.04.12-.054.25-.151.678-.473.429-.323.69-.566.691-.567l-.006-.002-.002.001zM100.352 175.255l.507-.278.005-.048-.298.193-.263.132-.046.03.095-.029zM89.707 181.432c-.234.192-.509.333-.709.567l.26-.185 2.611-1.966-.007.001-.388.258-.094.065c-.356.267-.721.524-1.081.786h-.001l.124-.101c-.049.024-.628.455-.729.542l.072-.031-.058.064zM116.446 170.568c.083-.015.165.294.248.347v-.393l-.248.046zM116.694 170.915v.01l-.048.036.076-.025-.028-.021zM119.7 169.773l.04-.004.056-.018-.096.022zM118.271 170.048l.083.089c-.445.048-.889.202-1.333.317.805-.144 1.592-.35 2.122-.504-.29.04-.581.081-.872.098zM105.855 173.543c.271-.085.543.457.817.457h.019000000000000003c-.169 0-.338-.607-.508-.559.07-.022.141-.182.211-.356-.179.15-.36.402-.539.458zM106.258 172.898c.063-.02.127.023.191.055l.093-.213-.144.015.183-.082.002-.004-.195.047-.01.001.211-.059c-.183.048-.419.117-.826.241l-.083.047c.196-.062.399-.061.59-.139l-.012.091zM121.234 169.776l.021-.014.482-.046-.074-.018c.183-.064.375-.048.563-.069-.555.005-.728.019-1.372.072l-.229.012.216-.026-.541.032-.047.004-.514.047-.597.18c.29-.041.581-.082.872-.1.458-.046.458-.072 1.22-.074zM116.195 171.293l-.958.707h.001c.499 0 .708-.396.957-.707zM106.59 172.66l-.006.011c.277-.067.772-.184.932-.21-.231.069-.468.115-.703.169l-.231.044-.007.012-.004.001.003-.001-.032.055.514-.105-.113.008c.479-.099.97-.127 1.442-.258-.024-.011-.024-.011-.468.026l.58-.13.013-.002c.102-.007.102-.007.268.053l-.006.002c.339-.044.339-.044.431-.121.066-.055.328-.061.375-.051l-.104.069.174.006c.415-.063.835-.096 1.244-.194-.039-.022-.039-.022-.328-.009-.482.022-.539.017-.558.015l.011-.021c-.316.022-.316.022-1.497.152-.12.018-.143.024-1.34.319l.227-.044-.62.151.294-.108.014-.006c.411-.104.508-.123.55-.127l.033-.008.033-.008.033-.007.033-.008.034-.007.033-.008.034-.007.034-.007.333-.112c-.631.122-.631.122-1.08.244l-.03.008-.487.145.015-.001-.073.07h.002-.002zM116.195 171.293l.45-.332c-.186.051-.325.177-.45.332zM116.694 170.511v.011l.326-.069-.326.058zM122.396 169.691l-.021.018c.047.007.082.012.673.016.747-.055 1.25 0 1.255.001l-.12.021c.21.019.937.032 1.163.011l-.128-.025c.715-.181 1.435-.003 2.153-.036l-.232-.039.157-.047c-.626-.053-5.015-.006-5.104.055l.204.025zM106.574 172.98l-.125-.026-.053.131.178-.105zM147.983 287.289l.026-.01.003-.001.02-.008-.013.005-.036.014zM133.894 289.952c-.091-.009-.378.009-.389.023l-.009.016c.01 0 1.081.042 1.653-.058l-.015-.002c-1.1.034-1.1.034-1.24.021zM102.503 175.162l.216-.12.029-.112-.245.232zM102.487 175.303l.058.048.134-.046.011-.075-.203.073z"/><path fill="none" d="M103 176.182v.003"/><path fill="#E5EBED" d="M102.946 175.066c-.098-.05-.14-.062-.227-.023l-.028.188.208-.063.047-.102zM103 176.182l.042-.027-.002-.045-.037-.004-.013-.004v-.002l.01.076v.006z"/><path d="M103.619 173.654l-.035.015" fill="none"/><path fill="#E5EBED" d="M95.6 193.996c.099-.003.177-.036.237-.09l-.057-.036-.18.126zM95.593 194l.007-.004-.01.004zM103.574 173.67l-.109.046-.157.068.386-.162-.12.048zM103.705 173.617l-.011.005.012-.005zM103.096 174.893l-.01.015-.088.099.044.077c.052.037.218-.179.219-.182l-.015-.018-.079.06-.071-.051zM103.361 176.452l.052-.008.054.018.096-.1.004-.004-.263.032.148-.117-.015-.014-.379.083c-.042.018-.398.224-.305.276.075.042.277-.041.353-.072l.255-.094zM102.977 175.471c-.061.026-.153.124-.158.18.077.048.173-.009.286-.17l.006-.009-.134-.001zM102.814 174.735l-.031-.022-.004.01-.019.068.048.01.014.017.055.006.036.022.006-.008-.007-.022-.066-.046-.032-.035zM102.829 176.267l-.116.002-.001.001-.003.001h-.002l-.002.001h-.001l-.002.001h-.003l-.129.076-.077.128c.062-.013.271-.155.327-.204l.009-.006zM102.879 175.243c-.036.053.016.087.055.078l.051-.058-.103-.016.001-.009-.004.005zM103.669 173.636l.089-.039-.001.001-.088.038zM103.774 173.59l-.016.007.051-.021-.051.02-.02.008-.005.002-.114.048.138-.056.017-.008zM102.99 176.1l.002-.006-.003.003zM102.96 176.358l.101-.1.019-.015.019-.015.115-.087.009-.03-.033.017-.166.093-.083.037c-.002.001-.249.232-.263.273l.012.002.27-.175zM100.912 174.949l-.053.029-.011.132-.003-.008c-.165.082-.328.095-.492.153-.321.179-.663.375-.966.565l.269-.132-.703.448c-.581.388-1.237.647-1.801 1.063l-.208.128-.28.222.012.058-.214.142.047-.005-.159.1-.03.03-.067.078.356-.184c-.089.102-.202.178-.303.265-.117-.011-.117-.011-.232.074l-.017.083c-.166.012-.219.02-.35.114-.061.192-.122.489-.183.622l.012-.009.053-.033h.001l.022.098c-.298.342-.406.794-.672 1.155l.023.1c-.058.056-.146.081-.173.168-.125.098-.266.176-.372.296l.198-.111-.083.299c-.266.139-.29.461-.493.647l.091.044.043-.018-.136.179.033.094c-.111.216-.363.232-.527.374l.113-.006.008.113-.404.381c.13.02.13.02.274-.122-.169.261-.539.323-.643.647l.056.081c.211-.008.211-.008.906-.758l-.031.078.024-.015.167-.182c-.044.136-.044.136-.183.262.14.037.172.017.48-.211-.084.111-.084.111-.43.343l-.039.027.102.029c.149-.136.149-.136.281-.188-.334.28-.342.28-.523.479.113-.056.296-.056.296-.215v.099l.106-.005.015.105-.203.037-.02.015-.019.008c.062.03.157.051.226.044l-.012.098-.173.125.101.007.015.059-.185.106-.008.017.25-.073c-.096.157-.14.229-.452.236-.421-.407-.983.256-.989.263l.04.186c.066.012.162.003.223-.025l.279-.037c.166.12-.115.132.544.01.094-.071.161-.157.278-.206l-.12.178.101-.018v.008l-.112.026c-.083.129-.167.26-.274.368l-.062.093.052.022-.237.327-.032.041.256-.195.075.056-.006.016c-.154.136-.336.239-.466.402l-.007.044-.197.27.201-.141.017.108c-.387.446-.926.691-1.38 1.048.282-.09.923-.472.926-.474l-.022-.042.174-.115-.157.287.211.058c-.07.062-.13.117-1.077.366l-.03.047c.072.015.173.018.245.002l-.064.083c-.502.054-.772.724-.8.8.402-.167.607-.568.955-.8l-.054.085c.155.002.352-.077.439-.304l.001-.003c.184-.095.195-.093.245-.082l-.176.197.032.103c-1.463.932-1.463.932-1.555 1.04.473-.003.774-.387 1.182-.534l.081.062-.042.093c-.579.129-.844.32-1.283.635l.095.03.03.097c.085.012.085.012.501-.154-.023.154-.023.154-.567.503l-.074.058.274-.037-.262.207c-.179.045-.282.151-.345.354l.1.027-.124.173c.246-.051 1.122-1.064 1.13-1.074.219-.267.219.491 1.001-.094.053-.03.115.694.117.722-.291-.027-.81-.327-1.002.119l-.228-.112c-.198.163-.915.662-1.029.827l.073-.02.201-.167-.258.312.385-.2c.018.12.019.146-.031.246h-.041v-.194c0 .166-.116.31-.255.483l.19.053.22-.124c.015.138.041.138-.104.282l.299-.033.031.098c-.17.124-.29.215-.493.998l.043.028c.309-.255.374-.68.656-.954l.07.068.032.063c.146-.235.047-.556.267-.765l.098.05c-.055.181-.055.181.022.286l.193-.118.126.28c.184.01.197.032.253.128-.343.095-.416.028-.46-.168-.139.013-.161.015-.363.256l-.008.003.09.054c-.115.225-.673.683-.732.728l.087.062c.259-.111.748-.589.81-.668l.08.063c-.183.416-.629.509-.94.769l.11.131.002.011-.211.182c.043.051.072.144.069.211l.098.019c.18-.136.336-.301.528-.422-.466.59-.466.59-.466.604.464-.23.464-.23.502-.224.064.223-.147.331-.208.502.055.011.137-.008.184-.039l.093-.05c-.101.188-.101.188-.099.251.185-.151.284-.383.489-.515-.142.346-.457.614-.461 1.022l.086.065.461-.151.07-.019.106-.028.04.099c-.051.096-.051.096-.179.21l-.008.074c.154-.039.154-.039.327-.19l.009.026c-.273.281-.273.281-.327.418.18-.128.33-.291.499-.431-.007.039-.007.039-.275.482l.1.065-.16.153.064.093c.141-.033.172-.044.323-.198.137-.048.208-.205.365-.22-.092.129-.092.129-.294.265.19-.016.371-.124.568-.05l-.086.259.071.004c.122-.168.122-.168.271-.246l.051.232c-.115.145-.115.145-.281.258.259-.037.37-.08.588-.231l.025-.097c.158-.122.158-.122.266-.238l.005-.002.005-.002.005-.005.005-.002c.273-.061.489.458.621.294l.003.702h.008c.069 0 .152-.826.21-.877-.06-.204-.081-.637.167-.728l.146-.064-.276.368c.12-.176.308-.333.438-.499l.208.076c-.021.094-.038.459-.233.632l.06.038c.131-.143.119-.396.346-.466l-.005.409c.155-.109.198-.299.312-.438l-.056.263.021.025c-.037.17-.138.314-.193.476l.111.019c.309-.231.309-.231.522-.16l.038-.021c.277-.446.277-.446.723-.602.545-.19.545-.19.543-.436l-.22-.083c-.209.218-.23.223-.403.207.174-.341.561-.468.773-.771l-.117-.015-.189.162-.036.018h-.006c-.076.014-.182.015-.257-.001.063-.123.063-.123.354-.287l-.214.013.218-.159.041-.266.062-.085-.407.089-.021-.112c.098-.134.139-.19.415-.207.154-.21.14-.479.242-.707-.207.132-.207.132-.28.112.167-.125.223-.167.343-.441-.196-.173-.196-.173-.231-.284-.342.062-.398.057-.592-.003.189-.064.414-.006.578-.162l-.006-.016c-.126.015-.509.061-.327-.24.084-.14.257-.274.425-.404l.007-.098c-.178-.293-.178-.293-.168-.322.323.012.372-.042.405-.077l.024-.052-.204-.051-.013-.057c.235-.04.235-.04.305-.141l-.175-.079c.171-.076.274-.122.467-.444-.214-.063-.4.178-.619.056.301-.083.519-.143.699-.294l-.026-.111c-.103-.045-.214-.072-.308-.138-.18.052-.18.052-.456.065.627-.505.627-.505.7-.531-.151-.405-.151-.405-.553-.396-.151-.514.738-.355.759-.845l-.017-.069c-.102.018-.231.042-.231.066v-.003c0-.118.14-.118.251-.376l-.023-.005c.054.025.123.041.179.023l-.004-.002-.085-.195.184.019.046.039c.025-.006.024-.006.519-.481-.05-.056-.149-.105-.224-.109l-.017-.108c.121-.131.133-.145.25-.334l-.028-.02-.01-.003.088-.214.224-.095-.106.586c-.012.06-.002.148.025.204l.1-.037.056-.025-.003-.227c.094-.086.125-.114.187-.279l.08.088.062-.006c.127-.163.127-.163.199-.344l-.031-.014.004-.002c.16-.022.16-.022.423-.462l-.208-.122c.27-.196.403-.205.575-.196.21-.198.286-.781.289-.806l-.075-.081.115-.225c-.136-.087-.136-.087.279-1.15-.055-.018-.138-.022-.192-.002l.053-.099-.239-.047.013-.085.007-.007c.309.155 1.014-.232 1.02-.237l-.095-.068.288-.151-.106-.194.022-.033c.189.06.189.06 1.111-1.136l.086-.065-.012-.112.093-.077-.023-.036c.012-.058-.004-.144-.036-.194l.074-.08-.07-.081.167-.176-.108-.04.07-.088.09-.05-.11-.022-.045-.119.177-.196-.032-.031-.002-.002.005-.002.005-.002.005-.002.005-.002.005-.002.005-.002.005-.002.005-.002.093-.061-.086-.07c.03-.055.083-.133.143-.155l-.046-.1c-.381.376-.45.444-.991.693l-.056-.049c-.586.816-.586.816-.674.861l-.18.108c.073-.227.487-.599.491-.603-.268.001-.85.582-.854.588l-.009.003.21-.457-.1-.048c.079-.118.211-.179.307-.279.209-.161.166-.331.154-.504l-.105.005.184-.09c.336-.066.681.062 1.016-.031.165-.046.218-.155.256-.235l-.156-.127c.221.085.241.079.373.041l.053-.108-.156-.078-.11.008-.077-.071-.076-.018c-.032-.061-.107-.128-.169-.157l-.062.007-.014.184-.023-.002-.093-.198-.119.117-.108-.027-.025-.048-.03.02-.012-.005c-.632.268-.632.268-.75.449l-.099-.044.117-.198-.213-.054-.001.001c-.083.091-.103.226-.207.302l-.108-.04-.039.018c.174-.115.174-.115.315-.348-.263.045-.31.052-.559.405.006-.068.054-.155.103-.202l-.07-.036v-.002c0-.179.276-.179.331-.31l.143-.148-.108.006c.183-.078.483-.255.661-.341l-.034.07.002-.001.008-.004.009-.004.01-.004c.099-.187.098-.187.28-.368l-.058-.091c-.126-.016-.126-.016-.315.06l-.028.082-.141.057.017-.11-.069-.089-.021-.015c.017-.004.46-.221.519-.376-.136-.01-.136-.01-.358.215l.004-.11-.108.005-.066.057.082-.12-.079.027-.021.108-.069.06.064-.044-.012.04c-.045.023-.045.531-.045.531h-.007l-.085-.439c-.03.026-.031-.228-.031-.228l-.05-.163-.075-.118.015-.044c.137-.053.137-.069.18-.161l-.021-.021.297-.188-.003-.085-.011-.025-.117.088-.104.043.059-.096.047-.02-.02-.058-.179.143c.053-.283.537-.62.591-.658l-.189.11.371-.241-.188.102.199-.11.057-.03h.002v-.001h.001l.335-.165-.308.14.107-.055.117-.052-.355.15.079-.034-.125.052-.036.016-.168.075-.158.077.02-.011.007-.003.004-.002-.018.005c-.28.131-.737.382-.742.385l-.084.046.374-.216c-.261.125-.509.273-.764.41l.206-.125-.079.039.339-.184-.425.206-.353.198.21-.121-.518.271v-.35200000000000004l-.069.326-.008.003-.013.005-.013.005-.013.005-.013.005-.008.031.064-.041-.014.068zm1.839.865l.003.007h-.002l-.003-.006.002-.001zm.684-2.079l-.474.234.311-.161-.189.088.352-.161zm-1.045 3.822h.033l-.184.103c-.052.137-.08.622-.137.645-.068.047-.032.696-.032.696h-.07v-1.188l.238-.153.028-.038-.267.188v-.112l-.07.005c.107-.088.203-.143.461-.146zM104.641 182.288c-.174-.117-.265-.117-.752-.065l-.078.151c.114.038.168.076.222.158l.002.011c-.149.173-.493-.047-.567.232l.208.155c-.149.09-.312.159-.447.272 0 .004.017.4.476.04.275-.216.336-.252.836-.247.245.565-.821.428-.886.96.111.102.201.045.697-.271.218.136.274.145.54.081-.106.252-.314.436-.452.667.043.022.093.046.195.03l.061-.011c.312-.059.568-.267.877-.334.085-.018.085-.018.392.061.264.069.861-.127.865-.129.237-.115.26-.403.449-.557l.567-.301.085-.075c.127-.127.127-.127.455-.614.21.001.521-.11.355-.532l.311-.21c.002-.064.005-.171-.046-.315-.122-.352-.28-.292-.462-.223-.414.157-.427-.073-.435-.209l-.059-.042-.466.018-.254.423c-.092-.006-.224.586-.268.586h-.002l-.002-.526v-.008l.007-.162-.009.009-.001-.102-.003-.131-.003-.065-.002.306c-.129.112-.3.157-.736.268.139.134.139.133.165.218-.22.065-.334-.01-.373-.044-.038-.033-.178-.118-.396.182l.11.155.003.01c-.198.164-.5-.172-.503-.175l-.013.005c-.098.127-.098.127.027.497l-.405.485c-.277-.211-.277-.211-.233-.347.045-.134.027-.232-.052-.285zm2.402-.349l-.001.061h-.002l.003-.061zM118.859 187.778l.004-.014-.171-.209-.014.009-.094.065c.046.118.076.164.164.266l.087-.017.024-.1zM124.878 188.299c-.083.072-.096.153-.106.212l-.291.059c.002-.138.004-.346-.06-.41l-.068-.058-.569-.171-.321-.383c-.175-.115-.62-.372-.965-.281l-.162.017c-.18-.029-.379-.227-.499-.345-.475-.472-1.17-.427-1.248-.42-.317.027-.506.534-.875.301.379-.141.379-.141.668-.479-.323-.022-.323-.022-.362-.046.565-.357.151-1.232.083-1.255-.641-.218-.993.569-1.603.459-.149-.409.254-.632.326-.966-.049-.051-.179-.188-.566.124-.317.255-.317.255-.787.204l-.004.025c-.026.177-.026.177.195.29-.026.063-.026.063-.198.201l.383.244c-.397.162-.397.162-.396.281l.324.122-.111.176c.072.077.184.117.219.229.055.177-.08.362.021.537.196.012.231.014.242-.272l.255.038c.074.63.074.63.195.739l.018.029c.202-.266.271-.359.366-.552l.062-.024.159.159c-.018.102-.025.119-.106.196l.351.279c.09.222-.023.455.037.679l.438-.061.018-.147c.153-.091.669-.337.672-.339l.267-.058c-.109.505-.109.505.336.662l.249-.147.016-.006c.413.755.413.755.491.814l.009.014c-.758.313-.977.502-1.018.881l.009.014.043-.017.043-.017.043-.017.043-.017.043-.017.044-.017.044-.017.044-.017.02.031c.143.102.243.36.243.362-.096.344-.455.507-.575.834.292.071.292.071.807-.112.171-.06.171-.06.79-.039l.02-.007.017-.006c.113-.057.113-.057.429-.388l.017.499-.043.028c-.184.111-.398.125-.597.187l-.406.418c.017.152.068.615-.524 1.147l.003.04c.296-.04.296-.04.481.025.086-.346.432-.474.618-.736.482.039.669.009.438-.436.356-.186.356-.186 1.205-.423l-.076-.073c.038-.048.095-.122.6-.377.04-.02.923-.308.929-.309.254-.061.382-.318.623-.401-.01-.135-.014-.185.225-.35l-.018-.026-.018-.026-.018-.025-.018-.026-.019-.026-.018-.026-.018-.026-.019-.027-.032.012c-.085.017-.282.056-.84.229l-.01-.014c.381-.357.559-.838.569-.979.037-.512-.848-.709-1.226-.383zM117.176 192.525l.272-.145c.097.099.127.148.218.347l.911-.578c.169-.153.233-.371.349-.558.049-.079.049-.079.617-.351l.015-.116.379-.168c-.076-.251.057-.527-.093-.769-.244-.396-.681-.671-.857-.771.219-.171.33-.257.36-.487l.008-.1c-.476-.548-.852-.981-1.625-.262-.071.066-.218.151-.405-.022l-.119.065c-.243.18-.261.293-.199.615-.166.113-.166.113-.187.194l.058-.023.058-.022.059-.022.058-.022.059-.023.059-.022.059-.023.059-.023c.006.174-.032.245-.203.378l.127.128c-.559.179-.71.227-1.018.253-.073.139-.082.205-.053.393l.005.011.006.011.006.011.005.011.006.011.006.011.005.011.006.011c.139-.101.204-.135.343-.098l.035-.013c-.06.163-.06.163.022.278l-.204.134.094.037-.038.157c.209-.007.804-.12.943-.252l.111.1c-.349.306-.421.37-.232.471l-.049.22.345-.186c.01.158-.041.186-.322.343-.02.108.067.226-.027.328-.048.052-.222.11-.441.183l.035.118.383-.13.007.015-.158.136.142.205zM107.132 181.191l-.013-.025-.013-.016h-.013l-.013.033-.013.098-.002.024.081-.084-.014-.03zM127.434 182.644c-.042.073.01.212.044.305l.343.085c.022-.28.022-.28-.054-.414.293-.153.621-.221.918-.366-.081-.133-.089-.153-.046-.231-.301-.24-.301-.24-.34-.341l-.019-.061-.097.002.02.074c-.093.073-.202.126-.278.219l.01.168c.048.196.047.247-.07.31-.411.216-.411.216-.431.25zM130.475 182.815l-.032.298c.013.056.038.095.142.164.291.194.377.153.629.03l.28.134.075-.112.009-.263-.283-.032c.023-.095.034-.21-.134-.375l-.17-.141-.215.065.008.034c.054.119.139.219.211.326-.126-.002-.269-.005-.416-.09l-.104-.038zM91.752 214.858l.089.34.454-.026c.041-.273.128-.537.139-.815l-.022-.256c-.198.094-.263.08-.284.063-.121-.095-.017-.244-.084-.352l-.181.005c-.066.101-.07.231-.155.323-.073-.077-.14-.159-.279-.452l-.003-.023c.435-.43.435-.43.536-.596l-.014-.102-.063-.007-.063-.006c-.156.161-.213.216-.36.29-.134-.057-.233-.163-.349-.246.347-.546.347-.546.426-.722-.23-.07-.509-.128-.904.079-.049.177-.18.646-1.013.207l-.003-.039-.002-.02.247-.459c-.12-.006-.231-.128-.359-.023-.235.191-.271.521-.495.722.002-.654.399-1.194.527-1.811l-.847.334c-.356.777-.56 1.39-.704 2.113l.273.272-.075.118-.377.342c-.039.058-.039.058-.127.409l.384-.023c-.206.328-.538.559-.704.917-.093.201-.093.201.043.511.74-.404.74-.404 1.586-.586.27-.058.677-.145.746-.552l.264-.149.004.039.005.038.004.039.005.039.005.039.004.038.005.039.005.039.04.051c.15-.097.186-.12.207-.344l.466-.117.005.039c-.008.01-.779.985-.709 1.151.169.02.351-.069.351-.07.005-.007.605-.85.802-1.385l.091.01.156.148c.257.244-.07.5-.015.751.146-.031.146-.031.322-.324zM103.187 177.536l-.238.322-.153.148-.018.052-.021.13-.05.146-.003.028c.002 0 .203-.076.348-.308.119-.086.119-.086.209-.233l.076-.02.084-.144.02-.021c-.018-.09-.225-.114-.254-.1zM196.801 142.304l.015-.029c-.11-.24-.329-.633-.575-1.057.489.963.965 1.923 1.379 2.752-.271-.589-.5-1.04-.819-1.666zM136.948 112.527c-.074.087-.146.178-.206.178h.051c.047 0 .1-.083.155-.178zM146.817 108.549l.085.015.307.025c-.13-.02-.261-.042-.392-.04zM147.209 108.589c.197.031.395.064.593.063l-.593-.063zM146.479 121.521l-.032.298c.013.056.038.095.142.164.291.194.377.153.629.03l.28.134.075-.112.009-.263-.283-.032c.023-.095.034-.21-.134-.375l-.17-.141-.215.065.008.034c.054.119.139.219.211.326-.126-.002-.269-.005-.416-.09l-.104-.038zM143.826 121.739c.022-.28.022-.28-.054-.414.293-.153.621-.221.917-.366-.081-.133-.089-.153-.046-.231-.301-.24-.301-.24-.34-.341l-.019-.061-.097.002.02.074c-.093.073-.202.126-.278.219l.01.168c.048.196.047.247-.07.31-.411.216-.411.216-.43.25-.042.073.01.212.044.305l.343.085zM146.95 108.866l-.247-.09c.448.045.625.038.732.004-.162-.025-.21-.073-.358-.144l.217-.014-.392-.06c-.574-.039-.681.007-1.046-.013l-.269.122c.446-.002.837.08 1.219.177l.144.018zm-.946-.161v-.012l.093.012h-.093zM111.206 132.551c.001-.001.007-.092-.07-.059l-.036.02-.002.008-.074.096-.114.12-.044.101c.251-.143.34-.285.34-.286zM123.047 120.642l-.003.063h.002l.001-.063zM123.136 119.896l-.013-.025-.013-.016h-.013l-.013.033-.013.098-.002.024.081-.084-.014-.03zM181.772 216.106l-.032-.12-.242-.164c-.027.163-.027.163-.831 1.27l-.18.018-.172.608-.302-.04c-.115.151-.249.369-.336.539l-.071.085-.034.013-.034.012-.034.013-.034.013-.034.013-.034.012-.035.013c-.517-.656-.517-.656-.747-1.047-.104.021-.256.102-.348.05l-.012-.043c.308-.608.308-.608-2.627-3.56.03.129.072.3.083.432-.908-1.142-3.073-3.956-3.075-3.959-1.593-3.02-1.593-3.02-2.403-3.35l-5.85-6.347c.688.554 1.296 1.208 2.068 1.656.034-.854-.035-1.243-.552-1.879.072.06.15.115.225.142.2.44.351.902.559 1.339.542-.147 2.945 2.316 2.967 2.342 1.447 1.697 3.047 3.253 4.562 4.887 1.278 1.38 1.278 1.38 3.639 5.869l.03.097.03.097.03.097.03.097.03.097.03.096.029.097.029.097c.677.999.94-.241.943-.254l.077-.447c.432-.26.391-.923.931-1.091.352-1.233.288-2.55.747-3.762.098-.033.217-.126.273-.213-.079-.312-.204-.611-.233-.935.431-.34.123-1.162-.49-2.8l.107-.135c-.685-2.194-2.374-3.774-3.491-5.705l-.005.001c.092.274.613 2.212.546 2.383-.175.135-.234.18-.53.111l.037.165-.182.046c-.521-.56-.623-1.371-1.156-1.923-.084.203-.084.203.607 1.438l-3.762-4.315-.127.112-.087-.157-.024-.132.008-.003.008-.002.007-.003.007-.002.007-.003.007-.003.007-.002c-.206-.27-.206-.27-.268-.429.146-.122.146-.122.076-.672l.024-.008c.201.291.201.291.421.398l.144-.108c.358.269.526.441.627.543l.025.039.025.039.025.039.025.039.025.039.025.039.025.039.024.038c.191.221.191.221 2.782 2.194.081-.271-.13-.569.075-.829.603.272.659 1.023 1.188 1.359l.126.071.024-.009.024-.008.024-.008.023-.009.023-.008.023-.008.023-.008c.136.156.203.201.477.137l.277.223.106-.149.028-.061.018-.005.017-.006.018-.006.017-.005.017-.005.017-.005.016-.006-.039-.168.141.104c.04-.094.058-.234.047-.335.01.015.724 1.158 1.282 2.121-.56-1.104-1.138-2.211-1.662-3.134-3.496-5.44-3.496-5.44-5.546-7.919-4.235-4.73-4.235-4.73-6.611-6.827l-2.496-2.086-.056.001c-1.485-1.086-3.432-2.53-4.958-3.532-5.393-3.163-5.393-3.163-8.254-4.426-5.81-2.305-5.81-2.305-8.831-3.118-1.792-.409-4.179-.975-5.99-1.294l-.057-.009c-.536-.085-.572.915-3.201.357-.511-.108-.809-.156-.952-.171l-.821-.211-.081-.01c.692.426.692.424 1.76.66l-.162.158c-1.037-.024-2.039-.396-3.088-.303.604.134 1.228.172 1.825.347.773.059.773.059 1.96.352l.083.02-.935.009c.405.304.405.304 2.248.929-.991.133-.991.133-1.611.115l.117.184c.504.095 1.027.028 1.527.168-.127.137-.424.457-2.811-.085-1.212-.275-1.212-.275-3.059-.439 1.018-.408 2.127-.044 3.153-.374l.011-.247c-2.484-1.555-5.071.062-7.596-.247l.133.186c-.402.037-.799.117-1.204.12l.203-.125c-.175-.149-.175-.149-1.398-.056.142.052.336.109.482.146-.318.008-.625-.127-.947-.07.127.062.302.133.436.18-.168.015-.395.005-.561-.021.226.186.226.186.639.336-.337-.034-.648-.173-.978-.235.103.363.203.4.469.5l-.518.052.251.145-.332.035c.095.114.25.843.382.911-.047-.007-.101.072-.156.164-.117-.05-.244-.16-.348-.13.039.259.056.222.245.302l.168.082c.099.007.104-.066.108-.065.082.138.255.155.314.313l-.231-.033-.103-.023.104.186.175.021.011.003.01.004.011.004.011.004.011.004.01.004.01.004-.187.149c.138.37.101.434.049.521l.248.056.096.026-.2.089c.092.1.266.196.401.21l.144.034c.023.128.001.315-.059.43.019.021.019.021.623.351l-.216.07.128.426.164.068c-.523.237 0 .814-.098 1.214l-.224-.014-.098.229.12.222c-.215.107-.449.175-.642.327.149.043.361.066.517.053-.103.081-.268.157-.396.18l.017.241c-.129.069-.276.211-.359.332l.164.148c.231.02.246.033.26.046l-.233.108c.049.46.121.472.587.548l-.039.224.131.143.219-.028c.085.104.21.232.312.319.122-.045.305-.057.432-.031l-.024.214.244-.007-.151.168-.016.008.008.008.008.008.008.008.008.008.009.008.009.008.009.009-.013.005-.152-.096-.008.22c.088.056.213.124.315.144l-.044-.062.099.04.048-.221.184.054.225-.019.065-.013-.132.207.209.08.14-.057.033.146-.218-.003-.031.081-.208-.074c.161.3 2.015 1.069 2.518-.447.052-.157.092-.377.105-.541l.207-.076.047-.215-.18-.229c.491.113.491.113.69.038.849 1.136 2.277 1.052 3.4 1.612l-.032.223c.271.247.726.215.908.597.058-.001.058-.001.851-.279-.03-.125-.139-.278-.242-.356-.044-.68.795-.584.804-.583-.283-.66-.454-1.059-.998-1.412l-.122-.015-.021-.017-.021-.017-.021-.017-.021-.016-.021-.016-.021-.016-.021-.016.017-.006.016-.006.017-.006.017-.006.017-.006.017-.006.016-.006.017-.006c-.231-.236-.231-.236-.764-.44l.339-.317-.093-.205-.028-.123.027.019.027.019.027.019.027.02.027.019.027.019.027.019.026.005c.013-.215.023-.385-.035-.52l-.042-.014-.059.022.073.05c-.551.232-.551.232-1.162.293l-.102.06c.324-.304 1.042-.055 1.119-.664l.006-.039.014-.005.013-.005.014-.005.014-.005.013-.005.014-.005.014-.005c-.636-.317-1.354-.042-2.002-.271-.561-.386-1.714-1.119-1.717-1.121l.219-.018-.082-.213-.208-.09.027-.01.028-.01.027-.011.027-.01.028-.01.027-.011.027-.01.027-.01c-.173-.474-.068-1.004-.298-1.467l-.587-.088-.094-.233-.232-.071c-.031-.132-.031-.132-.365-.578.763.03 1.528-.067 2.289.049.06.375.064.397.581 1.117l-.049.019-.236-.061.409.311-.174.148c1.087 1.269 3.433 1.754 3.843 1.558.538.303.69.149.826.014l.078-.005.207-.087.038-.233.086.029.032-.24.247.026h.046l.031-.227-.174-.143.019.01.018.01.019.01.018.01.019.01.018.01.019.01.019.01c.413-.019.431-.074.521-.336l.049-.177v-.001c.472.27.995.073 1.486.159-.2.125-.308.335-.466.499l.208.145-.008.026-.116.187c-1.023.222-1.023.222-1.808.878 1.011.788 1.347.489 1.458.391.369.253.712.542 1.105.761l.052.244c-.074.045-.074.045-1.165-.103l-.205-.035-.014-.009-.014-.01-.014-.009-.014-.009-.014-.009-.013-.009-.014-.009-.367.287c.346.915 1.539.907 1.93 1.773l.207.126c-.19.186-.19.186-.707.323l.326.331c-.062.152-.18.361-.32.447-.394.242-.735-.281-1.127-.079-.646.334-.88 1.099-1.513 1.445l.181.147c-.117.093-.117.093-1.623-.044-.39.328-.434.402-.596.678l-.022.093-.021.008-.021.008-.021.008-.021.008-.021.008-.021.008-.021.008-.12-.06-.189.11-.083-.024.052-.213-.213-.108c-.188.093-1.574.173-1.763-.676l-.11-.047.14-.205-.101-.248.197-.12.007-.25-.156-.159c-.434.144-.878-.153-1.311.028l.134.212-.226.058.025.247-.19.109-.043.25.441.302.233.222.411.091v-.086c0 .072.507.51.932.649l-.074.225c.124.035.222.139.305.238l.05.057.217.001c-.3.151-.398.361-.278.625l-.04.031-.07-.009c-.198-.156-.354-.28-.882.139.084.107.236.222.362.275l-.064.024c-.504-.117-.583-.135-1.151.425l.06.249c.423.247.423.247.63.232l.008.233c-.095.095-.268.184-.401.202l-.144-.164.019-.225c-.121-.051-.314-.066-.436-.019-.039.429.109.866-.052 1.29l.131.2-.084.207c-.183.048-.39.103-1.046.889.127.907.127.907-.432 1.554.045.12.036.308-.013.425-.744.233-.744.233-.877.327-.333-.281-.339-.278-.636-.162l-.011.248c.161.091.161.091.766.628l-.174.143-.094.023-.008-.014-.008-.014-.009-.014-.008-.014-.008-.014-.009-.014-.008-.014c-.208.177-.333.276-.665.43l-.403-.178c-.241.121-.384.399-.685.422-.338.249-.338.249-.481.509.152-.014.152-.014.555.154l.009.016-.221.128c.103.039.24.1.325.169.568-.221 1.193-.104 1.765-.298l.073.221.491.065c.283.628 1.356.177 1.455 1.004l.127.072c0 .087.015.172.053.292l.055-.021.033.18.011-.004c.069.184.105.266.257.53l.055-.102.119.055-.094.109c.089.438.251.86.285 1.31-.272.143-.272.143-1.231.221-.071.131-.285.528-2.142.777-.024.003-2.434.53-2.396 1.096l-.023.136-.031.012-.031.012-.031.012-.031.012-.031.012-.031.012-.032.012c-.737.385-.365.665-.233.692 1.241.261 1.566 3.202 1.366 3.626.132.29.148.357.154.652l.139.058c.188-.1.188-.1.281-.374l.113.092c-.009.081-.064.189-.126.24l-.108.072.082.104.439-.15c.042.194.128.38.124.584.121.109.121.109.328.911l.057.098c.016-.018 1.687-1.615 2.543-.565l.144-.003c.282.27.548.523 1.012.259l-.015-.131.02-.008.065.09.02-.008c-.133-.928 2.214-1.933 2.613-1.821.165-.271.021-.608.195-.877.064-.099.064-.099.672-.465-.283-.392-.181-.879.31-1.487l-.031-.057c-.688-.065-.839-.444-.872-.604-.121-.584.443-.973.431-1.525l-.122-.049-.009-.211c.023-.078.023-.078 1.3-1.363.646-.65-.845-1.21-.272-1.927.645-.808 1.656.095 2.347-.5.629-.542.556-1.527 1.271-2.015l.279-.14c1.403-.532 2.106.915 3.239 1.145.914.185 1.857.154 2.765.385l.162.042c.123.035.25.164.347.248l.2-.164.017-.007.122.049.007.096.011.084.264-.21c.345.109.345.109.43.326.259.102.53-.098.789.03.03.015.581.376 1.198.946l.088.109c-.086.023-.185.108-.237.181.199.217.185.245.084.459l.018.027.018.027.018.026.018.026.018.027.018.026.018.027.018.027.136.028.049-.007.029-.011.029-.011.029-.011.029-.011.029-.011.029-.011.029-.011c-.033-.42-.024-.444.1-.621-.13-.254-.13-.254.122-.749-.205-.221-.205-.221-.274-.394l-.704-.086c-.26-.437-.259-.775.002-.929.163.107.163.107 1.321.32.052-.132.052-.132-.022-.336-.961-.438-2.054-.104-3.02-.512-.008-.081.017-.194.052-.268l-.047-.111c-.197-.026-.197-.026-.44.056l-.083.031-.006.002-.005.002-.005.003-.006.002-.005.002-.006.002-.006.002c-.523.2-.533.196-1.046.024l-.525-.19c-.438-.173-.672-.663-1.165-.75-1.254-.22-1.254-.22-1.293-.238-.166-.074-.409-.285-.513-.374l.05-.287c-.236-.077-.241-.082-.365-.216l-.135.032-.001.001-.015-.189c.473-.47.473-.47.504-.542.126-.046.304-.084.438-.09l-.038.22.193.153c.239-.02.411-.085.582-.15l.208-.097.066-.023c.474.16.843.57 1.381.579l-.281.127.012.016c.447.19 1.252.404 1.256.405.294.039.557-.13.845-.129 2.712.639 2.712.639 3.119.672l.097.158-.049.065c.659.923.659.923.834 1.096l-.057.064 1.536.7c.232.073.465-.058.697.001l.025.034c-.025.102-.025.102-.202.209l.015.02.607.346c.227-.126.416-.318.678-.38.303-.071.604.067.906.006l.015.02c-.018.291-.152.272-.594.21-.136-.02-.136-.02-.613.222-.017.108-.017.108.031.393.625.302.625.302.711.482.123.259.136.286.375.284.046-.135.046-.135.127-.181.194.073.3.291.522.319-.032-.233-.044-.32.377-.256-.203-.252-.203-.252-.825-.731l-.063-.089.32-.008.03-.012c.033.127.059.128.154.13.069-.152.069-.152.116-.183l-.147-.171-.135.094c-.235-.181-.235-.181-.361-.245l.262-.254c.117.005.117.005.616.239.025-.124.025-.124-.269-.386l.005-.077c-.352-.221-1.333-.296-1.546-.29l-.012-.017.15-.185c-.056-.081-.056-.081-.264-.238l-.013-.017c.144-.223.29-.024.368.083l.015-.006.033-.034-.002-.11c-1.083-.51-1.261-.637-1.275-.782-.011-.115-.012-.124-.149-.185.064-.148.064-.148.052-.23l.076-.008.069.062-.04.078c.241.132.537.152.743.357l.194-.041.097-.027c-.162-.066-.336-.101-.491-.187l-.013-.017c.188-.044.326-.011.57.136l.058-.037.01-.078-.386-.163.025-.094c.18-.023.337.145.525.064l-.013-.016c-.288-.125-.605-.173-.872-.349l-.013-.016c.321-.208.321-.208.351-.375.351-.074.351-.074.405-.183.313.031.633-.212.941.023l.006-.086c.158.014.32-.088.474.018-.097.229-.097.229.03.47.229-.209.164-.537.317-.776l-.097-.27.119-.075.027-.008.004-.001.004-.001.004-.002.004-.001.004-.001.004-.002.004-.002c.351-.158.351-.158.748-.272-.014-.13-.019-.155-.075-.297l-.084-.035c-.226-.073-.468.026-.692-.063-.378-.152-.663-.504-1.108-.508l-.026-.009-.014-.015-.014-.016-.014-.016-.014-.016-.015-.016-.014-.016-.014-.016c-.008-.389-.008-.389-.34-.868l.17-.189c-.83-1.037-.902-1.228-.553-1.463l-.133-.266-.016.006c-.108-.095-.265-.206-.389-.279.054-.6.054-.6-.075-1.067.072-.127.213-.277.343-.343l-.004-.179.228.094.109.062.053.221c.439.162.89-.22 1.326.032-.095.662-.095.662-.083.703l.495-.067c.676-.176 1.19-.368 1.685-.551l-.16-.164c-.248.04-.248.04-.621.294-.449-.234-.981-.226-1.424-.479.112-.076.273-.16.399-.208.014-.121-.008-.295-.069-.401l.21.062c.11-.481.936-1.32.944-1.328l.225.071c.034.286.034.286-.191.676.461.132.538.169.769.277l-.09.227.296.417-.048.246.16.113h.001l-.059.022c1.324.655 2.891.527 4.179 1.298.998.598 1.607 1.56.863 1.724-.484.106-.897.455-1.423.42-.431-.029-.833-.193-1.255-.262-.227.189-.324.124-.688-.116-1.217.863-1.217.863-1.518 1.372l.129.126c-.116.15-.116.15-1.328.441l-.016.19c.366.231.366.231.679.094l.054-.002c-.095.078-.095.078-.524.333.078.073.224.127.33.131l.014.083c-.314.069-.376.088-.75.26l-.124-.122-.086.092.167.068c-.177.105-.177.105-.519.061-.455.393-.326.655-.038 1.123.18-.02.18-.02.559-.264l.016.019-.016.359c.099.016.228.076.298.147l.065.091.016-.006.017-.006.017-.006.016-.006.016-.006.017-.006.017-.006.097.054-.087.175c.064.086.182.178.28.223l-.065.16-.197-.043.052.164.029.07.011.015.012.015.011.015.012.015.011.015.012.015.012.015c.157-.019.157-.019.662-.003.238.336.238.336.795.603l-.11.14c.215.118.437-.012.654.018.038.193.051.258.21.284l.011-.173.523-.13c.703.278.703.278 1.162.153l.062-.198-.267-.48c.78-.325 2.368.515 2.424-.669.113-.07.113-.07.698-.09l-.019-.398.049-.018c.908.569 1.618 2.461 1.959 3.37.588 1.566.787 2.08 1.222 2.633l-.382-.385c-.728.918-2.485.007-2.845 1.474-.82.409-1.692.106-2.537.185l-.098.037-.098.037-.099.037-.099.037-.099.037-.099.037-.099.037-.099.037-.542-.34-.046.018-.046.018-.046.017-.046.018-.046.018-.046.017-.047.019-.046.018c-.892.132-1.8-.757-2.681.043-.83.754-.83.754.042 2.354-.227.724-.227.724-8.967.423l-.218-.246c-.526.225-.726.232-1.338-.215.429-1.26.429-1.26-.728-2.185-.001-.247.005-.577.013-.824-.185.068-.417.208-.563.341-.531-.454-.806-.385-.9-.333-1.445 1.043-1.445 1.043-1.823.983-1.633 1.972-4.769 1.589-6.163 3.935-1.055.056-1.22 2.137-2.345 1.474-1.006-.593-1.775.786-2.764.333-.063.067-.176.14-.211.225-.274.656.182 1.339-.075 1.996-.369.942-1.39 1.443-1.664 2.451l.121 2.052c1.816 2.771-1.834 4.32-2.377 6.615-.012.049-1.127 5.021-.528 6.673 1.901-.373 2.974 5.102 2.358 6.271-.062.119-.226.243-.242.376.518.132.9.513 1.36.751.031.873.079 2.193 1.953 1.408l.146.704c.178 0 .42.101.55.222l.345-.039c.534.744 1.501.689 2.174 1.179l.015.041.015.041.016.04.015.041.015.041.016.04.015.041.015.04.304.078-.146.253-.062.052c.053.038 6.013 3.04 7.651 1.211 2.068-2.308 4.396-1.798 4.419-1.793l5.154-4.031c1.227.092 1.811.493 1.816.497-.082 1.134 1.241 1.031 1.631.692.387-.336 1.043-.291 1.252-.881l.314-.14c.184.087.415.258.526.429.223-.015.528-.012.742.052l-.083.311c.392.461.776 1.273.375 2.528l.287.154c-.048.386-.061.489.399.711l.004.021-.312.079c-.116.85-.116.85-.407 1.223.577.72.577.72.563.757.51.469.51.469.821.469.107.163.297.356.465.459 1.506.916 1.738 1.057 3.306 3.993l.581 3.7c.255.045.148.142-.198.273-.983 2.486-1.279 3.237-1.125 5.306.034.459.154.668.336.857 1.264 1.31 1.368 2.296 1.54 3.927.101.952.039 1.914.167 2.864.164 1.214.869 2.279.959 3.514.04.559-.497 2.155-.503 2.167l.032.062.03.003c.036-.069.107-.149.169-.197l.01.138.135-.045.085.285.127.043c1.704-1.595 2.246-1.471 2.507-1.411.243-.293.243-.293.449-.289.312-.521.902-.748 1.276-1.204 1.12-1.366 2.004-2.899 3.072-4.303.251-.33 1.098-1.522 1.476-3.004-.042-.061-.083-.153-.094-.226.574-.931 1.788-1.413 1.876-2.683.186-.439.248-.586.47-1.565l-.094.086c-.029-.49.256-.952.135-1.45l-.054-.165.017-.082.016-.082.017-.082.016-.083.016-.082.016-.082.016-.082c2.984-4.25 2.984-4.25 3.646-6.143l.031-.18c-.081-.321.033-.083.227-1.691l.037-.717c.056-2.672-.399-5.334-.162-8.009.149-1.686.891-3.21 1.312-4.821 2.107-8.045 2.189-8.359 1.514-11.527-.173-.781-.361-1.955-.362-1.962zm-53.452-20.106l-.175-.079.072-.028.153.087-.05.02zm32.916-10.791l-.131-.138-.03.011.259.282-.007.002c-.54-.474-.71-.578-1.067-.652l-.12-.095-.308-.487-.026.009-.504-.555.153-.154c-.109-.494-.336-1.195-.338-1.199.131-.042.329-.033.46.012l.193-.127c.672.253 1.037.926 1.674 1.226l-.488.053.09.216.074.076.02-.007c.12.195.151.214.562.396-.097.038-.235.065-.338.065l-.027.065.028.024.027.024.027.023.027.023.027.023.027.023.027.024.028.024c.23.052.613.138 1.427.852l.011-.004.011-.004.011-.004.012-.004.011-.004.011-.004.011-.004.011-.004c.742.406 1.345 1.003 2.038 1.477l.123.096c-.241-.26-.499-.503-.748-.755l.119-.125c1.324.614 1.328.976 1.33 1.216l-.029.004-.136-.128-.19.029-.152-.117c.109.155.363.52.831.885l.163-.052.262.255.198.121-.065.15.013.014.014.014.014.014.013.014.014.014.014.014.013.014c.6-.013 2.241 2.159 2.256 2.181-.877 1.597-3.351-1.392-3.442-1.585l-.006-.04.19.13c-.268-.329-.889-1.213-.89-1.216l.191-.035.042.007-.087-.077c-3.769-2.351-3.769-2.351-3.928-2.526zM146.913 287.412l-.907.29-.129.039c-3.41.967-7.925 1.537-9.291 1.173l-.345.053.252-.085-.043-.034-.602-.009.204.053c-.284.05-.284.05-1.546.013l.601-.155c-.309-.144-.309-.144-1.722-.296.46-.178.46-.178.699-.393l-.108-.269c-.852-.296-.852-.296-3.273-.628.832-.193.832-.193 1.177-.168l.163-.169h.002v-.001h.002l.001-.001.274-.038c-.044-.408-.615-1.025-1.699-1.83l-.237-.157.262-.048.044-.035c.263.178.447.436.671.652-.168-.395-.246-.574-2.713-2.867l-.205-.046-.01-.007-.01-.007-.01-.007-.01-.007-.01-.007-.01-.007-.01-.007c.047-.063.047-.063.204-.802-.045-.037.038-.133.054-.19.135-.39.135-.39.473-.403-.036-.198.135-.403-.018-.599l1.43-.604c-.267-.283-.234-.448.13-.654-.352-.271-.352-.271-.407-.413l-.158-1.2c-.002-.48-.929-.734-.528-1.21l-1.799-2.214c-.237-.334-.317-.747-.548-1.085.115-.028.115-.028.404.147l.047-.018c.033-.101.071-.215.076-.432l-.012-.35c-.036-.35-.458-.67-.133-1.045.544-.628.622-1.807.18-2.741-.146-.308-1.209-1.47-1.749-1.65-.509-.171-.857.365-1.341.304-.991-.124-1.898-.616-2.908-.661l-.243.02c-.432.088-.785.378-1.213.475-.525.119-1.075-.094-1.592.123-.308.129-.424.371-.706.956-.208-.201-.153-.539-.382-.729-.179-.148-.511-.281-.798-.249l-.044.181-.065.025c-.337-.227-.337-.227-1.423-.142l-.279-.023c-.392 0-.529.054-.666.107l-.226.185c.052.504-.165.979-.169 1.477l-.159-.257-.717.102c.256-.14.5-.34.549-.546.024-.098-.003-.203-.119-.471l-.029-.067-.006.002-.084-.216-.007-.028c-.212-.04-.715.094-1.495.397l-.02.008-.02.008-.02.008-.019.008-.019.007-.018.008-.017.006-.016.007c.022.155.065.264.18.448l.019-.007.153.189c-.292.512-.3.519-.617.585-.009-.177-.048-.412-.104-.579l-.033.013c-.06-.677.538-1.293.197-1.997-.614-.984-1.854-1.047-2.635-1.786l-5.127.176-.229.035c-.515-.049-.986-.334-1.521-.284l.009.272c-1.256-1.393-1.824-1.217-3.51-.696l-.015-.021c.134-.298.128-.628.212-.937-.361-.028-.712-.124-1.071-.169-.078.084-.223.198-.22.312-.162-.134-.41-.281-.61-.343l-.224-.04-.012-.017-.011-.017-.011-.017-.011-.016-.011-.016-.011-.017-.011-.016c.153-.052.358-.135.483-.236l-.019-.088-.042-.027c-.847.171-1.103 1.216-1.982 1.34-.03.004-3.747-.22-4.058-.488l-.021.337.332.008c-.066.412-.517.643-.516 1.088.367.424.859.721 1.197 1.174l-.104.322c-.763-.305-.783-.339-1.828-2.098l.242-.273-.12-.328-.309-.101-.238.248c.03.191.012.461-.051.644l-.026-.15c.013-.934-1.525-1.349-1.667-1.359l-.045.017-.004.002-.004.002-.004.002-.005.002-.004.002-.004.002-.005.001-.644.056c-.073.348-.274.642-.404.966-.19.047-.441.117-.627.178-2.462-1.881-2.462-1.881-3.095-2.948-1.412-2.384-1.412-2.384-1.669-2.392-.121-.164-.337-.347-.519-.436-.189.089-.457.177-.664.207-.264.362-.264.362-1.174.556l.015.182-.244-.21c-.034-.508-.034-.508-.731-2.011l-.094-.24-.016-.029-.015-.029-.015-.029-.015-.028-.015-.029-.015-.028-.015-.028c-.093-.1-.229-.239-.261-.372l-.005-.101c.115.138.271.319.395.448-.178-.41-.352-.821-.522-1.234l-.086.036c-.211-.676.123-1.507-.584-2.04-.274-.207-.863.186-1.125.75-.43.927.474 1.547.542 2.358l-.049.297.192.277-.179.089-.015-.028-.015-.028-.015-.029-.015-.028-.015-.028-.015-.029-.015-.028c-.117.194-.26.462-.359.665l-.348.058c-4.41-4.243-4.906-9.549-4.91-9.601l-.158-.216c.34-1.852.314-1.906.11-2.337.512-.289.512-.289.953-.219l.129-.132-.155-.19c.181.065.396.233.51.388l.325-.038.151.11.028-.14-.135-.15.324.057c-.068-.212-.12-.512-.101-.733-.135-.14-.36-.288-.544-.352l.332.008.109-.319.307-.115.12-.322.002-.049.183.308.204-.056-.006-.021-.006-.021-.005-.021-.006-.02-.006-.021-.005-.019-.005-.02c.801-.263 1.049.154 1.214.43.15-.115.301-.341.355-.522l.326-.114c1.024 1.076 1.024 1.076 1.29 2.248l.055.008c.134.31.134.31.604.965l.014-.006.014-.005.014-.006.014-.006.014-.005.014-.006.014-.006.014-.006c.317.664.899 1.118 1.335 1.688l.267-.227.132.194c-.421-2.57-2.662-4.409-2.843-7.077-.142-2.077 1.43-3.511 2-5.321l-.294.17.048-.329.04-.173c-.13-.031-.333-.069-.408-.18l.319.046-.063-.097-.004-.021.349.104c.043-.169.118-.394.201-.547-.153-.257-.163-.253-.172-.249l-.034.31c-.011-.117-.013-.261-.089-.332l-.302.191-.046-.076.274-.254.004-.054.213.014-.178-.32-.057-.096.01-.004.01-.004.011-.005.01-.004.01-.004.01-.004.01-.005-.056-.22.03.086.014-.005-.154-.292-.302.135c-.082-.123-.217-.286-.354-.342l.056-.092.26.23-.097-.313.113-.005.096-.112-.074-.258-.325-.19.228.132.071-.339c-.193-.103-.464-.219-.674-.279l-.033-.079c.193.011.43.073.589.166l-.191-.314-.09-.193.187.187.013-.005c-.147-.329-.17-.69-.273-1.031l.164-.161.032-.064.117-.313-.049.328-.058.246.014-.006.014-.005.014-.006.014-.006.014-.005.014-.006.014-.006.014-.005-.145.295.156.08.013.086-.114-.002-.002.166.235.024-.179.242.322.03.03.089c-.165-.651-.327-1.302.023-1.979l-.038.373c.142.157.318.38.436.557l.003.022.033.01c.059-.143.354-.912.373-2.036l-.242-.159c.09-.19.156-.469.175-.678l-.021.32c.823-.931.823-.931 1.551-1.305l.015-.356.2.128.217-.297.039-.127.361-.007.155-.293-.048-.079.009.072-.256.207c-.099-.181-.275-.402-.438-.527.015-.167.077-.395.173-.531-.178-.455-.178-.455.052-1.13l.063-.113-.003-.029-.003-.03-.003-.03-.003-.03-.003-.029-.003-.03-.002-.03.178-.07.108.026.101-.402c.368-.245.368-.245.498-.923l.015-.006.034.012-.022.278c.341-.299.75-.516 1.055-.86l.136-.268-.015.006-.015.006-.015.006-.015.007-.015.006-.015.006-.016.006-.011-.335.061.005c.892-.479 1.007-.54 1.625-1.497l.232-.2c-.082.213-.232.483-.375.662l1.048-.325.037.05c-.173.108-.395.268-.552.399l.002.019.002.019.001.018.002.019.002.018.002.019.002.018.002.019-.351-.104c-.313.368-.443.521-.716.976l-.03.012.084.031.002.025c-.129.103-.293.256-.378.398l.052.023.194-.281c-.317.681-.067.94.199 1.215.148-.125.355-.281.517-.39l-.002-.019-.002-.018-.002-.019-.002-.019-.002-.02-.002-.02-.002-.019-.002-.021.051.027c.25-.605.25-.605.429-.929l-.052-.216.012-.004.012-.005.012-.005.012-.005.012-.005.012-.005.012-.004.061.088.015-.006.122-.248c.137-.015.336-.052.433-.149l.061-.206c.358-.174.358-.174 1.074-.916l.208-.125.042-.065-.122-.175.13-.206c-.185-.077-.452-.133-.651-.143l-.211.283-.234.007-.02-.039c-.383.187-.383.187-.992.107l-.015.006-.015.006-.002-.024.211-.194c-.59.01-.852-.107-.844-.833l-.327.068c.189-.375.189-.375.298-1.023-.16.085-.162.05-.164.015l-.239.259c-.196-.035-.457-.093-.65-.142l-.117.003c1.452-1.32 1.452-1.32 1.476-1.474-.152-.134-1.57-1.151-4.43 4.301 1.417-5.315 3.702-6.055 5.717-6.708 1.521-.493 1.972-1.104 2.203-1.529l.114-.281c.588-.94 1.963-1.118 2.29-2.311l-.002-.043-.343-.388c.108-.344.438-1.387-.426-1.117-.09.027-.126.07-.367.344-.119-.171-.119-.171.021-.483-.127-.094-.34-.251-.629-.042-.616.444-.981 1.128-1.551 1.616.153-1.185 1.49-1.405 1.925-2.36-.48.032-.938-.18-1.419-.128-.274.03-.454.238-.683.355.074-.875.074-.875-.453-1.137l-.1-.01-.026.011-.026.01-.027.011-.026.011-.026.01-.026.011-.026.011c-.218-.191-.283-.56-.28-.624.613-.454.613-.454.619-.544-.378-.211-.378-.211-.479-.334.098-.138.123-.16.232-.238-.05-.335-.429-.498-.444-.851l-.176.088c.014-.121.014-.121.114-.425-.262-.492-.457-1.02-.77-1.484l-.142.318c-.131.298-.543.474-.389.896-.442.758-.442.758-.544 1.312l-.015.006-.126-.345-.103-.016c-.22.469-.22.469-1.02 1.183-.066-.209.155-.589-.15-.638-.144-.023-.144-.023-.727.498l-.011.004c-.041-.167-.038-.181.054-.527l.198-.058.554-2.568c-.558.055-.558.055-1.037.041-.037-.164-.035-.169.089-.41-.173-.245-.253-.553-.502-.747l-.108.024c-.359.111-.478.585-.903.597-.264.008-.508-.219-.784-.063-.331.33-.625.922-.51 1.189.067.156.067.156-.574 1.325l-.007.023.334-.102c-.09.252-.09.252-.216.942-.136.745-.806 1.211-1.004 1.923-.059.214.135.465.291.667.706.914-.299 3.039-1.2 4.188-.188.24-.625.435-.709.728-.114.398.218.724.183 1.108l-.015.006-.014.006-.014.006-.014.005-.014.006-.014.006-.014.005-.014.006.006.572-.006.05-.006.051-.006.05-.006.051-.006.05-.006.051-.006.05-.006.051c.026.682.026.682-.218 2.348-.18-.408-.18-.408-.205-.43-.206.344-.305.586-.383.517l-.138.013v.001c-.059-.83-.805-1.498-.567-2.397.184-.698.273-2.184.271-2.19l-1.093.163c-.182-.255-.503-.306-.728-.499-.058-1.389-.788-1.191-.854-1.133-.141.126-.25.285-.4.401.237-.81.336-1.146.489-2.173l-.143-.065c-.096-.752 1.089-3.36 2.588-5.695l-.015-.162.006-.077.046-.085c.312-.124.312-.124.549-.44l.054-.084.01-.021.01-.022.01-.022.01-.021.009-.021.01-.021.01-.022.004-.179c-.202-.193-.202-.193-.169-.606l-.01.005.009-.018c.281.06.327.104.441.248l.152-.039c.14-.284.258-.578.39-.866l.038.155.159-.005c.549-.59.709-.868 1.139-1.612l.059-.104-.185.022-.128-.126c.017-.493.017-.493-.073-.671l.287-.226c.091.225.091.225.109.665.012-.011 1.191-1.126 1.087-1.565l-.003-.091c.161-.214.209-.278.55-.413l-.11.358c.149-.033.149-.033.489-.867l.104-.122.117.12c-.033.147-.068.345-.081.495 1.246-.773 1.12-2.401 2.084-3.35l.034.164c.171-.111.284-.185.614-.87l-.115-.127.048-.178c-.442-.565-.971.52-.999.794-.023.215-2.186 2.916-2.207 2.936.067-1.054 1.057-1.658 1.287-2.633-.467.402-.712.986-1.158 1.405.794-1.255 1.085-1.815 1.085-1.816l-.144.09c0-.141.001-.355.345-.614l1.607-2.439-.04.005c-.154.124-2.146 2.391-2.465 3.113l.076.148.111.04-.067.097-.067.097-.067.097-.066.097-.066.097-.066.098-.066.098-.066.098.149-.33c-.253.218-.253.218-.465.496l-.076.102.147-.092c-.367 1.127-1.379 1.801-1.956 2.78.055-.626.759-.936.774-1.582l-.154.004c-.195.292-.259.655-.496.925l.141-.354c-.56.41-.56.41-.591.446.005-.265.005-.265.223-.733-.303.333-.542.595-1.748 2.568.13-.236.349-.63 1.079-1.789-.207.272-.445.66-.632.946-3.163 5.391-3.163 5.391-4.428 8.253-2.306 5.811-2.306 5.811-3.12 8.831-.412 1.802-.98 4.202-1.3 6.022l-.439 3.223c-.441 6.323-.441 6.323-.289 9.499.566 6.414.566 6.414 1.235 9.589l1.035 4.174.086.297c.376 1.257 3.81 12.311 8.422 13.374.107-.159.197-.414.208-.607.226-.012.226.659 2.441 2.175.195.004.195.674.196.674h.010000000000000002l.004-.675.003-.338.003-.169.003-.086.003-.043.003-.022.003-.012.003-.007c.528.023 1.021.238 1.548.268l.08-.325.308.2.098.126-.014.006-.014.006-.015.006-.014.006-.015.006-.015.006-.015.006.062.098c.681.465 1.502.722 2.057 1.376l.196.21c.083.305.083.305.941.874-.064-.176-.245-.38-.406-.475l-.088-.098c.695.247 1.89 1.171 1.896 1.178l.208-.022-.239-.21c.184.103.41.279.556.431.285-.281.285-.281 1.278.037l-.141-.253c.196.151.335.367.561.483l.241-.223c-.084-.202-.291-.442-.483-.546-.082-.446-.082-.446.076-1.015.733-.113 1.276.313 1.281.318l-.052.369c.162.139.383.317.555.443l-.155.322-.333.105.06.369-.312.078c-.233.934.405 1.684.536 2.542.13.104.299.27.356.426l-.587-.36-.209-.074.638.477c.026.211.071.491.109.7 1.804 1.227 3.284 3.462 3.295 3.481l-.23.281c.139.147.259.411.286.611l.309.283c-.071.391-.113.626.763 1.497l.102-.029c.204.497.849.589 1.024 1.113l.256.106.193-.188 2.311 2.408c2.804.667 5.239 2.271 7.965 3.138l.27.124.072.043.072.043.072.042.072.043.072.042.072.042.072.042c3.316 1.06 6.868 1.304 10.033 2.887l.062.122.034.015.034.015.034.015.034.015.034.015.034.015.034.015c4.096 1.048 7.877 3.116 12.102 3.749l.005.065.6.026.1.01.1.008.1.009.101.009.101.008.101.008.101.008.101.008.69.023.297.015c2.497.279 4.971-.203 7.458-.236-.131.018.191-.01 1.046-.131l.017-.004.017-.004.017-.003.017-.002.017-.003.017-.003.018-.003.018-.003.062-.031.339-.062.088-.014c.838-.105 2.13-.385 3.84-.831l.177-.052c.62-.17 1.643-.485 1.652-.488l-.285.085.208-.065c.259-.096.531-.183.802-.273zm-69.503-52.811l-.126-.208-.006-.097.132.305zM138.622 289.963l.005-.003-.003-.009zM80.617 225.799l.021.034-.005-.037-.016.003zM80.443 225.661c.113.123.151.14.174.138l-.099-.162-.075.024zM77.484 232.113c.092.916.092.916.106.943.03-.344-.033-.683-.114-1.021l-.005.083.013-.005zM77.482 231.966l-.077-.227.071.297.006-.07z"/><path fill="#7D8B8C" d="M158.1 290.363c-1.77.95-3.58 1.82-5.44 2.61-8.18 3.489-17.19 5.42-26.65 5.42-37.55 0-68-30.44-68-68 0-30.67 20.3-56.59 48.2-65.07 1.91-.58 3.85-1.08 5.83-1.49l1.39 3.8c-1.99.39-3.94.88-5.86 1.46-26.35 7.91-45.56 32.36-45.56 61.3 0 35.35 28.66 64 64 64 8.98 0 17.52-1.851 25.28-5.19 1.85-.79 3.66-1.67 5.42-2.64l1.39 3.8z"/><path fill="#E5EBED" d="M146.28 318.333c0 1.2-.1 2.32-.3 3.32h-39.94c-.2-1-.3-2.12-.3-3.32 0-.84.05-1.58.15-2.399l.04-.28c1.31-9.47 9.16-16.83 18.84-17.41.41-.03.82-.04 1.24-.04 10.25 0 18.74 7.561 20.08 17.45l.04.25c.1.82.15 1.589.15 2.429z"/><path fill="#7D8B8C" d="M103 315.653h46v6h-46z"/><path opacity="0.1" fill="#5E6061" d="M160.92,280.323c-9.85,6.84-21.81,10.84-34.71,10.84c-33.68,0-61-27.31-61-61 c0-24.89,14.91-46.29,36.28-55.78c-13.05,11.37-21.3,28.11-21.3,46.78c0,34.26,27.77,62.03,62.02,62.03 C148.73,283.193,155.01,282.184,160.92,280.323z"/><path opacity=".05" d="M124.77 298.243v23.41h-21.77v-6h2.93c1.31-9.469 9.16-16.83 18.84-17.41z"/></g>
	<g class="tablet"><path fill="#222F33" d="M469 216.653v102c0 1.66-1.34 3.347-3 3.347h-76c-1.66 0-3-1.686-3-3.347v-102c0-1.66 1.34-2.653 3-2.653h76c.74 0 1.41.097 1.93.537.65.539 1.07 1.196 1.07 2.116z"/><path fill="#F8FAFB" d="M394 225h68v88h-68z"/><ellipse fill="#F3F9FB" cx="427.667" cy="317.153" rx="3" ry="3.218"/><path class="axis" fill="#586E85" d="M398 303h1v3h-1zM398 298h1v3h-1zM398 293h1v3h-1zM398 288h1v3h-1zM398 283h1v3h-1zM398 278h1v3h-1zM398 273h1v3h-1zM398 268h1v3h-1zM398 263h1v3h-1zM398 258h1v3h-1zM398 253h1v3h-1zM398 248h1v3h-1zM398 243h1v3h-1zM398 238h1v3h-1zM398 233h1v3h-1zM455 307h3v1h-3zM450 307h3v1h-3zM445 307h3v1h-3zM440 307h3v1h-3zM435 307h3v1h-3zM430 307h3v1h-3zM425 307h3v1h-3zM420 307h3v1h-3zM415 307h3v1h-3zM410 307h3v1h-3zM405 307h3v1h-3zM400 307h3v1h-3z"/><path class="rightBar" fill="#FD8560" d="M442 286h11v19h-11z"/><path class="middleBar" fill="#7274AD" d="M422 250h11v55h-11z"/><path class="leftBar" fill="#AD72A8" d="M402 269h11v36h-11z"/><path opacity=".03" d="M467.93 214.537l-80.93 101.116v-99c0-1.66 1.34-2.653 3-2.653h76c.74 0 1.41.097 1.93.537z"/></g>
</g>
</svg>