<svg version="1.2" baseProfile="tiny" xmlns="http://www.w3.org/2000/svg" viewBox="0 0 205 205"><path fill="#E95835" d="M56.654 123.182s4.531 18.57 9.806 20.237c0 0 4.284 3.455-3.834 6.283 0 0-16.125-17.719-17.021-25.8l11.049-.72zm-32.237-23.352l6.211 25.058 81.914 5.127-15.86-63.987z"/><path fill="#A73A1E" d="M19.812 98.892l5.775-1.179 5.77 28.269-5.775 1.179zm96.115 29.343c.277 1.393-.98 2.694-2.807 2.905l-1.845.213c-1.827.211-3.533-.747-3.81-2.14l-12.643-63.591c-.277-1.393.98-2.694 2.807-2.905l1.845-.213c1.827-.211 3.533.747 3.81 2.14l12.643 63.591z"/><path fill="#E9CAB4" d="M73.037 144.743l-11.574-17.647-10.47 8.106-.922-1.893-.878.711c-3.827 1.013-2.928 5.91-2.928 5.91l2.928 8.444v10.639l14.353 3.377.451-5.404c9.118-4.898 9.04-12.243 9.04-12.243zm-13.424-8.853c-1.023.846-2.537.702-3.383-.321l-.511-.617c-.846-1.023-.702-2.537.32-3.383l4.938-4.083c1.023-.846 2.537-.702 3.383.32l.511.617c.846 1.023.702 2.537-.32 3.383l-4.938 4.084zm3.676 3.799c-.948.784-2.353.651-3.138-.297l-.473-.572c-.784-.949-.651-2.354.297-3.138l4.58-3.787c.948-.784 2.353-.651 3.138.297l.474.572c.784.949.651 2.354-.297 3.138l-4.581 3.787zm3.429 3.813c-.948.784-2.353.651-3.138-.297l-.473-.572c-.784-.949-.651-2.354.297-3.138l4.58-3.787c.948-.784 2.353-.651 3.138.297l.473.572c.784.949.651 2.354-.297 3.138l-4.58 3.787zm2.827 4.129c-.948.784-2.353.651-3.138-.297l-.474-.572c-.784-.949-.651-2.354.297-3.138l4.58-3.787c.948-.784 2.353-.651 3.138.297l.473.572c.784.949.651 2.354-.297 3.138l-4.579 3.787z"/><path fill="#fff" d="M46.173 158.297l19.249 4.092-1.5 6.114-18.316-5.103z"/><path fill="#3A3B3C" d="M44.779 160.211l22.208 7.654v6.591h-23.696z"/><circle fill="#fff" cx="47.085" cy="164.251" r="1.307"/><circle fill="#fff" cx="46.214" cy="167.681" r="1.307"/><path fill="#A73A1E" d="M46.949 128.135l10.631-1.56-11.532-.714s.494 1.33.901 2.274z"/><path fill="#F6D45A" d="M162.333 30.544l-15.469 15.331 4.297 2.763-23.226 18.617 18.733-19.124-3.794-4.868zm22.853 50.857l-22.355 1.594 1.502 5.038-30.613-1.042 27.445-2.366.303-6.344zm-6.855 56.491l-17.322-10.719.883 8.711-23.545-19.688 21.289 12.525.579-9.675z"/></svg>