<?xml version="1.0" encoding="utf-8"?>
<!-- Generator: Adobe Illustrator 18.1.1, SVG Export Plug-In . SVG Version: 6.00 Build 0)  -->
<svg version="1.1" id="Layer_1" xmlns="http://www.w3.org/2000/svg" xmlns:xlink="http://www.w3.org/1999/xlink" x="0px" y="0px"
	 viewBox="0 77 200 90" enable-background="new 0 77 200 90" xml:space="preserve">
<g>
	<g>
		<path fill="#B57B55" d="M194.8,141.3v24.3h-5.2v-19h-179v19H5.2v-24.3H194.8z"/>
		<path fill="none" d="M97.8,146.6c0.4-1.6,0.7-3.6,0.9-5.2h-1c0.2,2.3-0.2,3.5-0.2,3.6c-0.1,0.2-0.3,0.2-0.5,0.2
			c-0.2-0.1-0.4-0.1-0.3-0.4c0,0,0.4-1.5,0.2-3.4h-1.3c0.2,1.3,0.3,3.3,0.3,5.2H97.8z M104.4,146.6h1.2c-0.4-2-1-3.6-1.6-5.2h-0.4
			c0.3,0.3,0.5,1.4,0.7,3.4C104.4,145.3,104.4,145.9,104.4,146.6z M99.2,146.6c0.4-2,0.8-3.9,1-5.2h-0.6c-0.2,1.6-0.5,3.3-0.9,5.2
			H99.2L99.2,146.6z M107.8,146.6c-0.6-2-1.2-3.9-1.8-5.2h-1c0.6,1.6,1.1,3.3,1.5,5.2H107.8z M101.1,146.6c0.1-0.7,0.1-1.2,0.2-1.8
			c0.3-1.9,0.6-3.1,0.9-3.4H101c-0.2,1.3-0.5,3.3-1,5.2H101.1z M102.2,144.6c-0.1,0.6-0.2,1.3-0.2,1.9h1.6c-0.1-2-0.3-3.9-0.6-4.7
			C102.8,142.2,102.6,142.8,102.2,144.6z M120.4,146.6h1.5c-0.7-1.3-1.4-1.9-2-2.7c-0.4-0.5-1.2-1.6-2.3-2.5h-1.7
			C117.5,142.6,119.1,144.6,120.4,146.6z M122.9,146.6h3.6c-2-1.6-3.9-3.6-5.7-5.2h-2.1c0.9,1,1.6,1.7,1.8,2
			C121.1,143.9,122,144.9,122.9,146.6z M109.7,146.6c-0.5-2-1-3.6-1.7-5.2h-1.1c0.6,1.3,1.2,3.3,1.8,5.2H109.7L109.7,146.6z
			 M111.2,146.6c0-0.7,0-1,0.1-1.3c0.2-0.8,0.8-1.2,0.8-1.3l0.1-0.1c0.3-0.1,0.6,0,1,0c1.6,0,3.3,1.3,4.7,2.6h1.5
			c-1.4-2-3-3.9-4.7-5.2H109c0.6,1.6,1.2,3.3,1.7,5.2L111.2,146.6L111.2,146.6z M81.6,146.6c-0.3-1.3-1.1-3.3-2.2-5.2h-1.3
			c0.5,1.6,0.7,3.6,0.7,5.2H81.6z M124.9,144.1c-0.6-1-1.2-2.1-1.8-2.8H122C122.9,142,123.9,143.2,124.9,144.1z M84.5,146.6
			c-0.8-2-1.6-3.6-2.5-5.2h-1.6c1,2,1.9,3.9,2.1,5.2H84.5L84.5,146.6z M72.5,143.5c-0.2-0.2-0.4-0.4-0.5-0.4c-0.2,0-0.8,0.4-1.3,0.9
			c-0.4,0.5-0.8,1.2-1,2.5h0.9c0-0.3,0.1-0.5,0.1-0.7c0.1-0.2,0.3-0.5,0.5-0.4c0.2,0.1,0.4,0.5,0.3,0.7c0,0.1,0,0.1-0.1,0.4h1
			C72.9,144.6,72.6,143.8,72.5,143.5L72.5,143.5z M95,146.6c0-2-0.2-3.9-0.3-5.2h-1.5c0.2,1.3,0.3,3.3,0.4,5.2H95z M75.2,146.6h0.7
			c0.2-2-0.1-3.6-0.7-5.2h-1.3C75,142.3,75.7,143.9,75.2,146.6z M76.8,146.6H78c0-1.6-0.2-3.6-0.8-5.2h-1.1
			C76.7,143,77,144.6,76.8,146.6z M92.7,146.6c-0.1-2-0.2-3.9-0.4-5.2h-1.4c0.3,2,0.4,3.6,0.4,5.2H92.7z M88.9,143.7
			c0-0.5-0.1-1.4-0.3-2.4h-1.1c0.3,0.3,0.5,0.9,0.8,1.4C88.5,143.3,88.7,143.5,88.9,143.7z M90.2,146.6c0-0.3,0-0.5,0-0.7
			c0-0.1,0-0.1,0.1-0.1c-0.1-1.4-0.2-3.1-0.4-4.4h-0.5c0.6,3.3,0,3.3-0.2,3.4c-0.1,0-0.2-0.1-0.3-0.1c-0.5,0-1-0.5-1.5-1.7
			c-0.3-0.6-0.6-1.1-1-1.7h-1c1,2,2.2,3.9,3.2,5.2L90.2,146.6L90.2,146.6z M87.6,146.6c-1.1-1.6-2.3-3.9-3-5.2H83
			c0.9,1.6,1.7,3.3,2.4,5.2H87.6L87.6,146.6z M149.3,146.6h0.3c-0.7-1.3-1.5-2.1-2.3-3.3c-0.4-0.6-0.9-1.3-1.4-1.9h-0.1
			c0.8,1,1.5,2,2.1,3C148.4,145.1,148.9,145.6,149.3,146.6L149.3,146.6z M183.8,146.6h2.2c-0.6-1-1.3-1.5-2.3-2.2
			c-1.5-1.2-2.9-2.4-4.1-3h-2.3C179.6,142.6,182,144.6,183.8,146.6L183.8,146.6z M159,142c-1.1,1.3-1.3,3.2-1.2,4.5h1.7
			c0-1,0.2-1.6,0.2-1.7c0.1-0.2,0.3-0.4,0.6-0.4c0.2,0.1,0.3,0.5,0.2,0.7c0,0.1-0.2,0.4-0.2,1.3h12.8c-3.3-1.6-7.5-2.6-9.7-2.9
			c-0.2,0-0.4-0.4-0.4-0.6c0-0.2,0.3-0.2,0.5-0.2c0.4,0.1,7.2,1.1,11.5,3.7h3.9c-2.3-3-7-4.6-11.4-5.2h-7.7
			C159.5,141.3,159.2,141.7,159,142L159,142z M180.1,146.6h2.5c-1.7-1.6-4-3.6-6.9-5.2h-4.1C175,142.3,178.3,143.9,180.1,146.6z
			 M138.7,143.7c0,0.4,0.6,1.5,1.6,2.8h0.9c-0.1-0.3-0.1-0.4-0.2-0.5c-0.1-0.2-0.1-0.6,0.1-0.7c0.2-0.1,0.5,0.1,0.6,0.2
			c0.2,0.2,0.4,0.6,0.6,0.9h0.8c-1.4-1.3-3.1-2.6-4.4-2.7C138.8,143.8,138.7,143.7,138.7,143.7L138.7,143.7z M156.9,146.6
			c0-1.6,0.2-3.6,1.4-5.1c0,0,0.1-0.1,0.1-0.1H156c-0.4,0.7-0.8,1.2-1.5,1.4c-0.2,0-0.3,0-0.5,0c-0.4,0-0.9,0-1.5-0.3
			c-0.5-0.3-1-0.7-1.5-1.1h-2.3c1.4,1.6,2.8,3.3,4.1,5.2L156.9,146.6L156.9,146.6z M154.3,141.9c0.3-0.1,0.6-0.3,0.8-0.6h-2.7
			c0.2,0,0.5,0.2,0.7,0.4C153.5,142,153.9,142,154.3,141.9z M190.7,161.5c-0.5-0.2-0.9-0.4-1.2-0.6v4.7h5.2v-3.4c-0.2,0-0.3,0-0.5,0
			C193,162.2,191.9,162,190.7,161.5L190.7,161.5z M187,146.6h2.5v13.3c0.3,0.3,0.9,0.6,1.6,0.9c1.2,0.5,2.4,0.7,3.7,0.6v-2
			c-0.1,0-0.3,0-0.4,0c-0.3,0-0.6,0-0.9-0.1c-1.7-0.3-2.6-1.4-2.3-3c1-6.3-0.4-11.4-4.2-15H181c1,0.7,2,1.5,3.2,2.4
			C185.4,144.7,186.4,145.6,187,146.6L187,146.6z M193.3,143.3L193.3,143.3c0.4,0,0.8-0.6,1.2-1.3c0.1-0.1,0.1-0.4,0.2-0.5v-0.1
			h-3.4C192.1,142.3,192.7,143.3,193.3,143.3z M192,156.4c-0.2,1.2,0.4,1.8,1.6,2.1c0.4,0.1,0.7,0,1.2-0.1v-1.1
			c-0.2,0-0.4-0.1-0.6-0.2c-1-0.5-1.5-1.5-1.1-2.5c0.7-1.6,0.1-6.8-0.1-8.7c0-0.2,0.1-0.5,0.4-0.5c0.2,0,0.5,0.1,0.5,0.4
			c0,0.3,0.9,7,0.1,9.1c-0.2,0.5,0.1,1.1,0.6,1.4c0.1,0,0.2,0.1,0.3,0.1v-5.7c0-0.2,0-0.4-0.1-0.6c-0.1-1.3-0.1-2.6,0.1-3.6v-3.6
			c-0.5,0.5-0.9,1.3-1.4,1.3h0c-1.1,0-1.9-1.3-2.8-2.7c0-0.1-0.1-0.2-0.1-0.2h-2.2C191.6,145.2,192.9,150.2,192,156.4z M132.6,146.6
			h0.6c-0.5-1.6-0.8-3.3-0.9-5.2h-0.3c0,0.3,0,1.3,0.1,1.9C132.1,144.4,132.3,145.2,132.6,146.6z M150.4,145.9
			c0.1,0.1,0.2,0.3,0.3,0.6h1c-1.3-2-2.7-3.6-4.1-5.2H147c0.3,0.3,0.7,0.9,1,1.3C148.8,143.9,149.6,144.9,150.4,145.9L150.4,145.9z
			 M130.2,146.6h1.5c-0.3-1.3-0.5-2.1-0.6-3.3c-0.1-0.7-0.1-1.3-0.1-2h-1.8c0,0,0,0.3,0.1,0.5C129.5,143.2,129.8,144.6,130.2,146.6
			L130.2,146.6z M126.6,145.1c0.1,0.1,0.3,0.1,0.3,0.2v-4h-2.7C124.9,142.3,125.7,143.5,126.6,145.1
			C126.6,145.1,126.6,145,126.6,145.1L126.6,145.1z M112.5,144.9c-0.1,0-0.3,0.3-0.4,0.7c-0.1,0.2-0.1,0.3,0,0.9h4.4
			C114.9,145.2,113.5,144.6,112.5,144.9L112.5,144.9z M129.3,146.6c-0.4-2-0.7-3.3-0.9-4.7c0-0.2,0-0.5-0.1-0.5h-0.5v5.2H129.3z
			 M134.3,146.6c-0.6-1.6-0.9-3.3-1-5.2h-0.2c0.1,2,0.5,3.6,1,5.2H134.3z M68,146.6h0.7c0.2-1.6,0.7-2.6,1.2-3.1
			c0.7-0.8,1.5-1.2,1.9-1.2c0.5,0,1,0.4,1.2,0.8c0.5,0.7,0.5,1.8,0.2,3.5h1c0.6-3-0.4-4.3-1.7-5.2h-2.4
			C69.1,142,68.2,143.9,68,146.6z M146.8,146.6h1.5c-0.3-0.7-0.7-1.1-1.1-1.7c-0.8-1.3-1.7-2.5-2.5-3.5h-3.4
			C143.2,142.6,145.2,144.6,146.8,146.6z M136.4,146.6c-1-2.3-1.4-3.9-0.9-5.2h-1.4c0.1,2,0.5,3.6,1.1,5.2H136.4L136.4,146.6z
			 M137.4,146.6h1.8c-0.9-1.3-1.5-2.6-1.2-3.3c0.1-0.2,0.3-0.4,1-0.3c1.6,0.2,3.8,1.6,5.6,3.6h1.2c-1.8-2.3-4-4.3-5.9-5.2h-3.2
			c0,0,0,0,0,0.1C135.8,142.5,136.3,144.3,137.4,146.6L137.4,146.6z M29.5,146.6L29.5,146.6c-0.1-0.5-0.4-3.3,0.6-5.2h-2.5
			c-0.2,0-0.4,0-0.6,0.1c-0.2,0-0.3,0.2-0.5,0.2c-0.4,0-0.8-0.3-1.3-0.3h-2.9c1.4,1.6,2.8,3.3,4,5.2L29.5,146.6L29.5,146.6z
			 M20.2,146.6h1.3c-0.5-1-1.1-2-1.8-3c-0.5-0.8-1-1.5-1.5-2.2h-2.7C17.3,142.6,19,144.6,20.2,146.6z M10.5,151.1
			c-2-2.4-4-5.5-4.6-9.8H5.8c0.7,5.6,3.4,9,4.7,10.6V151.1z M22.5,146.6H23c-0.3-0.7-0.5-1-0.8-1.4c-0.8-1.1-1.6-2.1-2.4-3.3
			c-0.1-0.2-0.3-0.5-0.4-0.5h-0.1c0.4,0.3,0.8,1.2,1.2,1.7C21.2,144.2,21.9,145.2,22.5,146.6z M60.3,146.6h3c-0.5-2-1.4-3.9-2.7-5.2
			h-5.3c0.4,0.3,0.9,0.7,1.4,1C58.6,143.8,59.7,144.9,60.3,146.6z M39,146.6h2.8C40.6,146.2,39.7,146.2,39,146.6z M10.5,147.7
			c-1.6-2.4-2.7-4.7-2.7-6.4h-1c0.5,3.6,2,6.2,3.7,8.4V147.7L10.5,147.7z M5.2,158.8c1.2,2.1,2.5,4.8,3.9,6.7h1.4v-0.7
			c-2-3.5-3.9-6.9-5.2-10.1V158.8z M22.9,144.6c0.4,0.6,0.8,1.3,1.2,1.9h1.1c-1.2-2-2.6-3.6-4-5.2h-0.7c0,0,0.1,0,0.1,0
			C21.3,142.5,22.1,143.6,22.9,144.6z M57.4,146.6h1.9c-0.6-1.3-1.6-2.3-3.2-3.5c-0.8-0.6-1.6-1.4-2.3-1.7h-2.2
			C53.9,142.6,56,144.6,57.4,146.6z M10.5,153.1c-1-1.1-4-4.4-5.2-10v2.1c1.1,3.7,3.3,6.8,5.2,9.1V153.1L10.5,153.1z M30.3,146.2
			c0,0,0,0.2,0,0.2l0,0.2h1.8c-0.4-1.6,0-2.9,0-3c0.1-0.2,0.3-0.4,0.6-0.4c0.2,0.1,0.3,0.5,0.2,0.7c0,0.1-0.4,1,0.1,2.6h4.5
			c0.9-1.3,3.5-1.6,7.1,0H48c-3.4-2.3-9.4-3.8-12.2-4.3c-0.2,0-0.4-0.4-0.4-0.6c0-0.2,0.3-0.2,0.5-0.2c0.5,0.1,9.5,1.4,13.5,5.1h2.9
			c-1.2-2.6-4-4.3-7.1-5.2H31.1C29.9,143.3,30.3,146.1,30.3,146.2L30.3,146.2z M53.3,146.6h3c-1.4-1.6-3.4-3.6-6.1-5.2h-2.6
			C50.1,142.3,52.3,143.9,53.3,146.6z M5.2,164.4c0.2,0.2,0.3,0.9,0.5,1.2h2.4c-1-1.6-1.9-3.5-2.9-5V164.4z M11.3,142.4
			c0,0-0.1,0.1-0.1,0.1c0,0.5,1,2.1,2.7,4.1h0.9c-0.6-1-1.1-1.5-1.3-1.8c-0.1-0.2-0.1-0.6,0.1-0.7c0.2-0.1,0.5,0.1,0.6,0.2
			c0.5,0.7,1.1,1.3,1.8,2.3h1C15.4,144.6,13,142.6,11.3,142.4L11.3,142.4z M65.6,146.6c-0.1-0.7-0.1-1.3-0.2-1.7
			c0-0.2,0.1-0.6,0.4-0.6c0.2,0,0.5,0.3,0.5,0.5c0,0.1,0.1,0.8,0.2,1.7h0.7c0.2-2.6,0.9-4.3,1.8-5.2h-1.2l0,0.1
			c-0.6,1-1.3,1.6-1.9,1.6h0c-0.8,0-1.4-1-2.1-1.6h-2.1c1.1,1.3,2,3.3,2.5,5.2H65.6z M10.5,163.3v-7.7c-1.6-2-3.9-4.7-5.2-7.9v4.8
			C6.6,155.9,8.2,159.5,10.5,163.3z M12.8,146.6c-1.4-1.6-2.7-3.7-2.3-4.6c0.1-0.2,0.3-0.4,1-0.3c2,0.2,5.1,2.6,6.8,4.9h1
			c-1.3-2-3.2-3.9-5-5.2H8.7c0,1.3,0.8,3.3,2,5.2H12.8z M65.8,142L65.8,142c0.3,0,0.6-0.3,0.9-0.7h-1.9
			C65.2,141.6,65.5,142,65.8,142z"/>
		<path opacity="0.1" enable-background="new    " d="M193.8,155c0.9-2.1,0-8.8-0.1-9.1c0-0.2-0.3-0.4-0.5-0.4
			c-0.2,0-0.4,0.3-0.4,0.5c0.3,1.9,0.8,7.1,0.1,8.7c-0.4,0.9,0.1,2,1.1,2.5c0.2,0.1,0.4,0.2,0.6,0.2v-0.9c-0.1,0-0.2-0.1-0.3-0.1
			C193.9,156.1,193.6,155.5,193.8,155z M194.7,150.2c0,0.2,0,0.4,0.1,0.6v-4.3C194.6,147.6,194.6,148.8,194.7,150.2z M163,142.9
			c0,0.2,0.1,0.7,0.4,0.7c2.2,0.3,6.4,1.3,9.7,2.9h2c-4.4-2.6-11.1-3.7-11.5-3.8C163.3,142.7,163,142.7,163,142.9L163,142.9z
			 M160.4,145.2c0.1-0.2,0-0.6-0.2-0.7c-0.2-0.1-0.5,0.2-0.6,0.4c0,0.1-0.2,0.7-0.2,1.7h0.9C160.3,145.6,160.4,145.2,160.4,145.2
			L160.4,145.2z M179,146.6h1.1c-1.8-2.6-5.1-4.3-8.6-5.2h-4C172,142,176.6,143.6,179,146.6z M156.9,146.6h0.9
			c0-1.3,0.1-3.3,1.2-4.5c0.2-0.3,0.5-0.7,0.8-0.7h-1.4c0,0-0.1,0.1-0.1,0.1C157.1,142.9,156.9,144.9,156.9,146.6z M152.8,146.6
			c-1.3-2-2.6-3.6-4.1-5.2h-1.1c1.4,1.6,2.8,3.3,4.1,5.2H152.8z M154,142.6c0.2,0,0.3,0.2,0.5,0.1c0.7-0.2,1.1-0.8,1.5-1.4h-1
			c-0.2,0.3-0.5,0.5-0.8,0.6c-0.3,0.1-0.7,0.1-1.3-0.2c-0.2-0.1-0.4-0.4-0.7-0.4H151c0.6,0.3,1.1,0.7,1.5,1
			C153.1,142.6,153.6,142.6,154,142.6L154,142.6z M131.7,146.6h0.9c-0.3-1.3-0.5-2.2-0.6-3.3c-0.1-0.6-0.1-1.6-0.1-1.9h-0.9
			c0,0.7,0,1.3,0.1,2C131.2,144.4,131.4,145.2,131.7,146.6L131.7,146.6z M134.1,146.6c-0.5-1.6-0.8-3.3-1-5.2h-0.9
			c0.1,2,0.5,3.6,0.9,5.2H134.1z M145.7,146.6h1.1c-1.5-2-3.5-3.9-5.4-5.2h-1.6C141.6,142.3,143.9,144.3,145.7,146.6z M148.3,146.6
			h1c-0.4-1-0.9-1.5-1.3-2.2c-0.7-1-1.4-2.1-2.1-3h-1.1c0.8,1,1.7,2.3,2.5,3.5C147.6,145.4,148,145.9,148.3,146.6L148.3,146.6z
			 M136.4,146.6h1c-1.1-2.3-1.6-4.1-0.9-5.2c0,0,0-0.1,0-0.1h-1C135,142.6,135.4,144.3,136.4,146.6L136.4,146.6z M135.3,146.6
			c-0.6-1.6-1-3.3-1.1-5.2h-0.9c0.1,2,0.5,3.6,1,5.2H135.3L135.3,146.6z M137.9,143.3c-0.3,0.6,0.3,1.9,1.2,3.3h1.1
			c-1-1.3-1.6-2.5-1.6-2.8c0,0,0.1,0.1,0.1,0.1c1.2,0.1,2.9,1.4,4.4,2.7h1.3c-1.7-2-4-3.4-5.6-3.6
			C138.3,142.9,138,143.1,137.9,143.3L137.9,143.3z M129.3,146.6h0.9c-0.4-2-0.7-3.4-0.9-4.8c0-0.2,0-0.5-0.1-0.5h-0.9
			c0,0,0,0.3,0.1,0.5C128.6,143.3,128.9,144.6,129.3,146.6z M141.1,145.3c-0.2,0.1-0.2,0.6-0.1,0.8c0,0.1,0.1,0.1,0.2,0.5h1.1
			c-0.2-0.3-0.4-0.8-0.6-1C141.6,145.4,141.3,145.1,141.1,145.3z M149.6,146.6h1.1c-0.1-0.3-0.2-0.5-0.3-0.6c-0.8-1-1.6-2.1-2.4-3.3
			c-0.3-0.5-0.7-1-1-1.3h-1.1c0.5,0.7,0.9,1.3,1.4,1.9C148.1,144.4,148.9,145.2,149.6,146.6L149.6,146.6z M191.1,156.3
			c-0.2,1.6,0.7,2.7,2.3,3.1c0.3,0.1,0.6,0,0.9,0c0.1,0,0.3-0.1,0.4-0.1v-0.9c-0.4,0-0.8,0-1.2-0.1c-1.2-0.2-1.8-0.8-1.6-2
			c1-6.2-0.3-11.2-3.9-15.1h-1.2C190.7,144.9,192.1,150,191.1,156.3z M191.1,160.7c-0.7-0.3-1.2-0.6-1.6-0.9v1
			c0.3,0.2,0.7,0.4,1.2,0.6c1.1,0.5,2.3,0.7,3.5,0.7c0.2,0,0.3,0,0.5,0v-0.9C193.5,161.4,192.3,161.2,191.1,160.7L191.1,160.7z
			 M183.8,146.6c-1.8-2-4.2-3.9-6.5-5.2h-1.6c2.9,1.6,5.2,3.6,6.9,5.2H183.8L183.8,146.6z M193.3,144.3L193.3,144.3
			c0.5,0,1-0.8,1.4-1.3v-1.5c-0.1,0.1-0.1,0.4-0.2,0.5c-0.5,0.7-0.9,1.3-1.2,1.3h0c-0.6,0-1.3-1-1.9-2h-1c0,0,0.1,0.2,0.1,0.2
			C191.4,143,192.2,144.3,193.3,144.3z M185.9,146.6h1.1c-0.7-1-1.6-1.9-2.9-2.9c-1.1-0.9-2.2-1.7-3.2-2.4h-1.5
			c1.3,0.7,2.6,1.9,4.1,3C184.6,145.1,185.4,145.6,185.9,146.6z M112.1,143.9L112.1,143.9c-0.1,0.1-0.7,0.6-0.9,1.4
			c-0.1,0.3-0.1,0.7-0.1,1.3h0.9c0-0.7,0-0.8,0-1.1c0.1-0.4,0.3-0.5,0.4-0.5c1-0.3,2.4,0.3,4,1.6h1.3c-1.4-1.3-3.1-2.6-4.7-2.6
			C112.8,143.9,112.5,143.7,112.1,143.9L112.1,143.9z M101.1,146.6h0.9c0-0.7,0.1-1.3,0.2-1.9c0.3-1.8,0.6-2.5,0.7-2.8
			c0.3,0.8,0.5,2.8,0.6,4.7h0.9c0-0.7-0.1-1.3-0.1-1.9c-0.2-2-0.4-3-0.7-3.4h-1.3c-0.3,0.3-0.6,1.5-0.9,3.4
			C101.3,145.4,101.2,145.9,101.1,146.6L101.1,146.6z M106.5,146.6c-0.4-2-1-3.6-1.5-5.2h-0.9c0.6,1.6,1.1,3.3,1.6,5.2H106.5z
			 M73.2,143c-0.3-0.4-0.7-0.8-1.2-0.8c-0.5,0-1.2,0.4-1.9,1.2c-0.5,0.6-1.1,1.4-1.2,3.1h0.9c0.2-1.3,0.6-2.1,1-2.5
			c0.5-0.6,1.1-0.9,1.3-0.9c0.2,0,0.4,0.2,0.5,0.5c0.2,0.3,0.4,1,0,3h0.9C73.7,144.9,73.6,143.7,73.2,143z M74.3,146.6h0.9
			c0.5-2.6-0.2-4.3-1.3-5.2h-1.3C73.9,142.3,74.9,143.6,74.3,146.6z M68,146.6c0.2-2.6,1.1-4.6,2.2-5.2H69c-0.9,1-1.6,2.6-1.8,5.2
			H68z M71.2,145.3c-0.2-0.1-0.5,0.3-0.5,0.5c0,0.2-0.1,0.4-0.1,0.7h0.9c0-0.3,0-0.4,0.1-0.5C71.6,145.8,71.4,145.4,71.2,145.3
			L71.2,145.3z M65.8,144.2c-0.2,0-0.4,0.5-0.4,0.7c0.1,0.4,0.1,1,0.2,1.7h0.9c-0.1-1-0.2-1.7-0.2-1.8
			C66.2,144.5,66,144.1,65.8,144.2z M37.5,146.6H39c0.6-0.3,1.6-0.3,2.8,0h2.7C41,144.9,38.4,145.2,37.5,146.6z M35.5,141.6
			c0,0.2,0.1,0.7,0.4,0.7c2.8,0.4,8.8,2,12.2,4.3h1.4c-3.9-3.6-13-5-13.5-5.1C35.8,141.4,35.5,141.4,35.5,141.6z M32.9,143.9
			c0.1-0.2,0-0.6-0.2-0.7c-0.2-0.1-0.5,0.2-0.6,0.4c0,0.1-0.5,1.3,0,3H33C32.6,144.9,32.9,143.9,32.9,143.9z M52.3,146.6h1
			c-1-2.6-3.2-4.3-5.7-5.2h-2.3C48.4,142.3,51.1,143.9,52.3,146.6z M29.5,146.5L29.5,146.5l0.9,0.1l0-0.3l0,0c0,0-0.4-3,0.7-5h-1
			C29.1,143.3,29.4,146.1,29.5,146.5z M10.5,154.4c-2-2.3-4.1-5.4-5.2-9.1v2.5c1.4,3.2,3.6,5.9,5.2,7.9V154.4z M10.5,153.1v-1.2
			c-1.3-1.6-4.1-5-4.7-10.6H5.2v1.8C6.5,148.8,9.5,152.1,10.5,153.1L10.5,153.1z M5.2,165.6h0.5c-0.2-0.3-0.3-0.9-0.5-1.2V165.6z
			 M10.5,149.7c-1.6-2.2-3.2-4.8-3.7-8.4H5.9c0.6,4.3,2.6,7.4,4.6,9.8V149.7z M5.2,154.8c1.4,3.2,3.3,6.5,5.2,10.1v-1.6
			c-2.3-3.8-3.9-7.4-5.2-10.7V154.8z M5.2,160.5c0.9,1.5,1.9,3.4,2.9,5h1c-1.4-2-2.7-4.6-3.9-6.7C5.2,158.8,5.2,160.5,5.2,160.5z
			 M100.1,146.6c0.4-2,0.7-3.9,1-5.2h-0.9c-0.2,1.3-0.5,3.3-1,5.2H100.1z M93.5,146.6c-0.1-2-0.2-3.9-0.4-5.2h-0.9
			c0.2,1.3,0.3,3.3,0.4,5.2H93.5z M90.3,145.8c0,0.2,0,0.4,0,0.7h1c0-1.6-0.1-3.3-0.4-5.2h-0.9c0.2,1.3,0.3,3,0.4,4.4
			C90.3,145.8,90.3,145.7,90.3,145.8L90.3,145.8z M98.7,146.6c0.4-2,0.7-3.6,0.9-5.2h-0.9c-0.2,1.6-0.5,3.6-0.9,5.2H98.7z
			 M96.7,144.7c-0.1,0.2,0.1,0.4,0.3,0.4c0.2,0.1,0.5,0.1,0.5-0.1c0-0.1,0.4-1.4,0.2-3.7h-0.9C97.1,143.3,96.7,144.7,96.7,144.7
			L96.7,144.7z M59.3,146.6h1c-0.6-1.6-1.8-2.7-3.7-4.2c-0.5-0.4-0.9-0.7-1.4-1h-1.5c0.7,0.3,1.5,1.1,2.3,1.7
			C57.7,144.3,58.7,145.2,59.3,146.6z M88.6,146.6c-0.9-1.3-2.2-3.3-3.2-5.2h-0.9c0.8,1.3,1.9,3.6,3,5.2H88.6L88.6,146.6z
			 M95.8,146.6c0-2-0.1-3.9-0.3-5.2h-0.9c0.2,1.3,0.3,3.3,0.3,5.2H95.8z M89,144.6c0.1,0,0.2,0.2,0.3,0.2c0.2-0.1,0.8-0.2,0.2-3.4
			h-0.9c0.2,1,0.3,1.9,0.3,2.4c-0.1-0.2-0.3-0.4-0.6-1c-0.2-0.5-0.5-1.1-0.8-1.4h-1c0.3,0.7,0.7,1.1,1,1.7
			C88,144.1,88.5,144.6,89,144.6L89,144.6z M65.8,143L65.8,143c0.7,0,1.3-0.6,2-1.6l0-0.1h-1.1c-0.3,0.3-0.7,0.7-0.9,0.7h0
			c-0.3,0-0.6-0.3-1-0.7h-1.1C64.4,142,65,143,65.8,143z M78.9,146.6c0-1.6-0.2-3.6-0.7-5.2h-0.9c0.5,1.6,0.8,3.6,0.8,5.2H78.9z
			 M75.9,146.6h0.9c0.2-2-0.1-3.6-0.6-5.2h-0.9C75.8,143,76.1,144.6,75.9,146.6z M85.4,146.6c-0.7-2-1.6-3.6-2.4-5.2h-1
			c0.9,1.6,1.7,3.3,2.5,5.2H85.4z M82.5,146.6c-0.2-1.3-1-3.3-2.1-5.2h-1c1,2,1.9,3.9,2.2,5.2H82.5z M10.5,146.6h0.2
			c-1.2-2-2-3.9-2-5.2H7.8c0,1.6,1,3.9,2.7,6.4V146.6z M64.1,146.6c-0.5-2-1.3-3.9-2.5-5.2h-1.1c1.2,1.3,2.1,3.3,2.7,5.2H64.1z
			 M22.2,145.1c0.3,0.4,0.6,0.8,0.8,1.4h1c-0.4-0.7-0.8-1.3-1.2-1.9c-0.8-1-1.6-2.1-2.4-3.3c0,0-0.1,0-0.1,0h-1.1
			c0.1,0,0.3,0.3,0.4,0.5C20.6,143,21.4,144.1,22.2,145.1z M11.4,141.5c-0.6-0.1-0.9,0.4-1,0.6c-0.4,0.9,0.9,2.8,2.3,4.5h1.2
			c-1.7-2-2.7-3.7-2.7-4.2c0,0,0.1,0.1,0.1,0.1c1.6,0.2,4.1,2.1,5.7,4h1.2C16.5,144.3,13.4,141.7,11.4,141.5z M126.5,146.6h0.7v-5.2
			h-0.3v4c0-0.1-0.2-0.1-0.3-0.2c0-0.1,0,0-0.1-0.1c-0.8-1.5-1.6-2.7-2.4-3.7h-1.1c0.6,0.7,1.2,1.7,1.8,2.8c-1-0.9-1.9-2.1-2.9-2.8
			h-1.2C122.6,143,124.5,144.9,126.5,146.6L126.5,146.6z M19.2,146.6h1c-1.2-2-2.9-3.9-4.7-5.2h-1.3C16,142.6,17.9,144.6,19.2,146.6
			z M21.5,146.6h1c-0.6-1.3-1.3-2.4-2.1-3.5c-0.4-0.6-0.8-1.4-1.2-1.7h-1.1c0.5,0.7,1,1.4,1.5,2.2C20.4,144.6,21,145.6,21.5,146.6z
			 M121.9,146.6h1c-0.9-1.6-1.8-2.6-2.4-3.3c-0.2-0.3-0.9-1-1.8-2h-1.2c1.1,1,1.9,2,2.3,2.5C120.5,144.6,121.2,145.2,121.9,146.6z
			 M13.6,143.9c-0.2,0.1-0.2,0.6-0.1,0.8c0.2,0.3,0.7,0.8,1.3,1.8H16c-0.6-1-1.3-1.7-1.8-2.3C14.1,144.1,13.8,143.8,13.6,143.9z
			 M56.3,146.6h1.1c-1.4-2-3.5-3.9-5.7-5.2h-1.5C52.9,143,54.9,144.9,56.3,146.6z M27,141.4c0.2-0.1,0.4-0.1,0.6-0.1h-2.4
			c0.5,0,0.9,0.3,1.3,0.3C26.7,141.6,26.9,141.5,27,141.4z M110.7,146.6c-0.5-2-1-3.6-1.7-5.2h-1c0.6,1.6,1.2,3.3,1.7,5.2H110.7
			L110.7,146.6z M108.7,146.6c-0.5-2-1.2-3.9-1.8-5.2H106c0.6,1.3,1.3,3.3,1.8,5.2H108.7z M26.2,146.6c-1.2-2-2.5-3.6-4-5.2h-1.1
			c1.4,1.6,2.8,3.3,4,5.2H26.2z M119.3,146.6h1.1c-1.3-2-2.9-3.9-4.5-5.2h-1.3C116.3,142.6,117.9,144.6,119.3,146.6z"/>
	</g>
	<g>
		<path fill="#5C6566" d="M66.6,131.7c-1.5,0-2.9,0.9-3.5,2.1c-0.6-0.2-1.2-0.2-1.8,0c-0.7-1.2-2-1.7-3.4-1.7c-2,0-3.6,1.6-3.9,3.6
			h-0.2v1.3h0.2c0.3,1.6,1.9,3,3.9,3c2.2,0,3.9-1.9,3.9-4.1l0-0.1c0.3-0.1,0.5-0.1,0.8,0c0.1,2.1,1.9,3.8,4,3.8c2,0,3.6-1.4,3.9-3.3
			v-1.3C70.2,133.2,68.5,131.7,66.6,131.7z M57.8,138.5c-1.4,0-2.6-1.2-2.6-2.6c0-1.4,1.2-2.6,2.6-2.6c0.9,0,1.8,0.5,2.2,1.2
			c0.2,0.3,0.3,0.6,0.4,1c0,0.1,0,0.3,0,0.4C60.5,137.3,59.3,138.5,57.8,138.5z M66.5,138.3c-1.4,0-2.6-1.2-2.6-2.6
			c0-0.1,0-0.2,0-0.3c0-0.3,0.1-0.6,0.3-0.9c0.4-0.8,1.3-1.4,2.3-1.4c1.4,0,2.6,1.2,2.6,2.6C69.1,137.1,67.9,138.3,66.5,138.3
			L66.5,138.3z"/>
		<path fill="#2E3233" d="M60.6,133l-0.9,0.9c-0.5-0.5-1.1-0.7-1.8-0.7c-0.2,0-0.5,0-0.7,0.1c-1.1,0.3-1.9,1.3-1.9,2.5
			c0,0.7,0.3,1.4,0.7,1.8l-0.9,1.2c-0.6-0.6-0.9-1.2-1.1-1.8h-0.2v-1.3H54c0.3-2,1.9-3.6,3.9-3.6L58,132
			C59,132.1,59.9,132.4,60.6,133L60.6,133z M69.2,132.8l-0.9,0.9c-0.5-0.5-1.1-0.7-1.8-0.7c-0.2,0-0.5,0-0.7,0.1
			c-1.1,0.3-1.9,1.3-1.9,2.5c0,0.7,0.3,1.4,0.7,1.8l-0.9,1.2c-0.6-0.6-0.9-1.2-1.1-1.9h0v-1.3h0c0.3-2,1.9-3.5,3.9-3.5l0.1-0.1
			C67.6,131.8,68.5,132.2,69.2,132.8L69.2,132.8z"/>
		<path fill="#1E2121" d="M53.8,135.7v1.3h-0.4c-0.3,0-0.6-0.3-0.6-0.7s0.3-0.7,0.6-0.7H53.8z M71.6,136.1c0,0.3-0.3,0.7-0.6,0.7
			h-0.6c0,0,0.1-0.4,0.1-0.4v-0.9H71C71.3,135.4,71.6,135.7,71.6,136.1z"/>
	</g>
	<g>
		<path fill="#66B4D4" d="M25.6,131.2c-0.2,0-0.4,0-0.7,0.1v-0.7c0-0.7-0.4-0.8-1.2-0.8h-7.2c-0.7,0-1.5,0-1.5,0.8v6.6
			c0,1.4,1.3,3.2,2.8,3.2h4.6c1.4,0,2.5-1.7,2.5-3.2v-0.6c1.3-0.1,3.1-1.4,3.1-2.9C28,132,27.1,131.2,25.6,131.2z M24.9,135.4v-2.8
			c0.3-0.1,0.5-0.2,0.7-0.2c0.9,0,1.2,0.4,1.2,1.3C26.9,134.4,25.9,135.2,24.9,135.4z"/>
		<path fill="#56A1C3" d="M20.3,129.8v10.5h-2.5c-1.4,0-2.8-1.7-2.8-3.2v-6.6c0-0.7,0.7-0.8,1.5-0.8H20.3z"/>
	</g>
	<g>
		<path fill="#6DCF6A" d="M169.5,108.2h8.5v32.1h-8.5V108.2z"/>
		<path fill="#2AA127" d="M169.5,111.1h8.5v1h-8.5V111.1z M169.5,112.8h8.5v1h-8.5V112.8z M169.5,134.8h8.5v1h-8.5V134.8z
			 M169.5,136.4h8.5v1h-8.5V136.4z"/>
		<path opacity="7.000000e-02" enable-background="new    " d="M169.5,108.2h8.7l-8.7,31.7V108.2z"/>
	</g>
	<g>
		<path fill="#68C3CB" d="M179.7,104.3h3.9v36.1h-3.9V104.3z"/>
		<path fill="#49ACB6" d="M179.7,104.3h3.9l-3.9,35.6V104.3z"/>
		<path fill="#FFFFFF" d="M179.7,106.2h3.9v1.6h-3.9V106.2z"/>
	</g>
	<g>
		<path fill="#9C60FD" d="M163,110.5h4.6v29.8H163V110.5z"/>
		<path fill="#D8E6EC" d="M163,112.5h4.6v1H163V112.5z M163,137.4h4.6v1H163V137.4z M163,122h4.6v5.9H163V122z"/>
		<circle fill="#4A7F8F" cx="165.2" cy="124.6" r="1.3"/>
		<path fill="#D8E6EC" d="M163.9,128.2h2.6v0.3h-2.6V128.2z M163.9,128.9h2.6v0.3h-2.6V128.9z"/>
		<path opacity="0.1" enable-background="new    " d="M163,110.5h4.6l-4.6,29.4V110.5z"/>
	</g>
	<g>
		<path fill="#DEE4E7" d="M115.1,137.5v0.9c0,0.7-0.5,1.9-1.2,1.9H92c-0.7,0-1.2-1.2-1.2-1.9v-0.9c0-0.7,0.4-0.8,1.2-0.8h2.5v-5.2
			h16.4v5.2h3.1C114.6,136.7,115.1,136.8,115.1,137.5z"/>
		<path opacity="3.000000e-02" enable-background="new    " d="M110.7,131.5l-4.1,4.1l-4.6,4.7H92c-0.7,0-1.2-1.2-1.2-1.9v-0.9
			c0-0.7,0.4-0.8,1.2-0.8h2.5v-5.2H110.7z"/>
		<path fill="#DEE4E7" d="M69.3,131.5c-0.7,0-1.4-1.1-1.4-1.9V83.1c0-0.7,0.7-0.8,1.4-0.8h67.5c0.3,0,0.5-0.2,0.7,0
			c0.4,0.2,0.5,0.4,0.5,0.8v46.6c0,0.7-0.5,1.9-1.2,1.9H69.3L69.3,131.5z"/>
		<path fill="#2C3133" d="M138,83.1v41.2H67.9V83.1c0-0.7,0.7-0.8,1.4-0.8h67.5C137.6,82.3,138,82.3,138,83.1z"/>
		<path fill="#F3F4F5" d="M71.1,84.9h63.9V121H71.1V84.9z"/>
		<path fill="#FFFFFF" d="M121,89.5v26.9c0,0.7-0.6,1.3-1.3,1.3H86.2c-0.7,0-1.3-0.6-1.3-1.3V89.5c0-0.7,0.6-1.3,1.3-1.3h33.4
			C120.4,88.2,121,88.8,121,89.5z"/>
		<g>
			<path fill="#B8CED1" d="M121,89.5v2H84.9v-2c0-0.7,0.6-1.3,1.3-1.3h33.4C120.4,88.2,121,88.8,121,89.5z"/>
			<path fill="#FFFFFF" d="M87.5,90.5c0,0.2-0.1,0.3-0.3,0.3h-1.3c-0.2,0-0.3-0.1-0.3-0.3v-1.3c0-0.2,0.1-0.3,0.3-0.3h1.3
				c0.2,0,0.3,0.1,0.3,0.3V90.5z"/>
			<path fill="none" stroke="#93BABF" stroke-miterlimit="10" d="M86.8,90.4l-0.5-0.5l0.5-0.5"/>
			<path fill="#FFFFFF" d="M87.9,90.5c0,0.2,0.1,0.3,0.3,0.3h1.3c0.2,0,0.3-0.1,0.3-0.3v-1.3c0-0.2-0.1-0.3-0.3-0.3h-1.3
				c-0.2,0-0.3,0.1-0.3,0.3V90.5z M91.5,90.5c0,0.2,0.1,0.3,0.3,0.3h27.6c0.2,0,0.3-0.1,0.3-0.3v-1.3c0-0.2-0.1-0.3-0.3-0.3H91.8
				c-0.2,0-0.3,0.1-0.3,0.3V90.5z"/>
			<path fill="none" stroke="#93BABF" stroke-miterlimit="10" d="M88.6,90.4l0.5-0.5l-0.5-0.5"/>
		</g>
		<g>
			<path fill="#B8F1FF" d="M94.1,93.4h17.7v9.8H94.1V93.4z"/>
			<path fill="#3C6470" d="M94.1,112.1h5.2v0.3h-5.2V112.1z"/>
			<g>
				<path fill="#3C6470" d="M94.1,111.1h3.6v0.3h-3.6V111.1z M98,111.1h13.8v0.3H98V111.1z"/>
			</g>
			<g>
				<path fill="#3C6470" d="M94.1,110.2h7.2v0.3h-7.2V110.2z M101.6,110.2h10.2v0.3h-10.2V110.2z"/>
			</g>
			<g>
				<path fill="#3C6470" d="M94.1,109.2h10.8v0.3H94.1V109.2z M105.2,109.2h6.6v0.3h-6.6V109.2z"/>
			</g>
			<g>
				<path fill="#3C6470" d="M94.1,108.2h3.6v0.3h-3.6V108.2z M98,108.2h13.8v0.3H98V108.2z"/>
			</g>
			<g>
				<path fill="#3C6470" d="M94.1,107.2h10.8v0.3H94.1V107.2z M105.2,107.2h6.6v0.3h-6.6V107.2z"/>
			</g>
			<g>
				<path fill="#3C6470" d="M94.1,106.2h3.6v0.3h-3.6V106.2z M98,106.2h3.3v0.3H98V106.2z M101.6,106.2h10.2v0.3h-10.2V106.2z"/>
			</g>
			<g>
				<path fill="#3C6470" d="M94.1,105.2h14.1v0.3H94.1V105.2z M108.5,105.2h3.3v0.3h-3.3V105.2z"/>
			</g>
			<g>
				<path fill="#3C6470" d="M94.1,104.3h3.6v0.3h-3.6V104.3z M98,104.3h6.9v0.3H98V104.3z M105.2,104.3h6.6v0.3h-6.6V104.3z"/>
			</g>
			<path fill="#3C6470" d="M104.9,104.3h0.3v0.7h-0.3V104.3z"/>
		</g>
		<path opacity="3.000000e-02" enable-background="new    " d="M137.6,82.2l-2.6,2.5L99,120.9l-10.4,10.6H69.3
			c-0.7,0-1.4-1.1-1.4-1.9V83.1c0-0.7,0.7-0.8,1.4-0.8h67.5C137.1,82.3,137.4,82.1,137.6,82.2L137.6,82.2z"/>
	</g>
	<g>
		<path fill="#305A5E" d="M50,130.7c0.2,0.5-0.1,1.1-0.6,1.3c-0.5,0.2-1.1-0.1-1.3-0.6L32.7,88.9c-0.2-0.5,0.1-1.1,0.6-1.3
			c0.5-0.2,1.1,0.1,1.3,0.6L50,130.7z"/>
		<circle fill="#7BD1E3" cx="41.4" cy="109.9" r="20"/>
		<path fill="#E5EBED" d="M59.9,113.6L59.9,113.6L59.9,113.6L59.9,113.6 M51.1,111.5L51.1,111.5C51,111.4,51,111.4,51.1,111.5
			L51.1,111.5l-0.1,0.1l0,0l0,0l0,0l0,0l0,0l0,0l0,0l0,0l0,0l0.1,0c0,0,0,0,0-0.1C51,111.6,51,111.5,51.1,111.5 M51.4,99L51.4,99
			L51.4,99l-0.1,0.1l0-0.1c-0.1,0-0.1,0-0.2,0c0,0,0,0-0.2,0.1c0,0,0,0-0.1,0l0,0l0,0l0,0c-0.1,0-0.1,0-0.1,0l0,0l0,0l0,0l0,0l0,0.1
			l0.3,0l0,0l0,0l0,0l0,0l0,0l0,0l0,0l0,0L51.4,99C51.4,99,51.4,99,51.4,99 M53,98.2L53,98.2L53,98.2L53,98.2l-0.1,0.1l0,0l-0.1,0
			l0,0l0,0c0,0,0,0,0,0.1c0,0-0.1,0.1-0.1,0.1h0c0.1,0.1,0.1,0.1,0.1,0.1l0.1,0c0.1,0,0.1,0,0.1,0l0,0c0,0,0.1,0,0.1-0.1
			c0,0,0-0.1,0.1-0.1l-0.1,0C53,98.3,53,98.3,53,98.2 M48,99.1L48,99.1c-0.1,0-0.1,0-0.1,0.1c-0.2,0.2-0.3,0.2-0.5,0.1l0,0
			c0,0-0.1,0.1-0.1,0.1c0,0,0,0.1,0,0.1c0,0,0.1,0,0.1,0l0.2,0c0.1,0,0.3,0,0.4,0c0.1,0,0.2,0,0.3,0c0,0,0-0.1,0-0.1
			c0,0-0.1,0-0.1-0.1C48,99.3,48.1,99.2,48,99.1 M46,99c0-0.1-0.2-0.2-0.3-0.2l0,0c0,0.1,0,0.1-0.2,0.2c0,0,0,0,0,0l0.2,0.1
			c0,0,0.1,0.1,0.1,0.2c0.1,0.2,0.1,0.2,0.3,0.2c0-0.1,0-0.1,0.2-0.1l0,0c0-0.1,0-0.1-0.1-0.2L46,99L46,99 M45.5,98.5
			c-0.1-0.2-0.1-0.2-0.2-0.2l0,0l0,0.1c-0.1,0.1-0.1,0.1-0.1,0.2l0,0l0,0c0,0,0,0,0.1,0l0,0c0,0,0,0,0.1,0l0,0l0,0l0,0l0.1,0l0,0.1
			l0,0l0.1,0l0,0l0,0C45.6,98.7,45.6,98.6,45.5,98.5 M46.1,97.1L46.1,97.1L46,97.1l0.2,0.1C46.2,97.2,46.2,97.2,46.1,97.1L46.1,97.1
			L46.1,97.1 M50,97.1C50,97,49.9,97,50,97.1l-0.1,0C50,97,50,97,50,97.1L50,97.1 M50.8,95.3L50.8,95.3l-0.5,0.2
			c0.1,0,0.1,0.1,0.2,0.2l0,0c0.1,0,0.1,0,0.1,0l0-0.1c0,0,0,0,0.1,0l0,0l0-0.1C50.7,95.4,50.7,95.4,50.8,95.3
			C50.8,95.4,50.8,95.4,50.8,95.3L50.8,95.3 M29.4,103.4L29.4,103.4L29.4,103.4L29.4,103.4l-0.1,0c0,0-0.1,0-0.1,0.1
			c0,0-0.1,0.1-0.1,0.2l0.3-0.1c0-0.1,0-0.1,0-0.1C29.4,103.4,29.4,103.4,29.4,103.4 M30.3,97.9L30.3,97.9L30.3,97.9L30.3,97.9
			 M25.6,100L25.6,100C25.6,99.9,25.6,99.9,25.6,100c-0.1-0.1-0.1-0.1-0.2,0c0-0.1,0.1-0.2,0.1-0.3l0,0l-0.1-0.1c0-0.1,0-0.1,0-0.2
			l-0.1,0.1c0,0,0,0,0-0.1c0-0.1,0-0.1,0-0.2l-0.1,0.1c-0.1,0.2-0.3,0.5-0.3,0.6l0,0.1l-0.2,0.2l0,0.1l0,0l0.2-0.1
			c0,0.1,0,0.1-0.1,0.2c0,0,0.1,0,0.1-0.1c0.1-0.1,0.1-0.1,0.2-0.2l0.1-0.1c0-0.1,0-0.1,0.1-0.2l0,0c0,0.1,0,0.1,0,0.2
			c0,0,0,0,0.1,0l0.1,0C25.5,100.1,25.5,100.1,25.6,100 M27.1,97.8C27.1,97.7,27.1,97.7,27.1,97.8L27.1,97.8c-0.1,0-0.2,0-0.3,0.2
			c-0.1,0.2-0.1,0.2-0.1,0.2c0,0,0.1-0.1,0.2-0.2C27,98,27,98,27.1,97.8 M25.4,98.2L25.4,98.2c0.2-0.4,0.2-0.4,0.2-0.5l0,0l0,0
			l-0.1,0.1c-0.1,0.1-0.2,0.2-0.2,0.3l0,0.1l0,0.1l0,0l0,0C25.3,98.4,25.4,98.2,25.4,98.2 M59.9,114.6c0,0,0.1-0.4,0-1l0,0
			c-0.1,0.2-0.1,0.3-0.1,0.5l0-0.1l0,0l0,0.2l0,0.1c0,0.1,0,0.1,0,0.2l0,0l0,0c-0.2,0.3-0.2,0.3-0.2,0.4l0,0c0,0,0,0.1-0.1,0.1l0,0
			c0,0-0.1,0.1-0.1,0.1c-0.2,0.5-0.2,0.6-0.2,0.8c0,0.3-0.3,0.9-0.3,0.9c-0.1,0.2-0.2,0.4-0.2,0.6c0,0.2-0.1,0.4-0.1,0.6
			c0,0.1,0,0.1,0,0.2c0.6-0.4,1.3-3.2,1.3-3.3C59.7,114.9,59.7,114.6,59.9,114.6L59.9,114.6c-0.1,0.1-0.1,0.1-0.1,0.2
			C59.8,114.7,59.8,114.7,59.9,114.6 M37.4,122.2l0.1-0.1L37.4,122.2L37.4,122.2 M31.9,120.5L31.9,120.5L31.9,120.5L31.9,120.5
			L31.9,120.5L31.9,120.5L31.9,120.5L31.9,120.5L31.9,120.5L31.9,120.5c0,0-0.1,0.1-0.2,0.1l0,0c0,0,0,0,0.1,0l0,0c0,0,0,0.1,0,0.1
			l-0.1,0.1l0,0l0,0c0.1,0,0.1-0.1,0.2-0.1l-0.1-0.1L31.9,120.5L31.9,120.5 M27.6,118L27.6,118c-0.2-0.1-0.4-0.1-0.4-0.1l0,0l0,0
			l0,0l0,0l0,0l0,0l0,0l0,0l0,0.1c0,0,0.2,0.1,0.3,0.1c0,0,0,0,0,0c0,0,0-0.1,0-0.1L27.6,118L27.6,118L27.6,118L27.6,118L27.6,118
			L27.6,118L27.6,118L27.6,118 M30,116.9L30,116.9c-0.1-0.1-0.1,0-0.4,0l0,0c0,0,0,0,0.1,0.1c0.1,0,0.1-0.1,0.2-0.1l0.1,0L30,116.9
			C30,117,30,116.9,30,116.9 M29.2,117.4V117c0-0.1-0.3-0.1-0.5-0.2c-0.2,0-0.2,0-0.2,0l0,0l0,0c0,0,0,0-0.1,0c0,0,0,0-0.1,0.1
			c0,0,0,0-0.1,0c-0.1,0-0.2,0-0.2,0.1l0,0l0,0c0.1,0,0.1,0,0.2,0l0,0l0.1,0.1l0.1,0.1c-0.1,0.1-0.3,0.2-0.4,0.2l0,0.1
			c0,0,0,0,0.2,0.1l0-0.1c0,0,0.1,0,0.1,0c0.1,0,0.1,0,0.3-0.1c0.2,0.1,0.2,0.1,0.2,0.1c0-0.2,0-0.2,0-0.3c0.1,0.1,0.1,0.1,0.2,0
			c0-0.1,0-0.1,0.1-0.1c0-0.1,0-0.1,0.2,0c0,0,0,0.1,0,0 M27.7,117L27.7,117c-0.1-0.1-0.2-0.1-0.4-0.1l0,0l0-0.1c-0.1,0-0.1,0-0.3,0
			c-0.1,0-0.2,0-0.2,0c-0.1-0.1-0.1-0.1-0.2-0.1c0,0-0.1,0-0.1,0c-0.2,0-0.2,0-0.4-0.1l0,0l0,0l0,0l0,0l0,0l0,0l0,0l0,0
			c-0.2,0-0.3,0-0.4,0.1l0,0l0,0l0,0l0,0l0,0l0,0l0,0l0,0c-0.2,0.1-0.2,0.1-0.3,0.4l0,0l0,0l0.1,0.1c0,0,0,0.1,0,0.1
			c0.1,0,0.1-0.1,0.1-0.2l0.1-0.1c0-0.1,0-0.2,0.1-0.2c0,0,0.1,0,0.1,0l0,0l0,0l-0.1,0.1l0.1,0l0.2,0l0.3,0.1c0,0,0,0,0.1,0
			c0.1,0,0.1-0.1,0.3,0.2c0.1,0,0.2,0,0.3,0c0,0,0,0,0,0.3l0,0c0.1,0,0.1-0.1,0.2-0.1c0.1-0.1,0.2,0,0.3-0.1
			C27.6,117.2,27.6,117.1,27.7,117 M25.5,111.4L25.5,111.4l-0.1-0.1l0,0C25.5,111.3,25.5,111.4,25.5,111.4 M25.4,111.2L25.4,111.2
			L25.4,111.2L25.4,111.2L25.4,111.2 M25.4,111.2L25.4,111.2L25.4,111.2L25.4,111.2 M25.4,111.2L25.4,111.2L25.4,111.2L25.4,111.2
			 M25.4,111.1L25.4,111.1L25.4,111.1L25.4,111.1 M28.6,105.9L28.6,105.9c0,0-0.1-0.1-0.1-0.1c0,0,0,0-0.1,0.1c0,0.1,0,0.1-0.1,0.1
			l0,0c0-0.1,0-0.1,0.1-0.2c0.1-0.1,0.1-0.2,0.1-0.3l-0.1,0l0,0c0,0.1-0.1,0.2-0.1,0.3c0,0,0,0.1,0,0.2c0,0.1,0.1,0.2,0.2,0.1
			C28.5,106.1,28.6,106,28.6,105.9 M22.9,117.7c0-0.1-0.1-0.2-0.2-0.3l0,0.1c0,0-0.2-0.5-0.5-1.2l0.2,0.5l0,0
			c0.3,0.9,0.5,1.2,0.5,1.2L22.9,117.7"/>
		<path fill="none" d="M33.4,93.1L33.4,93.1c0,0,0-0.2,0-0.2c0,0,0-0.2,0-0.2l-0.1,0.1V93.1z M33.9,91.4l0.1,0l0,0L33.9,91.4
			L33.9,91.4L33.9,91.4C33.9,91.4,33.9,91.4,33.9,91.4z M33.7,92.1L33.7,92.1L33.7,92.1L33.7,92.1L33.7,92.1z M33.9,91.4l-0.1,0.1
			L33.9,91.4L33.9,91.4C33.8,91.4,33.9,91.4,33.9,91.4z M34,91.3L34,91.3L34,91.3C34,91.3,34,91.3,34,91.3z M30.8,94.8L30.8,94.8
			L30.8,94.8L30.8,94.8C30.8,94.8,30.8,94.8,30.8,94.8z M31.4,92.6L31.4,92.6L31.4,92.6C31.3,92.7,31.4,92.6,31.4,92.6z M30.3,93.6
			c0.3-0.2,0.5-0.4,0.6-0.5c0,0,0,0-0.1,0c0.1-0.1,0.2-0.1,0.3-0.2l0,0c0.1-0.1,0.1-0.1,0.2-0.1l0,0l0.1,0l0-0.1l0,0l0,0l0,0l0,0
			l0,0l0,0l0,0l0,0h0l0,0c-0.2,0.1-0.3,0.3-0.5,0.3c0.1-0.1,0.2-0.1,0.2-0.2l0,0l0,0l0,0l0,0l0,0l0,0l0,0l0,0c0,0,0,0-0.3,0.2l0,0
			c-0.3,0.3-0.4,0.3-0.4,0.4C30.3,93.5,30.3,93.5,30.3,93.6L30.3,93.6L30.3,93.6z M30.8,94.8C30.8,94.8,30.8,94.8,30.8,94.8
			L30.8,94.8L30.8,94.8z M33.4,92.7L33.4,92.7L33.4,92.7l0.1-0.1h0C33.5,92.6,33.5,92.7,33.4,92.7L33.4,92.7L33.4,92.7z M32.5,92.1
			c0,0-0.9,0.5-1.1,0.7l0,0.1l0,0.1c0,0,0.1,0,0.1,0l0,0c0,0,0,0,0.1,0c0,0,0.1-0.1,0.1-0.1l-0.1,0.1l0,0l0,0l0.1,0l0,0l0.1,0l0,0
			l0.1-0.1l0.1,0C32,92.4,32.3,92.3,32.5,92.1l0.2-0.1C32.6,92.1,32.6,92.1,32.5,92.1c0.2-0.1,0.3-0.2,0.4-0.2l0,0l0,0
			c-0.2,0.1-0.3,0.1-0.5,0.3L32.5,92.1z M33.1,91.8L33.1,91.8L33.1,91.8L33.1,91.8L33.1,91.8z M33.1,91.8L33.1,91.8l-0.2,0
			C33,91.9,33,91.9,33.1,91.8C33.1,91.8,33.1,91.8,33.1,91.8z M34.9,91L34.9,91L34.9,91L34.9,91L34.9,91L34.9,91
			C34.9,91,34.9,91,34.9,91z M35.3,91c-0.1,0-0.2,0-0.3,0.1l0,0l0.1,0C35.1,91,35.2,91,35.3,91z M34.9,91L34.9,91L34.9,91z
			 M35.1,94.1L35.1,94.1L35.1,94.1L35.1,94.1z M34.9,91.1L34.9,91.1L34.9,91.1L34.9,91.1L34.9,91.1z M31.4,92.7L31.4,92.7L31.4,92.7
			L31.4,92.7z M31.7,92.5c-0.1,0-0.2,0.1-0.3,0.2l0,0c0.1,0,0.1,0,0.2-0.1C31.7,92.5,31.7,92.5,31.7,92.5z M31.4,92.7L31.4,92.7
			L31.4,92.7L31.4,92.7z M31.3,92.9L31.3,92.9L31.3,92.9L31.3,92.9l-0.1,0.1l0,0c0,0-0.1,0-0.1,0.1l0,0l0,0l0,0l0,0l0,0l0,0l0,0l0,0
			l0,0l0,0l0,0l0,0l0.1-0.1l0,0l0,0C31.3,93,31.4,93,31.3,92.9C31.4,92.9,31.3,92.9,31.3,92.9z M31.6,92.5L31.6,92.5L31.6,92.5
			L31.6,92.5L31.6,92.5L31.6,92.5L31.6,92.5L31.6,92.5l0.1-0.1c-0.1,0.1-0.2,0.1-0.3,0.2l0,0L31.6,92.5L31.6,92.5L31.6,92.5z
			 M29.3,94.3L29.3,94.3L29.3,94.3L29.3,94.3z M31.2,92.7l0.2-0.1l0,0L31.2,92.7z M29.3,94.3L29.3,94.3L29.3,94.3L29.3,94.3
			L29.3,94.3L29.3,94.3z M25.4,111.3L25.4,111.3L25.4,111.3C25.3,111.3,25.4,111.3,25.4,111.3z M42,98.7L42,98.7L42,98.7L42,98.7
			C42,98.7,42,98.7,42,98.7z M54.2,96L54.2,96L54.2,96c-0.1,0,0.1,0.3,0.2,0.4l-0.1,0l0,0c0,0.1,0.8,1,1.1,0.5c0,0-0.5-0.7-0.7-0.7
			l0,0l0,0l0,0l0,0l0,0l0,0l0,0l0,0l-0.1,0L54.6,96l-0.1,0c-0.2-0.1-0.2-0.2-0.3-0.3l0,0l0.1,0l0,0l0,0c0-0.1,0-0.2-0.4-0.4l0,0
			c0.1,0.1,0.2,0.2,0.2,0.2l0,0c-0.2-0.2-0.4-0.4-0.7-0.5l0,0l0,0l0,0l0,0l0,0l0,0l0,0l0,0c-0.3-0.2-0.4-0.3-0.5-0.3l0,0l0,0l0,0
			l0,0l0,0l0,0l0,0l0,0l0,0c0,0,0.1,0,0.1,0c-0.1-0.1-0.1-0.1-0.2-0.1l0,0l0,0l0-0.1l0.2,0c-0.2-0.1-0.3-0.3-0.5-0.4l-0.1,0
			c0,0-0.1,0-0.2,0c0,0,0.1,0.2,0.1,0.4l-0.1,0.1l0.2,0.2l0,0l0.1,0.2l0,0c0.1,0,0.2,0.1,0.3,0.2l0,0l-0.1-0.1l0,0l0,0
			C52.9,95.2,52.9,95.2,54.2,96L54.2,96L54.2,96z"/>
		<path fill="#E5EBED" d="M31.6,92.5l-0.2,0.1l0,0C31.5,92.6,31.5,92.5,31.6,92.5L31.6,92.5z M30.7,94.4
			C30.7,94.4,30.7,94.4,30.7,94.4L30.7,94.4C30.7,94.4,30.7,94.4,30.7,94.4L30.7,94.4L30.7,94.4C30.7,94.4,30.7,94.4,30.7,94.4z
			 M33.9,91.4L33.9,91.4L33.9,91.4L33.9,91.4L33.9,91.4L33.9,91.4L33.9,91.4l-0.1,0L33.9,91.4l-0.1,0.1h0l0,0l0,0L33.9,91.4
			C33.8,91.4,33.9,91.4,33.9,91.4z M30.8,93.9L30.8,93.9L30.8,93.9C30.8,93.9,30.7,94,30.8,93.9C30.8,94,30.8,93.9,30.8,93.9z
			 M31.2,93.1L31.2,93.1L31.2,93.1L31.2,93.1l0.1-0.1l0,0l0.1-0.1l0-0.1l0-0.1l-0.1,0l0,0c-0.1,0.1-0.1,0.1-0.2,0.1l0,0
			c-0.1,0.1-0.2,0.1-0.3,0.2c0,0,0,0,0.1,0c-0.1,0.1-0.3,0.3-0.6,0.5c0.1,0,0.2,0.1,0.4-0.1h0l0,0l0.4-0.3l0,0
			C31.1,93.1,31.2,93.1,31.2,93.1z M30.2,93.4c0,0-0.1,0.1-0.5,0.3l0,0c0,0,0,0,0.2-0.2l-0.1,0.1C29.9,93.7,30,93.6,30.2,93.4
			l-0.1,0.1l0,0L30.2,93.4L30.2,93.4C30.2,93.4,30.2,93.4,30.2,93.4z M29.7,93.7L29.7,93.7L29.7,93.7L29.7,93.7z M31.2,93.1
			L31.2,93.1L31.2,93.1L31.2,93.1z M31.1,93.2L31.1,93.2L31.1,93.2C31.2,93.1,31.1,93.2,31.1,93.2z M31.1,93.2L31.1,93.2L31.1,93.2
			L31.1,93.2L31.1,93.2L31.1,93.2C31.1,93.2,31.1,93.2,31.1,93.2z M31.1,93.2L31.1,93.2L31.1,93.2C31.2,93.1,31.1,93.2,31.1,93.2z
			 M31.3,93.1L31.3,93.1L31.3,93.1L31.3,93.1C31.2,93.1,31.3,93.1,31.3,93.1z M31.3,93.1L31.3,93.1L31.3,93.1L31.3,93.1L31.3,93.1
			L31.3,93.1L31.3,93.1z M33.6,91.5L33.6,91.5C33.6,91.5,33.5,91.6,33.6,91.5C33.5,91.6,33.6,91.5,33.6,91.5z M30.6,94.6L30.6,94.6
			L30.6,94.6C30.6,94.5,30.5,94.6,30.6,94.6C30.6,94.6,30.6,94.6,30.6,94.6z M30.7,94.8L30.7,94.8L30.7,94.8L30.7,94.8L30.7,94.8
			C30.8,94.8,30.7,94.8,30.7,94.8z M30.7,94.9L30.7,94.9L30.7,94.9L30.7,94.9L30.7,94.9L30.7,94.9C30.6,95,30.7,94.9,30.7,94.9z
			 M30.1,95.2L30.1,95.2l0.1,0l0,0l0,0l0,0l0,0C30.2,95.2,30.2,95.2,30.1,95.2C30.2,95.2,30.2,95.3,30.1,95.2L30.1,95.2L30.1,95.2
			l0.2,0l0.1,0c0.1-0.1,0.1-0.1,0.1-0.1c0,0,0,0,0-0.1l0,0l0,0l0-0.1l0,0l0,0c-0.1,0-0.2,0.1-0.1,0.1l0,0
			C30.2,95.1,30.2,95.1,30.1,95.2L30.1,95.2L30.1,95.2C30.1,95.2,30.1,95.2,30.1,95.2z M31.2,93.1L31.2,93.1L31.2,93.1L31.2,93.1z
			 M33.4,91.6L33.4,91.6L33.4,91.6L33.4,91.6L33.4,91.6C33.4,91.6,33.4,91.6,33.4,91.6z"/>
		<path fill="none" d="M31.1,93.2L31.1,93.2"/>
		<path fill="#E5EBED" d="M26.5,96.6c0,0-0.3,0.4-0.3,0.4l0,0c0.1-0.1,0.1-0.1,0.2-0.2l0,0l0,0l0,0l0,0l0,0l0,0l0,0l0,0l-0.1,0.1
			C26.4,96.9,26.4,96.9,26.5,96.6c0.1,0,0.2-0.1,0.2-0.1c0,0,0.1-0.1,0.2-0.2l0,0l0,0c0,0,0,0,0.4-0.4l0-0.1l0,0l-0.1,0.1l0.1-0.1
			l-0.1,0l0,0l0,0c0,0-0.1,0.1-0.2,0.2l0,0l0,0l0,0l0,0l0,0l0,0l0,0l0,0c0,0-0.1,0.1-0.2,0.2c0-0.1,0.1-0.1,0.1-0.2
			C26.6,96.4,26.6,96.4,26.5,96.6L26.5,96.6z M27.5,95.7L27.5,95.7l-0.5,0.5c0,0-0.4,0.4-0.4,0.5l0,0c0.1-0.1,0.2-0.2,0.3-0.3
			c0,0,0,0,0.1,0l0,0C27.1,96.2,27.6,95.7,27.5,95.7L27.5,95.7l0.1,0l0,0C27.6,95.7,27.6,95.7,27.5,95.7L27.5,95.7
			C27.6,95.7,27.5,95.7,27.5,95.7z M26.5,96.6L26.5,96.6l-0.1,0.1L26.5,96.6C26.5,96.5,26.5,96.6,26.5,96.6z M27.6,95.4
			c0.1-0.1,0.3-0.2,0.4-0.4c0.1,0,0.1-0.1,0.2-0.2L28,95.1c0.1-0.1,0.1-0.1,0.6-0.5l0,0l-0.2,0.2c-0.1,0.1-0.3,0.2-0.4,0.4l0,0
			l-0.2,0.1l0,0l0,0c-0.1,0.1-0.2,0.2-0.3,0.3L27.6,95.4C27.6,95.4,27.6,95.4,27.6,95.4z M29.2,94.1L29.2,94.1l-0.3,0.2l0,0
			L29.2,94.1C29.2,94.1,29.2,94.1,29.2,94.1z M24.9,98.5L24.9,98.5L24.9,98.5z M31.7,92.5L31.7,92.5L31.7,92.5L31.7,92.5l-0.1,0.1
			l0,0l0,0l0,0l0,0l0,0l-0.2,0.1l0,0l0.1,0l-0.1,0v0C31.5,92.6,31.6,92.6,31.7,92.5c0,0.1,0,0.1-0.1,0.1c-0.1,0.1-0.1,0.1-0.2,0.1
			l0,0.1c0.2-0.1,1.1-0.7,1.1-0.7l-0.1,0.1c0.1-0.1,0.3-0.2,0.5-0.3l0.1-0.1c-0.1,0-0.2,0.1-0.4,0.2l0.2-0.1
			c-0.2,0.1-0.5,0.2-0.6,0.3l0,0c0,0,0.2-0.1,0.2-0.1c-0.1,0-0.2,0.1-0.3,0.1l0.1,0c-0.1,0.1-0.1,0.1-0.8,0.4l0,0v0
			C31.5,92.6,31.6,92.5,31.7,92.5L31.7,92.5z M28.5,94.6L28.5,94.6L28.5,94.6c-0.1,0.1-0.2,0.2-0.3,0.3
			C28.3,94.8,28.4,94.8,28.5,94.6c-0.1,0.1-0.2,0.2-0.3,0.3l0,0L28.1,95l0,0l0,0l0,0l0,0l0,0l0,0l0,0l0,0L28,95.1l0.1-0.1L28,95.1
			l0,0l0,0l0,0l0,0l0,0l0,0l0,0l0,0c-0.1,0.1-0.2,0.2-0.2,0.2l0.1,0l0,0c0.1-0.1,0.3-0.3,0.4-0.4C28.6,94.6,28.6,94.6,28.5,94.6
			l-0.1,0.1C28.5,94.7,28.5,94.6,28.5,94.6L28.5,94.6z M28.6,94.6L28.6,94.6l0.2-0.1l0.1-0.1l0,0l0,0h0l-0.1,0.1
			C28.7,94.5,28.6,94.6,28.6,94.6L28.6,94.6z M27.4,95.6L27.4,95.6L27.4,95.6C27.4,95.6,27.4,95.6,27.4,95.6z M25.1,98.3L25.1,98.3
			c0.1-0.1,0.2-0.1,0.3-0.3l-0.1,0.1c0-0.1,0.1-0.2,0.1-0.2l0.1-0.1c0,0.1,0,0.1,0,0.1l0,0l0,0c0.2-0.3,0.4-0.6,0.6-0.9
			c0.2-0.3,0.5-0.5,0.7-0.8l0,0c-0.2,0.2-0.4,0.5-0.7,0.7c0.2-0.2,0.3-0.4,0.5-0.6c-0.2,0.3-0.2,0.3-1.1,1.2l0,0
			c-0.2,0.3-0.4,0.6-0.6,0.9c0.1-0.1,0.2-0.3,0.4-0.4C25.2,98.2,25.1,98.2,25.1,98.3z M30.7,93.1c0.3-0.2,0.3-0.2,0.3-0.2l0,0l0,0
			l0,0l0,0l0,0l0,0l0,0l0,0c-0.1,0.1-0.2,0.1-0.2,0.2c0.2-0.1,0.3-0.2,0.5-0.3l0,0h0l0,0l0,0l0,0l0,0l0,0l0,0l0,0l0,0l0,0l0,0l0,0
			l0,0l-0.2,0.1l0.2-0.1l0,0l-0.1,0l0.1,0l0,0c-0.1,0.1-0.2,0.1-0.3,0.2l0.1,0C30.9,93,30.9,93,30.9,93c0.1,0,0.1-0.1,0.2-0.1
			L30.9,93l0,0L30.7,93.1L30.7,93.1L30.7,93.1L30.7,93.1L30.7,93.1L30.7,93.1l-0.1,0.1l-0.1,0.1l0,0l-0.1,0.1l0,0l-0.3,0.2l0,0
			c0.2-0.1,0.2-0.1,0.2-0.1c0,0,0,0-0.1,0.1C30.4,93.4,30.4,93.3,30.7,93.1L30.7,93.1L30.7,93.1z M28.5,94.9L28.5,94.9
			C28.5,94.9,28.6,94.9,28.5,94.9L28.4,95c0,0,0.1-0.1,0.1-0.2l0,0l0,0c0,0,0,0,0.3-0.2l0.1-0.1l0,0l0,0l0,0l0,0l0,0l0,0l0,0l0,0
			c-0.3,0.2-0.8,0.8-0.9,0.8l0,0l0.1-0.1l0,0c-0.1,0.1-0.1,0.1-0.1,0.1c0,0,0.1-0.1,0.1-0.1c0.1-0.1,0.1-0.1,0.2-0.1
			c-0.1,0.1-0.1,0.1-0.2,0.2c0,0,0.2-0.1,0.2-0.2l0,0.1c0,0,0.1-0.1,0.1-0.1L28.5,94.9c0,0.2-0.1,0.2-0.1,0.3c0,0,0.1,0,0.2-0.1
			c0.1-0.1,0.1-0.1,0.3-0.3l0,0c0-0.1,0-0.1,0-0.1c0,0,0,0,0-0.1C29,94.6,28.9,94.6,28.5,94.9z M29,94.4L29,94.4
			c0.1,0.1,0.1-0.1,0.2-0.1c-0.1,0.1-0.1,0.3-0.1,0.3l0,0.2h0c0,0,0.1-0.3,0.1-0.3l0-0.1c0.1,0,0.2-0.1,0.3-0.2l0,0l0,0l0,0l0,0l0,0
			l0,0l0,0l0,0l0,0l-0.1,0l0,0l0,0c0.1-0.1,0.1-0.1,0.2-0.1c0,0,0,0,0.1,0c0,0,0.2-0.1,0.4-0.3l-0.1,0c0,0,0.1-0.1,0.1-0.1l0,0l0,0
			c0,0-0.1,0-0.4,0.3l0,0l0,0l0,0c-0.1,0.1-0.2,0.1-0.2,0.2l0,0l0,0L29.6,94c-0.1,0-0.1,0-0.1,0c0,0,0,0,0.1-0.2l0,0l0,0
			c-0.1,0.1-0.2,0.2-0.2,0.2c-0.4,0.3-0.4,0.3-0.5,0.4C28.9,94.5,28.9,94.5,29,94.4z M29.3,94.3L29.3,94.3L29.3,94.3L29.3,94.3
			L29.3,94.3C29.3,94.3,29.3,94.3,29.3,94.3z M29.3,94.3L29.3,94.3L29.3,94.3L29.3,94.3z M28.8,97.6L28.8,97.6L28.8,97.6l-0.1-0.1
			c-0.1,0.1-0.1,0.1-0.2,0.1c0,0,0,0,0-0.1c-0.1,0-0.2,0.1-0.3,0.1l0,0l0,0l0,0l0,0l0,0l0,0l0,0l0,0l0.1-0.1l0,0
			c0-0.1,0-0.2-0.1-0.2c-0.1,0-0.3,0.1-0.3,0.1c0,0,0-0.1,0-0.1c0-0.1-0.1,0-0.1-0.1c0.1-0.1,0.1-0.1,0.1-0.1l0-0.1l0,0
			c0.1-0.1,0.2,0,0.2-0.1l0-0.1l0,0c-0.1,0-0.1,0-0.1,0c0-0.1,0.2-0.1,0.2-0.3l0,0c-0.1,0.1-0.1,0.1-0.2,0.2l0,0
			c0.1-0.1,0.3-0.2,0.3-0.3c0,0,0,0-0.2,0.1c0,0,0,0,0.1-0.2l-0.2,0.1l0.2-0.2l0,0c0,0,0,0-0.1-0.1c-0.1,0.1-0.1,0.2-0.2,0.2
			l0.1-0.2c0,0-0.1,0.1-0.2,0.1c0-0.1,0.2-0.2,0.2-0.2l0,0l0,0l0,0l0,0l0,0l0,0l0,0l0,0l0.1-0.2c-0.1,0-0.1,0-0.5,0.4
			c0,0,0,0,0.1-0.2l0,0c-0.1,0-0.1,0.1-0.2,0.2l0,0l0,0l0,0l0,0l0,0l0,0l0,0l0,0c0.3-0.4,0.4-0.5,0.4-0.6c-0.1,0.1-0.4,0.3-0.4,0.3
			c0,0,0,0.1,0,0.1c-0.2,0.1-0.2,0.1-0.3,0.4c-0.1,0-0.2,0.1-0.2,0.3c0,0.1-0.1,0.3-0.3,0.3l0,0l0,0l0,0l0,0l0,0l0,0l0,0l0,0
			c0.1-0.1,0.1-0.1,0.1-0.1c0.2-0.4,0.3-0.5,0.9-1l0,0l-0.1,0c-0.4,0.3-0.8,0.8-1.1,1.1l0.1,0l-0.3,0.4c0.1,0,0.1,0,0.1-0.1l0,0
			c0,0,0,0-0.1,0.1l0,0l0,0l0,0l0,0l0,0l0,0l0,0l0,0l0,0c0.1,0,0.1,0,0.1,0l0,0c0.1-0.1,0.1-0.1,0.1-0.1l0,0.1l0.1-0.2l0,0l0,0
			c0,0,0,0.1,0.1,0.1c0.1,0,0.1-0.1,0.2-0.2l0-0.2l0,0l0,0c0,0,0,0,0.1,0c0,0.1-0.1,0.3-0.1,0.3l0,0c0,0.2,0,0.2,0,0.2
			c-0.1,0.1-0.2,0.1-0.2,0.2l0,0l0.1-0.1l0,0l0,0l0,0l0,0l0,0l0,0l0,0l0,0l0.1-0.1c-0.1,0.2-0.1,0.2,0,0.2c0,0,0.1,0-0.1,0.4
			c-0.1,0.2-0.4,0.4-0.5,0.6c-0.1,0.1,0,0.2,0,0.3l0,0c-0.3,0.1-0.3,0.2-0.4,0.3l0,0l0-0.1c-0.2-0.1-0.4,0.3-0.4,0.4
			c0.2,0.1,0.2,0,0.4-0.2l0.1,0c0,0,0,0,0.1-0.2l0,0c0.1,0,0.1,0,0.2,0c0,0.2,0,0.2,0,0.3c0.1,0,0.1,0,0.1,0c0,0.1-0.1,0.1-0.1,0.2
			c0,0.1,0.1,0.1,0.1,0.1c0,0,0,0,0.1,0c0.1,0,0.1,0,0.1,0c0,0.1,0,0.1,0,0.1c0.3,0,0.3,0,0.5,0c0-0.2,0-0.3-0.2-0.4
			c-0.1-0.1-0.1-0.1-0.1-0.2c0,0,0,0,0.2,0l0-0.1c0.1,0.2,0.1,0.2,0.3,0.2c0.1,0.1,0.1,0.1,0.1,0.2l0-0.2l0,0l0,0c0-0.1,0-0.2,0-0.4
			c0,0.1,0,0.1,0.1,0.2c0-0.2,0-0.2,0-0.3c-0.1-0.1,0-0.1,0-0.2l0,0c-0.1,0-0.1-0.1-0.1-0.1l-0.1,0.1c0-0.1,0-0.2,0-0.3l-0.1,0
			c0-0.1,0-0.2,0-0.2c0,0,0,0.1,0.1,0.1c0.1,0,0.1,0,0.1-0.1c0-0.1,0-0.1,0.1-0.3c0.1,0,0.1,0.2,0.2,0.1l0,0c-0.1,0.1-0.1,0.1,0,0.2
			c0,0,0,0,0.1-0.1c0,0.1,0,0.2,0.1,0.1l0,0c0-0.2,0.1-0.3,0.1-0.4c0,0.1,0,0.1,0.1,0.1c0-0.1,0.1-0.1,0.1-0.2
			c0-0.1-0.1-0.1-0.1-0.1v0L28.8,97.6L28.8,97.6z M29.8,93.6L29.8,93.6L29.8,93.6c-0.1,0-0.4,0.3-0.4,0.3c0,0,0.1,0,0.2-0.2
			C29.8,93.7,29.8,93.6,29.8,93.6L29.8,93.6C29.8,93.6,29.8,93.6,29.8,93.6z M32.9,91.9l0.2-0.1l0,0L32.9,91.9L32.9,91.9L32.9,91.9
			C32.9,91.9,32.9,91.9,32.9,91.9z M29.4,93.9c-0.1,0.1-0.2,0.1-0.2,0.2l0.1-0.1l0.9-0.6l0,0L30,93.5l0,0c-0.1,0.1-0.2,0.2-0.4,0.3
			h0l0,0C29.6,93.7,29.4,93.9,29.4,93.9L29.4,93.9L29.4,93.9z M38.2,90.4c0,0,0.1,0.1,0.1,0.1L38.2,90.4L38.2,90.4z M38.3,90.5
			L38.3,90.5L38.3,90.5L38.3,90.5L38.3,90.5z M39.2,90.1L39.2,90.1L39.2,90.1L39.2,90.1z M38.8,90.2L38.8,90.2
			c-0.1,0-0.3,0.1-0.4,0.1c0.3,0,0.5-0.1,0.7-0.2C39,90.2,38.9,90.2,38.8,90.2z M34.7,91.3c0.1,0,0.2,0.1,0.3,0.1h0
			c-0.1,0-0.1-0.2-0.2-0.2c0,0,0-0.1,0.1-0.1C34.8,91.2,34.8,91.3,34.7,91.3z M34.8,91.1C34.9,91.1,34.9,91.1,34.8,91.1L34.8,91.1
			L34.8,91.1l0.1-0.1l0,0L34.8,91.1L34.8,91.1l0.1-0.1c-0.1,0-0.1,0-0.3,0.1l0,0C34.7,91.1,34.8,91.1,34.8,91.1
			C34.8,91.1,34.8,91.1,34.8,91.1z M39.7,90.1L39.7,90.1l0.2,0l0,0c0.1,0,0.1,0,0.2,0c-0.2,0-0.2,0-0.4,0l-0.1,0l0.1,0l-0.2,0l0,0
			l-0.2,0l-0.2,0.1c0.1,0,0.2,0,0.3,0C39.5,90.1,39.5,90.1,39.7,90.1L39.7,90.1z M38.1,90.6l-0.3,0.2h0C37.9,90.8,38,90.7,38.1,90.6
			z M34.9,91L34.9,91c0.1,0,0.3-0.1,0.3-0.1C35.2,91,35.1,91,34.9,91L34.9,91L34.9,91L34.9,91L34.9,91L34.9,91l0.2,0l0,0
			c0.2,0,0.3,0,0.5-0.1c0,0,0,0-0.2,0l0.2,0l0,0c0,0,0,0,0.1,0l0,0c0.1,0,0.1,0,0.1,0c0,0,0.1,0,0.1,0l0,0l0.1,0
			c0.1,0,0.3,0,0.4-0.1c0,0,0,0-0.1,0c-0.2,0-0.2,0-0.2,0l0,0c-0.1,0-0.1,0-0.5,0c0,0,0,0-0.4,0.1l0.1,0L34.9,91l0.2-0.1l0,0
			c0.1,0,0.2,0,0.2,0l0,0l0,0l0,0l0,0l0,0l0,0l0,0l0,0l0.1,0c-0.2,0-0.2,0-0.4,0.1l0,0L34.9,91L34.9,91L34.9,91L34.9,91
			C34.9,91,34.9,91,34.9,91z M38.1,90.6l0.1-0.1C38.2,90.5,38.1,90.5,38.1,90.6z M38.3,90.3L38.3,90.3l0.1,0L38.3,90.3z M40.1,90.1
			L40.1,90.1c0,0,0,0,0.2,0c0.2,0,0.4,0,0.4,0l0,0c0.1,0,0.3,0,0.4,0l0,0c0.2-0.1,0.5,0,0.7,0l-0.1,0l0.1,0
			C41.5,90,40.1,90,40.1,90.1C40.1,90.1,40.1,90.1,40.1,90.1z M34.9,91.1L34.9,91.1L34.9,91.1L34.9,91.1z M48.5,128.6L48.5,128.6
			L48.5,128.6L48.5,128.6L48.5,128.6C48.5,128.6,48.5,128.6,48.5,128.6z M43.9,129.5c0,0-0.1,0-0.1,0l0,0c0,0,0.4,0,0.5,0l0,0
			C43.9,129.5,43.9,129.5,43.9,129.5L43.9,129.5z M33.6,91.9L33.6,91.9L33.6,91.9L33.6,91.9z M33.6,91.9L33.6,91.9L33.6,91.9
			L33.6,91.9L33.6,91.9z"/>
		<path fill="none" d="M33.8,92.2L33.8,92.2"/>
		<path fill="#E5EBED" d="M33.8,91.8C33.7,91.8,33.7,91.8,33.8,91.8L33.8,91.8L33.8,91.8L33.8,91.8z M33.8,92.2L33.8,92.2L33.8,92.2
			L33.8,92.2L33.8,92.2L33.8,92.2L33.8,92.2C33.8,92.2,33.8,92.2,33.8,92.2z"/>
		<path fill="none" d="M34,91.4L34,91.4"/>
		<path fill="#E5EBED" d="M31.3,98C31.4,98,31.4,98,31.3,98L31.3,98C31.4,98,31.3,98,31.3,98z M31.3,98L31.3,98L31.3,98L31.3,98z
			 M34,91.4L34,91.4L34,91.4L34,91.4L34,91.4z M34,91.3L34,91.3L34,91.3L34,91.3z M33.8,91.8L33.8,91.8L33.8,91.8L33.8,91.8
			C33.8,91.8,33.9,91.8,33.8,91.8L33.8,91.8L33.8,91.8C33.8,91.8,33.8,91.8,33.8,91.8z M33.9,92.3L33.9,92.3L33.9,92.3L33.9,92.3
			L33.9,92.3L33.9,92.3L33.9,92.3L33.9,92.3L33.9,92.3c-0.1,0-0.2,0-0.2,0.1C33.7,92.3,33.8,92.3,33.9,92.3
			C33.8,92.3,33.9,92.3,33.9,92.3z M33.8,92C33.7,92,33.7,92,33.8,92C33.7,92,33.8,92,33.8,92L33.8,92C33.8,92,33.8,92,33.8,92z
			 M33.7,91.7L33.7,91.7L33.7,91.7L33.7,91.7L33.7,91.7L33.7,91.7L33.7,91.7L33.7,91.7L33.7,91.7L33.7,91.7L33.7,91.7L33.7,91.7
			L33.7,91.7z M33.7,92.2L33.7,92.2L33.7,92.2L33.7,92.2L33.7,92.2L33.7,92.2L33.7,92.2L33.7,92.2L33.7,92.2L33.7,92.2l-0.1,0.1
			C33.6,92.3,33.7,92.2,33.7,92.2L33.7,92.2L33.7,92.2z M33.7,91.9C33.7,91.9,33.7,91.9,33.7,91.9L33.7,91.9L33.7,91.9L33.7,91.9
			C33.7,91.9,33.7,91.9,33.7,91.9z M34,91.4L34,91.4L34,91.4L34,91.4z M34,91.3L34,91.3L34,91.3L34,91.3L34,91.3L34,91.3L34,91.3
			L34,91.3C34,91.3,34,91.3,34,91.3z M33.8,92.2L33.8,92.2L33.8,92.2L33.8,92.2z M33.8,92.2L33.8,92.2L33.8,92.2L33.8,92.2
			L33.8,92.2L33.8,92.2L33.8,92.2L33.8,92.2L33.8,92.2C33.8,92.2,33.7,92.3,33.8,92.2L33.8,92.2C33.7,92.3,33.8,92.2,33.8,92.2z
			 M33.1,91.8L33.1,91.8L33.1,91.8L33.1,91.8c-0.1,0.1-0.1,0.1-0.2,0.1c-0.1,0.1-0.2,0.1-0.3,0.2l0.1,0l-0.2,0.1
			c-0.2,0.1-0.4,0.2-0.6,0.3l-0.1,0l-0.1,0.1l0,0l-0.1,0l0,0l-0.1,0l0,0l0,0l0.1-0.1c0,0-0.1,0.1-0.1,0.1c0,0,0,0-0.1,0l0,0
			c-0.1,0-0.1,0-0.1,0c0,0.1,0,0.2-0.1,0.2l0,0l0,0h0l0,0c-0.1,0.1-0.1,0.3-0.2,0.4l0,0c0,0,0,0-0.1,0.1c0,0-0.1,0.1-0.1,0.1l0.1,0
			l0,0.1c-0.1,0-0.1,0.2-0.2,0.2l0,0l0,0l0,0.1l0,0c0,0.1-0.1,0.1-0.2,0.1l0,0l0,0l-0.1,0.1c0,0,0,0,0.1,0c-0.1,0.1-0.2,0.1-0.2,0.2
			l0,0c0.1,0,0.1,0,0.3-0.2l0,0l0,0l0.1-0.1c0,0,0,0-0.1,0.1c0,0,0.1,0,0.2-0.1c0,0,0,0-0.1,0.1l0,0l0,0c0,0,0,0,0.1-0.1
			c-0.1,0.1-0.1,0.1-0.2,0.2c0,0,0.1,0,0.1-0.1v0l0,0l0,0l-0.1,0l0,0l0,0c0,0,0.1,0,0.1,0l0,0l-0.1,0l0,0l0,0l-0.1,0l0,0l0.1,0
			c0,0.1,0,0.1-0.1,0.1c-0.1-0.1-0.3,0.1-0.3,0.1l0,0.1c0,0,0.1,0,0.1,0l0.1,0c0.1,0,0,0,0.2,0c0,0,0.1-0.1,0.1-0.1l0,0.1l0,0v0l0,0
			c0,0-0.1,0.1-0.1,0.1l0,0l0,0l-0.1,0.1l0,0l0.1-0.1l0,0l0,0c-0.1,0-0.1,0.1-0.2,0.1l0,0l-0.1,0.1l0.1,0l0,0
			c-0.1,0.1-0.3,0.2-0.5,0.3c0.1,0,0.3-0.2,0.3-0.2l0,0l0.1,0l-0.1,0.1l0.1,0c0,0,0,0-0.4,0.1l0,0c0,0,0.1,0,0.1,0l0,0
			c-0.2,0-0.3,0.2-0.3,0.3c0.1-0.1,0.2-0.2,0.3-0.3l0,0c0.1,0,0.1,0,0.1-0.1l0,0c0.1,0,0.1,0,0.1,0l-0.1,0.1l0,0
			C29.9,96,29.9,96,29.9,96c0.2,0,0.3-0.1,0.4-0.2l0,0l0,0c-0.2,0-0.3,0.1-0.4,0.2l0,0l0,0c0,0,0,0,0.2-0.1c0,0.1,0,0.1-0.2,0.2l0,0
			l0.1,0l-0.1,0.1c-0.1,0-0.1,0-0.1,0.1l0,0l0,0.1c0.1,0,0.4-0.3,0.4-0.4c0.1-0.1,0.1,0.2,0.3,0c0,0,0,0.2,0,0.2
			c-0.1,0-0.3-0.1-0.3,0l-0.1,0c-0.1,0.1-0.3,0.2-0.3,0.3l0,0l0.1-0.1l-0.1,0.1l0.1-0.1c0,0,0,0,0,0.1h0v-0.1c0,0.1,0,0.1-0.1,0.2
			l0.1,0l0.1,0c0,0,0,0,0,0.1l0.1,0l0,0c-0.1,0-0.1,0.1-0.2,0.3l0,0c0.1-0.1,0.1-0.2,0.2-0.3l0,0l0,0c0-0.1,0-0.2,0.1-0.3l0,0
			c0,0.1,0,0.1,0,0.1l0.1,0l0,0.1c0.1,0,0.1,0,0.1,0c-0.1,0-0.1,0-0.2-0.1c0,0-0.1,0-0.1,0.1l0,0l0,0c0,0.1-0.2,0.2-0.2,0.2l0,0
			c0.1,0,0.2-0.2,0.3-0.2l0,0c-0.1,0.1-0.2,0.2-0.3,0.3l0,0l0,0l-0.1,0.1c0,0,0,0,0,0.1l0,0c0.1,0,0.1-0.1,0.2-0.1
			c-0.2,0.2-0.2,0.2-0.2,0.2c0.2-0.1,0.2-0.1,0.2-0.1c0,0.1,0,0.1-0.1,0.2c0,0,0,0,0.1,0l0,0c0,0.1,0,0.1,0,0.1
			c0.1,0,0.1-0.1,0.2-0.2c0,0.1-0.1,0.2-0.2,0.3l0,0l0.2,0l0,0l0,0l0,0c0,0,0,0-0.1,0.1l0,0c0.1,0,0.1,0,0.1-0.1l0,0
			C30.3,98,30.3,98,30.3,98c0.1,0,0.1-0.1,0.2-0.1c0,0,0,0-0.1,0.2l0,0l-0.1,0.1l0,0c0,0,0.1,0,0.1-0.1c0,0,0.1-0.1,0.1-0.1
			c0,0,0,0-0.1,0.1c0.1,0,0.1,0,0.2,0l0,0.1l0,0c0-0.1,0-0.1,0.1-0.1l0,0.1c0,0,0,0-0.1,0.1c0.1,0,0.1,0,0.2-0.1l0,0
			c0.1,0,0.1,0,0.1-0.1l0,0l0,0l0,0l0,0c0.1,0,0.2,0.2,0.2,0.1l0,0.2h0c0,0,0-0.3,0.1-0.3c0-0.1,0-0.2,0.1-0.2l0,0l-0.1,0.1
			c0-0.1,0.1-0.1,0.1-0.2l0.1,0c0,0,0,0.2-0.1,0.2l0,0c0,0,0-0.1,0.1-0.2l0,0.1c0.1,0,0.1-0.1,0.1-0.1l0,0.1l0,0
			c0,0.1,0,0.1-0.1,0.2l0,0c0.1-0.1,0.1-0.1,0.2-0.1l0,0c0.1-0.1,0.1-0.1,0.2-0.2c0.2-0.1,0.2-0.1,0.2-0.1l-0.1,0
			c-0.1,0.1-0.1,0.1-0.1,0.1c0.1-0.1,0.2-0.2,0.3-0.3l0,0l-0.1,0.1l0,0h0c0,0-0.1,0-0.1,0c0,0,0,0,0.1-0.1l-0.1,0l0.1-0.1l0-0.1l0,0
			l-0.1,0l0,0c0,0,0-0.1,0.1-0.1c0.1-0.1,0-0.2,0.1-0.2c-0.1,0-0.1,0-0.1,0c0.1,0,0.1-0.1,0.1-0.1c-0.1-0.1-0.1-0.1-0.1-0.1
			c-0.1,0-0.1,0-0.2,0c0.1,0,0.1,0,0.2-0.1l0,0c0,0-0.2,0-0.1-0.1c0,0,0.1-0.1,0.1-0.1l0,0c-0.1-0.1-0.1-0.1-0.1-0.1
			c0.1,0,0.1,0,0.1,0l0,0l-0.1,0l0,0c0.1,0,0.1,0,0.1,0l-0.1,0c0.1,0,0.1,0,0.2-0.1c-0.1,0-0.1,0.1-0.2,0c0.1,0,0.2,0,0.2-0.1l0,0
			c0,0-0.1,0-0.1,0c-0.1,0-0.1,0-0.1,0c0.2-0.2,0.2-0.2,0.2-0.2c0-0.1,0-0.1-0.2-0.1c0-0.2,0.2-0.1,0.2-0.3l0,0c0,0-0.1,0-0.1,0v0
			c0,0,0,0,0.1-0.1l0,0c0,0,0,0,0.1,0l0,0l0-0.1l0.1,0l0,0c0,0,0,0,0.2-0.2c0,0,0,0-0.1,0l0,0c0,0,0,0,0.1-0.1l0,0l0,0l0-0.1l0.1,0
			l0,0.2c0,0,0,0,0,0.1l0,0l0,0l0-0.1c0,0,0,0,0.1-0.1l0,0l0,0c0-0.1,0-0.1,0.1-0.1l0,0l0,0c0.1,0,0.1,0,0.1-0.2l-0.1,0
			c0.1-0.1,0.1-0.1,0.2-0.1c0.1-0.1,0.1-0.3,0.1-0.3l0,0l0-0.1c0,0,0,0,0.1-0.4c0,0,0,0-0.1,0l0,0l-0.1,0l0,0l0,0
			c0.1,0.1,0.3-0.1,0.3-0.1l0,0l0.1,0l0-0.1l0,0c0.1,0,0.1,0,0.4-0.4l0,0l0,0l0,0l0,0c0,0,0,0,0-0.1l0,0l0,0l0.1-0.1l0,0l0,0l0,0
			l0,0l0,0l0.1-0.1l0,0l0,0l0,0l0,0l0,0l0,0l0,0l0,0l0,0l0,0l0,0l0,0c0,0,0,0,0-0.1l0,0c-0.1,0.1-0.1,0.1-0.3,0.2l0,0
			C33.8,93,33.8,93,33.8,93l-0.1,0c0-0.1,0.2-0.2,0.2-0.2c-0.1,0-0.3,0.2-0.3,0.2l0,0l0.1-0.1l0,0c0,0,0.1-0.1,0.1-0.1
			c0.1-0.1,0.1-0.1,0.1-0.2l0,0l0.1,0c0.1,0,0.2,0,0.3,0c0.1,0,0.1-0.1,0.1-0.1l-0.1,0c0.1,0,0.1,0,0.1,0l0,0l-0.1,0l0,0l0,0l0,0
			c0,0,0,0-0.1-0.1l0,0l0,0.1l0,0l0-0.1l0,0l0,0l0,0l0,0l0,0c-0.2,0.1-0.2,0.1-0.2,0.1l0,0l0-0.1l-0.1,0l0,0c0,0,0,0.1-0.1,0.1l0,0
			l0,0c0.1,0,0.1,0,0.1-0.1c-0.1,0-0.1,0-0.2,0.1c0,0,0-0.1,0-0.1l0,0v0c0-0.1,0.1-0.1,0.1-0.1l0,0l0,0c0.1,0,0.2-0.1,0.2-0.1l0,0
			l0,0l0,0l0,0l0,0c0-0.1,0-0.1,0.1-0.1l0,0c0,0,0,0-0.1,0l0,0l0,0l0,0l0,0l0,0c0,0,0.2-0.1,0.2-0.1c0,0,0,0-0.1,0.1l0,0l0,0l0,0
			l0,0l0,0l0,0l0,0l0,0l0,0c0,0,0,0.2,0,0.2h0l0-0.1c0,0,0-0.1,0-0.1l0-0.1l0,0l0,0c0,0,0,0,0.1-0.1l0,0l0.1-0.1l0,0l0,0l0,0l0,0
			l0,0l0,0l0,0l-0.1,0c0-0.1,0.2-0.2,0.2-0.2l-0.1,0l0.1-0.1l-0.1,0l0.1,0l0,0h0v0h0l0.1-0.1l-0.1,0l0,0l0,0l-0.1,0l0,0l0,0l0,0
			l-0.1,0l-0.1,0l0,0l0,0l0,0l0,0c-0.1,0-0.2,0.1-0.2,0.1l0,0l0.1-0.1c-0.1,0-0.2,0.1-0.3,0.1l0.1,0l0,0l0.1-0.1l-0.1,0.1l-0.1,0.1
			l0.1,0L33.1,91.8l0-0.1L33.1,91.8L33.1,91.8L33.1,91.8L33.1,91.8L33.1,91.8L33.1,91.8L33.1,91.8L33.1,91.8L33.1,91.8L33.1,91.8z
			 M33.7,92.1L33.7,92.1L33.7,92.1L33.7,92.1L33.7,92.1z M33.9,91.4l-0.2,0.1L33.9,91.4l-0.1,0.1C33.8,91.4,33.9,91.4,33.9,91.4z
			 M33.6,92.6L33.6,92.6L33.6,92.6c-0.1,0.1-0.1,0.2-0.1,0.2c0,0,0,0.2,0,0.2h0v-0.4L33.6,92.6L33.6,92.6l-0.1,0.1v0l0,0
			C33.5,92.7,33.5,92.6,33.6,92.6z M34.3,94.2c-0.1,0-0.1,0-0.2,0l0,0c0,0,0.1,0,0.1,0.1l0,0c0,0.1-0.2,0-0.2,0.1l0.1,0.1
			c0,0-0.1,0.1-0.1,0.1c0,0,0,0.1,0.2,0c0.1-0.1,0.1-0.1,0.3-0.1c0.1,0.2-0.3,0.1-0.3,0.3c0,0,0.1,0,0.2-0.1c0.1,0,0.1,0,0.2,0
			c0,0.1-0.1,0.1-0.1,0.2c0,0,0,0,0.1,0l0,0c0.1,0,0.2-0.1,0.3-0.1c0,0,0,0,0.1,0c0.1,0,0.3,0,0.3,0c0.1,0,0.1-0.1,0.1-0.2l0.2-0.1
			l0,0c0,0,0,0,0.1-0.2c0.1,0,0.2,0,0.1-0.2l0.1-0.1c0,0,0-0.1,0-0.1c0-0.1-0.1-0.1-0.2-0.1c-0.1,0.1-0.1,0-0.1-0.1l0,0l-0.2,0
			l-0.1,0.1c0,0-0.1,0.2-0.1,0.2h0l0-0.2v0l0-0.1l0,0l0,0l0,0l0,0l0,0.1c0,0-0.1,0.1-0.2,0.1c0,0,0,0,0.1,0.1c-0.1,0-0.1,0-0.1,0
			c0,0-0.1,0-0.1,0.1l0,0.1l0,0c-0.1,0.1-0.2-0.1-0.2-0.1l0,0c0,0,0,0,0,0.2l-0.1,0.2C34.3,94.3,34.3,94.3,34.3,94.2
			C34.3,94.2,34.3,94.2,34.3,94.2z M35.1,94.1L35.1,94.1L35.1,94.1L35.1,94.1z M39,96L39,96L39,96L39,96L39,96
			C38.9,96,38.9,96,39,96L39,96L39,96z M40.9,96.2C40.9,96.2,40.9,96.2,40.9,96.2l-0.1,0.1c0,0,0-0.1,0-0.1l0,0L40.6,96l-0.1-0.1
			c-0.1,0-0.2-0.1-0.3-0.1l-0.1,0c-0.1,0-0.1-0.1-0.2-0.1c-0.2-0.2-0.4-0.1-0.4-0.1c-0.1,0-0.2,0.2-0.3,0.1c0.1,0,0.1,0,0.2-0.2
			c-0.1,0-0.1,0-0.1,0c0.2-0.1,0-0.4,0-0.4c-0.2-0.1-0.3,0.2-0.5,0.2c0-0.1,0.1-0.2,0.1-0.3c0,0-0.1-0.1-0.2,0
			c-0.1,0.1-0.1,0.1-0.3,0.1l0,0c0,0.1,0,0.1,0.1,0.1c0,0,0,0-0.1,0.1l0.1,0.1c-0.1,0.1-0.1,0.1-0.1,0.1l0.1,0l0,0.1
			c0,0,0.1,0,0.1,0.1c0,0.1,0,0.1,0,0.2c0.1,0,0.1,0,0.1-0.1l0.1,0c0,0.2,0,0.2,0.1,0.2l0,0c0.1-0.1,0.1-0.1,0.1-0.2l0,0l0.1,0.1
			c0,0,0,0,0,0.1l0.1,0.1c0,0.1,0,0.1,0,0.2l0.1,0l0,0c0.1,0,0.2-0.1,0.2-0.1l0.1,0c0,0.2,0,0.2,0.1,0.2l0.1,0l0,0
			c0.1,0.2,0.1,0.2,0.2,0.3l0,0c-0.2,0.1-0.3,0.2-0.3,0.3l0,0l0,0l0,0l0,0l0,0l0,0l0,0l0,0l0,0l0,0c0,0,0.1,0.1,0.1,0.1
			c0,0.1-0.1,0.2-0.2,0.3c0.1,0,0.1,0,0.3,0c0.1,0,0.1,0,0.3,0l0,0l0,0c0,0,0,0,0.1-0.1l0,0.2l0,0c-0.1,0-0.1,0-0.2,0.1L40,97.2
			c0,0,0,0.2-0.2,0.4l0,0c0.1,0,0.1,0,0.2,0c0-0.1,0.1-0.2,0.2-0.2c0.2,0,0.2,0,0.1-0.1c0.1-0.1,0.1-0.1,0.4-0.1l0,0
			c0,0,0,0,0.2-0.1c0,0,0.3-0.1,0.3-0.1c0.1,0,0.1-0.1,0.2-0.1c0,0,0-0.1,0.1-0.1l0,0l0,0l0,0l0,0l0,0l0,0l0,0l0,0l0,0
			c0,0-0.1,0-0.3,0.1l0,0c0.1-0.1,0.2-0.3,0.2-0.3C41.4,96.1,41.1,96.1,40.9,96.2L40.9,96.2z M38.4,97.5L38.4,97.5
			c0.1,0,0.1,0,0.2,0.1l0.3-0.2c0.1-0.1,0.1-0.1,0.1-0.2c0,0,0,0,0.2-0.1l0,0l0.1-0.1c0-0.1,0-0.2,0-0.3c-0.1-0.1-0.2-0.2-0.3-0.3
			c0.1-0.1,0.1-0.1,0.1-0.2l0,0c-0.2-0.2-0.3-0.3-0.5-0.1c0,0-0.1,0-0.1,0l0,0c-0.1,0.1-0.1,0.1-0.1,0.2c-0.1,0-0.1,0-0.1,0.1l0,0
			l0,0l0,0l0,0l0,0l0,0l0,0l0,0c0,0.1,0,0.1-0.1,0.1l0,0c-0.2,0.1-0.2,0.1-0.3,0.1c0,0,0,0.1,0,0.1l0,0l0,0l0,0l0,0l0,0l0,0l0,0l0,0
			c0,0,0.1,0,0.1,0l0,0c0,0.1,0,0.1,0,0.1l-0.1,0l0,0l0,0.1c0.1,0,0.3,0,0.3-0.1l0,0c-0.1,0.1-0.1,0.1-0.1,0.2l0,0.1l0.1-0.1
			c0,0.1,0,0.1-0.1,0.1c0,0,0,0.1,0,0.1c0,0-0.1,0-0.1,0.1l0,0l0.1,0l0,0L38.4,97.5L38.4,97.5L38.4,97.5z M35.1,93.8L35.1,93.8
			L35.1,93.8L35.1,93.8L35.1,93.8L35.1,93.8L35.1,93.8L35.1,93.8C35.1,93.8,35.1,93.8,35.1,93.8z M41.8,94.3
			C41.8,94.3,41.8,94.4,41.8,94.3l0.1,0.1c0-0.1,0-0.1,0-0.1c0.1-0.1,0.2-0.1,0.3-0.1c0,0,0-0.1,0-0.1C42.1,94,42.1,94,42.1,94l0,0
			l0,0l0,0c0,0-0.1,0-0.1,0.1l0,0.1c0,0.1,0,0.1,0,0.1C41.8,94.3,41.8,94.3,41.8,94.3z M42.8,94.4L42.8,94.4c0,0.1,0,0.1,0,0.2
			c0.1,0.1,0.1,0.1,0.2,0l0.1,0l0,0l0-0.1l-0.1,0c0,0,0-0.1,0-0.1l-0.1,0L42.8,94.4l0.1-0.1c0,0,0,0.1,0.1,0.1
			C42.9,94.4,42.9,94.4,42.8,94.4C42.8,94.4,42.8,94.4,42.8,94.4z M30.1,104.9l0,0.1l0.1,0c0-0.1,0-0.2,0-0.3l0-0.1
			c-0.1,0-0.1,0-0.1,0c0,0,0-0.1,0-0.1l-0.1,0c0,0,0,0.1-0.1,0.1c0,0,0-0.1-0.1-0.1l0,0c0.1-0.1,0.1-0.1,0.2-0.2l0,0l0,0l0,0
			c-0.1,0.1-0.1,0.1-0.1,0.1c0,0-0.1-0.1-0.1-0.1c0.1-0.2,0.1-0.2,0.1-0.2c-0.1,0-0.2,0-0.3,0c0,0.1-0.1,0.2-0.3,0.1l0,0l0,0
			l0.1-0.2c0,0-0.1,0-0.1,0c-0.1,0.1-0.1,0.2-0.2,0.2c0-0.2,0.1-0.4,0.2-0.6l-0.3,0.1c-0.1,0.3-0.2,0.5-0.2,0.7l0.1,0.1l0,0
			l-0.1,0.1c0,0,0,0,0,0.1l0.1,0c-0.1,0.1-0.2,0.2-0.2,0.3c0,0.1,0,0.1,0,0.2c0.2-0.1,0.2-0.1,0.5-0.2c0.1,0,0.2,0,0.2-0.2l0.1,0
			l0,0l0,0l0,0l0,0l0,0l0,0l0,0l0,0l0,0c0,0,0.1,0,0.1-0.1l0.2,0l0,0c0,0-0.3,0.3-0.2,0.4c0.1,0,0.1,0,0.1,0c0,0,0.2-0.3,0.3-0.5
			l0,0l0.1,0c0.1,0.1,0,0.2,0,0.2C30,105,30,105,30.1,104.9z M33.8,92.6l-0.1,0.1l-0.1,0l0,0l0,0l0,0l0,0c0,0,0.1,0,0.1-0.1
			C33.8,92.8,33.8,92.8,33.8,92.6L33.8,92.6L33.8,92.6L33.8,92.6C33.9,92.6,33.8,92.6,33.8,92.6z M59.6,105.3L59.6,105.3L59.6,105.3
			c-0.1,0-0.1,0-0.4,0.3l-0.1,0l-0.1,0.2l-0.1,0c0,0-0.1,0.1-0.1,0.2l0,0l0,0l0,0l0,0l0,0l0,0l0,0l0,0c-0.2-0.2-0.2-0.2-0.2-0.3
			c0,0-0.1,0-0.1,0l0,0c0.1-0.2,0.1-0.2-0.9-1.2c0,0,0,0.1,0,0.1c-0.3-0.4-1-1.3-1-1.3c-0.5-1-0.5-1-0.8-1.1l-1.9-2.1
			c0.2,0.2,0.4,0.4,0.7,0.5c0-0.3,0-0.4-0.2-0.6c0,0,0,0,0.1,0c0.1,0.1,0.1,0.3,0.2,0.4c0.2,0,1,0.8,1,0.8c0.5,0.6,1,1.1,1.5,1.6
			c0.4,0.5,0.4,0.5,1.2,1.9l0,0l0,0l0,0l0,0l0,0l0,0l0,0l0,0c0.2,0.3,0.3-0.1,0.3-0.1l0-0.1c0.1-0.1,0.1-0.3,0.3-0.4
			c0.1-0.4,0.1-0.8,0.2-1.2c0,0,0.1,0,0.1-0.1c0-0.1-0.1-0.2-0.1-0.3c0.1-0.1,0-0.4-0.2-0.9l0,0c-0.2-0.7-0.8-1.2-1.1-1.9l0,0
			c0,0.1,0.2,0.7,0.2,0.8c-0.1,0-0.1,0.1-0.2,0l0,0.1l-0.1,0c-0.2-0.2-0.2-0.4-0.4-0.6c0,0.1,0,0.1,0.2,0.5l-1.2-1.4l0,0l0-0.1l0,0
			l0,0l0,0l0,0l0,0l0,0l0,0l0,0c-0.1-0.1-0.1-0.1-0.1-0.1c0,0,0,0,0-0.2l0,0c0.1,0.1,0.1,0.1,0.1,0.1l0,0c0.1,0.1,0.2,0.1,0.2,0.2
			l0,0l0,0l0,0l0,0l0,0l0,0l0,0l0,0c0.1,0.1,0.1,0.1,0.9,0.7c0-0.1,0-0.2,0-0.3c0.2,0.1,0.2,0.3,0.4,0.4l0,0l0,0l0,0l0,0l0,0l0,0
			l0,0l0,0c0,0.1,0.1,0.1,0.2,0l0.1,0.1l0,0l0,0l0,0l0,0l0,0l0,0l0,0l0,0l0,0l0-0.1l0,0c0,0,0-0.1,0-0.1c0,0,0.2,0.4,0.4,0.7
			c-0.2-0.4-0.4-0.7-0.5-1c-1.1-1.8-1.1-1.8-1.8-2.6c-1.4-1.6-1.4-1.6-2.2-2.2l-0.8-0.7l0,0c-0.5-0.4-1.1-0.8-1.6-1.2
			c-1.8-1-1.8-1-2.7-1.5c-1.9-0.8-1.9-0.8-2.9-1c-0.6-0.1-1.4-0.3-2-0.4l0,0c-0.2,0-0.2,0.3-1,0.1c-0.2,0-0.3-0.1-0.3-0.1l-0.3-0.1
			l0,0c0.2,0.1,0.2,0.1,0.6,0.2l-0.1,0.1c-0.3,0-0.7-0.1-1-0.1c0.2,0,0.4,0.1,0.6,0.1c0.3,0,0.3,0,0.6,0.1l0,0l-0.3,0
			c0.1,0.1,0.1,0.1,0.7,0.3c-0.3,0-0.3,0-0.5,0l0,0.1c0.2,0,0.3,0,0.5,0.1c0,0-0.1,0.1-0.9,0c-0.4-0.1-0.4-0.1-1-0.1
			c0.3-0.1,0.7,0,1-0.1l0-0.1c-0.8-0.5-1.7,0-2.5-0.1l0,0.1c-0.1,0-0.3,0-0.4,0l0.1,0c-0.1,0-0.1,0-0.5,0c0,0,0.1,0,0.2,0
			c-0.1,0-0.2,0-0.3,0c0,0,0.1,0,0.1,0.1c-0.1,0-0.1,0-0.2,0c0.1,0.1,0.1,0.1,0.2,0.1c-0.1,0-0.2-0.1-0.3-0.1c0,0.1,0.1,0.1,0.2,0.2
			l-0.2,0l0.1,0l-0.1,0c0,0,0.1,0.3,0.1,0.3c0,0,0,0-0.1,0.1c0,0-0.1-0.1-0.1,0c0,0.1,0,0.1,0.1,0.1l0.1,0c0,0,0,0,0,0
			c0,0,0.1,0.1,0.1,0.1l-0.1,0l0,0l0,0.1l0.1,0l0,0l0,0l0,0l0,0l0,0l0,0l0,0l-0.1,0c0,0.1,0,0.1,0,0.2l0.1,0l0,0l-0.1,0
			c0,0,0.1,0.1,0.1,0.1l0,0c0,0,0,0.1,0,0.1c0,0,0,0,0.2,0.1l-0.1,0l0,0.1l0.1,0c-0.2,0.1,0,0.3,0,0.4l-0.1,0l0,0.1l0,0.1
			C40.1,93,40,93,40,93.1c0,0,0.1,0,0.2,0c0,0-0.1,0.1-0.1,0.1l0,0.1c0,0-0.1,0.1-0.1,0.1l0.1,0c0.1,0,0.1,0,0.1,0l-0.1,0
			c0,0.2,0,0.2,0.2,0.2l0,0.1l0,0l0.1,0c0,0,0.1,0.1,0.1,0.1c0,0,0.1,0,0.1,0l0,0.1l0.1,0l0,0.1l0,0l0,0l0,0l0,0l0,0l0,0l0,0l0,0
			l0,0l0,0l0,0.1c0,0,0.1,0,0.1,0l0,0l0,0l0-0.1l0.1,0l0.1,0l0,0l0,0.1l0.1,0l0,0l0,0l-0.1,0l0,0l-0.1,0c0.1,0.1,0.7,0.4,0.8-0.1
			c0-0.1,0-0.1,0-0.2l0.1,0l0-0.1l-0.1-0.1c0.2,0,0.2,0,0.2,0c0.3,0.4,0.7,0.3,1.1,0.5l0,0.1c0.1,0.1,0.2,0.1,0.3,0.2
			c0,0,0,0,0.3-0.1c0,0,0-0.1-0.1-0.1c0-0.2,0.3-0.2,0.3-0.2c-0.1-0.2-0.1-0.3-0.3-0.5l0,0l0,0l0,0l0,0l0,0l0,0l0,0l0,0l0,0l0,0l0,0
			l0,0l0,0l0,0l0,0l0,0c-0.1-0.1-0.1-0.1-0.3-0.1l0.1-0.1l0-0.1l0,0l0,0l0,0l0,0l0,0l0,0l0,0l0,0l0,0c0-0.1,0-0.1,0-0.2l0,0l0,0l0,0
			c-0.2,0.1-0.2,0.1-0.4,0.1l0,0c0.1-0.1,0.3,0,0.4-0.2l0,0l0,0l0,0l0,0l0,0l0,0l0,0l0,0c-0.2-0.1-0.4,0-0.7-0.1
			c-0.2-0.1-0.6-0.4-0.6-0.4l0.1,0l0-0.1l-0.1,0l0,0l0,0l0,0l0,0l0,0l0,0l0,0l0,0c-0.1-0.2,0-0.3-0.1-0.5l-0.2,0l0-0.1l-0.1,0
			c0,0,0,0-0.1-0.2c0.3,0,0.5,0,0.8,0c0,0.1,0,0.1,0.2,0.4l0,0l-0.1,0l0.1,0.1l-0.1,0c0.4,0.4,1.1,0.6,1.3,0.5c0.2,0.1,0.2,0,0.3,0
			l0,0l0.1,0l0-0.1l0,0l0-0.1l0.1,0h0l0-0.1l-0.1,0l0,0l0,0l0,0l0,0l0,0l0,0l0,0l0,0c0.1,0,0.1,0,0.2-0.1l0-0.1v0
			c0.2,0.1,0.3,0,0.5,0.1c-0.1,0-0.1,0.1-0.2,0.2l0.1,0l0,0l0,0.1c-0.3,0.1-0.3,0.1-0.6,0.3c0.3,0.3,0.4,0.2,0.5,0.1
			c0.1,0.1,0.2,0.2,0.4,0.2l0,0.1c0,0,0,0-0.4,0l-0.1,0l0,0l0,0l0,0l0,0l0,0l0,0l0,0l-0.1,0.1c0.1,0.3,0.5,0.3,0.6,0.6l0.1,0
			C45,93.9,45,93.9,44.8,94l0.1,0.1c0,0-0.1,0.1-0.1,0.1c-0.1,0.1-0.2-0.1-0.4,0c-0.2,0.1-0.3,0.4-0.5,0.5l0.1,0c0,0,0,0-0.5,0
			c-0.1,0.1-0.1,0.1-0.2,0.2l0,0l0,0l0,0l0,0l0,0l0,0l0,0l0,0l0,0l-0.1,0l0,0l0-0.1l-0.1,0c-0.1,0-0.5,0.1-0.6-0.2l0,0l0-0.1l0-0.1
			l0.1,0l0-0.1l-0.1-0.1c-0.1,0-0.3-0.1-0.4,0l0,0.1l-0.1,0l0,0.1l-0.1,0l0,0.1l0.1,0.1l0.1,0.1l0.1,0v0c0,0,0.2,0.2,0.3,0.2l0,0.1
			c0,0,0.1,0,0.1,0.1l0,0l0.1,0c-0.1,0-0.1,0.1-0.1,0.2l0,0l0,0c-0.1-0.1-0.1-0.1-0.3,0c0,0,0.1,0.1,0.1,0.1l0,0
			c-0.2,0-0.2,0-0.4,0.1l0,0.1c0.1,0.1,0.1,0.1,0.2,0.1l0,0.1c0,0-0.1,0.1-0.1,0.1l0-0.1l0-0.1c0,0-0.1,0-0.1,0c0,0.1,0,0.3,0,0.4
			l0,0.1l0,0.1c-0.1,0-0.1,0-0.3,0.3c0,0.3,0,0.3-0.1,0.5c0,0,0,0.1,0,0.1c-0.2,0.1-0.2,0.1-0.3,0.1c-0.1-0.1-0.1-0.1-0.2-0.1l0,0.1
			c0.1,0,0.1,0,0.3,0.2l-0.1,0l0,0l0,0l0,0l0,0l0,0l0,0l0,0l0,0c-0.1,0.1-0.1,0.1-0.2,0.1l-0.1-0.1c-0.1,0-0.1,0.1-0.2,0.1
			c-0.1,0.1-0.1,0.1-0.2,0.2c0,0,0,0,0.2,0.1l0,0l-0.1,0c0,0,0.1,0,0.1,0.1c0.2-0.1,0.4,0,0.6-0.1l0,0.1l0.2,0
			c0.1,0.2,0.4,0.1,0.5,0.3l0,0c0,0,0,0.1,0,0.1l0,0l0,0.1l0,0c0,0.1,0,0.1,0.1,0.2l0,0l0,0l0,0c0,0.1,0.1,0.3,0.1,0.4
			c-0.1,0-0.1,0-0.4,0.1c0,0-0.1,0.2-0.7,0.3c0,0-0.8,0.2-0.8,0.4l0,0l0,0l0,0l0,0l0,0l0,0l0,0l0,0c-0.2,0.1-0.1,0.2-0.1,0.2
			c0.4,0.1,0.5,1,0.4,1.2c0,0.1,0,0.1,0.1,0.2l0,0c0.1,0,0.1,0,0.1-0.1l0,0c0,0,0,0.1,0,0.1l0,0l0,0l0.1,0c0,0.1,0,0.1,0,0.2
			c0,0,0,0,0.1,0.3l0,0c0,0,0.6-0.5,0.8-0.2l0,0c0.1,0.1,0.2,0.2,0.3,0.1l0,0l0,0l0,0l0,0c0-0.3,0.7-0.6,0.9-0.6
			c0.1-0.1,0-0.2,0.1-0.3c0,0,0,0,0.2-0.2c-0.1-0.1-0.1-0.3,0.1-0.5l0,0c-0.2,0-0.3-0.1-0.3-0.2c0-0.2,0.1-0.3,0.1-0.5l0,0l0-0.1
			c0,0,0,0,0.4-0.4c0.2-0.2-0.3-0.4-0.1-0.6c0.2-0.3,0.5,0,0.8-0.2c0.2-0.2,0.2-0.5,0.4-0.7l0.1,0c0.5-0.2,0.7,0.3,1.1,0.4
			c0.3,0.1,0.6,0.1,0.9,0.1l0.1,0c0,0,0.1,0.1,0.1,0.1l0.1-0.1l0,0l0,0l0,0l0,0l0.1-0.1c0.1,0,0.1,0,0.1,0.1c0.1,0,0.2,0,0.3,0
			c0,0,0.2,0.1,0.4,0.3l0,0c0,0-0.1,0-0.1,0.1c0.1,0.1,0.1,0.1,0,0.2l0,0l0,0l0,0l0,0l0,0l0,0l0,0l0,0l0,0l0,0l0,0l0,0l0,0l0,0l0,0
			l0,0l0,0c0-0.1,0-0.1,0-0.2c0-0.1,0-0.1,0-0.2c-0.1-0.1-0.1-0.1-0.1-0.1l-0.2,0c-0.1-0.1-0.1-0.3,0-0.3c0.1,0,0.1,0,0.4,0.1
			c0,0,0,0,0-0.1c-0.3-0.1-0.7,0-1-0.2c0,0,0-0.1,0-0.1l0,0c-0.1,0-0.1,0-0.1,0l0,0l0,0l0,0l0,0l0,0l0,0l0,0l0,0
			c-0.2,0.1-0.2,0.1-0.3,0l-0.2-0.1c-0.1-0.1-0.2-0.2-0.4-0.2c-0.4-0.1-0.4-0.1-0.4-0.1c-0.1,0-0.1-0.1-0.2-0.1l0-0.1
			c-0.1,0-0.1,0-0.1-0.1l0,0l0,0l0-0.1c0.2-0.2,0.2-0.2,0.2-0.2c0,0,0.1,0,0.1,0l0,0.1l0.1,0.1c0.1,0,0.1,0,0.2,0l0.1,0l0,0
			c0.2,0.1,0.3,0.2,0.5,0.2l-0.1,0l0,0c0.1,0.1,0.4,0.1,0.4,0.1c0.1,0,0.2,0,0.3,0c0.9,0.2,0.9,0.2,1,0.2l0,0.1l0,0
			c0.2,0.3,0.2,0.3,0.3,0.4l0,0l0.5,0.2c0.1,0,0.2,0,0.2,0l0,0c0,0,0,0-0.1,0.1l0,0l0.2,0.1c0.1,0,0.1-0.1,0.2-0.1
			c0.1,0,0.2,0,0.3,0l0,0c0,0.1,0,0.1-0.2,0.1c0,0,0,0-0.2,0.1c0,0,0,0,0,0.1c0.2,0.1,0.2,0.1,0.2,0.2c0,0.1,0,0.1,0.1,0.1
			c0,0,0,0,0-0.1c0.1,0,0.1,0.1,0.2,0.1c0-0.1,0-0.1,0.1-0.1c-0.1-0.1-0.1-0.1-0.3-0.2l0,0l0.1,0l0,0c0,0,0,0,0.1,0c0,0,0,0,0-0.1
			l0-0.1l0,0c-0.1-0.1-0.1-0.1-0.1-0.1l0.1-0.1c0,0,0,0,0.2,0.1c0,0,0,0-0.1-0.1l0,0c-0.1-0.1-0.4-0.1-0.5-0.1l0,0l0-0.1
			c0,0,0,0-0.1-0.1l0,0c0-0.1,0.1,0,0.1,0l0,0l0,0l0,0c-0.4-0.2-0.4-0.2-0.4-0.3c0,0,0,0,0-0.1c0,0,0,0,0-0.1l0,0l0,0l0,0
			c0.1,0,0.2,0,0.2,0.1l0.1,0l0,0c-0.1,0-0.1,0-0.2-0.1l0,0c0.1,0,0.1,0,0.2,0l0,0l0,0l-0.1-0.1l0,0c0.1,0,0.1,0,0.2,0l0,0
			c-0.1,0-0.2-0.1-0.3-0.1l0,0c0.1-0.1,0.1-0.1,0.1-0.1c0.1,0,0.1,0,0.1-0.1c0.1,0,0.2-0.1,0.3,0l0,0c0.1,0,0.1,0,0.2,0
			c0,0.1,0,0.1,0,0.2c0.1-0.1,0.1-0.2,0.1-0.3l0-0.1l0,0l0,0l0,0l0,0l0,0l0,0l0,0l0,0l0,0c0.1-0.1,0.1-0.1,0.2-0.1c0,0,0-0.1,0-0.1
			l0,0c-0.1,0-0.2,0-0.2,0c-0.1,0-0.2-0.2-0.4-0.2l0,0l0,0l0,0l0,0l0,0l0,0l0,0l0,0c0-0.1,0-0.1-0.1-0.3l0.1-0.1
			c-0.3-0.3-0.3-0.4-0.2-0.5l0-0.1l0,0c0,0-0.1-0.1-0.1-0.1c0-0.2,0-0.2,0-0.3c0,0,0.1-0.1,0.1-0.1l0-0.1l0.1,0l0,0l0,0.1
			c0.1,0.1,0.3-0.1,0.4,0c0,0.2,0,0.2,0,0.2l0.2,0c0.2-0.1,0.4-0.1,0.6-0.2l-0.1-0.1c-0.1,0-0.1,0-0.2,0.1c-0.1-0.1-0.3-0.1-0.5-0.2
			c0,0,0.1-0.1,0.1-0.1c0,0,0-0.1,0-0.1l0.1,0c0-0.2,0.3-0.4,0.3-0.4l0.1,0c0,0.1,0,0.1-0.1,0.2c0.2,0,0.2,0.1,0.3,0.1l0,0.1
			l0.1,0.1l0,0.1l0.1,0h0l0,0c0.4,0.2,0.9,0.2,1.4,0.4c0.3,0.2,0.5,0.5,0.3,0.6c-0.2,0-0.3,0.1-0.5,0.1c-0.1,0-0.3-0.1-0.4-0.1
			c-0.1,0.1-0.1,0-0.2,0c-0.4,0.3-0.4,0.3-0.5,0.4l0,0c0,0,0,0-0.4,0.1l0,0.1c0.1,0.1,0.1,0.1,0.2,0l0,0c0,0,0,0-0.2,0.1
			c0,0,0.1,0,0.1,0l0,0c-0.1,0-0.1,0-0.2,0.1l0,0l0,0l0.1,0c-0.1,0-0.1,0-0.2,0c-0.1,0.1-0.1,0.2,0,0.4c0.1,0,0.1,0,0.2-0.1l0,0
			l0,0.1c0,0,0.1,0,0.1,0l0,0l0,0l0,0l0,0l0,0l0,0l0,0l0,0l0,0l0,0.1c0,0,0.1,0.1,0.1,0.1l0,0.1l-0.1,0l0,0.1l0,0l0,0l0,0l0,0l0,0
			l0,0l0,0l0,0c0.1,0,0.1,0,0.2,0c0.1,0.1,0.1,0.1,0.3,0.2l0,0c0.1,0,0.1,0,0.2,0c0,0.1,0,0.1,0.1,0.1l0-0.1l0.2,0
			c0.2,0.1,0.2,0.1,0.4,0.1l0-0.1L52,98.2c0.3-0.1,0.8,0.2,0.8-0.2c0,0,0,0,0.2,0l0-0.1l0,0c0.3,0.2,0.5,0.8,0.6,1.1
			c0.2,0.5,0.3,0.7,0.4,0.9l-0.1-0.1c-0.2,0.3-0.8,0-0.9,0.5c-0.3,0.1-0.6,0-0.8,0.1l0,0l0,0l0,0l0,0l0,0l0,0l0,0l0,0l-0.2-0.1l0,0
			l0,0l0,0l0,0l0,0l0,0l0,0l0,0c-0.3,0-0.6-0.2-0.9,0c-0.3,0.2-0.3,0.2,0,0.8c-0.1,0.2-0.1,0.2-2.9,0.1l-0.1-0.1
			c-0.2,0.1-0.2,0.1-0.4-0.1c0.1-0.4,0.1-0.4-0.2-0.7c0-0.1,0-0.2,0-0.3c-0.1,0-0.1,0.1-0.2,0.1c-0.2-0.1-0.3-0.1-0.3-0.1
			c-0.5,0.3-0.5,0.3-0.6,0.3c-0.5,0.6-1.6,0.5-2,1.3c-0.3,0-0.4,0.7-0.8,0.5c-0.3-0.2-0.6,0.3-0.9,0.1c0,0-0.1,0-0.1,0.1
			c-0.1,0.2,0.1,0.4,0,0.7c-0.1,0.3-0.5,0.5-0.5,0.8l0,0.7c0.6,0.9-0.6,1.4-0.8,2.2c0,0-0.4,1.6-0.2,2.2c0.6-0.1,1,1.7,0.8,2.1
			c0,0-0.1,0.1-0.1,0.1c0.2,0,0.3,0.2,0.4,0.2c0,0.3,0,0.7,0.6,0.5l0,0.2c0.1,0,0.1,0,0.2,0.1l0.1,0c0.2,0.2,0.5,0.2,0.7,0.4l0,0
			l0,0l0,0l0,0l0,0l0,0l0,0l0,0l0.1,0l0,0.1l0,0c0,0,2,1,2.5,0.4c0.7-0.8,1.4-0.6,1.4-0.6l1.7-1.3c0.4,0,0.6,0.2,0.6,0.2
			c0,0.4,0.4,0.3,0.5,0.2c0.1-0.1,0.3-0.1,0.4-0.3l0.1,0c0.1,0,0.1,0.1,0.2,0.1c0.1,0,0.2,0,0.2,0l0,0.1c0.1,0.2,0.3,0.4,0.1,0.8
			l0.1,0.1c0,0.1,0,0.2,0.1,0.2l0,0l-0.1,0c0,0.3,0,0.3-0.1,0.4c0.2,0.2,0.2,0.2,0.2,0.2c0.2,0.2,0.2,0.2,0.3,0.2
			c0,0.1,0.1,0.1,0.2,0.2c0.5,0.3,0.6,0.3,1.1,1.3l0.2,1.2c0.1,0,0,0-0.1,0.1c-0.3,0.8-0.4,1.1-0.4,1.7c0,0.2,0.1,0.2,0.1,0.3
			c0.4,0.4,0.4,0.8,0.5,1.3c0,0.3,0,0.6,0.1,0.9c0.1,0.4,0.3,0.7,0.3,1.2c0,0.2-0.2,0.7-0.2,0.7l0,0l0,0c0,0,0,0,0.1-0.1l0,0l0,0
			l0,0.1l0,0c0.6-0.5,0.7-0.5,0.8-0.5c0.1-0.1,0.1-0.1,0.1-0.1c0.1-0.2,0.3-0.2,0.4-0.4c0.4-0.4,0.7-1,1-1.4c0.1-0.1,0.4-0.5,0.5-1
			c0,0,0-0.1,0-0.1c0.2-0.3,0.6-0.5,0.6-0.9c0.1-0.1,0.1-0.2,0.2-0.5l0,0c0-0.2,0.1-0.3,0-0.5l0-0.1l0,0l0,0l0,0l0,0l0,0l0,0l0,0
			c1-1.4,1-1.4,1.2-2l0-0.1c0-0.1,0,0,0.1-0.6l0-0.2c0-0.9-0.1-1.7-0.1-2.6c0-0.6,0.3-1.1,0.4-1.6c0.7-2.6,0.7-2.7,0.5-3.8
			C59.7,105.7,59.6,105.3,59.6,105.3L59.6,105.3z M42.1,98.7L42.1,98.7L42.1,98.7L42.1,98.7C42.1,98.7,42.1,98.7,42.1,98.7z
			 M52.9,95.2L52.9,95.2L52.9,95.2L52.9,95.2L52.9,95.2C52.7,95,52.7,95,52.5,95l0,0l-0.1-0.2l0,0l-0.2-0.2l0.1-0.1
			c0-0.2-0.1-0.4-0.1-0.4c0,0,0.1,0,0.2,0l0.1,0c0.2,0.1,0.3,0.3,0.5,0.4l-0.2,0l0,0.1l0,0l0,0c0,0.1,0,0.1,0.2,0.1c0,0-0.1,0-0.1,0
			l0,0l0,0l0,0l0,0l0,0l0,0l0,0l0,0l0,0c0.1,0,0.2,0,0.5,0.3l0,0l0,0l0,0l0,0l0,0l0,0l0,0l0,0c0.2,0.1,0.4,0.3,0.7,0.5l0,0
			c-0.1-0.1-0.2-0.2-0.2-0.2l0,0c0.4,0.2,0.4,0.3,0.4,0.4l0,0l0,0l-0.1,0l0,0c0,0.1,0.1,0.2,0.3,0.3l0.1,0l0.1,0.1l0.1,0l0,0l0,0
			l0,0l0,0l0,0l0,0l0,0l0,0c0.2,0,0.7,0.7,0.7,0.7c-0.3,0.5-1.1-0.5-1.1-0.5l0,0l0.1,0c-0.1-0.1-0.3-0.4-0.3-0.4l0.1,0l0,0l0,0
			C52.9,95.2,52.9,95.2,52.9,95.2L52.9,95.2z M48.2,128.7l-0.3,0.1l0,0c-1.1,0.3-2.6,0.5-3,0.4l-0.1,0l0.1,0l0,0l-0.2,0l0.1,0
			c-0.1,0-0.1,0-0.5,0l0.2-0.1c-0.1,0-0.1,0-0.6-0.1c0.2-0.1,0.2-0.1,0.2-0.1l0-0.1c-0.3-0.1-0.3-0.1-1.1-0.2
			c0.3-0.1,0.3-0.1,0.4-0.1l0.1-0.1h0v0h0l0,0l0.1,0c0-0.1-0.2-0.3-0.6-0.6l-0.1-0.1l0.1,0l0,0c0.1,0.1,0.1,0.1,0.2,0.2
			c-0.1-0.1-0.1-0.2-0.9-0.9l-0.1,0l0,0l0,0l0,0l0,0l0,0l0,0l0,0c0,0,0,0,0.1-0.3c0,0,0,0,0-0.1c0-0.1,0-0.1,0.2-0.1
			c0-0.1,0-0.1,0-0.2l0.5-0.2c-0.1-0.1-0.1-0.1,0-0.2c-0.1-0.1-0.1-0.1-0.1-0.1l-0.1-0.4c0-0.2-0.3-0.2-0.2-0.4l-0.6-0.7
			c-0.1-0.1-0.1-0.2-0.2-0.4c0,0,0,0,0.1,0l0,0c0,0,0-0.1,0-0.1l0-0.1c0-0.1-0.2-0.2,0-0.3c0.2-0.2,0.2-0.6,0.1-0.9
			c0-0.1-0.4-0.5-0.6-0.5c-0.2-0.1-0.3,0.1-0.4,0.1c-0.3,0-0.6-0.2-1-0.2l-0.1,0c-0.1,0-0.3,0.1-0.4,0.2c-0.2,0-0.4,0-0.5,0
			c-0.1,0-0.1,0.1-0.2,0.3c-0.1-0.1-0.1-0.2-0.1-0.2c-0.1,0-0.2-0.1-0.3-0.1l0,0.1l0,0c-0.1-0.1-0.1-0.1-0.5,0l-0.1,0
			c-0.1,0-0.2,0-0.2,0l-0.1,0.1c0,0.2-0.1,0.3-0.1,0.5l-0.1-0.1l-0.2,0c0.1,0,0.2-0.1,0.2-0.2c0,0,0-0.1,0-0.2l0,0l0,0l0-0.1l0,0
			c-0.1,0-0.2,0-0.5,0.1l0,0l0,0l0,0l0,0l0,0l0,0l0,0l0,0c0,0.1,0,0.1,0.1,0.1l0,0l0.1,0.1c-0.1,0.2-0.1,0.2-0.2,0.2
			c0-0.1,0-0.1,0-0.2l0,0c0-0.2,0.2-0.4,0.1-0.7c-0.2-0.3-0.6-0.3-0.9-0.6l-1.7,0.1l-0.1,0c-0.2,0-0.3-0.1-0.5-0.1l0,0.1
			c-0.4-0.5-0.6-0.4-1.2-0.2l0,0c0-0.1,0-0.2,0.1-0.3c-0.1,0-0.2,0-0.4-0.1c0,0-0.1,0.1-0.1,0.1c-0.1,0-0.1-0.1-0.2-0.1l-0.1,0l0,0
			l0,0l0,0l0,0l0,0l0,0l0,0c0.1,0,0.1,0,0.2-0.1l0,0l0,0c-0.3,0.1-0.4,0.4-0.6,0.4c0,0-1.2-0.1-1.3-0.2l0,0.1l0.1,0
			c0,0.1-0.2,0.2-0.2,0.4c0.1,0.1,0.3,0.2,0.4,0.4l0,0.1c-0.3-0.1-0.3-0.1-0.6-0.7l0.1-0.1l0-0.1l-0.1,0l-0.1,0.1c0,0.1,0,0.2,0,0.2
			l0,0c0-0.3-0.5-0.4-0.5-0.4l0,0l0,0l0,0l0,0l0,0l0,0l0,0l0,0l-0.2,0c0,0.1-0.1,0.2-0.1,0.3c-0.1,0-0.1,0-0.2,0.1
			c-0.8-0.6-0.8-0.6-1-1c-0.5-0.8-0.5-0.8-0.5-0.8c0-0.1-0.1-0.1-0.2-0.1c-0.1,0-0.1,0.1-0.2,0.1c-0.1,0.1-0.1,0.1-0.4,0.2l0,0.1
			l-0.1-0.1c0-0.2,0-0.2-0.2-0.7l0-0.1l0,0l0,0l0,0l0,0l0,0l0,0l0,0c0,0-0.1-0.1-0.1-0.1l0,0c0,0,0.1,0.1,0.1,0.1
			c-0.1-0.1-0.1-0.3-0.2-0.4l0,0c-0.1-0.2,0-0.5-0.2-0.7c-0.1-0.1-0.3,0.1-0.4,0.2c-0.1,0.3,0.2,0.5,0.2,0.8l0,0.1l0.1,0.1l-0.1,0
			l0,0l0,0l0,0l0,0l0,0l0,0l0,0c0,0.1-0.1,0.2-0.1,0.2l-0.1,0c-1.4-1.4-1.6-3.1-1.6-3.1l-0.1-0.1c0.1-0.6,0.1-0.6,0-0.8
			c0.2-0.1,0.2-0.1,0.3-0.1l0,0l-0.1-0.1c0.1,0,0.1,0.1,0.2,0.1l0.1,0l0,0l0,0l0,0l0.1,0c0-0.1,0-0.2,0-0.2c0,0-0.1-0.1-0.2-0.1
			l0.1,0l0-0.1l0.1,0l0-0.1l0,0l0.1,0.1l0.1,0l0,0l0,0l0,0l0,0l0,0l0,0l0,0c0.3-0.1,0.3,0.1,0.4,0.1c0,0,0.1-0.1,0.1-0.2l0.1,0
			c0.3,0.4,0.3,0.4,0.4,0.7l0,0c0,0.1,0,0.1,0.2,0.3l0,0l0,0l0,0l0,0l0,0l0,0l0,0l0,0c0.1,0.2,0.3,0.4,0.4,0.6l0.1-0.1l0,0.1
			c-0.1-0.8-0.9-1.4-0.9-2.3c0-0.7,0.5-1.2,0.7-1.7l-0.1,0.1l0-0.1l0-0.1c0,0-0.1,0-0.1-0.1l0.1,0l0,0l0,0l0.1,0
			c0-0.1,0-0.1,0.1-0.2c-0.1-0.1-0.1-0.1-0.1-0.1l0,0.1c0,0,0-0.1,0-0.1l-0.1,0.1l0,0l0.1-0.1l0,0l0.1,0l-0.1-0.1l0,0l0,0l0,0l0,0
			l0,0l0,0l0,0l0,0l0-0.1l0,0l0,0l-0.1-0.1l-0.1,0c0,0-0.1-0.1-0.1-0.1l0,0l0.1,0.1l0-0.1l0,0l0,0l0-0.1l-0.1-0.1l0.1,0l0-0.1
			c-0.1,0-0.2-0.1-0.2-0.1l0,0c0.1,0,0.1,0,0.2,0.1l-0.1-0.1l0-0.1l0.1,0.1l0,0c0-0.1-0.1-0.2-0.1-0.3l0.1-0.1l0,0l0-0.1l0,0.1
			l0,0.1l0,0l0,0l0,0l0,0l0,0l0,0l0,0l0,0l0,0.1l0.1,0l0,0l0,0l0,0.1l0.1,0l-0.1,0.1l0.1,0l0,0c-0.1-0.2-0.1-0.4,0-0.6l0,0.1
			c0,0.1,0.1,0.1,0.1,0.2l0,0l0,0c0,0,0.1-0.3,0.1-0.7l-0.1-0.1c0-0.1,0.1-0.2,0.1-0.2l0,0.1c0.3-0.3,0.3-0.3,0.5-0.4l0-0.1l0.1,0
			l0.1-0.1l0,0l0.1,0l0.1-0.1l0,0l0,0l-0.1,0.1c0-0.1-0.1-0.1-0.1-0.2c0-0.1,0-0.1,0.1-0.2c-0.1-0.1-0.1-0.1,0-0.4l0,0l0,0l0,0l0,0
			l0,0l0,0l0,0l0,0l0.1,0l0,0l0-0.1c0.1-0.1,0.1-0.1,0.2-0.3l0,0l0,0l0,0.1c0.1-0.1,0.2-0.2,0.3-0.3l0-0.1l0,0l0,0l0,0l0,0l0,0l0,0
			l0,0l0-0.1l0,0c0.3-0.2,0.3-0.2,0.5-0.5l0.1-0.1c0,0.1-0.1,0.2-0.1,0.2l0.3-0.1l0,0c-0.1,0-0.1,0.1-0.2,0.1l0,0l0,0l0,0l0,0l0,0
			l0,0l0,0l0,0l-0.1,0c-0.1,0.1-0.1,0.2-0.2,0.3l0,0l0,0l0,0c0,0-0.1,0.1-0.1,0.1l0,0l0.1-0.1c-0.1,0.2,0,0.3,0.1,0.4
			c0,0,0.1-0.1,0.2-0.1l0,0l0,0l0,0l0,0l0,0l0,0l0,0l0,0l0,0c0.1-0.2,0.1-0.2,0.1-0.3l0-0.1l0,0l0,0l0,0l0,0l0,0l0,0l0,0l0,0l0,0
			l0-0.1c0,0,0.1,0,0.1,0l0-0.1c0.1-0.1,0.1-0.1,0.4-0.3l0.1,0l0,0l0-0.1l0-0.1c-0.1,0-0.1,0-0.2,0l-0.1,0.1l-0.1,0l0,0
			c-0.1,0.1-0.1,0.1-0.3,0l0,0l0,0l0,0l0.1-0.1c-0.2,0-0.3,0-0.3-0.3l-0.1,0c0.1-0.1,0.1-0.1,0.1-0.3c-0.1,0-0.1,0-0.1,0l-0.1,0.1
			c-0.1,0-0.1,0-0.2,0l0,0c0.5-0.4,0.5-0.4,0.5-0.5c0,0-0.5-0.4-1.5,1.4c0.5-1.7,1.2-2,1.9-2.2c0.5-0.2,0.6-0.4,0.7-0.5l0-0.1
			c0.2-0.3,0.6-0.4,0.8-0.8l0,0l-0.1-0.1c0-0.1,0.1-0.5-0.1-0.4c0,0,0,0-0.1,0.1c0-0.1,0-0.1,0-0.2c0,0-0.1-0.1-0.2,0
			c-0.2,0.1-0.3,0.4-0.5,0.5c0.1-0.4,0.5-0.5,0.6-0.8c-0.2,0-0.3-0.1-0.5,0c-0.1,0-0.1,0.1-0.2,0.1c0-0.3,0-0.3-0.1-0.4l0,0l0,0l0,0
			l0,0l0,0l0,0l0,0l0,0c-0.1-0.1-0.1-0.2-0.1-0.2c0.2-0.1,0.2-0.1,0.2-0.2c-0.1-0.1-0.1-0.1-0.2-0.1c0,0,0-0.1,0.1-0.1
			c0-0.1-0.1-0.2-0.1-0.3l-0.1,0c0,0,0,0,0-0.1c-0.1-0.2-0.1-0.3-0.3-0.5l0,0.1c0,0.1-0.2,0.2-0.1,0.3c-0.1,0.2-0.1,0.2-0.2,0.4l0,0
			l0-0.1l0,0c-0.1,0.2-0.1,0.2-0.3,0.4c0-0.1,0.1-0.2,0-0.2c0,0,0,0-0.2,0.2l0,0c0-0.1,0-0.1,0-0.2l0.1,0l0.2-0.8
			c-0.2,0-0.2,0-0.3,0c0-0.1,0-0.1,0-0.1c-0.1-0.1-0.1-0.2-0.2-0.2l0,0c-0.1,0-0.2,0.2-0.3,0.2c-0.1,0-0.2-0.1-0.3,0
			c-0.1,0.1-0.2,0.3-0.2,0.4c0,0.1,0,0.1-0.2,0.4l0,0l0.1,0c0,0.1,0,0.1-0.1,0.3c0,0.2-0.3,0.4-0.3,0.6c0,0.1,0,0.2,0.1,0.2
			c0.2,0.3-0.1,1-0.4,1.4c-0.1,0.1-0.2,0.1-0.2,0.2c0,0.1,0.1,0.2,0.1,0.4l0,0l0,0l0,0l0,0l0,0l0,0l0,0l0,0l0,0.2l0,0l0,0l0,0l0,0
			l0,0l0,0l0,0l0,0c0,0.2,0,0.2-0.1,0.8c-0.1-0.1-0.1-0.1-0.1-0.1c-0.1,0.1-0.1,0.2-0.1,0.2l0,0v0c0-0.3-0.3-0.5-0.2-0.8
			c0.1-0.2,0.1-0.7,0.1-0.7l-0.4,0.1c-0.1-0.1-0.2-0.1-0.2-0.2c0-0.5-0.3-0.4-0.3-0.4c0,0-0.1,0.1-0.1,0.1c0.1-0.3,0.1-0.4,0.2-0.7
			l0,0c0-0.2,0.4-1.1,0.8-1.9l0-0.1l0,0l0,0c0.1,0,0.1,0,0.2-0.1l0,0l0,0l0,0l0,0l0,0l0,0l0,0l0,0l0-0.1c-0.1-0.1-0.1-0.1-0.1-0.2
			l0,0l0,0c0.1,0,0.1,0,0.1,0.1l0,0c0-0.1,0.1-0.2,0.1-0.3l0,0.1l0.1,0c0.2-0.2,0.2-0.3,0.4-0.5l0,0l-0.1,0l0,0c0-0.2,0-0.2,0-0.2
			l0.1-0.1c0,0.1,0,0.1,0,0.2c0,0,0.4-0.4,0.4-0.5l0,0c0.1-0.1,0.1-0.1,0.2-0.1l0,0.1c0,0,0,0,0.2-0.3l0,0l0,0c0,0,0,0.1,0,0.2
			c0.4-0.3,0.4-0.8,0.7-1.1l0,0.1c0.1,0,0.1-0.1,0.2-0.3l0,0l0-0.1c-0.1-0.2-0.3,0.2-0.3,0.3c0,0.1-0.7,1-0.7,1
			c0-0.3,0.3-0.5,0.4-0.9c-0.2,0.1-0.2,0.3-0.4,0.5c0.3-0.4,0.4-0.6,0.4-0.6l0,0c0,0,0-0.1,0.1-0.2l0.5-0.8l0,0
			c-0.1,0-0.7,0.8-0.8,1l0,0l0,0l0,0l0,0l0,0l0,0l0,0l0,0l0,0l0,0l0-0.1c-0.1,0.1-0.1,0.1-0.2,0.2l0,0l0,0c-0.1,0.4-0.5,0.6-0.6,0.9
			c0-0.2,0.2-0.3,0.3-0.5l-0.1,0c-0.1,0.1-0.1,0.2-0.2,0.3l0-0.1c-0.2,0.1-0.2,0.1-0.2,0.1c0-0.1,0-0.1,0.1-0.2
			c-0.1,0.1-0.2,0.2-0.6,0.8c0-0.1,0.1-0.2,0.4-0.6c-0.1,0.1-0.1,0.2-0.2,0.3c-1,1.8-1,1.8-1.5,2.7c-0.8,1.9-0.8,1.9-1,2.9
			c-0.1,0.6-0.3,1.4-0.4,2l-0.1,1.1c-0.1,2.1-0.1,2.1-0.1,3.1c0.2,2.1,0.2,2.1,0.4,3.1l0.3,1.4l0,0.1c0.1,0.4,1.2,4,2.8,4.4
			c0-0.1,0.1-0.1,0.1-0.2c0.1,0,0.1,0.2,0.8,0.7c0.1,0,0.1,0.2,0.1,0.2h0l0-0.2l0-0.1l0-0.1l0,0l0,0l0,0l0,0l0,0
			c0.2,0,0.3,0.1,0.5,0.1l0-0.1l0.1,0.1l0,0l0,0l0,0l0,0l0,0l0,0l0,0l0,0l0,0c0.2,0.2,0.5,0.2,0.7,0.5l0.1,0.1c0,0.1,0,0.1,0.3,0.3
			c0-0.1-0.1-0.1-0.1-0.2l0,0c0.2,0.1,0.6,0.4,0.6,0.4l0.1,0l-0.1-0.1c0.1,0,0.1,0.1,0.2,0.1c0.1-0.1,0.1-0.1,0.4,0l0-0.1
			c0.1,0,0.1,0.1,0.2,0.2l0.1-0.1c0-0.1-0.1-0.1-0.2-0.2c0-0.1,0-0.1,0-0.3c0.2,0,0.4,0.1,0.4,0.1l0,0.1c0.1,0,0.1,0.1,0.2,0.1
			l-0.1,0.1l-0.1,0l0,0.1l-0.1,0c-0.1,0.3,0.1,0.6,0.2,0.8c0,0,0.1,0.1,0.1,0.1l-0.2-0.1l-0.1,0l0.2,0.2c0,0.1,0,0.2,0,0.2
			c0.6,0.4,1.1,1.1,1.1,1.1l-0.1,0.1c0,0,0.1,0.1,0.1,0.2l0.1,0.1c0,0.1,0,0.2,0.3,0.5l0,0c0.1,0.2,0.3,0.2,0.3,0.4l0.1,0l0.1-0.1
			l0.8,0.8c0.9,0.2,1.7,0.7,2.6,1l0.1,0l0,0l0,0l0,0l0,0l0,0l0,0l0,0c1.1,0.3,2.3,0.4,3.3,0.9l0,0l0,0l0,0l0,0l0,0l0,0l0,0l0,0
			c1.3,0.3,2.6,1,4,1.2l0,0l0.2,0l0,0l0,0l0,0l0,0l0,0l0,0l0,0l0,0l0.2,0l0.1,0c0.8,0.1,1.6-0.1,2.4-0.1c0,0,0.1,0,0.3,0l0,0l0,0
			l0,0l0,0l0,0l0,0l0,0l0,0l0,0l0.1,0l0,0c0.3,0,0.7-0.1,1.3-0.3l0.1,0c0.2-0.1,0.5-0.2,0.5-0.2l-0.1,0l0.1,0
			C48,128.7,48.1,128.7,48.2,128.7L48.2,128.7z M25.4,111.3L25.4,111.3L25.4,111.3C25.3,111.2,25.4,111.3,25.4,111.3z M45.4,129.5
			L45.4,129.5L45.4,129.5L45.4,129.5z M26.4,108.5L26.4,108.5L26.4,108.5C26.4,108.5,26.4,108.5,26.4,108.5z M26.4,108.4
			C26.4,108.5,26.4,108.5,26.4,108.4L26.4,108.4C26.4,108.4,26.4,108.4,26.4,108.4z M25.4,110.5c0,0.3,0,0.3,0,0.3
			C25.4,110.7,25.4,110.6,25.4,110.5L25.4,110.5C25.4,110.5,25.4,110.5,25.4,110.5z M25.4,110.5L25.4,110.5L25.4,110.5
			C25.4,110.5,25.4,110.5,25.4,110.5z"/>
		<path fill="#7D8B8C" d="M51.8,129.6c-0.6,0.3-1.2,0.6-1.8,0.9c-2.7,1.1-5.6,1.8-8.7,1.8C29,132.3,19,122.3,19,110
			c0-10.1,6.7-18.6,15.8-21.3c0.6-0.2,1.3-0.4,1.9-0.5l0.5,1.2c-0.7,0.1-1.3,0.3-1.9,0.5c-8.6,2.6-14.9,10.6-14.9,20.1
			c0,11.6,9.4,21,21,21c2.9,0,5.7-0.6,8.3-1.7c0.6-0.3,1.2-0.5,1.8-0.9L51.8,129.6L51.8,129.6z"/>
		<path fill="#E5EBED" d="M48,138.8c0,0.4,0,0.8-0.1,1.1H34.8c-0.1-0.3-0.1-0.7-0.1-1.1c0-0.3,0-0.5,0-0.8l0-0.1
			c0.4-3.1,3-5.5,6.2-5.7c0.1,0,0.3,0,0.4,0c3.4,0,6.1,2.5,6.6,5.7l0,0.1C47.9,138.3,48,138.5,48,138.8L48,138.8z"/>
		<path fill="#7D8B8C" d="M33.8,137.9h15.1v2H33.8V137.9z"/>
		<path opacity="0.1" fill="#5E6061" enable-background="new    " d="M52.8,126.3c-3.2,2.2-7.2,3.6-11.4,3.6c-11,0-20-9-20-20
			c0-8.2,4.9-15.2,11.9-18.3c-4.3,3.7-7,9.2-7,15.3c0,11.2,9.1,20.3,20.3,20.3C48.8,127.3,50.8,126.9,52.8,126.3z"/>
		<path opacity="5.000000e-02" enable-background="new    " d="M40.9,132.2v7.7h-7.1v-2h1C35.2,134.8,37.7,132.4,40.9,132.2z"/>
	</g>
	<g>
		<path fill="#222F33" d="M153.8,105.5v33.4c0,0.5-0.4,1.1-1,1.1h-24.9c-0.5,0-1-0.6-1-1.1v-33.4c0-0.5,0.4-0.9,1-0.9h24.9
			c0.2,0,0.5,0,0.6,0.2C153.6,104.9,153.8,105.2,153.8,105.5z"/>
		<path fill="#F8FAFB" d="M129.2,108.2h22.3V137h-22.3V108.2z"/>
		<ellipse fill="#F3F9FB" cx="140.2" cy="138.4" rx="1" ry="1.1"/>
		<path fill="#586E85" d="M130.5,133.8h0.3v1h-0.3V133.8z M130.5,132.1h0.3v1h-0.3V132.1z M130.5,130.5h0.3v1h-0.3V130.5z
			 M130.5,128.9h0.3v1h-0.3V128.9z M130.5,127.2h0.3v1h-0.3V127.2z M130.5,125.6h0.3v1h-0.3V125.6z M130.5,123.9h0.3v1h-0.3V123.9z
			 M130.5,122.3h0.3v1h-0.3V122.3z M130.5,120.7h0.3v1h-0.3V120.7z M130.5,119h0.3v1h-0.3V119z M130.5,117.4h0.3v1h-0.3V117.4z
			 M130.5,115.7h0.3v1h-0.3V115.7z M130.5,114.1h0.3v1h-0.3V114.1z M130.5,112.5h0.3v1h-0.3V112.5z M130.5,110.8h0.3v1h-0.3V110.8z
			 M149.2,135.1h1v0.3h-1V135.1z M147.5,135.1h1v0.3h-1V135.1z M145.9,135.1h1v0.3h-1V135.1z M144.3,135.1h1v0.3h-1V135.1z
			 M142.6,135.1h1v0.3h-1V135.1z M141,135.1h1v0.3h-1V135.1z M139.3,135.1h1v0.3h-1V135.1z M137.7,135.1h1v0.3h-1V135.1z
			 M136.1,135.1h1v0.3h-1V135.1z M134.4,135.1h1v0.3h-1V135.1z M132.8,135.1h1v0.3h-1V135.1z M131.1,135.1h1v0.3h-1V135.1z"/>
		<path fill="#FD8560" d="M144.9,128.2h3.6v6.2h-3.6V128.2z"/>
		<path fill="#7274AD" d="M138.4,116.4h3.6v18h-3.6V116.4z"/>
		<path fill="#AD72A8" d="M131.8,122.6h3.6v11.8h-3.6V122.6z"/>
		<path opacity="3.000000e-02" enable-background="new    " d="M153.4,104.8l-26.5,33.2v-32.5c0-0.5,0.4-0.9,1-0.9h24.9
			C153,104.6,153.2,104.6,153.4,104.8z"/>
	</g>
</g>
</svg>
