<?xml version="1.0" encoding="utf-8"?>
<!-- Generator: Adobe Illustrator 18.1.1, SVG Export Plug-In . SVG Version: 6.00 Build 0)  -->
<svg version="1.1" id="Layer_1" xmlns="http://www.w3.org/2000/svg" xmlns:xlink="http://www.w3.org/1999/xlink" x="0px" y="0px"
	 viewBox="0 0 40 40" enable-background="new 0 0 40 40" xml:space="preserve">
<path fill-rule="evenodd" clip-rule="evenodd" fill="#FFFFFF" d="M20,1.5C9.5,1.5,1,10,1,20.5c0,8.4,5.4,15.5,13,18
	c1,0.2,1.3-0.4,1.3-0.9c0-0.5,0-1.6,0-3.2c-5.3,1.1-6.4-2.5-6.4-2.5C8,29.6,6.8,29,6.8,29c-1.7-1.2,0.1-1.2,0.1-1.2
	c1.9,0.1,2.9,2,2.9,2c1.7,2.9,4.4,2.1,5.5,1.6c0.2-1.2,0.7-2.1,1.2-2.5c-4.2-0.5-8.7-2.1-8.7-9.4c0-2.1,0.7-3.8,2-5.1
	C9.6,13.9,9,12,10,9.3c0,0,1.6-0.5,5.2,1.9c1.5-0.4,3.1-0.6,4.8-0.6c1.6,0,3.2,0.2,4.8,0.6C28.4,8.8,30,9.3,30,9.3
	c1,2.6,0.4,4.5,0.2,5c1.2,1.3,2,3,2,5.1c0,7.3-4.4,8.9-8.7,9.4c0.7,0.6,1.3,1.7,1.3,3.5c0,2.5,0,4.6,0,5.2c0,0.5,0.3,1.1,1.3,0.9
	c7.5-2.5,13-9.6,13-18C39,10,30.5,1.5,20,1.5z"/>
</svg>
