<svg version="1.2" baseProfile="tiny" xmlns="http://www.w3.org/2000/svg" viewBox="0 0 205 205"><g><path fill="#3A3B3C" d="M168.17 81.855l-15.53 4.17c-.16.04-.32.06-.47.06-.7 0-1.35-.41-1.56-1.05-.26-.77.23-1.59 1.09-1.82l15.54-4.17c.86-.23 1.77.21 2.03.99.26.77-.23 1.59-1.1 1.82zM150.32 117.445l15.24 4.98c.84.28 1.28 1.12.97 1.88-.24.59-.87.96-1.53.96-.19 0-.38-.03-.56-.09l-15.24-4.98c-.85-.27-1.28-1.11-.97-1.87.31-.76 1.24-1.16 2.09-.88zM144.36 39.265c.72.48.87 1.4.34 2.05l-9.69 11.67c-.32.38-.81.59-1.31.59-.34 0-.68-.1-.97-.29-.73-.48-.88-1.4-.34-2.05l9.69-11.67c.54-.65 1.56-.78 2.28-.3zM103.42 49.955c23.01 0 41.68 17.48 41.68 39.08 0 5.48-1.22 10.71-3.4 15.46-1.14 2.47-2.53 4.8-4.16 6.97-6.52 11.07-14.31 31.88-14.31 36.44 0 2.33-2.55 4.18-5.65 4.18h-28.32c-3.13 0-5.64-1.85-5.64-4.18 0-4.56-7.77-25.35-14.3-36.44-1.64-2.17-3.05-4.5-4.17-6.97h-.01c-2.19-4.75-3.4-9.98-3.4-15.46 0-21.6 18.67-39.08 41.68-39.08zm32.26 51.77c1.86-4.05 2.8-8.32 2.8-12.69 0-17.9-15.73-32.46-35.06-32.46s-35.06 14.56-35.06 32.46c0 4.26.89 8.41 2.64 12.35l.19.38c.88 1.94 2.03 3.87 3.42 5.72.15.2.29.41.42.62 3.17 5.39 6.84 13.28 10.07 21.64 1.93 5.02 4.17 11.4 4.9 15.71h8.36l.01.75h1.74l-.01-.75h6.14l-.01.75h1.74l.01-.75h8.87c.73-4.31 2.97-10.69 4.91-15.72 3.23-8.36 6.9-16.25 10.07-21.63.12-.21.26-.41.4-.61 1.36-1.81 2.52-3.74 3.45-5.77zM115.6 157.485c2.14 0 3.89 1.38 3.89 3.09 0 1.68-1.75 3.06-3.89 3.06h-24.35c-1.08 0-2.05-.35-2.75-.9-.71-.55-1.14-1.32-1.14-2.16 0-1.71 1.74-3.09 3.89-3.09h24.35zM115.6 167.935c2.14 0 3.89 1.38 3.89 3.09 0 1.69-1.75 3.06-3.89 3.06h-24.35c-1.08 0-2.05-.34-2.75-.9-.71-.55-1.14-1.32-1.14-2.16 0-1.71 1.74-3.09 3.89-3.09h24.35zM118.17 101.665l-.57 1.25c-.34.17-.63.27-.84.27-.5 0-.79-.26-.91-.63l.74-1.61 1.58.72z"/><path fill="#FFBB2A" d="M112.16 100.755c0-.99.59-2.24 5.43-3.72l.04.04c-4.03 4.07-4.66 4.01-5.07 4.09-.3.06-.38-.31-.4-.41z"/><path fill="#3A3B3C" d="M109.32 178.355c1.6 0 2.91 1.29 2.91 2.91 0 1.6-1.31 2.89-2.91 2.89h-11.79c-1.62 0-2.92-1.29-2.92-2.89 0-.81.32-1.54.85-2.06.53-.53 1.26-.85 2.07-.85h11.79zM112.56 101.165c.41-.08 1.04-.02 5.07-4.09l-.04-.04c-4.84 1.48-5.43 2.73-5.43 3.72.02.1.1.47.4.41zm-.1 1.49c-.52 0-1.53-1.11-1.75-2.1.32-.31.62-.63.87-.92l-.18-.77-.51.4c1.01-2.19 5.29-4.18 7.35-4.23.94-.02 1.33.74 1.33.98s-.53.45-.72.51c.39.16.59.39.59.83 0 .65-1.77 2.08-1.77 3.04 0 .34.31.49.63.49.86 0 2.02-1.04 2.89-1.63l.17.75c-.69.79-2.53 2.3-3.76 2.91l.57-1.25-1.58-.72-.74 1.61c-.05-.14-.07-.29-.07-.45 0-.66.49-1.73.75-2.28l-.04-.04-1.87 1.5c-.39.31-1.69 1.37-2.16 1.37zM111.58 99.635c-.25.29-.55.61-.87.92l-.04-.31c-.01-.33.07-.66.22-.98l.51-.4.18.77zM106.24 145.455c.06-3.83.45-19.05.79-22.23.36-3.35 3.2-9.22 5.31-13.34 1.09-2.14 2.61-5.4 3.51-7.33.12.37.41.63.91.63.21 0 .5-.1.84-.27-.87 1.87-2.54 5.45-3.72 7.76-1.17 2.3-4.76 9.31-5.12 12.73-.32 3.01-.72 18.17-.78 22.05h-1.74zM107.98 145.455l-.01.75h-1.74l.01-.75h1.74z"/><path fill="#FFBB2A" d="M106.07 98.725c.55-1.35 1.73-2.32 2.75-2.59.14-.04.24.08.24.23.02.34-1.2 1.75-2.99 2.36z"/><path fill="#3A3B3C" d="M110.85 95.935c0 1-1 2.5-4.9 3.78l-.05.45c-.06.78.62 1.04 1.27 1.04 1.23 0 2.66-1.09 3.72-1.94-.15.32-.23.65-.22.98l.04.31c-1.27 1.23-3.02 2.44-4.62 2.44-1.49 0-2.18-1.32-2.22-2.66 0-.12 0-.25.02-.37l.26-.29-.11-.55c.64-2.22 3.1-4.19 5.35-4.17.65 0 1.46.16 1.46.98zm-2.03.2c-1.02.27-2.2 1.24-2.75 2.59 1.79-.61 3.01-2.02 2.99-2.36 0-.15-.1-.27-.24-.23zM104.26 22.315v14.55c0 .8-.73 1.46-1.63 1.46s-1.63-.66-1.63-1.46v-14.55c0-.81.73-1.47 1.63-1.47s1.63.66 1.63 1.47zM104.04 99.125l.11.55-.26.29c.01-.28.06-.56.15-.84zM100.11 146.205h-1.74l-.01-.75h1.74l.01.75z"/><path fill="#FFBB2A" d="M95.79 100.595c-.23-.04-.33-.2-.31-.39.12-1.34.57-2.03 4.15-3.19-.32 1.2-3.6 3.64-3.84 3.58z"/><path fill="#3A3B3C" d="M98.7 99.865c-.72.61-2.61 2.58-3.52 2.58-.77 0-1.29-1.36-1.44-2.22l.17-.2-.17-.71c.47-2.2 4.11-3.98 5.73-4.07.43-.02.59.26.86.57.67-1.16 2.46-5.38 3.95-5.38.4 0 .65.41.65.77 0 .62-.55 1.45-.88 1.96l-2.07 3.22c-.68 1.05-1.65 2.38-1.65 3.68 0 .33.02 1.02.46 1.02.7 0 2.57-1.65 3.22-2.08l.03.12c-.09.28-.14.56-.15.84-1.04 1.12-2.92 2.91-4.28 2.91-.77 0-1.08-.81-1.08-1.47 0-.5.09-1.03.17-1.54zm.93-2.85c-3.58 1.16-4.03 1.85-4.15 3.19-.02.19.08.35.31.39.24.06 3.52-2.38 3.84-3.58zM94.4 93.425c0 .82-.75 1.82-1.63 1.82-.49 0-.81-.39-.81-.88 0-.83.98-1.57 1.77-1.57.37 0 .67.27.67.63zM92.45 110.675c-1.31-2.56-3.21-6.68-3.97-8.31.28.36.67.61 1.18.61.3 0 .61-.07.93-.2.9 1.95 2.35 5.05 3.41 7.11 2.11 4.12 4.95 9.99 5.3 13.34.34 3.18.74 18.4.8 22.23h-1.74c-.06-3.88-.47-19.04-.78-22.05-.37-3.42-3.95-10.43-5.13-12.73zM93.69 99.785c0-.16.02-.31.05-.47l.17.71-.17.2c-.03-.17-.05-.32-.05-.44z"/><path fill="#FFBB2A" d="M93.74 100.225c.15.86.67 2.22 1.44 2.22.91 0 2.8-1.97 3.52-2.58-.08.51-.17 1.04-.17 1.54 0 .66.31 1.47 1.08 1.47 1.36 0 3.24-1.79 4.28-2.91l-.02.37c.04 1.34.73 2.66 2.22 2.66 1.6 0 3.35-1.21 4.62-2.44.22.99 1.23 2.1 1.75 2.1.47 0 1.77-1.06 2.16-1.37l1.87-1.5.04.04c-.26.55-.75 1.62-.75 2.28 0 .16.02.31.07.45-.9 1.93-2.42 5.19-3.51 7.33-2.11 4.12-4.95 9.99-5.31 13.34-.34 3.18-.73 18.4-.79 22.23h-6.14c-.06-3.83-.46-19.05-.8-22.23-.35-3.35-3.19-9.22-5.3-13.34-1.06-2.06-2.51-5.16-3.41-7.11 1.2-.45 2.4-1.66 3.15-2.55zM91.96 94.365c0 .49.32.88.81.88.88 0 1.63-1 1.63-1.82 0-.36-.3-.63-.67-.63-.79 0-1.77.74-1.77 1.57zm-.29 1.28c-1.22 0-3.76 2.43-3.76 4.91 0 .6.18 1.32.57 1.81.76 1.63 2.66 5.75 3.97 8.31 1.18 2.3 4.76 9.31 5.13 12.73.31 3.01.72 18.17.78 22.05h-8.36c-.73-4.31-2.97-10.69-4.9-15.71-3.23-8.36-6.9-16.25-10.07-21.64-.13-.21-.27-.42-.42-.62-1.39-1.85-2.54-3.78-3.42-5.72l-.19-.38c-1.75-3.94-2.64-8.09-2.64-12.35 0-17.9 15.73-32.46 35.06-32.46s35.06 14.56 35.06 32.46c0 4.37-.94 8.64-2.8 12.69-.93 2.03-2.09 3.96-3.45 5.77-.14.2-.28.4-.4.61-3.17 5.38-6.84 13.27-10.07 21.63-1.94 5.03-4.18 11.41-4.91 15.72h-8.87c.06-3.88.46-19.04.78-22.05.36-3.42 3.95-10.43 5.12-12.73 1.18-2.31 2.85-5.89 3.72-7.76 1.23-.61 3.07-2.12 3.76-2.91l-.17-.75c-.87.59-2.03 1.63-2.89 1.63-.32 0-.63-.15-.63-.49 0-.96 1.77-2.39 1.77-3.04 0-.44-.2-.67-.59-.83.19-.06.72-.27.72-.51s-.39-1-1.33-.98c-2.06.05-6.34 2.04-7.35 4.23-1.06.85-2.49 1.94-3.72 1.94-.65 0-1.33-.26-1.27-1.04l.05-.45c3.9-1.28 4.9-2.78 4.9-3.78 0-.82-.81-.98-1.46-.98-2.25-.02-4.71 1.95-5.35 4.17l-.03-.12c-.65.43-2.52 2.08-3.22 2.08-.44 0-.46-.69-.46-1.02 0-1.3.97-2.63 1.65-3.68l2.07-3.22c.33-.51.88-1.34.88-1.96 0-.36-.25-.77-.65-.77-1.49 0-3.28 4.22-3.95 5.38-.27-.31-.43-.59-.86-.57-1.62.09-5.26 1.87-5.73 4.07l-.01-.06c-.81.59-1.87 1.67-2.95 1.67-.94 0-1.24-.45-1.08-1.29.85-.59 2.87-2.4 2.87-3.42 0-.44-.55-.57-.9-.57z"/><path fill="#3A3B3C" d="M88.16 101.665l1.58-.72.85 1.83c-.32.13-.63.2-.93.2-.51 0-.9-.25-1.18-.61l-.32-.7zM89.7 99.635c-.16.84.14 1.29 1.08 1.29 1.08 0 2.14-1.08 2.95-1.67l.01.06c-.03.16-.05.31-.05.47 0 .12.02.27.05.44-.75.89-1.95 2.1-3.15 2.55l-.85-1.83-1.58.72.32.7c-.39-.49-.57-1.21-.57-1.81 0-2.48 2.54-4.91 3.76-4.91.35 0 .9.13.9.57 0 1.02-2.02 2.83-2.87 3.42zM71.96 51.235c.54.65.39 1.57-.33 2.05-.29.19-.63.29-.97.29-.5 0-.99-.21-1.31-.59l-9.69-11.67c-.54-.65-.39-1.57.33-2.05.73-.48 1.75-.35 2.29.3l9.68 11.67zM57.08 120.195l-15.24 4.98c-.19.06-.38.09-.56.09-.67 0-1.29-.37-1.53-.96-.31-.76.12-1.6.97-1.88l15.24-4.98c.84-.28 1.78.12 2.09.88.31.76-.13 1.6-.97 1.87zM37.76 79.045l15.54 4.17c.86.23 1.35 1.05 1.09 1.82-.21.64-.86 1.05-1.56 1.05-.16 0-.31-.02-.47-.06l-15.54-4.17c-.86-.23-1.35-1.05-1.09-1.82.26-.78 1.17-1.22 2.03-.99z"/></g></svg>