<svg version="1.2" baseProfile="tiny" xmlns="http://www.w3.org/2000/svg" viewBox="0 0 205 205"><path fill="#629AD2" d="M136.725 102.499c0 18.902-15.324 34.224-34.225 34.224-18.906 0-34.227-15.322-34.227-34.224 0-18.901 15.321-34.223 34.227-34.223 18.901.001 34.225 15.322 34.225 34.223z"/><g><path fill="#373737" d="M202.475 88.837c.151 1.249-.189 3.009-4.258 4.485-3.936 1.495-7.664 4.92-7.872 8.8v.756c.208 3.879 3.936 7.305 7.872 8.8 4.069 1.495 4.409 3.236 4.258 4.485-.132 1.268-1.003 2.858-5.318 3.198-4.05.378-8.459 2.593-9.86 6.094l-.36 1.287c-.606 3.709 2.006 7.872 5.28 10.314 3.463 2.498 3.444 4.334 2.895 5.469-.53 1.154-1.741 2.479-5.98 1.627-4.125-.757-9.065.227-11.279 3.387-.151.246-.284.473-.435.7-1.817 3.406-.416 8.289 2.157 11.619 2.668 3.35 2.082 5.053 1.306 6.037-.795.984-2.366 1.874-6.188-.057-3.69-1.798-8.611-2.195-11.619.095-.322.284-.624.568-.927.852-2.498 2.858-2.422 7.797-.871 11.601 1.684 3.993.643 5.431-.397 6.169-1.003.757-2.744 1.211-5.942-1.703-3.066-2.725-7.683-4.428-11.222-3.047-.378.208-.757.416-1.154.606-3.122 2.101-4.39 6.851-3.936 10.9.53 4.258-.814 5.469-2.025 5.848-1.192.416-2.99.416-5.261-3.236-2.271-3.558-6.377-6.51-10.2-5.942-.284.057-.549.132-.833.17-3.709 1.022-6.283 5.374-6.964 9.481-.625 4.296-2.29 4.958-3.539 5.072-1.249.114-2.971-.397-4.182-4.561-1.192-3.898-4.239-7.759-7.948-8.421l-1.381-.095c-3.766.189-7.305 3.596-8.989 7.286-1.76 3.917-3.539 4.201-4.788 3.955-1.23-.265-2.744-1.23-2.801-5.526-.095-4.125-2.044-8.724-5.507-10.295l-1.079-.397c-3.69-.908-8.062 1.419-10.73 4.542-2.782 3.369-4.523 3.066-5.658 2.498-1.135-.549-2.347-1.892-1.211-6.075 1.003-3.955.397-8.838-2.422-11.336-.36-.265-.719-.511-1.098-.776-3.293-1.817-8.081-.757-11.487 1.514-3.539 2.441-5.223 1.779-6.113.889-.908-.889-1.76-2.441.454-6.169 2.063-3.577 2.801-8.478.681-11.619-.227-.284-.454-.587-.7-.871-2.63-2.763-7.626-3.047-11.582-1.76-4.05 1.419-5.45.284-6.15-.776-.643-1.098-.965-2.858 2.138-5.829 2.933-2.895 4.958-7.437 3.766-11.052-.151-.36-.303-.7-.473-1.06-1.836-3.312-6.529-4.92-10.616-4.731-4.353.246-5.356-1.23-5.696-2.441-.378-1.211-.227-3.009 3.615-5.034 3.577-1.949 6.737-5.734 6.623-9.519l-.17-1.325c-.946-3.652-4.977-6.434-8.951-7.362-4.201-.908-4.826-2.593-4.845-3.861.019-1.268.643-2.952 4.845-3.861 3.974-.927 8.005-3.709 8.951-7.362l.17-1.325c.114-3.766-3.047-7.551-6.623-9.519-3.842-2.025-3.993-3.823-3.615-5.034.341-1.211 1.344-2.687 5.696-2.422 4.088.17 8.781-1.419 10.616-4.731.17-.378.322-.719.473-1.079 1.192-3.615-.833-8.156-3.766-11.052-3.104-2.971-2.782-4.731-2.138-5.829.7-1.06 2.101-2.176 6.15-.776 3.955 1.287 8.951 1.003 11.582-1.76.246-.284.473-.568.7-.871 2.12-3.141 1.381-8.043-.681-11.619-2.214-3.728-1.363-5.28-.454-6.169.889-.889 2.574-1.552 6.113.889 3.406 2.271 8.194 3.331 11.506 1.514l1.079-.776c2.82-2.498 3.425-7.362 2.422-11.336-1.135-4.182.076-5.526 1.211-6.075 1.135-.568 2.876-.852 5.658 2.498 2.668 3.141 7.04 5.45 10.73 4.523l1.079-.36c3.463-1.59 5.412-6.188 5.507-10.314.057-4.296 1.571-5.242 2.801-5.526 1.249-.246 3.028.038 4.788 3.974 1.703 3.671 5.223 7.078 8.989 7.267l1.381-.095c3.709-.662 6.756-4.523 7.948-8.421 1.211-4.163 2.933-4.674 4.182-4.561 1.249.114 2.914.776 3.539 5.072.681 4.125 3.255 8.459 6.964 9.481.284.038.549.114.833.17 3.823.549 7.929-2.384 10.2-5.942 2.271-3.652 4.069-3.652 5.261-3.236 1.211.378 2.555 1.609 2.025 5.848-.454 4.05.814 8.8 3.936 10.9.397.208.776.397 1.154.606 3.539 1.381 8.156-.322 11.222-3.047 3.198-2.933 4.939-2.441 5.942-1.703 1.041.738 2.082 2.176.397 6.188-1.552 3.785-1.627 8.743.871 11.582.303.303.606.587.927.871 3.009 2.271 7.929 1.874 11.619.076 3.823-1.93 5.393-1.041 6.188-.057.776 1.003 1.363 2.687-1.306 6.037-2.574 3.35-3.974 8.213-2.157 11.619l.435.7c2.214 3.16 7.153 4.144 11.279 3.387 4.239-.833 5.45.473 5.98 1.627.549 1.135.568 2.971-2.895 5.488-3.274 2.422-5.885 6.586-5.28 10.295l.36 1.287c1.4 3.52 5.81 5.734 9.86 6.094 4.315.347 5.185 1.937 5.318 3.205zm-20.571 13.663c0-43.847-35.559-79.406-79.406-79.406s-79.406 35.559-79.406 79.406 35.559 79.406 79.406 79.406 79.406-35.559 79.406-79.406z"/><path fill="#fff" d="M102.498 23.094c43.847 0 79.406 35.559 79.406 79.406s-35.559 79.406-79.406 79.406-79.406-35.559-79.406-79.406 35.558-79.406 79.406-79.406z"/></g><g><path fill="#fff" d="M102.498 28.696c40.687 0 73.804 33.117 73.804 73.804s-33.117 73.804-73.804 73.804-73.805-33.117-73.805-73.804 33.118-73.804 73.805-73.804z"/><path fill="#373737" d="M102.498 176.304c40.687 0 73.804-33.117 73.804-73.804s-33.117-73.804-73.804-73.804-73.805 33.117-73.805 73.804 33.118 73.804 73.805 73.804zm76.094-73.804c0 41.955-34.139 76.094-76.094 76.094s-76.094-34.139-76.094-76.094 34.139-76.094 76.094-76.094 76.094 34.139 76.094 76.094z"/></g><g><path fill="#fff" d="M102.498 65.087c20.627 0 37.413 16.786 37.413 37.413s-16.786 37.413-37.413 37.413-37.413-16.786-37.413-37.413 16.786-37.413 37.413-37.413z"/><path fill="#373737" d="M139.911 102.5c0-20.627-16.786-37.413-37.413-37.413s-37.413 16.786-37.413 37.413 16.786 37.413 37.413 37.413 37.413-16.786 37.413-37.413zm2.29 0c0 21.895-17.808 39.703-39.703 39.703s-39.703-17.808-39.703-39.703 17.808-39.703 39.703-39.703 39.703 17.808 39.703 39.703z"/></g><circle cx="102.498" cy="102.5" r="49.453" fill="none"/><text transform="matrix(.589 -.808 .808 .589 55.89 82.474)" fill="#373737" font-family="'Rockwell-Bold'" font-size="22.709">W</text><text transform="matrix(.811 -.586 .586 .811 67.815 66.543)" fill="#373737" font-family="'Rockwell-Bold'" font-size="22.709">h</text><text transform="matrix(.922 -.387 .387 .922 77.352 59.41)" fill="#373737" font-family="'Rockwell-Bold'" font-size="22.709">o</text><text transform="matrix(.996 -.092 .092 .996 93.906 53.625)" fill="#373737" font-family="'Rockwell-Bold'" font-size="22.709">i</text><text transform="matrix(.996 .09 -.09 .996 101.242 52.728)" fill="#373737" font-family="'Rockwell-Bold'" font-size="22.709">s</text><text transform="matrix(.929 .371 -.371 .929 117.212 55.111)" fill="#373737" font-family="'Rockwell-Bold'" font-size="22.709">t</text><text transform="matrix(.832 .554 -.554 .832 123.962 57.373)" fill="#373737" font-family="'Rockwell-Bold'" font-size="22.709">h</text><text transform="matrix(.665 .747 -.747 .665 135.05 64.69)" fill="#373737" font-family="'Rockwell-Bold'" font-size="22.709">a</text><text transform="matrix(.506 .863 -.863 .506 143.218 74.157)" fill="#373737" font-family="'Rockwell-Bold'" font-size="22.709">t</text><circle cx="102.498" cy="102.5" r="46.614" fill="none"/><text transform="matrix(.302 .953 -.953 .302 38.331 113.848)" fill="#373737" font-family="'Rockwell-Bold'" font-size="21.405">D</text><text transform="matrix(.532 .847 -.847 .532 44.466 131.543)" fill="#373737" font-family="'Rockwell-Bold'" font-size="21.405">a</text><text transform="matrix(.693 .721 -.721 .693 51.665 142.807)" fill="#373737" font-family="'Rockwell-Bold'" font-size="21.405">v</text><text transform="matrix(.805 .593 -.593 .805 61.183 152.282)" fill="#373737" font-family="'Rockwell-Bold'" font-size="21.405">i</text><text transform="matrix(.899 .437 -.437 .899 68.292 157.694)" fill="#373737" font-family="'Rockwell-Bold'" font-size="21.405">d</text><text transform="matrix(.993 .119 -.119 .993 87.658 165.767)" fill="#373737" font-family="'Rockwell-Bold'" font-size="21.405">E</text><text transform="matrix(.992 -.125 .125 .992 104.01 167.405)" fill="#373737" font-family="'Rockwell-Bold'" font-size="21.405">n</text><text transform="matrix(.934 -.358 .358 .934 119.381 165.205)" fill="#373737" font-family="'Rockwell-Bold'" font-size="21.405">d</text><text transform="matrix(.828 -.56 .56 .828 133.575 159.45)" fill="#373737" font-family="'Rockwell-Bold'" font-size="21.405">e</text><text transform="matrix(.707 -.707 .707 .707 144.77 151.555)" fill="#373737" font-family="'Rockwell-Bold'" font-size="21.405">r</text><text transform="matrix(.571 -.821 .821 .571 152.428 143.819)" fill="#373737" font-family="'Rockwell-Bold'" font-size="21.405">s</text><text transform="matrix(.383 -.924 .924 .383 159.626 133.367)" fill="#373737" font-family="'Rockwell-Bold'" font-size="21.405">b</text><text transform="matrix(.158 -.987 .987 .158 165.259 119.041)" fill="#373737" font-family="'Rockwell-Bold'" font-size="21.405">y</text><path fill="#629AD2" d="M136.724 102.499c0 18.902-15.324 34.224-34.225 34.224-18.906 0-34.227-15.322-34.227-34.224 0-18.901 15.321-34.223 34.227-34.223 18.901.001 34.225 15.322 34.225 34.223z"/><g fill="#323436"><path d="M118.615 98.49l.586-.905 2.451.46-3.008-2.152-.586.905-2.451-.46zM119.13 82.643l-.224-1.142 2.246-1.481-3.948.586.225 1.142-2.246 1.482zM121.476 90.944l.284-1.445 3.34-.661-4.906-1.201-.284 1.445-3.34.662z"/></g><g fill="#323436"><path d="M85.867 81.438l-.586.905-2.451-.459 3.008 2.152.587-.906 2.451.46zM85.353 97.286l.223 1.142-2.245 1.481 3.947-.587-.224-1.141 2.246-1.482zM83.007 88.984l-.285 1.445-3.339.661 4.905 1.202.284-1.446 3.34-.661z"/></g><g fill="#323436"><path d="M106.949 103.667c.183 0 .343-.096.44-.265.116-.201.121-.461.014-.647-.09-.156-.249-.242-.455-.245-.003-1.001-.025-1.932-.028-2.501.142-.158.24-.351.282-.588.407-2.297 4.476-3.7 4.476-8.818 0-5.024-4.073-8.832-9.097-8.832-5.025 0-9.097 3.808-9.097 8.832 0 5.118 4.068 6.521 4.476 8.818.042.237.14.43.282.589l-.021 1.688-.01.001c-.447.044-.592.35-.58.6.013.275.217.559.535.559l.049-.003.005.656-.009.001c-.447.044-.592.351-.58.6.013.275.217.559.535.559l.062-.004.027-.003c.012.259.028.506.049.738l-.092.01c-.447.044-.592.351-.58.6.013.275.217.559.535.559l.062-.004.254-.029c.084.292.192.465.333.465 0 0 .247.073.665.163.294.765 1.571 1.341 3.102 1.341 1.529 0 2.805-.574 3.101-1.338.421-.091.666-.165.666-.165.259 0 .41-.583.496-1.426l.105-.012c.183 0 .343-.097.44-.265.116-.201.121-.461.014-.647-.091-.158-.252-.245-.463-.245l-.021.002.02-.747.008.003zM102.581 109.624c-1.671 0-3.105-.573-3.811-1.476l-.184-.048c-.225-.041-.517-.154-.77-.45-.715-.159-1.26-.797-1.299-1.581-.017-.353.078-.719.284-1.027-.166-.251-.269-.55-.284-.875-.016-.337.069-.685.256-.983-.149-.242-.241-.525-.256-.831-.024-.5.176-1.025.598-1.373l.001-.098.007-.528c-.127-.225-.215-.472-.262-.738-.097-.545-.666-1.172-1.325-1.898-1.337-1.472-3.168-3.487-3.168-7.114 0-5.577 4.486-9.946 10.212-9.946s10.212 4.369 10.212 9.946c0 3.627-1.831 5.643-3.168 7.114-.659.726-1.228 1.352-1.325 1.898-.047.266-.135.513-.262.738l.007.512.012.948c.122.11.227.239.311.385.304.527.298 1.218-.014 1.76l-.036.06.051.082c.304.526.298 1.218-.015 1.76-.128.221-.298.404-.496.541-.136.726-.452 1.589-1.307 1.706l-.16.042c-.705.901-2.139 1.474-3.809 1.474zm-3.088-3.594l.22.049.59.127.216.563c.091.181.817.626 2.062.626 1.245 0 1.971-.445 2.064-.63l.217-.559.584-.123.211-.048c.025-.129.053-.312.079-.567l.047-.463.024-.633.02-.724.009-.511-.002-.624c-.001-.581-.01-1.139-.017-1.615l-.011-.884-.002-.429.287-.32.014-.039c.209-1.179 1.016-2.067 1.87-3.008 1.213-1.336 2.589-2.85 2.589-5.616 0-4.328-3.506-7.718-7.983-7.718-4.476 0-7.983 3.39-7.983 7.718 0 2.766 1.375 4.28 2.589 5.616.854.94 1.661 1.828 1.87 3.007l.015.039.286.319-.002.429-.011.9-.011.796-.007.65.001.493.005.642.009.616.024.502.046.693.056.634.025.092z"/></g><path fill="#323436" d="M120.853 110.408c-.271-.66-.641-1.061-1.004-1.303-.128-1.036-.592-2.025-1.329-2.798-.779-.816-1.784-1.288-2.762-1.296-.875-.715-1.965-1.103-3.12-1.103-.224 0-.45.015-.676.044-.527-.301-1.067-.541-1.61-.717-.783-.281-1.728-.43-2.733-.43-.294 0-.589.013-.881.039-1.154-.803-2.527-1.225-4.002-1.225-1.348 0-2.714.349-3.895.989-.364-.066-.746-.1-1.141-.1-2.386 0-4.768 1.15-5.927 2.83-1.233.716-1.818 1.675-2.149 2.441-1.042.832-1.714 2.143-1.796 3.433-1.008.509-1.825 1.459-2.271 2.68-.41 1.123-.37 1.998-.247 2.627-.262.702-.58 1.974-.298 3.562.377 2.121 2.021 3.046 3.42 3.222.602.617 1.704 1.455 3.254 1.455.156 0 .313-.009.47-.027.351.503.874 1.079 1.624 1.531.818.535 1.801.806 2.924.806.817 0 1.714-.146 2.674-.436 1.19.781 2.916 1.298 4.433 1.298.86 0 1.633-.153 2.305-.454.4.106.873.166 1.463.189l.123.003c1.433 0 2.725-.957 3.497-1.527l.345-.248c.127-.082.187-.099.366-.149.293-.081.695-.192 1.329-.58.304-.186.563-.424.772-.704l.433.014h.001c.998 0 2.912-.225 4.525-1.733 1.716-1.605 1.731-3.621 1.105-5.178 1.175-1.98 1.569-5.233.778-7.155z"/><g><path fill="#323436" d="M110.037 104.3l-.327.078-.52-.174-.791-.153h-.655l-.772.038-.339.083-.21-.178c1.283-.173 2.632-.061 3.614.306zM106.633 104.171l.115.104-.14-.098.025-.006zM106.633 104.171l-.025.006-.257-.172.072-.011.21.177zM106.608 104.177l-.273.066-.577.193-.772.346-.693.443-.424.231s-.732.617-.958.689c.076-.214.1-.433.089-.653l.131-.119c.204-.182.443-.361.732-.534l.129-.076.157-.083.108-.055.112-.055.225-.098.274-.106.153-.053.095-.032c.312-.098.638-.176.971-.235l.257-.042h.006l.258.173zM106.423 103.993l-.072.011h-.002l-.009-.008-.233-.144-.483-.269-.238-.117-.235-.104h-.002c-.155-.068-.31-.129-.464-.18l-.044-.015-.184-.059-.189-.055-.038-.009-.221-.053-.22-.045-.009-.002-.206-.034-.149-.021-.284-.026-.201-.011-.445.002-.042.002-.274.021h-.008l-.238.028-.093.015-.153.026-.081.017-.167.034-.106.026c-.231.057-.454.127-.668.208l-.227.089c-.202.085-.396.178-.579.274l-.178.098-.144.083-.291.184-.136.091c-.723.5-1.194 1.005-1.349 1.183h-.002l-.21-.066.123-.18.078-.102.074-.091c.102-.123.216-.242.341-.358.123-.115.257-.227.399-.337l.108-.079.343-.233h.002l.098.023-.093-.026c1.954-1.216 5.075-1.666 7.401.209z"/><path fill="#FF74CF" d="M106.339 103.997l.009.008h-.004l-.257.042c-.333.057-.659.136-.971.235l-.095.032-.153.053-.274.106-.225.098-.112.055-.108.055-.157.083-.129.076c-.29.172-.528.352-.732.534l-.131.117v-.004l-.008-.098-.004-.032-.013-.097-.006-.04-.019-.097-.021-.087-.026-.102c-.04-.146-.091-.29-.148-.428.057.225.085.42.085.615l-.006.142-.023.189-.023.127v.004l-.04.163-.39.454-.259.314-.22.24-.129.123-.121.1-.1.076-.235.142-.127.061c-1.366.592-2.004-.026-3.045 1.207l-.17.078-.064.03-.155.078-.089.049-.038.021-.059.036-.045-.28-.049-.17-.006-.019-.102-.235-.042-.076-.044-.074-.047-.072-.083-.11-.064-.072-.053-.053-.053-.049c.104.142.191.28.257.42l.061.142.081.295.008.057c.019.127.023.259.013.405l-.127.093-.178.14-.064.053-.204.178-.148.138c-1.283 1.221-1.234 2.042-1.698 2.466-.577.81-1.465.617-2.35 2.082-1.081 1.504-.657 3.855.038 4.973-.246.861-.397 1.55-.346 2.456l.017.202c.03.348.091.73.185 1.168l.095.411c-1.306.231-2.453.148-3.473-1.033l.079-.019.155-.051.023-.009.07-.03.085-.042.085-.047c.168-.098.327-.229.471-.386l.119-.144.059-.079.057-.083.055-.087.087-.159.051-.106.047-.112c.078-.189.134-.396.172-.617l.017-.127.017-.165.009-.254-.006-.093-.021-.148c-.03-.144-.087-.284-.161-.428l-.068-.129c-.144-.255-.333-.519-.524-.808l-.061-.095-.146-.238-.057-.1-.064-.117-.098-.197-.049-.112-.047-.112-.121-.358c.138.057.293.098.469.123l.108.013.011.002.218.013c-.844-.356-1.039-.585-1.851-1.395.061.193.142.394.261.579l.051.078.072.095.115.131.072.068.078.064.172.117.095.053.095.39.038.119.042.117.091.223c.125.288.274.537.42.776l.142.237.017.026c.151.255.284.501.361.768.074.255.097.53.034.848l-.009.047-.061.22c-.049.155-.119.322-.21.5-1.071 2.087-3.469.539-3.804-.592-.333-1.13-.36-2.364.104-3.571l.004-.072.019.062.061.185.042.123.051.146c.074.208.149.413.21.623l.045.172.021.085.013.064.019.117.011.085.002.013.008.07.008.303c.56-1.001-1.255-2.125-.127-4.445.924-1.902 2.157-2.087 2.837-2.017l.098.013.174.032.053.013.079.023.036.011.004.002-.026.134-.064.418c-.021.193-.03.394-.03.6.204-.925.797-2.545 2.208-3.162l-.221.04-.123.03-.242.076-.108.044-.026.011-.11.053-.273.167-.074.055c-.17.131-.316.286-.443.462l-.074.11-.017.028-.078.132-.068.134-.025.057-.055.129-.062.17-.174-.074-.161-.047h-.004l-.072-.017-.155-.023-.21-.011-.185.008-.009-.066-.055-.369-.006-.078c-.021-.369.051-.859.505-1.624.721-1.207 2.205-1.522 2.642-1.522.789 0 2.326.462 2.35 1.851.026 1.387-.59 1.894-1.849 2.254 1.387.026 2.106-1.181 2.08-2.133l-.023-.269-.034-.174-.002-.011-.015-.066-.028-.098-.019-.061-.051-.136-.026-.062-.059-.127-.153-.254-.085-.115-.013-.017-.087-.1-.097-.097-.148-.131-.119-.087-.144-.091.028-.153.026-.129.028-.132.03-.129.066-.24.034-.114.036-.108.115-.301.047-.108.064-.132.093-.163.066-.102c.076-.117.159-.221.246-.316l.216-.206.159-.123.214-.144-.237.102c-.297.144-.534.316-.725.511l-.07.072-.182.229-.055.079-.153.28-.064.142-.066.174-.106.35-.114.513-.131-.049-.278-.081c-.307-.074-.659-.106-1.064-.087l-.15.011-.093.011-.1.013-.131.025-.081.017c-.193.045-.378.11-.553.191l.061-.129.242-.464.115-.193c.22-.348.458-.624.746-.863l.089-.07c.15-.117.312-.223.494-.326l.11-.061c.263-.14.562-.274.91-.411-.25.068-.481.144-.693.227l-.115.047-.025.009.083-.1.112-.123.013-.015.125-.125.134-.127.25-.212.185-.142.155-.11c.157-.108.322-.21.49-.307l.17-.095.174-.089.176-.085.18-.081.17-.074c.185-.078.373-.146.56-.208l.185-.061.554-.149.365-.078.36-.059.129-.017c.25-.03.494-.045.723-.045l.218.006.204.013h.013l.193.025.079.013.11.021-.343.233-.108.079c-.142.108-.276.22-.399.337-.125.115-.238.235-.341.358l-.074.091-.078.102-.123.18h-.002l-.102-.017-.036-.004-.132-.008c-.18 0-.373.034-.577.098.681.026 1.336.206 1.709.604l-.072-.108-.074-.098-.076-.089c-.081-.089-.167-.161-.257-.22l-.079-.047-.017-.009-.072-.036c.155-.178.626-.683 1.349-1.183l.136-.091.291-.184.144-.083.178-.098c.184-.097.377-.189.579-.274l.227-.089c.214-.081.437-.151.668-.208l.106-.026.167-.034.081-.017.153-.026.093-.015.238-.028h.008l.274-.021.042-.002.445-.002.201.011.284.026.149.021.206.034.009.002.22.045.221.053.038.009.189.055.184.059.044.015.464.18h.002l.235.104.238.117c.159.081.32.17.483.269l.244.15z"/><path fill="#323436" d="M106.345 104.004l-.257.042.257-.042zM106.088 104.046c-.333.059-.659.136-.971.235.312-.099.638-.178.971-.235zM105.022 104.313l-.153.053.153-.053zM104.595 104.472l-.225.098.225-.098zM104.258 104.625l-.108.055.108-.055zM103.132 105.373l-.131.119v-.002l.131-.117zM103.001 105.492c.011.22-.013.439-.089.653-.127.017-.303.104-.326.114.068-.189.123-.358.165-.513l.25-.254zM103.001 105.49v.002l-.25.254.04-.163v-.004l.023-.127.023-.189.006-.142c0-.195-.028-.39-.085-.615.057.138.108.282.148.428l.026.102.021.087.019.097.006.04.013.097.004.032.008.098-.002.003zM103.001 105.486l-.008-.098.008.098zM102.99 105.356l-.013-.097.013.097zM102.971 105.219l-.019-.097.019.097zM102.587 106.258c.023-.009.199-.097.326-.114-.225.07-.547.585-.547.585l-.886.655-.657.308-.848.115-.693.193-.657.384-.308.464-.346.153-.655.464-.695.617-.539.693-.501.732-.308.541-.308.443-1.001.481-.657.617-.5.925-.308.848-.078.848-.019.906.212 1.022.481.791-.25.674-.038.925-.078 1.079.25 1.272.252.772.577.925s.386.462 1.272 1.079c-1.448-.513-2.14-1.69-2.373-2.174l.318-.114-.102-.204-.318.062-.097-.413c-.095-.437-.155-.819-.185-1.168l-.017-.202c-.051-.906.1-1.595.346-2.456-.695-1.118-1.118-3.469-.038-4.973.886-1.465 1.773-1.272 2.35-2.082.464-.424.414-1.245 1.698-2.466l.148-.138.204-.178.064-.053.178-.14.127-.093.004-.002c-.009.146-.032.305-.07.481l.212-.148c.028-.149.034-.297.023-.441l.059-.036.038-.021.089-.049.155-.078.064-.03.17-.078c1.041-1.234 1.679-.615 3.045-1.207l.127-.061.235-.142.1-.076.121-.1.129-.123.22-.24.259-.314.39-.454-.166.514zM102.496 102.854l-.042.002.042-.002zM102.454 102.856l-.274.021.274-.021zM102.172 102.877l-.238.028.238-.028zM101.841 102.92l-.153.026.153-.026zM101.607 102.964l-.167.034.167-.034zM100.666 103.232l-.227.089.227-.089zM99.247 103.961l-.136.091.136-.091zM99.114 103.811l-.098-.023.006-.004.092.027zM99.021 103.785l-.006.004-.112-.021-.079-.013-.193-.025h-.013l-.204-.013-.218-.006c-.229 0-.473.015-.723.045l-.129.017-.36.059-.365.078-.554.149-.185.061c-.187.062-.375.131-.56.208l-.17.074-.18.081-.176.085-.174.089-.17.095c-.17.095-.333.197-.49.307l-.155.11-.185.142-.25.212-.134.127-.125.125-.013.015-.112.123-.087.102-.346.163c1.124-1.912 4.273-3.001 6.468-2.393zM98.671 104.021l-.108.079.108-.079zM98.336 105.734l.072.108c-.373-.397-1.028-.577-1.709-.604.204-.064.397-.098.577-.098l.132.008.036.004.102.017-.032.051c.102.076.187.083.187.083l.057-.066.074.034.017.009.079.047c.091.059.176.131.257.22l.076.089.075.098zM98.336 105.734l-.074-.098.074.098zM98.263 105.636l-.076-.089.076.089zM98.564 104.101c-.142.11-.276.221-.399.337.122-.117.257-.229.399-.337zM97.956 108.541l-.064.03.064-.03zM97.93 105.327l-.079-.047.079.047zM97.833 105.271l-.074-.034v-.002h.002l.072.036zM97.824 104.796l-.074.091.074-.091zM97.759 105.235v.002l-.057.066s-.085-.008-.187-.083l.032-.051h.002l.21.066zM97.737 108.648l-.089.049.089-.049zM97.672 104.989l-.123.18.123-.18zM97.61 108.718l-.059.036.059-.036zM97.551 108.754c.011.144.006.291-.023.441l-.212.148c.038-.176.061-.335.07-.481l.165-.108zM97.506 108.474l.045.28-.165.108c.008-.146.004-.278-.017-.403l-.008-.057-.081-.295-.061-.142c-.066-.14-.153-.278-.257-.42l.053.049.053.053.064.072.083.11.047.072.044.074.042.076.102.235.006.019.05.169zM97.547 105.168l-.102-.017.102.017zM97.456 108.304l.049.17-.049-.17zM97.473 103.757l-.129.017.129-.017zM97.409 105.147l-.132-.008.132.008zM97.451 108.285l-.102-.235.102.235zM97.349 108.05l-.042-.076.042.076zM97.28 108.107l.081.295-.081-.295zM97.307 107.975l-.044-.074.044.074zM97.22 107.965l.061.142-.061-.142zM97.133 107.719l.083.11-.083-.11zM97.069 107.647l-.053-.053.053.053zM96.985 103.832l-.365.078.365-.078zM96.066 104.059l-.185.061.185-.061zM95.32 104.328l-.17.074.17-.074zM95.081 105.842l.237-.102-.214.144-.159.123-.216.206c-.087.095-.17.199-.246.316l-.066.102-.093.163-.064.132-.047.108-.115.301-.036.108-.034.114-.066.24-.03.129-.028.132-.026.129-.028.153-.301-.148.114-.513.106-.35.066-.174.064-.142.153-.28.055-.079.182-.229.07-.072c.189-.195.425-.367.722-.511zM95.15 104.402l-.18.081.18-.081zM94.951 110.236c.026.952-.693 2.159-2.08 2.133 1.258-.36 1.875-.867 1.849-2.254-.025-1.389-1.561-1.851-2.35-1.851-.437 0-1.921.314-2.642 1.522-.454.765-.526 1.255-.505 1.624l.006.078.055.369.009.066-.32.049c-.216-1.173.388-2.702 1.561-3.486l-.07.193.411-.233.093-.202c.174-.081.36-.146.553-.191l.081-.017.131-.025.1-.013.093-.011.15-.011c.405-.019.757.013 1.064.087l.278.081.131.049-.002.013.29.212.013-.078.144.091.119.087.148.131.097.097.087.1.013.017.085.115.153.254.059.127.026.062.051.136.019.061.028.098.015.066.002.011.034.174.021.269zM94.894 109.793l.034.174-.034-.174zM94.877 109.716l-.028-.098.028.098zM94.794 104.568l-.174.089.174-.089zM94.752 109.358l-.059-.127.059.127zM94.54 108.978l-.085-.115.085.115zM94.483 106.529l-.066.102.066-.102zM94.442 108.845l-.087-.1.087.1zM94.357 106.353l-.07.072.07-.072zM94.355 108.745l-.097-.097.097.097zM94.449 104.752c-.168.097-.333.199-.49.307.157-.11.32-.212.49-.307zM94.111 108.518l-.119-.087.119.087zM94.105 106.654l-.055.079.055-.079zM93.991 108.431l-.144-.091.144.091zM93.959 105.059l-.155.11.155-.11zM93.848 108.34l-.013.078-.29-.212.002-.013.301.147zM93.734 105.728c-.348.136-.647.271-.91.411l-.11.061c-.182.102-.344.208-.494.326l-.089.07c-.288.238-.526.515-.746.863l-.115.193c-.083.142-.163.297-.242.464l-.061.129c-.151.068-.297.15-.433.242.307-.81.808-1.692 2.017-2.309l-.015.025.335-.153.028-.034.002-.002.025-.009.115-.047c.212-.086.443-.161.693-.23zM93.619 105.31l-.25.212.25-.212zM93.369 105.522l-.134.127.134-.127zM93.138 108.062l.278.081-.278-.081zM93.234 105.649l-.125.125.125-.125zM93.096 105.789l-.112.123.112-.123zM93.041 105.956l-.115.047.115-.047zM92.922 123.163l.102.204-.318.114-.093-.216-.009-.04.318-.062zM92.985 105.912l-.083.1-.002.002h-.002l.087-.102zM92.9 106.014l-.028.034-.335.153.015-.025.346-.163h.002zM92.824 106.139l-.11.061.11-.061zM92.614 123.266l.093.216c-2.027.647-3.367-.778-3.756-1.266l.176-.025c1.022 1.187 2.169 1.266 3.478 1.035l.009.04zM92.031 110.429l.221-.04c-1.412.617-2.004 2.237-2.208 3.162 0-.206.009-.407.03-.6l.064-.418.028-.134.057.021s.025-.18.076-.308l-.045-.023v-.002l.062-.17.055-.129.025-.057.068-.134.078-.132.017-.028.074-.11c.127-.176.273-.331.443-.462l.074-.055.273-.167.11-.053.026-.011.108-.044.242-.076.122-.03zM92.22 106.525l-.089.07.089-.07zM92.031 110.429l-.123.03.123-.03zM91.925 107.986l-.093.011.093-.011zM91.666 110.535l-.108.044.108-.044zM91.601 108.035l-.081.017.081-.017zM91.531 110.59l-.11.053.11-.053zM90.967 108.243l-.093.202-.411.233.07-.193c.137-.092.283-.173.434-.242zM90.784 119.581l.006.093-.009.254-.017.165-.017.127c-.038.221-.095.428-.172.617l-.047.112-.051.106-.087.159-.055.087-.057.083-.059.079-.119.144c-.144.157-.303.288-.471.386l-.085.047-.085.042-.07.03-.023.009-.155.051-.079.019h-.004l-.11-.132h-.182l.115.157-.185.004c-.963-.059-2.35-.598-2.659-2.333-.288-1.618.163-2.835.365-3.272l.03.102v.002l-.004.072c-.464 1.207-.437 2.441-.104 3.571.335 1.132 2.733 2.68 3.804.592.091-.178.161-.344.21-.5l.061-.22.009-.047c.062-.318.042-.592-.034-.848-.076-.267-.208-.515-.361-.768l-.017-.026-.142-.237c-.144-.237-.293-.49-.42-.776l-.091-.223-.042-.117-.038-.119-.093-.39.123.057.125.36.047.112.049.112.098.197.064.117.057.1.146.238.061.095c.191.29.38.553.524.808l.068.129c.074.144.131.284.161.428l.021.145zM90.559 111.436l.074-.11-.074.11zM90.542 111.464l-.078.132.078-.132zM90.443 119.339c.076.255.097.53.034.848.063-.318.04-.593-.034-.848zM90.464 111.597l-.068.134.068-.134zM90.468 120.234l-.061.22.061-.22zM90.333 121.299l.055-.087-.055.087zM90.371 111.788l-.055.129.055-.129zM90.277 121.383l.057-.083-.057.083zM90.316 111.917l-.062.17.062-.17zM90.254 112.089l.045.023c-.051.129-.076.308-.076.308l-.057-.021.085-.31h.003zM90.218 121.462l.059-.079-.059.079zM90.254 112.087v.002h-.002l-.172-.076.174.074zM90.252 112.089l-.085.31h-.002l-.004-.002-.036-.011-.079-.023-.053-.013-.174-.032-.098-.013c-.679-.07-1.913.115-2.837 2.017-1.128 2.32.687 3.444.127 4.445l-.008-.303-.008-.07-.002-.013-.011-.085-.019-.117-.013-.064-.021-.085-.045-.172c-.061-.21-.136-.414-.21-.623l-.051-.146-.042-.123-.061-.185-.019-.062v-.002l.009-.184-.04.081c-.17-.626-.233-1.349.129-2.343.507-1.391 1.484-2.104 2.373-2.299l.017.089.308-.102-.006-.036.185-.008.21.011.155.023.072.017h.004l.161.047.174.076zM90.218 121.462l-.119.144.119-.144zM90.167 112.399l-.028.134.026-.134h.002zM90.082 118.57c.153.254.286.501.361.768-.077-.266-.21-.512-.361-.768zM90.138 112.534l-.064.418.064-.418zM90.173 116.892l-.218-.013.218.013zM90.173 116.892l-.218-.013-.011-.002-.108-.013c-.176-.025-.331-.066-.469-.123l-.004-.002-.026-.102-.115-.053.017.097-.095-.051-.172-.117-.078-.064-.072-.068-.115-.131-.072-.095-.051-.078c-.119-.185-.201-.386-.261-.579.811.809 1.006 1.038 1.85 1.394zM89.919 111.966l.161.047-.161-.047zM89.923 118.307l.142.237-.142-.237zM89.836 116.863l.108.013-.108-.013zM89.503 117.532c.127.286.276.539.42.776-.146-.239-.295-.489-.42-.776zM89.412 117.308l.091.223-.091-.223zM89.37 117.191l.042.117-.042-.117zM89.336 116.636l.026.102-.123-.057h-.002v-.002l-.017-.097.116.054zM89.293 111.922l.006.036-.308.102-.017-.089.319-.049zM89.293 111.922l-.009-.066.009.066zM89.24 116.682l.093.39-.095-.39h.002zM89.238 116.68v.002l-.095-.053.095.051zM89.223 111.41l.006.078-.006-.078zM89.016 122.058l.11.132-.176.025-.115-.157h.181zM88.971 116.511l.172.117-.172-.117zM88.893 116.447l.078.064-.078-.064zM88.893 116.447l-.072-.068.072.068zM88.821 116.379l-.115-.131.115.131zM88.583 116.076l.051.078-.051-.078zM87.003 118.464l-.008-.07.008.07zM86.95 118.114l-.021-.085.021.085zM86.929 118.029l-.045-.172.045.172zM86.622 117.089l.051.146-.051-.146zM86.581 116.966l-.061-.185.061.185zM86.511 116.532l-.009.184-.03-.102.039-.082z"/></g><path fill="#323436" d="M93.257 123.359l-.194-.543c.039.188.105.37.194.543z"/><ellipse fill="#323436" cx="102.581" cy="106.833" rx="3.166" ry="1.677"/><g><path fill="#323436" d="M107.117 100.88c.042 2.835.038 5.651-.492 6.188-.087.089-.176.115-.244.123-.212.061-1.792.501-3.787.501h-.026c-1.957 0-3.573-.441-3.785-.501-.068-.006-.159-.034-.244-.121-.532-.539-.536-3.353-.494-6.19l.011-.965v-.204l.204.019c.03.002 3.194.301 4.269.301 1.052 0 4.341-.299 4.373-.301l.202-.019v.204l.013.965zm-.768 6.126c.791 0 .572-5.435.572-7.091 0 0-3.317.301-4.39.301-1.096 0-4.288-.301-4.288-.301 0 1.656-.22 7.091.572 7.091 0 0 1.701.501 3.755.501h.026c2.095 0 3.753-.501 3.753-.501zM106.92 99.915c0 1.656.22 7.091-.572 7.091 0 0-1.658.501-3.755.501h-.026c-2.053 0-3.755-.501-3.755-.501-.791 0-.572-5.435-.572-7.091 0 0 3.193.301 4.288.301 1.075 0 4.392-.301 4.392-.301zm-.571 6.905c.481-.206.418-4.519.397-5.937l-.011-.766c-.74.066-3.276.284-4.205.284-.944 0-3.378-.218-4.103-.284l-.009.768c-.021 1.416-.085 5.728.401 5.937l.047.006c.017.006 1.701.494 3.702.494h.026c2.042 0 3.685-.488 3.702-.494l.053-.008z"/><path fill="#ccc" d="M106.746 100.884c.021 1.417.083 5.73-.397 5.937l-.053.008c-.017.006-1.66.494-3.702.494h-.026c-2 0-3.685-.488-3.702-.494l-.047-.006c-.486-.208-.422-4.521-.401-5.937l.009-.768c.725.066 3.158.284 4.103.284.929 0 3.465-.218 4.205-.284l.011.766z"/></g><g><path fill="#323436" d="M107.511 102.693c.129.223.123.534-.013.77-.121.208-.32.327-.549.327l-8.709 1.001-.076.004c-.39 0-.642-.344-.659-.676-.015-.329.193-.681.693-.73 8.735-1.003 8.735-1.003 8.743-1.003.254 0 .456.108.57.307zm-.121.71c.115-.202.121-.462.013-.647-.091-.159-.252-.246-.462-.246l-8.732 1.003c-.447.044-.592.35-.579.6.013.276.218.56.534.56l.062-.004 8.722-1.003c.184 0 .343-.095.442-.263zM107.403 102.755c.108.185.102.445-.013.647-.098.168-.257.263-.441.263l-8.722 1.003-.062.004c-.316 0-.52-.284-.534-.56-.013-.25.132-.556.579-.6l8.732-1.003c.209 0 .37.088.461.246zm-.121.585c.093-.161.098-.377.015-.524-.087-.149-.242-.182-.356-.182-.026.004-8.716 1.001-8.716 1.001-.363.036-.481.267-.471.471.011.231.189.473.458.439l8.724-1.003c.153.001.27-.071.346-.202z"/><path fill="#666" d="M107.297 102.816c.083.148.078.363-.015.524-.076.131-.193.202-.346.202l-8.724 1.003c-.269.034-.447-.208-.458-.439-.009-.204.108-.435.471-.471 0 0 8.69-.997 8.716-1.001.114 0 .269.033.356.182z"/></g><g><path fill="#323436" d="M107.511 104.595c.129.223.123.534-.013.77-.121.208-.32.327-.549.327l-8.709 1.001-.076.004c-.39 0-.642-.344-.659-.677-.015-.327.193-.679.693-.729 8.735-1.003 8.735-1.003 8.743-1.003.254 0 .456.108.57.307zm-.121.708c.115-.201.121-.46.013-.645-.091-.159-.252-.246-.462-.246l-8.732 1.003c-.447.044-.592.35-.579.6.013.276.218.56.534.56l.062-.004 8.722-1.003c.184 0 .343-.097.442-.265zM107.403 104.657c.108.185.102.445-.013.645-.098.168-.257.265-.441.265l-8.722 1.003-.062.004c-.316 0-.52-.284-.534-.56-.013-.25.132-.556.579-.6l8.732-1.003c.209 0 .37.087.461.246zm-.121.585c.093-.161.098-.377.015-.524-.087-.151-.242-.182-.356-.182-.026.004-8.716 1.001-8.716 1.001-.363.036-.481.267-.471.471.011.231.191.469.46.439l8.722-1.003c.151.001.272-.073.346-.202z"/><path fill="#666" d="M107.297 104.718c.083.148.078.363-.015.524-.074.129-.195.202-.346.202l-8.722 1.003c-.269.03-.449-.208-.46-.439-.009-.204.108-.435.471-.471 0 0 8.69-.997 8.716-1.001.114 0 .269.031.356.182z"/></g><g><path fill="#323436" d="M103.103 101.675c.044.685-2.982 1.086-3.013 1.09l-.193.025-.061.006h-.002l-1.595.182-.076.006c-.39 0-.642-.344-.659-.677-.015-.327.193-.681.693-.729l.079-.009.49-.059.751-.085c.965-.091 1.743-.136 2.314-.136.909-.002 1.254.104 1.272.386zm-3.027.967c1.234-.159 2.928-.583 2.905-.959-.009-.134-.153-.273-1.147-.273-.568 0-1.342.047-2.303.136l-.748.085-.494.061-.079.008c-.447.044-.592.35-.579.6.013.274.218.558.534.558l.062-.004 1.631-.187.002.002.023-.002.193-.025zM102.98 101.682c.023.377-1.671.8-2.905.959l-.193.025-.023.002-.002-.002-1.631.187-.062.004c-.316 0-.52-.284-.534-.558-.013-.25.132-.556.579-.6l.079-.008.494-.061.748-.085c.961-.089 1.735-.136 2.303-.136.994.001 1.138.139 1.147.273zm-2.921.837c1.614-.208 2.81-.647 2.797-.829 0-.015-.038-.155-1.022-.155-.564 0-1.334.045-2.292.136l-.744.083-.494.061-.081.008c-.361.034-.479.265-.469.471.011.231.189.469.458.437l1.669-.191.002.002.176-.023z"/><path fill="#666" d="M102.856 101.69c.013.182-1.183.621-2.797.829l-.176.023-.002-.002-1.669.191c-.269.032-.447-.206-.458-.437-.009-.206.108-.437.469-.471l.081-.008.494-.061.744-.083c.958-.091 1.728-.136 2.292-.136.984 0 1.022.14 1.022.155z"/></g><g><path fill="#323436" d="M112.051 90.604c0 3.34-1.65 5.155-2.975 6.614-.736.812-1.374 1.512-1.508 2.269-.28 1.58-2.415 1.58-3.44 1.58l-.84-.011-.706-.009-.706.009-.84.011c-1.026 0-3.16 0-3.44-1.58-.134-.757-.77-1.457-1.508-2.269-1.325-1.459-2.973-3.274-2.973-6.614 0-5.161 4.158-9.205 9.468-9.205s9.468 4.045 9.468 9.205zm-3.113 6.489c1.304-1.434 2.926-3.221 2.926-6.489 0-5.057-4.076-9.019-9.282-9.019s-9.282 3.963-9.282 9.019c0 3.268 1.622 5.055 2.926 6.489.757.833 1.408 1.552 1.552 2.36.223 1.26 1.773 1.429 3.259 1.429l.836-.011.71-.011.71.011.836.011c1.486 0 3.035-.168 3.259-1.429.142-.808.795-1.527 1.55-2.36zM111.863 90.604c0 3.268-1.622 5.055-2.926 6.489-.755.833-1.408 1.552-1.552 2.36-.223 1.26-1.773 1.429-3.259 1.429l-.836-.011-.71-.011-.71.011-.836.011c-1.486 0-3.035-.168-3.259-1.429-.144-.808-.795-1.527-1.552-2.36-1.304-1.434-2.926-3.221-2.926-6.489 0-5.057 4.076-9.019 9.282-9.019 5.208 0 9.284 3.963 9.284 9.019zm-4.661 8.817c.407-2.297 4.476-3.7 4.476-8.817 0-5.024-4.072-8.832-9.097-8.832-5.024 0-9.097 3.808-9.097 8.832 0 5.117 4.069 6.519 4.476 8.817.199 1.12 1.65 1.275 3.075 1.275l1.546-.023 1.546.023c1.427.001 2.877-.153 3.075-1.275z"/><path fill="#FFBB2A" d="M111.678 90.604c0 5.117-4.069 6.519-4.476 8.817-.199 1.122-1.648 1.275-3.075 1.275l-1.546-.023-1.546.023c-1.425 0-2.876-.155-3.075-1.275-.407-2.297-4.476-3.7-4.476-8.817 0-5.024 4.072-8.832 9.097-8.832 5.025 0 9.097 3.808 9.097 8.832z"/></g><path fill="#fff" d="M104.367 89.307l-.194.669.624.31-.483.503.41.565-.662.22.1.69-.688-.112-.232.658-.558-.42-.511.475-.299-.63-.673.182.029-.697-.681-.151.349-.604-.533-.45.59-.373-.262-.646.695-.055.068-.695.641.274.383-.583.441.541.61-.339.139.684z"/><g fill="#323436"><path d="M101.793 99.434c-.045-1.387-.38-2.993-.762-3.982l.041-.059c.196-.313.216-.735.061-1.289-.124-.443-.303-.792-.528-1.033.077-.557-.163-1.197-.663-1.759l.085-.548c-.01.007-.243.179-.412.495l-.052.098.076.081c.425.448.662.948.672 1.395l-.088-.046c-.275-.129-.576-.127-.872.005-.395.176-.494.582-.385.873.105.283.417.507.878.369.296-.088.528-.301.659-.596.135.194.249.448.333.75.109.387.12.697.034.923-.089-.154-.193-.28-.311-.371-.205-.158-.443-.207-.707-.147-.462.106-.607.473-.547.77.067.33.391.635.859.554.255-.045.462-.121.625-.231.324.972.377 2.613.414 3.799.015.465.028.867.052 1.188l.591-.063c-.025-.316-.038-.715-.053-1.176zm-2.039-5.697c-.244.074-.431.006-.501-.181-.061-.165-.004-.384.222-.485.11-.049.218-.074.323-.074.1 0 .198.022.292.067l.177.113c-.078.282-.265.486-.513.56zm.355 1.875c-.278.049-.465-.119-.503-.311-.031-.156.034-.344.314-.408l.142-.017c.113 0 .215.035.308.107.116.089.215.228.299.405-.132.108-.317.182-.56.224zM103.37 99.434c.044-1.387.38-2.993.762-3.982l-.04-.059c-.197-.313-.217-.735-.061-1.289.124-.443.303-.792.528-1.033-.076-.557.163-1.197.663-1.759l-.085-.548c.01.007.243.179.412.495l.052.098-.077.081c-.425.448-.662.948-.671 1.395l.088-.046c.275-.129.576-.127.872.005.395.176.494.582.386.873-.105.283-.416.507-.878.369-.296-.088-.528-.301-.659-.596-.135.194-.249.448-.334.75-.108.387-.12.697-.034.923.09-.154.193-.28.312-.371.205-.158.442-.207.707-.147.462.106.608.473.548.77-.067.33-.391.635-.859.554-.255-.045-.462-.121-.624-.231-.325.972-.377 2.613-.415 3.799-.015.465-.028.867-.052 1.188l-.591-.063c.022-.316.035-.715.05-1.176zm2.039-5.697c.244.074.431.006.5-.181.061-.165.005-.384-.222-.485-.11-.049-.218-.074-.323-.074-.1 0-.198.022-.292.067l-.177.113c.079.282.266.486.514.56zm-.355 1.875c.279.049.465-.119.503-.311.032-.156-.034-.344-.314-.408l-.142-.017c-.114 0-.215.035-.308.107-.116.089-.215.228-.299.405.132.108.317.182.56.224z"/></g><g><path fill="#323436" d="M119.904 113.433c.072-.537.095-1.058.057-1.527v-.009c-.028-.373-.097-.713-.204-1.007l-.034-.087c-.068-.172-.153-.326-.255-.456-.115-.153-.255-.276-.418-.361l-.221-.091-.079-.021.03-.314c1.925.221 1.745 5.467.023 7.608l-.047-.083c-.025-.049-.047.083-.114.271l-.004.004.002-.006-.115.119-.098.087-.061.051-.17.129-.07.045-.083.049c.623-.655 1.132-1.635 1.47-2.685.178-.549.308-1.115.386-1.663l.005-.053z"/><path fill="#FF74CF" d="M112.976 105.744l-.208-.18-.185-.151-.259-.199-.255-.185c1.19-.04 2.051.182 2.683.556.341.201.617.447.842.721l.146.189c.331.466.543.995.702 1.516l-.044-.242v-.004l-.059-.238-.057-.187-.026-.074-.072-.187-.008-.019-.087-.193-.021-.04-.085-.161-.03-.053-.114-.182v-.002l-.136-.191-.002-.002c.732-.021 1.357.274 1.838.749 1.117 1.111 1.453 3.204.547 4.572l.068-.104.062-.098c.085-.142.161-.286.225-.428l.045-.106.049-.119.061-.172.021-.062.049-.174.047-.21.034-.21.079.021.221.091c.161.087.301.21.418.361.1.131.185.284.255.456l.034.087c.106.293.174.634.204 1.007v.009c.036.471.015.99-.057 1.527l-.008.051c-.079.551-.21 1.117-.386 1.663-.339 1.05-.848 2.031-1.47 2.685l.083-.049.07-.045.17-.129.061-.051.098-.087.114-.114-.011.034c.57 1.868.153 3.369-.867 4.328l-.299.252-.327.223c-.227.138-.471.257-.732.358l-.403.132c-.553.155-1.164.225-1.813.202h-.011l-.454-.032-.288-.036.021-.098.019-.117.019-.278.112-.053c.202-.097.458-.244.712-.454l.119-.1.025-.023.134-.131c.104-.106.202-.225.293-.356l.074-.11.14-.254.042-.087c.053-.117.1-.244.136-.377l.03-.121.049-.265.017-.14.138-.006c.254-.006.473.004.668.068l.045.015c.146.057.276.146.397.284l-.146-.161c-.148-.151-.31-.267-.473-.35l-.155-.07-.083-.03c-.134-.045-.263-.066-.377-.064l-.013-.284-.015-.149c-.017-.151-.044-.31-.085-.477l-.089-.339.28-.098.25-.129.076-.047c.161-.102.305-.221.449-.346l.189-.165c-1.014.604-1.811.808-3.316.655l.078.019.291.07.074.015.263.047.131.019c.255.038.479.049.679.04h.006l.119-.008.225-.026c.038.246.074.5.097.755l.013.174.002.023.009.32c0 .693-.151 1.357-.676 1.843l-.159.134-.18.125-.204.114c-.178.089-.382.167-.613.229l-.078.386.006-.002-.042.176-.07.235-.045.123-.011.028-.078.168-.002.002-.061.108-.002.004-.061.089-.07.089-.072.078-.195.157-.074.047c-.301.176-.67.254-1.099.413l-.123.047-.127.053c-.136.059-.278.129-.426.214l-.11.066-.125.079-.114.078-.199.151c-.927.746-1.995 1.103-2.892 1.103l-.18-.006-.114-.009-.081-.008-.025-.004-.106-.015-.045-.008-.131-.028-.155-.044-.123-.044-.023-.009-.14-.062-.121-.066-.019-.011-.11-.074-.004-.002-.108-.089-.009-.008-.091-.091-.062-.074-.026-.036-.061-.085-.072-.132-.025-.053-.008-.017-.034-.091-.04-.144.034-.015.148-.074.023-.013.085-.051.068-.045c.119-.085.223-.182.316-.286l.11-.134.028-.034.078-.11.235-.384c-.469.687-1.68 1.219-3.208 1.23.394.07.734.102 1.031.102l.151-.004.157-.009.078-.008.068-.008.235-.042.085-.021.142-.042.102-.038c0 .488.176.819.469 1.045l-.057.021-.074.028-.227.076-.074.023-.257.07-.061.015-.184.042-.055.011-.144.028-.021.004-.354.053-.061.008-.237.023c-1.223.097-2.854-.121-4.339-1.446-.462-.424-1.016-.963-1.183-2.063-.85.787-1.908 1.469-3.056 1.461.861.242 1.889.015 2.852-.954l.04.17.04.121.045.117.03.07.026.057.047.093.055.098.083.134.091.131.095.123.098.117.1.112.1.104.214.193.055.045-.149.066-.151.062-.151.059-.153.055-.151.051c-.199.062-.397.114-.596.155l-.324.057-.153.021-.151.015c-.354.032-.704.026-1.041-.015l-.38-.066-.187-.045c-.184-.049-.361-.112-.534-.187-.403-.174-.772-.422-1.088-.742l-.259-.293-.119-.161-.218-.348c-.483-.878-.704-2.076-.526-3.63l.036-.273.044-.282.051-.29.061-.295.081.059.119.076.136.07c.193.093.392.155.589.218.394.123.746.452 1.09.666l.255.17.274.159.119.055.049.021.174.062c-.21.172-.35.358-.437.551l-.028.066-.025.068-.015.047-.021.078-.036.229-.006.079.004.274.095-.255.049-.115.055-.115.036-.068.042-.076.184-.267.127-.136.074-.064.072-.055.011-.008.064-.042.028-.017.062-.034.017-.006.078-.034h.002c.358.053.723.036 1.073-.044.409-.093.806-.303 1.132-.572.102-.083.199-.191.286-.314l.051-.076c.087-.129.163-.273.223-.414l.03-.076.03-.083.019-.057.025-.081.021-.078h.021l.059.098.064.098.068.093.078.095.072.078.178.163.157.114c.322.201.702.28 1.111.165-.095.019-.204.015-.324-.006h-.004c-.163-.03-.337-.095-.503-.187-.167-.091-.324-.214-.443-.358l-.068-.089-.059-.095-.04-.078-.045-.125.098-.021c.108-.026.212-.064.31-.112.238-.112.443-.282.619-.471.354-.38.602-.836.933-1.228.163-.195.352-.373.581-.486.227-.117.49-.155.744-.131.513.053.984.29 1.425.547-.384-.322-.884-.636-1.4-.695-.255-.028-.596-.062-.831.051-.235.114-.401.278-.568.473-.337.392-.573.956-.927 1.327-.174.184-.375.382-.604.488-.227.106-.488.149-.742.148h-.028l-.008.028c-.089.396-.322.818-.638 1.067-.314.255-.696.42-1.092.505-.397.083-.812.085-1.205-.002-.197-.045-.386-.112-.566-.204-.182-.087-.333-.218-.515-.331-.356-.225-.755-.373-1.147-.498-.39-.127-.778-.267-1.041-.562-.267-.291-.414-.677-.517-1.065-.1-.392-.138-.797-.125-1.202.028-.806.254-1.61.643-2.316.197-.35.435-.677.736-.935.151-.131.312-.244.484-.337l.56-.274c.197-.112.361-.278.486-.454.129-.176.231-.363.324-.553.091-.189.178-.367.28-.541.102-.172.212-.341.331-.503.479-.642 1.054-1.179 1.773-1.506l-.04.108c-.07.197-.131.418-.178.674l-.051.324c.821-2.825 2.364-1.798 3.673-2.568 1.383-.814 2.21-2.674 5.269-3.393 2.057-.479 4.808.558 6.235 1.771zm-16.167 12.739l.011-.04.062-.148.026-.047.03-.053.049-.074.045-.062.006-.006c.093-.114.22-.235.388-.337l.104-.059c.71.108 1.223-.089 1.527-.433v-.002l.081-.1v-.002l.07-.108.03-.059.053-.117c.17-.443.112-.988-.193-1.451 1.202-.204.713-1.484 1.58-1.985.751-.433 2.39.483 3.045-.829l.108-.284c.061-.21.072-.428.044-.642l.002.006c.221.013.937-.034 1.476-.918.539-.882-.049-1.699-.761-2.157 1.064.852.944 1.715.433 2.233-.324.326-.8.515-1.234.479h-.002l-.04-.102-.03-.068-.045-.093-.055-.095-.074-.112-.07-.095-.011-.013c-.085-.106-.182-.206-.291-.293-.297-.248-.677-.42-1.115-.475h-.008l-.032-.006-.068-.006c.488-.051.804-1.355-.649-1.561.528.078 1.177.944.649 1.561l.148.021.008.002.087.025.059.021.108.045.214.112.064.04c.115.074.233.163.341.267l.064.062.062.066.061.07.057.074.044.061.062.097.089.17.038.089.034.093.023.079.038.174.009.066.008.085.004.108c0 .163-.023.335-.074.519-.312 1.105-1.836.431-2.856.797-1.022.367-.329 1.889-1.716 2.237.63 2.35-1.862 2.466-3.681 1.272.454.331.872.577 1.255.751l.25.106c.202.081.394.14.573.18l-.095.081-.091.089-.081.097-.074.106-.059.104-.006.011-.049.117-.036.119-.004.019-.021.117.002.004zm22.145-5.762l.132-.059-.144.062-.009.004-.034.009h-.002l-.068.017-.074.013-.055.006-.282.009-.271-.017-.449-.053c.308.515.464 1.516.051 2.237.515-.695.643-1.465.335-2.006l.119.004.036-.002.059-.008.059-.011.057-.013.091-.026.182-.062.1-.038.14-.057.006-.002.009-.004.012-.003zm-2.676-2.553l.059-.153-.059.153c-.278.643-.963 1.126-1.868 1.363.386.206 2.222 1.451.874 3.342-.265.371-.534.647-.806.846-.136.1-.274.18-.411.244-.161.074-.322.127-.484.161l-.068.013c-.326.057-.653.04-.978-.019l-.449-.104-.112-.032-.221-.07-.064-.021-.214-.074-.273-.098-.326-.115-.034-.011-.286-.095-.229-.066-.191-.049-.208-.04-.18-.023-.017-.002.017-.163.002-.015.006-.167c0-.293-.045-.59-.102-.872.051 1.183-.206 1.542-.952 2.57l.11-.059.066-.04.108-.07.017-.011.104-.079.104-.091.11-.11.079-.095.057-.078.114-.195.036-.079.061-.163.023-.081c.25.009.486.038.71.076l.034.006.483.11.123.034.17.051.297.098.174.059.159.057.176.062.11.038.244.081.184.055.104.028.418.083.081.009c.748.074 1.516-.18 2.536-1.264 1.028-1.092.36-2.699-.77-3.495.293-.121.957-.454 1.352-1.44zm-3.147.053c-.636-.231-.308-1.542-.751-2.428 0 0-.15-.31-.462-.623-.339-.341-.872-.681-1.616-.617l-.185.023-.095.019c-.193.04-.401.106-.621.21l-.223.112-.348.208h-.002c-.04-.132-.097-.259-.168-.377l-.078-.117-.079-.102-.221-.218-.102-.079c-.952-.668-2.224-.38-2.916.341 1.207-.617 2.082-.537 2.672-.089.59.449.976 1.758 0 2.812l.093-.07.076-.061.095-.083.078-.074.074-.076.068-.078.123-.157c.172.184.322.382.45.581l.023.036.14.248.062.125c.097.208.167.411.206.592l.019.106.013.267-.157.04-.078.026c-.102.036-.202.087-.299.149l-.064.04-.013.009-.064.047c-.142.104-.276.229-.405.371l-.064.072-.098.117-.026.034-.121.159-.231.337-.081.131-.017.028-.104.174-.011.021-.102.182-.002.002-.097.178h-.002c-.057-.195-.14-.384-.24-.564.093.452.125.852.081 1.2l-.023.148-.032.142-.042.136-.04.098-.074.151-.153.225-.093.102c-.131.134-.29.25-.481.35l-.308.136-.089-.076-.032-.026-.195-.144-.132-.087-.095-.055c-.25-.146-.53-.267-.842-.36l-.125-.034-.146-.036-.149-.032-.153-.028c2.025.424 3.141 2.564 2.487 3.817-.655 1.253-2.042 1.465-3.16.751.25.231.443.655.29 1.156.089-.199.172-.507.134-.751 1.079.52 2.755.057 3.083-1.465.068-.32.081-.642.036-.958l-.008-.053-.038-.191-.004-.013-.064-.225-.064-.167-.04-.093c-.072-.157-.159-.31-.265-.454-.076-.108-.163-.212-.259-.312l.112-.049.03-.015.14-.068.026-.015.146-.085.136-.091.002-.002.125-.098.112-.102.079-.081.108-.132.057-.083.136-.261.044-.121.032-.121.002-.006c.047-.214.049-.433.017-.651v-.006l.049-.121c.172-.396.53-.976.98-1.402l.146-.131.187-.142.097-.062.076-.045.062-.03.062-.03.085-.034.074-.026.064-.019.18-.032.104-.006c.131 0 .265.025.397.079 1.126.467.831 1.633 1.328 2.371.405.596.791.655 1.639.308-2.023.615-1.253-1.698-2.159-2.602l-.079-.066-.155-.115-.076-.051-.151-.089-.138-.066-.155-.059-.142-.038c-.155-.032-.305-.038-.449-.019.032-.167.034-.458-.019-.78l-.055-.259-.038-.134-.045-.134c-.053-.148-.121-.291-.208-.42l-.07-.1-.176-.195-.072-.057-.038-.028-.078-.049-.03-.019c.165-.314.233-.64.214-.952.246-.163.483-.29.713-.382l.098-.036.079-.026.117-.036.083-.021c.515-.119 1.011-.053 1.525.201 1.444.711.731 2.909 1.616 3.005zm-1.635 10.382c.195-.344.492-2.159-1.493-2.288-1.985-.127-1.76 3.111-4.476 2.863-.017.676-2.733 2.663-3.915.248.335.848.695 1.156 1.414 1.455.719.301 1.877-.197 2.674-1.455 1.65.411 2.517-1.569 3.289-2.468.77-.899 2.049-.006 2.235.539.174.509.11 1.179-.57 1.841-.045-.146-.112-.295-.202-.447l-.062-.104-.008-.011-.079-.117-.184-.237c.464.925.386 1.953-.308 2.827l.108-.078.197-.159.089-.083c.114-.11.21-.225.288-.346l.146-.28c.095-.248.117-.513.061-.791l-.023-.1.114-.064.115-.079.223-.195.106-.112c.1-.115.191-.238.261-.359zm-14.509-7.093c0-1.94 1.022-2.973 3.34-2.735-1.207-.189-3.751-.541-3.546 2.26-.397-.174-.99-.212-1.542.115.624-.134 1.408-.069 1.748.36z"/><path fill="#323436" d="M119.087 112.662l-.132.059.132-.059z"/><path fill="#fff" d="M118.943 112.725l.144-.062-.132.059-.012.003zM118.943 112.725l-.009.004.009-.004z"/><path fill="#323436" d="M118.934 112.729l-.006.002-.028.008.034-.01zM118.928 112.73l-.14.057-.1.038-.182.062-.091.026-.057.013-.059.011-.059.008-.036.002-.119-.004c.308.541.18 1.311-.335 2.006.413-.721.257-1.722-.051-2.237l.449.053.271.017.282-.009.055-.006.074-.013.068-.017h.002l.028-.007zM118.829 112.755l.068-.017-.068.017zM117.758 121.719c1.02-.959 1.436-2.46.867-4.328l.015-.038.161-.187c.254.452 1.351 2.651-.587 4.464-1.849 1.728-4.258 1.484-4.818 1.317l.034-.129.288.036.454.032h.011c.649.025 1.26-.045 1.813-.202l.403-.132c.261-.098.505-.218.732-.358l.327-.223.3-.252zM115.37 105.853c1.641-.308 3.51 1.539 3.408 3.705l-.051-.006s-.026.081-.025.308l.045.011-.034.21-.047.21-.049.174-.021.062-.061.172-.049.119-.045.106c-.064.142-.14.286-.225.428l-.062.098-.068.104c.906-1.368.57-3.461-.547-4.572-.481-.477-1.105-.772-1.838-.751-.102-.132-.212-.258-.331-.378zM118.727 109.553l.051.006-.03.314-.045-.011c-.002-.228.024-.309.024-.309zM118.754 117.083l.047.083-.161.187c.066-.187.089-.319.114-.27zM118.701 112.774l.055-.006-.055.006zM118.714 110.083l.034-.21-.034.21zM118.667 110.293l.047-.21-.047.21zM118.618 110.467l.049-.174-.049.174zM118.638 117.352l-.002.006-.114.114.116-.12zM118.536 110.702l.061-.172-.061.172zM118.442 110.927l.045-.106-.045.106zM118.364 117.609l.061-.051-.061.051zM118.148 112.766l.271.017-.271-.017zM118.154 111.453l.062-.098-.062.098zM118.124 117.783l.07-.045-.07.045zM116.475 120.056l.146.161c-.121-.138-.252-.227-.397-.284l-.045-.015c-.195-.064-.414-.074-.668-.068l-.138.004.015-.308c.114-.002.242.019.377.061l.083.03.155.07c.162.082.325.198.472.349zM116.441 108.011l-.044-.242.044.242zM116.398 107.768l.044.242c-.159-.52-.371-1.05-.702-1.516l-.146-.189c-.225-.274-.501-.52-.842-.721-.634-.377-1.493-.596-2.683-.556h-.002l-.316-.212c1.442-.312 2.75.15 3.62 1.037l-.112.025s.257.206.36.36l.083-.004v.002l.002.002.136.191v.002l.114.182.03.053.085.161.021.04.087.193.008.019.072.187.026.074.057.187.059.238-.001.003zM116.428 117.507l-.189.165c-.144.123-.288.242-.449.346l-.076.047-.25.129-.28.098-.028-.093-.193.04.015.097-.225.028-.119.008h-.006c-.201.008-.426-.004-.679-.04l-.131-.019-.263-.047-.074-.015-.291-.07-.078-.019c1.505.153 2.302-.051 3.316-.655zM116.398 107.765l-.059-.238.059.238zM116.339 107.526l-.057-.187.057.187zM116.337 110.015l-.059.153.059-.153zM116.256 107.265l-.072-.187.072.187zM116.224 119.933l-.045-.015.045.015zM116.176 107.059l-.087-.193.087.193zM116.068 106.826l-.085-.161.085.161zM115.79 118.018c.161-.104.305-.223.449-.346-.144.124-.288.244-.449.346zM115.953 106.612l-.114-.182.114.182zM116.002 119.706l-.155-.07.155.07zM115.839 106.429l-.136-.191.136.191zM115.715 118.065l.076-.047-.076.047zM114.925 111.608c1.13.797 1.798 2.403.77 3.495-1.02 1.084-1.788 1.338-2.536 1.264l-.081-.009-.418-.083-.104-.028-.184-.055-.244-.081-.11-.038-.176-.062-.159-.057-.174-.059-.297-.098-.17-.051-.123-.034c-.155-.044-.314-.079-.483-.11l-.034-.006c-.223-.042-.458-.068-.708-.078l.04-.201.017.002.18.023.208.04.191.049.229.066.286.095.034.011.326.115.273.098.214.074.064.021.221.07.112.032c.149.044.299.078.449.104.326.059.653.076.978.019l.068-.013c.163-.032.324-.085.484-.161.136-.062.274-.144.411-.244.273-.199.541-.475.806-.846 1.347-1.891-.488-3.136-.874-3.342.905-.237 1.59-.719 1.868-1.363-.396.987-1.06 1.32-1.354 1.441zM115.701 106.234l-.083.004c-.102-.153-.36-.36-.36-.36l.112-.025c.119.12.229.246.331.381zM115.465 118.194l.25-.129-.25.129zM115.764 119.606c-.134-.042-.263-.062-.377-.061v-.004c.114-.002.242.019.377.065zM115.387 119.545l-.015.308v.002l-.062.002-.025-.308.1-.008v.004h.002zM115.384 119.542h.004v.002h-.004zM115.387 119.541h-.002l-.011-.284.013.284zM115.374 119.257l.011.284-.1.008.025.308.062-.002-.017.14-.049.265-.03.121c-.036.132-.083.259-.136.377l-.042.087-.14.254-.074.11c-.091.131-.189.25-.293.356l-.134.131-.025.023-.119.1c-.254.21-.509.358-.712.454l-.112.053-.004-.102s0-.129-.218-.168c.231-.062.435-.14.613-.229l.204-.114.18-.125.159-.134c.524-.486.676-1.151.676-1.843l-.009-.32-.002-.023-.013-.174c-.023-.255-.059-.509-.097-.755l.204-.045.091.339c.038.165.066.324.085.477l.016.147zM115.359 119.108l.015.149-.015-.149zM115.355 119.995l.017-.14-.017.14zM115.359 119.108c-.019-.153-.047-.312-.085-.477.041.167.068.325.085.477zM115.276 120.381l.03-.121-.03.121zM115.465 118.194l-.28.098.28-.098zM115.274 118.631l-.091-.339h.002l.089.339zM115.156 118.2l.028.093h-.002l-.204.045v-.002l-.015-.097.193-.039zM115.098 120.845l.042-.087-.042.087zM115.09 119.29l.009.32-.009-.32zM115.088 119.267l-.013-.174.013.174zM114.978 118.336v.002l-.225.026.225-.028zM114.634 118.372l.119-.008-.119.008zM114.628 118.372c-.201.009-.424-.002-.679-.04.253.036.479.047.679.04zM114.456 121.695l.134-.131-.134.131zM114.312 121.818l.119-.1-.119.1zM114.068 115.963c.136-.064.274-.144.411-.244-.136.1-.275.181-.411.244zM113.818 118.313l-.263-.047.263.047zM113.584 116.124c.163-.034.324-.087.484-.161-.161.075-.322.128-.484.161zM113.489 122.325l.112-.053-.112.053zM113.485 122.223l.004.102-.291.114.07-.384c.217.039.217.168.217.168zM113.489 122.325l-.019.278-.019.117-.021.098-.047-.006-.078.102.091.032c-.102.333-.31.712-.734.971-.924.564-1.13.36-1.72.746-.592.384-1.979 1.645-3.316 1.593-.606-.025-1.17-.091-1.595-.282l.104-.066c-.115-.078-.308-.153-.308-.153l-.1.042.002-.002c-.295-.223-.469-.556-.469-1.045l.03-.013.04.144.034.091.008.017.025.053.072.132.061.085.026.036.062.074.091.091.009.008.108.089.004.002.11.074.019.011.121.066.14.062.023.009.123.044.155.044.131.028.045.008.106.015.025.004.081.008.114.009.18.006c.897 0 1.964-.358 2.892-1.103l.199-.151.114-.078.125-.079.11-.066c.148-.085.29-.155.426-.214l.127-.053.123-.047c.43-.159.799-.237 1.099-.413l.074-.047.195-.157.072-.078.07-.089.061-.089.002-.004.061-.108.002-.002.078-.168.011-.028.045-.123.07-.235.044-.176.286-.114zM113.451 122.721l.019-.117-.019.117zM113.383 122.813l.047.006-.034.129-.091-.032.078-.103zM113.19 118.181l.291.07-.291-.07zM113.268 122.054l-.07.384h-.002l-.006.002.078-.386zM112.537 116.118c.326.059.653.076.978.019-.325.057-.652.04-.978-.019zM112.768 105.564l.208.18c-1.427-1.213-4.178-2.25-6.224-1.768-3.058.719-3.885 2.579-5.269 3.393-1.31.77-2.852-.257-3.673 2.568l.051-.324c.047-.255.108-.477.178-.674l.04-.108.004-.008.227-.409-.03.009c.842-1.357 2.445-.693 3.281-1.571 1.474-1.548 5.598-4.949 10.189-2.038l-.038.008.282.206.072-.002h.002l.255.185.259.199.186.154zM112.768 105.564l-.185-.151.185.151zM112.38 107.793c.443.886.115 2.197.751 2.428-.886-.097-.172-2.294-1.618-3.007-.515-.254-1.011-.32-1.525-.201l-.083.021-.117.036-.079.026-.098.036c-.231.093-.467.22-.713.382-.008-.132-.03-.263-.066-.388v-.002l.348-.208.223-.112c.22-.1.426-.168.621-.21l.095-.019.185-.023c.744-.062 1.275.276 1.616.617.311.314.46.624.46.624zM112.583 105.412l-.259-.199.259.199zM110.857 111.146c.906.905.136 3.217 2.159 2.602-.848.346-1.234.288-1.639-.308-.498-.738-.202-1.904-1.328-2.371-.132-.055-.267-.079-.397-.079l-.104.006-.18.032-.064.019-.074.026-.085.034-.062.03-.062.03-.076.045-.097.062-.187.142-.146.131c-.45.426-.808 1.007-.98 1.402l-.049.121v.002l-.068-.301.002-.002.097-.178.002-.002.102-.182.011-.021.104-.174.017-.028.081-.131.231-.337.121-.159.026-.034.098-.117.064-.072c.129-.14.263-.265.405-.371l.064-.047.013-.009.064-.04.299-.149.078-.026.157-.038-.019.132c.032.004.059-.049.076-.142.144-.019.293-.015.449.017l.142.038.155.059.138.066.151.089.076.051.155.115.08.067zM112.323 105.214l-.255-.185.255.185zM112.089 116.014l.449.104-.449-.104zM112.066 105.028l-.072.002-.282-.206.038-.008.316.212zM111.756 115.912l.221.07-.221-.07zM111.691 115.891l-.214-.074.214.074zM110.003 118.315c1.985.129 1.688 1.944 1.493 2.288-.07.121-.161.244-.263.36l-.106.112-.223.195-.115.079-.114.062-.021-.072c.679-.662.744-1.332.57-1.841-.185-.545-1.465-1.438-2.235-.539-.772.899-1.639 2.878-3.289 2.468-.797 1.258-1.955 1.756-2.674 1.455-.719-.299-1.079-.607-1.414-1.455 1.183 2.415 3.898.428 3.915-.248 2.716.247 2.491-2.991 4.476-2.864zM111.315 124.155l-.123.047.123-.047zM111.127 121.074l.106-.112-.106.112zM111.192 124.202l-.127.053.127-.053zM110.879 115.603l.326.115-.326-.115zM110.789 121.349l.115-.079-.115.079zM110.675 121.411l.114-.062-.114.064v-.002zM110.637 122.304c.093-.248.115-.513.061-.791.057.278.034.543-.061.791zM110.698 121.513c.055.278.032.543-.061.791l-.146.28c-.078.119-.174.235-.288.346l-.089.083-.197.159-.108.078c.695-.874.772-1.902.308-2.827l.184.237.079.117.008.011.062.104c.089.153.155.303.201.449l-.148.136.168-.062.027.098zM110.622 110.965l.155.115-.155-.115zM110.698 121.513l-.025-.098.002-.002.023.1zM110.675 121.413l-.002.002v-.002zM110.675 121.411v.002h-.002v.002l-.168.062.148-.136.002-.002.02.072zM110.56 115.497l.286.095-.286-.095zM110.654 121.339l-.002.002c-.045-.146-.112-.295-.201-.449.092.152.158.301.203.447zM110.639 124.469l-.11.066.11-.066zM110.302 106.554c.744-.064 1.277.276 1.616.617-.34-.341-.872-.68-1.616-.617zM110.395 110.825l.151.089-.151-.089zM110.452 120.892l-.062-.104.062.104zM110.382 120.777l-.079-.117.079.117zM110.491 122.584c-.078.121-.174.237-.288.346.114-.111.211-.227.288-.346zM110.139 115.382l.191.049-.191-.049zM110.302 106.554l-.185.023.185-.023zM110.102 110.7l.155.059-.155-.059zM110.117 106.576l-.095.019.095-.019zM109.918 123.173l.197-.159-.197.159zM109.931 115.342l-.18-.023.18.023zM109.657 114.101c.057.282.102.579.102.872l-.006.167-.002.015-.017.163-.104-.008-.078.204.142.004-.002.002-.023.081-.061.163-.036.079-.114.195-.057.078-.079.095-.11.11-.104.091-.104.079-.017.011-.108.07-.066.04-.11.059c.748-1.028 1.005-1.388.954-2.57zM109.753 115.139l.006-.167-.006.167zM109.734 115.317l.017-.163-.017.163zM109.511 110.643c.144-.019.293-.013.449.019-.155-.032-.305-.036-.449-.017v-.002zM109.63 115.31l.104.008-.04.201-.142-.004.078-.205zM109.67 115.601l.023-.081-.023.081zM109.651 110.989l-.104.006.104-.006zM109.67 115.601l-.061.163.061-.163zM109.574 115.843l.036-.079-.036.079zM109.492 109.863c.053.322.051.613.019.78l-.057.009-.013-.267-.019-.106c-.038-.182-.108-.384-.206-.592l-.062-.125-.14-.248-.023-.036c-.127-.201-.276-.399-.45-.583l.142-.229.03.019.078.049.038.028.072.057.176.195.07.1c.087.129.155.273.208.42l.045.134.038.134.054.261zM109.511 110.643v.002c-.017.093-.044.146-.076.142l.019-.132v-.002l.057-.01zM110.022 106.595c-.195.042-.401.11-.621.21.22-.104.428-.17.621-.21zM109.454 110.653v.002l-.157.038.157-.04zM109.4 109.47l-.045-.134.045.134zM109.297 110.692l-.078.026.078-.026zM109.401 106.805l-.223.112.223-.112zM109.229 111.073l-.085.034.085-.034zM109.22 110.719l-.299.149c.096-.062.197-.113.299-.149zM108.943 111.213l-.097.062.097-.062zM108.921 110.868l-.064.04.064-.04zM108.896 107.515c.019.312-.049.638-.214.952l-.002-.002c.165-.312.231-.638.214-.948l.002-.002zM108.9 108.62l-.072-.057.072.057zM108.896 107.515l-.002.002-.176.121s0-.269-.019-.424l.127-.085.004-.002c.036.125.059.255.066.388zM108.894 107.517c.017.31-.049.636-.214.948l-.03-.017c-.089.078-.15.204-.15.204l.04.044v.002l-.002-.002-.121.159-.068.078-.074.076-.078.074-.095.083-.076.061-.093.07c.976-1.054.59-2.364 0-2.812-.59-.449-1.465-.528-2.672.089.693-.721 1.964-1.009 2.916-.341l.102.079.221.218.079.102.078.117c.07.119.127.246.167.378v.002l-.127.085c.019.155.019.424.019.424l.178-.121zM108.815 116.612l.066-.04-.066.04zM108.843 110.917l-.064.047.064-.047zM108.83 107.125v.002l-.004.002v-.002l.002-.002zM108.828 107.125l-.002.002c-.04-.132-.097-.259-.167-.378.073.117.129.244.169.376zM108.79 108.535l-.078-.049.078.049zM108.68 108.465l.002.002-.142.229-.04-.044s.061-.127.15-.204l.03.017zM108.66 106.748l-.078-.117.078.117zM108.582 106.631l-.079-.102.079.102zM108.538 108.696l.002.002-.123.157.121-.159zM108.779 110.965c-.142.106-.276.231-.405.371.129-.142.263-.267.405-.371zM108.349 108.932l.068-.078-.068.078zM108.374 111.336l-.064.072.064-.072zM108.31 111.408l-.098.117.098-.117zM108.281 106.311l-.102-.079.102.079zM108.198 109.082l.078-.074-.078.074zM108.185 111.559l-.121.159.121-.159zM108.028 109.226l.076-.061-.076.061zM107.833 112.055l-.081.131.081-.131zM107.734 112.214l-.104.174.104-.174zM107.619 112.409l-.102.182.102-.182zM107.515 112.592l-.097.178.097-.178zM107.484 113.071l.049-.121-.049.121zM107.484 113.077c.032.218.03.437-.017.651l-.002.006-.032.121-.044.121-.136.261-.057.083-.108.132-.079.081-.112.102-.125.098-.002.002-.136.091-.146.085-.026.015-.14.068-.03.015-.114.047-.167-.161.308-.138c.193-.098.354-.216.481-.35l.093-.102.153-.225.074-.151.04-.098.042-.136.032-.142.023-.148c.044-.348.011-.748-.081-1.2.1.18.184.369.24.564v.002l-.066.129.078.365.056-.188zM107.484 113.073v.004l-.057.189-.078-.365.066-.129.069.301zM106.922 116.568c.045.316.032.638-.036.958-.327 1.522-2.004 1.985-3.083 1.465.038.244-.045.553-.134.751.153-.501-.04-.925-.29-1.156 1.118.713 2.506.501 3.16-.751.655-1.253-.462-3.393-2.487-3.817l.153.028.149.032.146.036.125.034c.312.093.592.214.842.36l.095.055.132.087.195.144.032.026.089.078-.07.026.193.153.044-.019.002.002h-.002c.097.1.184.204.261.312.104.146.191.297.265.454l.04.093.064.167.064.225.004.013.038.191.009.053zM106.826 125.924l.081.008-.081-.008zM106.877 116.324l.038.191-.038-.191zM106.809 116.086l.064.225-.064-.225zM106.744 115.919l-.04-.093.04.093zM106.705 115.826c-.074-.157-.161-.308-.265-.454.106.144.193.297.265.454zM106.413 123.591l-.235.384-.078.11-.028.034-.11.134c-.093.104-.197.201-.316.286l-.068.045-.085.051-.023.013-.148.074-.034.015-.026-.151-.008.165v.002l-.102.038-.142.042-.085.021-.235.042-.068.008-.078.008-.157.009-.151.004c-.297 0-.638-.032-1.031-.102 1.528-.013 2.739-.545 3.208-1.232zM106.44 115.372c-.078-.108-.165-.212-.261-.312h.002c.096.1.183.204.259.312zM106.179 115.058l-.044.019-.193-.153.07-.026.167.16zM106.101 124.085l.078-.11-.078.11zM106.135 125.909l-.104.066c-.112-.049-.214-.11-.305-.178l.1-.042s.194.077.309.154zM105.963 124.253l.11-.134-.11.134zM105.726 125.798c.091.068.193.129.305.178-1.938 1.173-5.125.261-6.449-.876-6.591 2.314-7.785-3.083-6.599-6.47l.189.168-.061.295-.051.29-.044.282-.036.273c-.18 1.552.042 2.752.526 3.63l.218.348.119.161.259.293c.316.32.685.568 1.088.742.172.076.35.138.534.187l.187.045.38.066c.337.042.687.047 1.041.015l.151-.015.153-.021.324-.057c.199-.04.397-.091.596-.155l.151-.051.153-.055.151-.059.151-.062.149-.066h.002l.199.142c.009-.138.066-.273.066-.273 1.486 1.325 3.117 1.542 4.339 1.446l.237-.023.061-.008.354-.053.021-.004.144-.028.055-.011.184-.042.061-.015.257-.07.074-.023.227-.076.074-.028.06-.02zM105.728 125.796l-.002.002h-.002c-.293-.225-.469-.556-.469-1.045l.004-.002c0 .488.174.821.469 1.045zM105.579 124.585l.068-.045-.068.045zM105.494 124.636l.085-.051-.085.051zM104.595 108.577c.712.458 1.3 1.275.761 2.157-.539.884-1.255.931-1.476.918l-.002-.006v-.002l-.002-.004c-.013-.119-.044-.237-.083-.352h.002c.435.038.912-.151 1.234-.479.51-.518.629-1.381-.434-2.232zM105.471 124.649l-.148.074.148-.074zM105.371 124.99l.025.053-.025-.053zM105.289 124.738l-.03.013h-.004l.008-.165.026.152zM105.259 124.751l-.004.002v-.002zM104.926 124.853l.085-.021-.085.021zM104.627 114.148l-.125-.034.125.034zM104.545 124.91l.078-.008-.078.008zM104.502 114.114l-.146-.036.146.036zM104.237 124.923l.151-.004-.151.004zM104.356 114.078l-.149-.032.149.032zM103.013 116.029c.517.059 1.016.373 1.4.695-.441-.257-.912-.494-1.425-.547-.254-.025-.517.013-.744.131-.229.114-.418.291-.581.486-.331.392-.579.848-.933 1.228-.176.189-.38.36-.619.471l-.31.112-.098.021-.004-.013-.312.021-.036.028.028-.002-.019.078-.025.081-.019.057-.03.083-.03.076c-.061.142-.136.286-.223.414l-.051.076c-.087.123-.184.231-.286.314-.325.269-.723.479-1.132.572-.35.079-.715.097-1.073.044l.201-.057c-.231-.038-.539-.115-.539-.115l-.093.072-.174-.062-.049-.021-.119-.055-.274-.159-.255-.17c-.344-.214-.696-.543-1.09-.666-.197-.062-.396-.125-.589-.218l-.136-.07-.119-.076-.081-.059.011-.057-.201-.112c-.299-.32-.456-.729-.568-1.132-.11-.407-.155-.829-.146-1.249.021-.842.242-1.675.642-2.417.201-.371.45-.723.774-1.007.159-.142.335-.271.524-.375l.549-.274c.324-.189.524-.547.7-.908.083-.184.176-.378.282-.56.104-.184.218-.361.343-.534.492-.674 1.34-1.47 2.197-1.749-.07.117-.138.25-.197.399l-.004.008c-.719.327-1.294.865-1.773 1.506-.119.163-.229.331-.331.503-.102.174-.189.352-.28.541-.093.189-.195.377-.324.553-.125.176-.29.343-.486.454l-.56.274c-.172.093-.333.206-.484.337-.301.257-.539.585-.736.935-.39.706-.615 1.51-.643 2.316-.013.405.025.81.125 1.202.102.388.25.774.517 1.065.263.295.651.435 1.041.562.392.125.791.273 1.147.498.182.114.333.244.515.331.18.093.369.159.566.204.394.087.808.085 1.205.002.396-.085.778-.25 1.092-.505.316-.25.549-.672.638-1.067l.008-.028h.028c.254.002.515-.042.742-.148.229-.106.43-.305.604-.488.354-.371.59-.935.927-1.327.167-.195.333-.36.568-.473.231-.113.571-.078.827-.05zM103.834 112.288c.059-.212.07-.431.042-.645l.002.002v.002c.028.213.016.431-.044.641zM103.876 111.642c.028.214.017.433-.042.645l-.108.284c-.655 1.311-2.294.396-3.045.829-.867.501-.378 1.781-1.58 1.985.305.464.363 1.009.193 1.451l-.053.117-.03.059-.07.108v.002l-.081.1v.002c-.307.343-.818.539-1.523.431.142-.074.312-.132.515-.17h-.53l-.195.132h-.002c-.18-.042-.371-.1-.573-.18l-.25-.106c-.382-.174-.8-.42-1.255-.751 1.819 1.194 4.311 1.079 3.681-1.272 1.387-.348.695-1.87 1.716-2.237 1.02-.365 2.543.308 2.856-.797.051-.184.074-.356.074-.519l-.004-.108-.008-.085-.009-.066-.038-.174-.023-.079-.034-.093-.038-.089-.089-.17-.062-.097-.044-.061-.057-.074-.061-.07-.062-.066-.064-.062c-.108-.104-.225-.193-.341-.267l-.064-.04-.214-.112-.108-.045-.059-.021-.087-.025c.416.061.78.229 1.067.464.108.089.206.187.291.293l.011.013.07.095.074.112.055.095.045.093.03.068.04.102-.072-.008.155.36v.004zM103.876 111.64l.001.004-.001-.002zM103.792 111.288c.04.115.07.233.083.352l-.155-.36.072.008zM103.677 111.025l-.055-.095.055.095zM103.622 110.931l-.074-.112.074.112zM103.573 111.758l-.004-.108.004.108zM103.548 110.819l-.07-.095.07.095zM103.514 111.324l-.023-.079.023.079zM103.491 111.245l-.034-.093.034.093zM103.457 111.152l-.038-.089.038.089zM103.419 111.063l-.089-.17.089.17zM103.467 110.711c-.085-.106-.184-.204-.291-.293.109.087.206.187.291.293zM103.268 110.796l-.044-.061.044.061zM103.168 110.662l-.061-.07.061.07zM103.107 110.592l-.062-.066.062.066zM103.045 110.526l-.064-.062.064.062zM102.64 110.196l-.064-.04.064.04zM103.175 110.418c-.288-.235-.651-.403-1.067-.464l-.008-.002-.04-.009c.438.055.818.227 1.115.475z"/><path fill="#fff" d="M102.1 109.952l-.047-.009h.008l.039.009z"/><path fill="#323436" d="M102.053 109.943l-.015-.002-.017-.004.032.006zM102.038 109.941l-.085-.009.068.006.017.003zM102.021 109.937l-.068-.006.068.006zM101.953 109.932c.528-.617-.121-1.484-.649-1.561 1.453.206 1.137 1.509.649 1.561zM100.865 119.556c.119.023.229.025.324.006-.409.115-.789.036-1.111-.165l-.157-.114-.178-.163-.072-.078-.078-.095-.068-.093-.064-.098-.057-.098.299-.034.045.125.04.078.059.095.068.089c.119.144.276.267.443.358.165.095.341.159.503.187h.004zM99.92 119.284l.157.114-.157-.114zM100.327 110.776c-2.318-.238-3.34.795-3.34 2.735-.341-.43-1.124-.494-1.749-.36.553-.327 1.145-.29 1.542-.115-.204-2.802 2.34-2.45 3.547-2.26zM99.703 118.625l.098-.021-.098.021zM99.671 119.044l.072.078-.072-.078zM99.699 118.612l.004.013-.299.034h-.002l-.002-.002-.013-.025.312-.02zM99.525 118.856l.068.093-.068-.093zM99.582 124.753s-.057.134-.066.273l-.199-.142.265-.131zM99.404 118.659l.057.098-.059-.098h.002zM99.582 124.753l-.265.131-.057-.045-.214-.193-.1-.104-.1-.112-.098-.117-.095-.123-.091-.131-.083-.134-.055-.098-.047-.093-.026-.057-.03-.07-.045-.117-.04-.121-.04-.17c-.963.969-1.991 1.196-2.852.954 1.149.008 2.207-.674 3.056-1.461.165 1.098.72 1.637 1.182 2.061zM99.4 118.657l.002.002h-.021l.019-.002zM99.387 118.633l.013.025-.019.002.006-.027zM99.387 118.633l-.006.026h-.002l-.028.002.036-.028zM99.379 118.659h.002l-.021.078.019-.078zM99.336 118.818l.025-.081-.025.081zM99.241 116.954l.053-.117-.053.117zM99.141 117.121l.07-.108-.07.108zM99.059 117.223l.081-.1-.081.1zM98.376 123.733l.047.093-.047-.093zM98.319 123.606l.03.07-.03-.07zM98.31 108.416l-.227.409c.059-.149.127-.282.197-.399l.03-.01zM98.083 108.824l-.004.008.004-.008zM98.079 108.832l-.04.108.04-.108zM97.536 117.656c.706.108 1.217-.089 1.523-.431-.305.344-.818.541-1.527.433l.004-.002zM97.326 117.619l.195-.132h.53c-.202.038-.373.097-.515.17l-.004.002-.206-.038v-.002zM97.861 109.614l-.051.324.051-.324zM97.532 117.658l-.104.059c-.17.1-.297.221-.388.337l-.006.006-.045.062-.049.074-.03.053-.026.047-.062.148-.011.036.021-.117.004-.019.036-.119.049-.117.006-.011.059-.104.074-.106.081-.097.091-.089.097-.079.203.036zM97.326 117.619v.002l-.097.079.095-.081h.002zM97.229 117.7l-.091.089.091-.089zM97.057 117.885l-.074.106.074-.106zM96.983 117.991l-.059.104.059-.104zM96.919 118.107l-.049.117.049-.117zM97.324 117.619c-.18-.04-.371-.098-.573-.18.202.079.393.138.573.18zM96.87 118.224l-.036.119.036-.119zM96.83 118.362l-.021.117.021-.117zM96.501 117.333l.25.106-.25-.106zM96.692 120.397l-.201.057h-.002l-.176-.03-.254-.07.093-.072c.001-.001.309.077.54.115zM96.489 120.453l-.078.034-.017.006-.062.034-.028.017-.064.042-.011.008-.072.055-.074.064-.127.136-.184.267-.042.076-.036.068-.055.115-.049.115-.095.255-.004-.274.006-.079.036-.229.021-.078.015-.047.025-.068.028-.066c.087-.193.227-.378.437-.551l.254.07.176.03zM96.06 120.353l-.174-.062.174.062zM95.695 121.26l-.055.115.055-.115zM95.64 121.375l-.049.115.049-.115zM95.555 121.085l-.021.078.021-.078zM93.172 118.798l.081.059-.081-.059zM93.183 118.741l-.011.057-.189-.168.2.111z"/></g><path fill="none" d="M78.843 74.114h47.311v56.773h-47.311z"/></svg>