<svg version="1.2" baseProfile="tiny" xmlns="http://www.w3.org/2000/svg" width="205" height="205" viewBox="0 0 205 205"><path fill="#629AD2" d="M136.723 102.276c0 18.902-15.324 34.224-34.225 34.224-18.906 0-34.227-15.322-34.227-34.224 0-18.901 15.321-34.223 34.227-34.223 18.9 0 34.225 15.321 34.225 34.223z"/><g><path fill="#373737" d="M102.503 181.676c43.847 0 79.406-35.559 79.406-79.406s-35.559-79.406-79.406-79.406-79.406 35.559-79.406 79.406 35.558 79.406 79.406 79.406zm77.078-22.046c2.668 3.35 2.082 5.053 1.306 6.037-.795.984-2.366 1.874-6.188-.057-3.69-1.798-8.611-2.195-11.619.095-.322.284-.624.568-.927.852-2.498 2.858-2.422 7.797-.871 11.601 1.684 3.993.643 5.431-.397 6.169-1.003.757-2.744 1.211-5.942-1.703-3.066-2.725-7.683-4.428-11.222-3.047-.378.208-.757.416-1.154.606-3.122 2.101-4.39 6.851-3.936 10.9.53 4.258-.814 5.469-2.025 5.848-1.192.416-2.99.416-5.261-3.236-2.271-3.558-6.377-6.51-10.2-5.942-.284.057-.549.132-.833.17-3.709 1.022-6.283 5.374-6.964 9.481-.624 4.296-2.29 4.958-3.539 5.072-1.249.114-2.971-.397-4.182-4.561-1.192-3.898-4.239-7.759-7.948-8.421l-1.381-.095c-3.766.189-7.305 3.596-8.989 7.286-1.76 3.917-3.539 4.201-4.788 3.955-1.23-.265-2.744-1.23-2.801-5.526-.095-4.125-2.044-8.724-5.507-10.295l-1.079-.397c-3.69-.908-8.062 1.419-10.73 4.542-2.782 3.369-4.523 3.066-5.658 2.498-1.135-.549-2.347-1.892-1.211-6.075 1.003-3.955.397-8.838-2.422-11.336-.36-.265-.719-.511-1.098-.776-3.293-1.817-8.081-.757-11.487 1.514-3.539 2.441-5.223 1.779-6.113.889-.908-.889-1.76-2.441.454-6.169 2.063-3.577 2.801-8.478.681-11.619-.227-.284-.454-.587-.7-.871-2.63-2.763-7.626-3.047-11.582-1.76-4.05 1.419-5.45.284-6.15-.776-.643-1.098-.965-2.858 2.138-5.829 2.933-2.895 4.958-7.437 3.766-11.052-.151-.36-.303-.7-.473-1.06-1.836-3.312-6.529-4.92-10.616-4.731-4.353.246-5.356-1.23-5.696-2.441-.378-1.211-.227-3.009 3.615-5.034 3.577-1.949 6.737-5.734 6.623-9.519l-.17-1.325c-.946-3.652-4.977-6.434-8.951-7.362-4.201-.908-4.826-2.593-4.845-3.861.019-1.268.643-2.952 4.845-3.861 3.974-.927 8.005-3.709 8.951-7.362l.17-1.325c.114-3.766-3.047-7.551-6.623-9.519-3.842-2.025-3.993-3.823-3.615-5.034.341-1.211 1.344-2.687 5.696-2.422 4.088.17 8.781-1.419 10.616-4.731.17-.378.322-.719.473-1.079 1.192-3.615-.833-8.156-3.766-11.052-3.104-2.971-2.782-4.731-2.138-5.829.7-1.06 2.101-2.176 6.15-.776 3.955 1.287 8.951 1.003 11.582-1.76.246-.284.473-.568.7-.871 2.12-3.141 1.381-8.043-.681-11.619-2.214-3.728-1.363-5.28-.454-6.169.889-.889 2.574-1.552 6.113.889 3.406 2.271 8.194 3.331 11.506 1.514l1.079-.776c2.82-2.498 3.425-7.362 2.422-11.336-1.135-4.182.076-5.526 1.211-6.075 1.135-.568 2.876-.852 5.658 2.498 2.668 3.141 7.04 5.45 10.73 4.523l1.079-.36c3.463-1.59 5.412-6.188 5.507-10.314.057-4.296 1.571-5.242 2.801-5.526 1.249-.246 3.028.038 4.788 3.974 1.703 3.671 5.223 7.078 8.989 7.267l1.381-.095c3.709-.662 6.756-4.523 7.948-8.421 1.211-4.163 2.933-4.674 4.182-4.561 1.249.114 2.914.776 3.539 5.072.681 4.125 3.255 8.459 6.964 9.481.284.038.549.114.833.17 3.823.549 7.929-2.384 10.2-5.942 2.271-3.652 4.069-3.652 5.261-3.236 1.211.378 2.555 1.609 2.025 5.848-.454 4.05.814 8.8 3.936 10.9.397.208.776.397 1.154.606 3.539 1.381 8.156-.322 11.222-3.047 3.198-2.933 4.939-2.441 5.942-1.703 1.041.738 2.082 2.176.397 6.188-1.552 3.785-1.627 8.743.871 11.582.303.303.606.587.927.871 3.009 2.271 7.929 1.873 11.619.076 3.823-1.93 5.393-1.041 6.188-.057.776 1.003 1.363 2.687-1.306 6.037-2.574 3.35-3.974 8.213-2.157 11.619l.435.7c2.214 3.16 7.153 4.144 11.279 3.387 4.239-.833 5.45.473 5.98 1.627.549 1.135.568 2.971-2.895 5.488-3.274 2.422-5.885 6.586-5.28 10.295l.36 1.287c1.4 3.52 5.81 5.734 9.86 6.094 4.315.341 5.185 1.93 5.318 3.198.151 1.249-.189 3.009-4.258 4.485-3.936 1.495-7.664 4.92-7.872 8.8v.756c.208 3.879 3.936 7.305 7.872 8.8 4.069 1.495 4.409 3.236 4.258 4.485-.132 1.268-1.003 2.858-5.318 3.198-4.05.378-8.459 2.593-9.86 6.094l-.36 1.287c-.606 3.709 2.006 7.872 5.28 10.314 3.463 2.498 3.444 4.334 2.895 5.469-.53 1.154-1.741 2.479-5.98 1.627-4.125-.757-9.065.227-11.279 3.387-.151.246-.284.473-.435.7-1.817 3.413-.417 8.295 2.157 11.626z"/><path fill="#fff" d="M23.097 102.27c0-43.847 35.559-79.406 79.406-79.406s79.406 35.559 79.406 79.406-35.559 79.406-79.406 79.406-79.406-35.558-79.406-79.406z"/></g><path fill="#629AD2" d="M178.598 102.268c0 42.025-34.07 76.09-76.093 76.09-42.033 0-76.096-34.065-76.096-76.09 0-42.022 34.064-76.086 76.096-76.086 42.022 0 76.093 34.064 76.093 76.086z"/><g fill="#323436"><path d="M138.328 93.362l1.304-2.012 5.449 1.022-6.688-4.785-1.304 2.013-5.449-1.022zM139.472 58.129l-.497-2.539 4.993-3.293-8.777 1.304.5 2.538-4.994 3.294zM144.688 76.585l.632-3.213 7.425-1.47-10.906-2.67-.631 3.213-7.425 1.471z"/></g><g fill="#323436"><path d="M65.521 55.45l-1.304 2.013-5.449-1.023 6.689 4.785 1.303-2.012 5.449 1.022zM64.377 90.684l.497 2.539-4.993 3.293 8.777-1.305-.499-2.538 4.993-3.293zM59.161 72.227l-.632 3.213-7.425 1.47 10.907 2.67.63-3.213 7.426-1.471z"/></g><g fill="#323436"><path d="M112.392 104.87c.406 0 .763-.214.979-.589.258-.446.27-1.024.031-1.438-.2-.346-.553-.539-1.012-.544-.006-2.224-.056-4.295-.061-5.56.316-.352.534-.781.627-1.308.906-5.107 9.951-8.227 9.951-19.604 0-11.17-9.055-19.636-20.225-19.636-11.171 0-20.226 8.466-20.226 19.636 0 11.378 9.045 14.498 9.951 19.604.093.527.312.957.627 1.308-.004.913-.03 2.245-.048 3.753l-.023.002c-.995.097-1.316.779-1.289 1.334.03.611.483 1.243 1.189 1.243l.11-.007c.001.485.005.974.012 1.459l-.021.002c-.995.097-1.316.78-1.289 1.334.03.611.483 1.244 1.189 1.244l.137-.008.059-.007c.027.575.063 1.126.108 1.641l-.204.023c-.995.097-1.316.779-1.289 1.335.03.612.483 1.244 1.189 1.244l.137-.008.565-.065c.186.65.428 1.034.741 1.034 0 0 .549.162 1.479.362.653 1.701 3.493 2.981 6.897 2.981 3.4 0 6.237-1.277 6.895-2.975.935-.203 1.481-.368 1.481-.368.577 0 .912-1.297 1.102-3.171l.233-.026c.406 0 .763-.215.979-.589.258-.446.27-1.024.031-1.438-.202-.351-.561-.545-1.028-.545l-.046.005c.021-.54.035-1.097.045-1.66l.017.002zM102.681 118.116c-3.715 0-6.904-1.275-8.472-3.281l-.41-.107c-.499-.091-1.149-.343-1.713-1-1.589-.354-2.802-1.771-2.887-3.515-.039-.785.173-1.599.632-2.283-.369-.558-.597-1.223-.632-1.945-.037-.749.154-1.524.569-2.186-.332-.537-.536-1.167-.569-1.847-.054-1.111.391-2.279 1.33-3.053l.003-.219.016-1.174c-.283-.501-.478-1.05-.583-1.641-.215-1.212-1.481-2.606-2.946-4.219-2.972-3.272-7.042-7.753-7.042-15.817 0-12.4 9.973-22.114 22.703-22.114s22.703 9.713 22.703 22.114c0 8.064-4.071 12.545-7.042 15.817-1.466 1.613-2.731 3.007-2.946 4.22-.105.591-.3 1.14-.582 1.64l.016 1.139.028 2.107c.271.244.505.531.692.856.676 1.172.664 2.709-.032 3.914l-.081.133.113.183c.676 1.17.664 2.707-.033 3.913-.284.492-.662.898-1.104 1.202-.302 1.614-1.005 3.532-2.906 3.793l-.356.094c-1.568 2.002-4.758 3.276-8.469 3.276zm-6.866-7.99l.489.11 1.311.282.481 1.252c.203.403 1.817 1.392 4.585 1.392s4.382-.989 4.589-1.402l.482-1.243 1.299-.273.469-.106c.055-.286.118-.694.175-1.262l.104-1.029.054-1.407c.02-.524.034-1.064.044-1.609l.02-1.135-.004-1.387c-.003-1.292-.022-2.532-.037-3.59-.012-.764-.021-1.435-.024-1.966l-.004-.954.637-.71.032-.086c.465-2.621 2.259-4.596 4.157-6.687 2.698-2.97 5.755-6.336 5.755-12.486 0-9.622-7.796-17.159-17.748-17.159s-17.748 7.537-17.748 17.159c0 6.149 3.057 9.516 5.755 12.486 1.899 2.091 3.693 4.065 4.157 6.686l.033.088.636.71-.004.953c-.002.539-.012 1.223-.024 2.002l-.024 1.769-.016 1.444.003 1.096c.001.474.004.953.011 1.428l.02 1.37.053 1.115c.026.555.06 1.073.102 1.541l.124 1.409.056.199z"/></g><path fill="#323436" d="M143.305 119.858c-.603-1.468-1.424-2.359-2.231-2.897-.283-2.304-1.315-4.502-2.954-6.22-1.731-1.815-3.965-2.863-6.14-2.882-1.946-1.589-4.368-2.453-6.937-2.453-.497 0-1 .033-1.503.098-1.171-.669-2.371-1.203-3.58-1.593-1.741-.625-3.841-.957-6.077-.957-.654 0-1.309.029-1.959.086-2.565-1.785-5.619-2.723-8.898-2.723-2.996 0-6.033.776-8.66 2.199-.809-.148-1.658-.222-2.537-.222-5.304 0-10.601 2.557-13.178 6.291-2.742 1.592-4.043 3.724-4.777 5.427-2.316 1.85-3.811 4.764-3.993 7.632-2.241 1.131-4.058 3.244-5.048 5.959-.911 2.496-.823 4.442-.55 5.841-.581 1.561-1.289 4.388-.662 7.92.838 4.715 4.493 6.771 7.605 7.162 1.337 1.372 3.789 3.234 7.234 3.234.346 0 .695-.02 1.044-.059.78 1.118 1.943 2.399 3.61 3.405 1.819 1.189 4.005 1.791 6.5 1.791 1.817 0 3.811-.325 5.945-.969 2.645 1.736 6.482 2.887 9.856 2.887 1.913 0 3.631-.339 5.125-1.01.89.236 1.941.369 3.253.419l.273.006c3.186 0 6.058-2.127 7.774-3.395.302-.224.588-.435.766-.551.282-.183.415-.22.813-.33.652-.18 1.544-.426 2.954-1.289.676-.413 1.253-.942 1.716-1.565.315.02.638.031.962.031h.001c2.218 0 6.475-.5 10.06-3.853 3.816-3.569 3.848-8.051 2.456-11.512 2.618-4.401 3.494-11.635 1.737-15.908z"/><g><path fill="#323436" d="M119.257 106.277l-.728.173-1.157-.387-1.759-.341h-1.456l-1.717.084-.753.185c-.156-.139-.307-.269-.467-.395 2.853-.384 5.853-.136 8.037.681zM111.688 105.991l.257.231-.311-.219.054-.012zM111.688 105.991l-.055.013-.572-.383.16-.025c.16.125.311.256.467.395zM111.633 106.003l-.606.147-1.283.429-1.717.77-1.54.985-.942.513s-1.628 1.372-2.129 1.531c.168-.475.223-.963.198-1.452.383-.366.825-.732 1.346-1.086l.24-.16.332-.206c.227-.135.467-.269.728-.404l.395-.194.501-.219c.198-.084.404-.164.61-.236l.341-.118.21-.072c.694-.219 1.418-.391 2.158-.522l.572-.093h.012l.574.387zM111.221 105.595l-.16.025h-.004l-.021-.017-.518-.32c-.362-.219-.719-.417-1.073-.597l-.53-.261-.522-.231h-.004c-.345-.151-.69-.286-1.031-.4l-.097-.034-.408-.13-.421-.122-.084-.021-.492-.118-.488-.101-.021-.004-.459-.076-.332-.046c-.21-.025-.421-.046-.631-.059l-.446-.025-.454-.008c-.21 0-.421.004-.627.017-.206.008-.408.025-.61.046h-.017l-.53.063-.206.034-.341.059-.181.038-.37.076-.236.059c-.513.126-1.01.282-1.485.463l-.505.198c-.45.189-.879.395-1.287.61l-.395.219-.32.185c-.223.135-.442.269-.648.408l-.374.257c-1.565 1.094-2.588 2.188-2.928 2.575h-.004c-.151-.063-.307-.114-.467-.147l.286-.417.013-.021.311-.391c.396-.475.871-.934 1.409-1.363l.236-.181c.316-.244.648-.471 1.001-.694h.004l.219.05-.206-.059c4.345-2.707 11.283-3.708 16.454.461z"/><path fill="#FF74CF" d="M111.036 105.604l.021.017h-.008l-.572.093c-.741.126-1.464.303-2.158.522l-.21.072-.341.118c-.206.072-.412.151-.61.236l-.501.219-.395.194c-.261.13-.501.265-.728.404l-.332.206-.24.16c-.522.353-.963.719-1.346 1.086v-.013l-.017-.219-.008-.072-.029-.215-.013-.088-.046-.227-.046-.21-.05-.189c-.088-.324-.206-.648-.332-.959.126.501.189.934.189 1.367l-.013.316-.05.421-.05.282v.008l-.088.358v.004l-.231.257c-.303.345-.572.677-.837.997l-.194.236c-.219.269-.438.522-.669.753l-.332.316c-.16.139-.328.269-.509.391l-.173.114-.286.16-.282.135c-3.038 1.317-4.456-.059-6.77 2.684l-.114.055-.257.114-.151.072-.345.173-.198.109-.084.046-.13.08c-.017-.215-.05-.421-.101-.623l-.109-.379-.013-.042c-.063-.181-.139-.358-.227-.522l-.093-.168-.097-.164-.105-.16-.185-.244-.143-.16-.118-.118-.118-.109c.231.316.425.623.572.934l.135.316c.08.21.143.429.181.656l.017.126c.042.282.05.576.029.9l-.282.206c-.126.088-.257.194-.395.311l-.143.118-.454.395-.328.307c-2.853 2.714-2.743 4.54-3.774 5.482-1.283 1.801-3.257 1.372-5.226 4.628-2.402 3.345-1.46 8.57.084 11.057-.547 1.914-.884 3.446-.77 5.461l.038.45c.067.774.202 1.624.412 2.596.063.29.13.597.21.913-2.903.513-5.453.328-7.721-2.297l.358-.097.341-.135c.749-.328 1.443-.93 1.977-1.746l.105-.168.088-.151c.084-.151.164-.303.236-.467l.105-.248c.168-.421.299-.875.379-1.363l.042-.29.025-.227.013-.139c.013-.181.021-.37.021-.564l-.013-.206-.046-.328c-.067-.32-.194-.631-.358-.951l-.151-.286c-.303-.539-.698-1.094-1.098-1.7l-.265-.412-.261-.429-.252-.45-.236-.471-.109-.244-.105-.248c-.101-.257-.189-.522-.269-.795l.189.072.198.063c.273.08.568.139.896.168l.025.004.484.029c-1.876-.791-2.31-1.3-4.115-3.101.055.181.122.362.198.543l.088.202.042.084.097.194.164.282.109.16.126.173c.084.114.181.223.286.324l.16.151.173.143.185.139c.126.088.261.168.408.24.055.307.126.593.21.867l.084.265.093.261c.059.173.126.337.202.496.278.64.61 1.195.934 1.725l.316.526.038.059c.337.568.631 1.115.804 1.708.164.568.215 1.178.076 1.885l-.021.105c-.034.156-.08.32-.135.488-.109.345-.265.715-.467 1.111-2.381 4.641-7.712 1.199-8.457-1.317-.741-2.512-.799-5.255.231-7.939l.008-.16.042.139.135.412.093.273.114.324c.118.328.236.652.341.976l.055.173.072.236.101.383.046.189.029.143.042.261.025.189.004.029.017.156c.017.219.025.442.017.673 1.245-2.226-2.789-4.725-.282-9.883 2.053-4.228 4.796-4.641 6.307-4.485l.219.029c.295.042.53.101.682.151l.08.025.013.004-.063.299c-.063.299-.109.61-.143.93-.046.429-.067.875-.067 1.334.454-2.057 1.771-5.659 4.91-7.031-.168.021-.332.05-.492.088l-.273.067-.08.021-.362.114-.345.135-.05.021-.311.151-.273.156-.093.059-.223.156c-.32.231-.602.496-.85.799l-.223.282-.194.282-.034.055-.173.303-.151.295-.05.114c-.101.215-.189.442-.265.677-.122-.063-.252-.118-.387-.164-.198-.072-.412-.126-.631-.16l-.24-.034c-.151-.017-.307-.025-.467-.025l-.412.017-.021-.147c-.038-.248-.093-.518-.122-.82l-.013-.173c-.046-.82.114-1.91 1.123-3.61 1.603-2.684 4.902-3.383 5.874-3.383 1.754 0 5.171 1.027 5.226 4.115.059 3.084-1.313 4.212-4.111 5.011 3.084.059 4.683-2.625 4.624-4.742-.004-.189-.021-.391-.05-.597l-.08-.412-.029-.126-.067-.24-.042-.135-.114-.303-.059-.139-.13-.282c-.097-.189-.21-.379-.341-.564l-.189-.257-.029-.038c-.126-.156-.265-.303-.412-.442l-.324-.286-.265-.194-.32-.202.063-.341.059-.286.063-.295.067-.286.147-.534.076-.252.08-.24.168-.459.088-.21.105-.24.143-.295c.269-.513.572-.934.9-1.292l.244-.248c.189-.181.387-.341.589-.484.151-.114.311-.219.475-.32-.463.181-.867.387-1.224.618l-.37.261-.231.194c-.173.143-.328.295-.467.45-.147.164-.282.337-.404.509l-.122.177c-.147.236-.278.475-.387.719l-.097.219c-.109.257-.198.513-.273.774l-.109.391c-.101.383-.181.766-.252 1.14l-.29-.109c-.198-.072-.4-.13-.618-.181-.682-.164-1.464-.236-2.365-.194l-.332.025-.206.025-.223.029-.29.055-.181.038c-.429.101-.841.244-1.229.425.358-.766.707-1.414 1.077-1.977l.013-.017.295-.408c.446-.589.934-1.077 1.519-1.51.185-.135.379-.269.585-.395.728-.459 1.595-.863 2.663-1.283-.555.151-1.069.32-1.54.505l-.257.105-.055.021.185-.223.248-.273.029-.034.278-.278.299-.282c.177-.16.362-.32.555-.471l.412-.316.345-.244c.349-.24.715-.467 1.09-.682l.379-.21.387-.198.391-.189.4-.181.379-.164c.412-.173.829-.324 1.245-.463l.412-.135c.412-.126.825-.236 1.233-.332.273-.067.543-.122.812-.173s.534-.097.799-.13l.286-.038c.555-.067 1.098-.101 1.607-.101l.484.013.454.029h.029l.429.055.177.029.244.046c-.353.223-.686.45-1.001.694l-.236.181c-.539.429-1.014.888-1.409 1.363l-.311.391-.013.021c-.105.139-.202.278-.286.417h-.004l-.227-.038-.08-.008-.295-.017c-.4 0-.829.076-1.283.219 1.515.059 2.97.459 3.799 1.342l-.16-.24-.164-.219-.168-.198c-.181-.198-.37-.358-.572-.488l-.177-.105-.038-.021-.16-.08c.341-.387 1.363-1.481 2.928-2.575l.374-.257c.206-.139.425-.273.648-.408l.32-.185.395-.219c.408-.215.837-.421 1.287-.61l.505-.198c.475-.181.972-.337 1.485-.463l.236-.059.37-.076.181-.038.341-.059.206-.034.53-.063h.017c.202-.021.404-.038.61-.046.206-.013.417-.017.627-.017l.454.008.446.025c.21.013.421.034.631.059l.332.046.459.076.021.004.488.101.492.118.084.021.421.122.408.13.097.034c.341.118.686.248 1.031.4h.004l.522.231.53.261c.353.181.711.379 1.073.597l.511.321z"/><path fill="#323436" d="M111.048 105.62l-.572.093.572-.093zM110.476 105.713c-.741.13-1.464.303-2.158.522.694-.219 1.417-.396 2.158-.522zM108.107 106.306l-.341.118.341-.118zM107.156 106.66l-.501.219.501-.219zM103.614 108.927c.025.488-.029.976-.198 1.452-.282.038-.673.231-.724.252.151-.421.273-.795.366-1.14v-.004h.004c.169-.185.354-.375.552-.56zM103.614 108.915v.013c-.198.185-.383.374-.551.56l.084-.358v-.008l.05-.282.05-.421.013-.316c0-.433-.063-.867-.189-1.367.126.311.244.635.332.959l.05.189.046.21.046.227.013.088.029.215.008.072.019.219zM103.614 108.915l-.017-.219.017.219zM103.589 108.624l-.029-.215.029.215zM103.546 108.321l-.046-.227.046.227zM103.058 109.491l-.231.257.231-.257zM102.692 110.631c.05-.021.442-.215.724-.252-.501.156-1.216 1.3-1.216 1.3l-1.969 1.456-1.46.686-1.885.257-1.54.429-1.46.854-.686 1.031-.77.341-1.456 1.031-1.544 1.372-1.199 1.54-1.115 1.628-.686 1.203-.686.985-2.226 1.069-1.46 1.372-1.111 2.057-.686 1.885-.173 1.885-.042 2.015.471 2.272 1.069 1.759-.555 1.498-.084 2.057-.173 2.398.555 2.827.56 1.717 1.283 2.057s.858 1.027 2.827 2.398c-3.219-1.14-4.759-3.757-5.276-4.834.231-.067.467-.156.707-.252l-.227-.454-.707.139c-.08-.32-.151-.623-.215-.917-.21-.972-.345-1.822-.412-2.596l-.038-.45c-.114-2.015.223-3.547.77-5.461-1.544-2.487-2.487-7.712-.084-11.057 1.969-3.257 3.942-2.827 5.226-4.628 1.031-.942.921-2.768 3.774-5.482l.328-.307.454-.395.143-.118.395-.311.282-.206.008-.004c-.021.324-.072.677-.156 1.069l.471-.328c.063-.332.076-.661.05-.98l.13-.08.084-.046.198-.109.345-.173.151-.072.257-.114.114-.055c2.314-2.743 3.732-1.367 6.77-2.684l.282-.135.286-.16.173-.114c.181-.122.349-.252.509-.391l.332-.316c.231-.231.45-.484.669-.753l.194-.236c.265-.32.534-.652.837-.997l.231-.257c-.088.342-.21.717-.362 1.137zM103.025 103.05c-.21 0-.421.004-.627.017.206-.013.416-.017.627-.017zM102.398 103.066c-.206.008-.408.025-.61.046l.61-.046zM101.771 103.113l-.53.063.53-.063zM101.035 103.21l-.341.059.341-.059zM100.513 103.306l-.37.076.37-.076zM98.422 103.904l-.505.198.505-.198zM95.266 105.524l-.374.257.374-.257zM94.972 105.191l-.219-.05.013-.008.206.058zM94.766 105.132l-.013.008-.248-.046-.177-.029-.429-.055h-.029l-.454-.029-.484-.013c-.509 0-1.052.034-1.607.101l-.286.038c-.265.034-.53.08-.799.13-.269.046-.539.105-.812.173-.408.097-.82.206-1.233.332l-.412.135c-.417.139-.833.29-1.245.463l-.379.164-.4.181-.391.189-.387.198-.379.21c-.379.21-.74.438-1.09.682l-.345.244-.412.316c-.194.151-.379.307-.555.471l-.299.282-.278.278-.029.034-.248.273-.194.227c-.269.114-.526.236-.77.362 2.502-4.25 9.503-6.669 14.384-5.319zM93.747 105.835l-.236.181.236-.181zM93.243 109.466l.16.24c-.829-.884-2.285-1.283-3.799-1.342.454-.143.884-.219 1.283-.219l.295.017.08.008.227.038-.072.114c.227.168.417.185.417.185l.126-.147.164.076.038.021.177.105c.202.13.391.29.572.488l.168.198.164.218zM93.243 109.466l-.164-.219.164.219zM93.078 109.247l-.168-.198.168.198zM92.662 115.588l-.257.114.257-.114zM92.405 115.701l-.151.072.151-.072zM92.338 108.561l-.177-.105.177.105zM92.123 108.435l-.164-.076v-.004h.004l.16.08zM91.791 107.77l.311-.391-.311.391zM91.959 108.355v.004l-.126.147s-.189-.017-.417-.185l.072-.114h.004c.16.035.316.085.467.148zM91.909 115.945l-.198.109.198-.109zM91.778 107.791l-.286.417c.084-.139.181-.278.286-.417zM91.627 116.101l-.13.08.13-.08zM91.496 116.181c.025.32.013.648-.05.98l-.471.328c.084-.391.135-.745.156-1.069l.365-.239zM91.396 115.558c.05.202.084.408.101.623l-.366.24c.017-.324.008-.618-.038-.896l-.017-.126c-.038-.227-.101-.446-.181-.656l-.135-.316c-.147-.311-.341-.618-.572-.934l.118.109.118.118.143.16.185.244.105.16.097.164.093.168c.084.164.16.341.227.522l.013.042.109.378zM91.488 108.208l-.227-.038.227.038zM91.286 115.18l.109.379-.109-.379zM91.324 105.069l-.286.038.286-.038zM91.181 108.162l-.295-.017.295.017zM91.274 115.137c-.067-.181-.143-.358-.227-.522.088.165.163.342.227.522zM91.046 114.616l-.093-.168.093.168zM90.895 114.742c.08.21.143.429.181.656-.038-.227-.101-.446-.181-.656zM90.954 114.447l-.097-.164.097.164zM90.76 114.426l.135.316-.135-.316zM90.567 113.879l.185.244-.185-.244zM90.424 113.72l-.118-.118.118.118zM90.238 105.237c-.269.05-.539.105-.812.173.274-.067.543-.126.812-.173zM88.194 105.742l-.412.135.412-.135zM86.536 106.34l-.379.164.379-.164zM85.307 110.097c.358-.231.762-.438 1.224-.618-.164.101-.32.202-.475.32-.202.143-.4.303-.589.484l-.244.248c-.328.358-.631.778-.9 1.292l-.143.295-.105.24-.088.21-.168.459-.08.24-.076.252-.147.534-.067.286-.063.295-.059.286-.063.341c-.206-.122-.429-.231-.669-.328.072-.374.151-.757.252-1.14l.109-.391c.076-.261.164-.518.273-.774l.097-.219c.109-.244.24-.484.387-.719l.122-.177c.122-.173.257-.345.404-.509.143-.156.299-.307.467-.45l.231-.194.37-.263zM86.157 106.504l-.4.181.4-.181zM85.716 119.475c.059 2.116-1.54 4.801-4.624 4.742 2.798-.799 4.17-1.927 4.111-5.011-.055-3.088-3.471-4.115-5.226-4.115-.972 0-4.27.698-5.874 3.383-1.01 1.7-1.17 2.789-1.123 3.61l.013.173c.029.303.084.572.122.82l.021.147c-.236.021-.471.055-.711.109-.48-2.609.863-6.008 3.471-7.75l-.156.429.913-.518.206-.45c.387-.181.799-.324 1.229-.425l.181-.038.29-.055.223-.029.206-.025.332-.025c.9-.042 1.683.029 2.365.194.215.05.421.114.618.181l.29.109-.004.029.644.471.029-.173.32.202.265.194.324.286c.147.139.286.286.412.442l.029.038.189.257c.13.185.244.374.341.564l.13.282.059.139.114.303.042.135.067.24.029.126.08.412c.032.206.048.408.053.597zM85.585 118.465l.08.412-.08-.412zM85.556 118.339l-.067-.24.067.24zM85.366 106.874l-.387.198.387-.198zM85.274 117.523l-.13-.282.13.282zM85.307 110.097l-.37.261.37-.261zM84.803 116.677l-.189-.257.189.257zM84.706 110.551c-.168.143-.324.295-.467.45.139-.155.294-.307.467-.45zM84.584 116.383c-.126-.156-.265-.303-.412-.442.147.139.286.286.412.442zM84.601 107.282c-.374.215-.74.442-1.09.682.349-.244.711-.471 1.09-.682zM83.847 115.655l-.265-.194.265.194zM83.835 111.511l-.122.177.122-.177zM83.582 115.461l-.32-.202.32.202zM83.511 107.964l-.345.244.345-.244zM83.263 115.259l-.029.173-.644-.471.004-.029c.239.096.462.205.669.327zM83.01 109.453c-1.069.421-1.935.825-2.663 1.283-.206.126-.4.257-.585.395-.585.433-1.073.921-1.519 1.51l-.295.408-.013.017c-.374.564-.724 1.212-1.077 1.977-.337.151-.661.332-.963.539.682-1.801 1.797-3.761 4.485-5.133l-.034.055.745-.341.063-.076.004-.004.055-.021.257-.105c.472-.184.985-.352 1.54-.504zM82.754 108.523c-.194.151-.379.311-.555.471.176-.163.361-.319.555-.471zM82.198 108.995l-.299.282.299-.282zM81.685 114.641c.219.05.421.109.618.181-.197-.067-.404-.131-.618-.181zM81.899 109.277l-.278.278.278-.278zM81.592 109.588l-.248.273.248-.273zM81.47 109.958l-.257.105.257-.105zM81.205 148.216l.227.454c-.24.097-.475.185-.707.252-.143-.299-.206-.48-.206-.48l-.021-.088.707-.138zM81.344 109.861l-.185.223-.004.004h-.004l.193-.227zM81.155 110.089l-.063.076-.745.341.034-.055c.244-.126.501-.248.77-.362h.004zM80.519 148.443s.063.181.206.48c-4.506 1.439-7.485-1.729-8.352-2.815.13-.008.261-.025.391-.055 2.272 2.638 4.822 2.815 7.733 2.301l.022.089zM79.224 119.904c.16-.038.324-.067.492-.088-3.139 1.372-4.456 4.973-4.91 7.031 0-.459.021-.905.067-1.334.038-.32.084-.631.143-.93l.063-.299.126.046s.055-.4.168-.686l-.101-.05v-.004c.08-.236.168-.463.265-.677l.05-.114.151-.295.173-.303.034-.055.194-.282.223-.282c.248-.303.53-.568.85-.799l.223-.156.093-.059.273-.156.311-.151.05-.021.345-.135.362-.114.08-.021.275-.066zM79.224 119.904l-.273.067.273-.067zM78.988 114.473l-.206.025.206-.025zM78.87 119.993l-.362.114.362-.114zM78.508 120.106l-.345.135.345-.135zM78.268 114.582l-.181.038.181-.038zM78.113 120.262l-.311.151.311-.151zM77.801 120.414l-.273.156.273-.156zM77.435 120.628l-.223.156.223-.156zM76.859 115.045l-.206.45-.913.518.156-.429c.302-.207.626-.388.963-.539zM76.451 140.251l.013.206c0 .194-.008.383-.021.564l-.013.139-.025.227-.042.29c-.08.488-.21.942-.379 1.363l-.105.248c-.072.16-.151.316-.236.467l-.088.151-.105.168c-.534.816-1.229 1.418-1.977 1.746l-.341.135-.358.097h-.008l-.244-.295h-.404l.257.349c-.139.017-.278.017-.412.008-2.142-.13-5.226-1.33-5.911-5.188-.64-3.597.362-6.303.812-7.275l.067.227v.004l-.008.16c-1.031 2.684-.972 5.428-.231 7.939.745 2.516 6.075 5.958 8.457 1.317.202-.395.358-.766.467-1.111.059-.168.101-.332.135-.488l.021-.105c.139-.707.093-1.317-.076-1.885-.168-.593-.463-1.144-.804-1.708l-.038-.059-.316-.526c-.32-.526-.652-1.09-.934-1.725l-.202-.496-.093-.261-.084-.265c-.08-.273-.151-.56-.206-.863l.273.122c.08.278.173.543.278.799l.105.248.109.244c.072.16.151.32.236.471l.252.45.261.429.265.412c.4.606.795 1.161 1.098 1.7l.151.286c.164.32.29.631.358.951l.046.333zM76.363 121.583l-.223.282.223-.282zM76.14 121.865l-.194.282.194-.282zM75.912 122.202l-.173.303.173-.303zM75.694 139.713c.168.568.215 1.178.076 1.885.138-.707.088-1.317-.076-1.885zM75.74 122.505l-.151.295.151-.295zM75.748 141.703c-.034.156-.076.32-.135.488.055-.168.102-.332.135-.488zM75.45 144.076l.105-.168-.105.168zM75.538 122.913c-.097.215-.185.442-.265.677.076-.236.164-.463.265-.677zM75.273 123.594l.101.05c-.114.286-.168.686-.168.686l-.126-.046c.055-.236.118-.467.189-.69h.004zM75.273 123.59v.004h-.004l-.383-.168c.134.046.265.101.387.164zM75.269 123.594c-.072.223-.135.454-.189.69l-.013-.004-.08-.025c-.151-.05-.387-.109-.682-.151l-.219-.029c-1.51-.156-4.254.257-6.307 4.485-2.508 5.158 1.527 7.657.282 9.883.008-.231 0-.454-.017-.673l-.017-.156-.004-.029-.025-.189-.042-.261-.029-.143-.046-.189-.101-.383-.072-.236-.055-.173c-.105-.324-.223-.648-.341-.976l-.114-.324-.093-.273-.135-.412-.042-.139v-.004l.021-.408-.088.181c-.379-1.393-.518-3 .286-5.209 1.128-3.092 3.299-4.679 5.276-5.112l.038.198.686-.227-.013-.08.412-.017c.16 0 .316.008.467.025l.24.034c.223.038.433.088.631.16.136.048.263.103.385.166zM75.079 124.284l-.063.299.063-.299zM74.89 138.005c.341.564.635 1.115.804 1.708-.173-.593-.467-1.14-.804-1.708zM75.016 124.583c-.059.299-.105.61-.143.93.034-.32.08-.631.143-.93zM75.092 134.273l-.484-.029.484.029zM75.092 134.273l-.484-.029-.025-.004c-.328-.034-.623-.088-.896-.168l-.198-.063-.189-.072-.008-.004-.059-.227-.257-.118.038.215c-.147-.072-.282-.151-.408-.236l-.185-.139-.173-.143-.16-.151-.286-.324-.126-.173-.109-.16-.164-.282-.097-.194-.042-.084-.088-.202c-.076-.181-.143-.362-.198-.543 1.804 1.801 2.237 2.31 4.114 3.101zM74.537 137.42l.316.526-.316-.526zM74.886 123.426c-.198-.072-.408-.122-.631-.16.218.034.433.088.631.16zM73.687 134.071c.273.08.568.135.896.168-.328-.029-.623-.088-.896-.168zM73.603 135.695c.282.635.614 1.199.934 1.725-.324-.53-.657-1.086-.934-1.725zM73.401 135.198l.202.496c-.076-.159-.144-.323-.202-.496zM73.3 133.936l.189.072-.189-.072zM73.308 134.937l.093.261-.093-.261zM73.472 145.822l-.341.135.341-.135zM73.232 133.705l.059.227-.273-.122-.004-.004v-.004l-.038-.215.256.118zM73.135 123.224l.013.08-.686.227-.038-.198c.24-.054.476-.088.711-.109zM73.135 123.224l-.021-.147.021.147zM73.018 133.81c.055.303.126.589.206.863-.084-.273-.156-.56-.21-.867l.004.004zM73.013 133.801v.004c-.147-.072-.282-.151-.408-.24.127.085.261.165.408.236zM72.98 122.084l.013.173-.013-.173zM72.521 145.759l.244.295c-.13.029-.261.046-.391.055l-.257-.349.404-.001zM72.248 133.284l.173.143-.173-.143zM72.248 133.284l-.16-.151.16.151zM72.088 133.132c-.105-.101-.202-.21-.286-.324l.286.324zM71.676 132.636l.126.173-.126-.173zM71.566 132.476l.109.16-.109-.16zM68.045 137.769l-.017-.156.017.156zM67.927 136.991l-.046-.189.046.189zM67.88 136.801l-.101-.383.101.383zM67.708 136.183l-.055-.173.055.173zM67.199 134.71l.114.324-.114-.324zM67.106 134.437l-.135-.412.135.412zM66.951 133.473l-.021.408-.067-.227.088-.181z"/></g><path fill="#323436" d="M81.95 148.651l-.431-1.207c.086.418.234.823.431 1.207z"/><ellipse fill="#323436" cx="102.681" cy="111.911" rx="7.039" ry="3.728"/><g><path fill="#323436" d="M112.765 98.674c.093 6.303.084 12.563-1.094 13.758-.194.198-.391.257-.543.273-.471.135-3.984 1.115-8.419 1.115h-.059c-4.35 0-7.944-.98-8.415-1.115-.151-.013-.353-.076-.543-.269-1.182-1.199-1.191-7.455-1.098-13.762.013-.858.025-1.599.025-2.146v-.454l.454.042c.067.004 7.102.669 9.492.669 2.339 0 9.652-.665 9.723-.669l.45-.042v.454c.002.547.014 1.288.027 2.146zm-1.708 13.619c1.759 0 1.271-12.084 1.271-15.765 0 0-7.376.669-9.761.669-2.436 0-9.534-.669-9.534-.669 0 3.681-.488 15.765 1.271 15.765 0 0 3.782 1.115 8.347 1.115h.059c4.661 0 8.347-1.115 8.347-1.115zM112.327 96.528c0 3.681.488 15.765-1.271 15.765 0 0-3.686 1.115-8.347 1.115h-.059c-4.565 0-8.347-1.115-8.347-1.115-1.759 0-1.271-12.084-1.271-15.765 0 0 7.098.669 9.534.669 2.386 0 9.761-.669 9.761-.669zm-1.27 15.353c1.069-.459.93-10.047.884-13.199-.013-.644-.021-1.224-.025-1.704-1.645.147-7.283.631-9.349.631-2.099 0-7.51-.484-9.122-.631l-.021 1.708c-.046 3.147-.189 12.736.892 13.199l.105.013c.038.013 3.782 1.098 8.23 1.098h.059c4.54 0 8.192-1.086 8.23-1.098l.117-.017z"/><path fill="#ccc" d="M111.94 98.682c.046 3.151.185 12.74-.884 13.199l-.118.017c-.038.013-3.69 1.098-8.23 1.098h-.059c-4.447 0-8.192-1.086-8.23-1.098l-.105-.013c-1.081-.463-.938-10.051-.892-13.199l.021-1.708c1.611.147 7.022.631 9.122.631 2.066 0 7.704-.484 9.349-.631.005.48.014 1.061.026 1.704z"/></g><g><path fill="#323436" d="M113.64 102.705c.286.496.273 1.186-.029 1.712-.269.463-.711.728-1.22.728l-19.362 2.226-.168.008c-.867 0-1.426-.766-1.464-1.502-.034-.732.429-1.515 1.54-1.624 19.421-2.23 19.421-2.23 19.438-2.23.562 0 1.013.24 1.265.682zm-.269 1.577c.257-.45.269-1.027.029-1.439-.202-.353-.56-.547-1.027-.547-.004 0-19.413 2.23-19.413 2.23-.993.097-1.317.778-1.287 1.334.029.614.484 1.245 1.186 1.245l.139-.008 19.392-2.23c.408 0 .762-.21.981-.585zM113.4 102.843c.24.412.227.989-.029 1.439-.219.374-.572.585-.98.585l-19.392 2.23-.139.008c-.703 0-1.157-.631-1.186-1.245-.029-.555.295-1.237 1.287-1.334 0 0 19.409-2.23 19.413-2.23.467.001.824.194 1.026.547zm-.269 1.301c.206-.358.219-.837.034-1.165-.194-.332-.539-.404-.791-.404-.059.008-19.379 2.226-19.379 2.226-.808.08-1.069.593-1.048 1.048.025.513.421 1.052 1.018.976l19.396-2.23c.341-.001.602-.161.77-.451z"/><path fill="#666" d="M113.165 102.978c.185.328.173.808-.034 1.165-.168.29-.429.45-.77.45l-19.396 2.23c-.597.076-.993-.463-1.018-.976-.021-.454.24-.968 1.048-1.048 0 0 19.32-2.217 19.379-2.226.252.001.597.073.791.405z"/></g><g><path fill="#323436" d="M113.64 106.933c.286.496.273 1.186-.029 1.712-.269.463-.711.728-1.22.728l-19.362 2.226-.168.008c-.867 0-1.426-.766-1.464-1.506-.034-.728.429-1.51 1.54-1.62 19.421-2.23 19.421-2.23 19.438-2.23.562 0 1.013.24 1.265.682zm-.269 1.574c.257-.446.269-1.022.029-1.435-.202-.353-.56-.547-1.027-.547-.004 0-19.413 2.23-19.413 2.23-.993.097-1.317.778-1.287 1.334.029.614.484 1.245 1.186 1.245l.139-.008 19.392-2.23c.408 0 .762-.215.981-.589zM113.4 107.072c.24.412.227.989-.029 1.435-.219.374-.572.589-.98.589l-19.392 2.23-.139.008c-.703 0-1.157-.631-1.186-1.245-.029-.555.295-1.237 1.287-1.334 0 0 19.409-2.23 19.413-2.23.467 0 .824.193 1.026.547zm-.269 1.3c.206-.358.219-.837.034-1.165-.194-.337-.539-.404-.791-.404-.059.008-19.379 2.226-19.379 2.226-.808.08-1.069.593-1.048 1.048.025.513.425 1.043 1.022.976l19.392-2.23c.336-.001.606-.165.77-.451z"/><path fill="#666" d="M113.165 107.207c.185.328.173.808-.034 1.165-.164.286-.433.45-.77.45l-19.392 2.23c-.597.067-.997-.463-1.022-.976-.021-.454.24-.968 1.048-1.048 0 0 19.32-2.217 19.379-2.226.252.001.597.068.791.405z"/></g><g><path fill="#323436" d="M103.841 100.441c.097 1.523-6.631 2.415-6.698 2.423l-.429.055-.135.013h-.004l-3.547.404-.168.013c-.867 0-1.426-.766-1.464-1.506-.034-.728.429-1.515 1.54-1.62l.177-.021 1.09-.13c.568-.067 1.107-.135 1.67-.189 2.146-.202 3.875-.303 5.146-.303 2.014-.001 2.78.234 2.822.861zm-6.732 2.15c2.743-.353 6.509-1.296 6.458-2.133-.021-.299-.341-.606-2.55-.606-1.262 0-2.983.105-5.12.303-.56.055-1.094.122-1.662.189l-1.098.135-.177.017c-.993.097-1.317.778-1.287 1.334.029.61.484 1.241 1.186 1.241l.139-.008 3.627-.417.004.004.05-.004.43-.055zM103.567 100.458c.05.837-3.715 1.78-6.458 2.133l-.429.055-.05.004-.004-.004-3.627.417-.139.008c-.703 0-1.157-.631-1.186-1.241-.029-.555.295-1.237 1.287-1.334l.177-.017 1.098-.135c.568-.067 1.102-.135 1.662-.189 2.137-.198 3.858-.303 5.12-.303 2.209 0 2.528.307 2.549.606zm-6.496 1.86c3.589-.463 6.248-1.439 6.219-1.843 0-.034-.084-.345-2.272-.345-1.254 0-2.966.101-5.095.303-.555.05-1.09.118-1.654.185l-1.098.135-.181.017c-.804.076-1.064.589-1.043 1.048.025.513.421 1.043 1.018.972l3.711-.425.004.004.391-.051z"/><path fill="#666" d="M103.29 100.475c.029.404-2.63 1.38-6.219 1.843l-.391.05-.004-.004-3.711.425c-.597.072-.993-.459-1.018-.972-.021-.459.24-.972 1.043-1.048l.181-.017 1.098-.135c.564-.067 1.098-.135 1.654-.185 2.129-.202 3.841-.303 5.095-.303 2.188.001 2.272.312 2.272.346z"/></g><g><path fill="#323436" d="M123.733 75.828c0 7.426-3.669 11.461-6.614 14.705-1.637 1.805-3.055 3.362-3.353 5.045-.623 3.513-5.369 3.513-7.649 3.513-.635 0-1.262-.013-1.868-.025-.555-.013-1.081-.021-1.569-.021s-1.014.008-1.569.021c-.606.013-1.233.025-1.868.025-2.28 0-7.026 0-7.649-3.513-.299-1.683-1.712-3.24-3.353-5.045-2.945-3.244-6.61-7.279-6.61-14.705 0-11.474 9.244-20.465 21.05-20.465s21.052 8.991 21.052 20.465zm-6.921 14.427c2.899-3.189 6.505-7.161 6.505-14.427 0-11.242-9.063-20.052-20.637-20.052s-20.637 8.81-20.637 20.052c0 7.266 3.606 11.238 6.505 14.427 1.683 1.851 3.13 3.45 3.45 5.247.496 2.802 3.942 3.177 7.245 3.177.631 0 1.258-.013 1.86-.025.551-.013 1.086-.025 1.578-.025.496 0 1.027.013 1.578.025.606.013 1.233.025 1.86.025 3.303 0 6.749-.374 7.245-3.177.318-1.797 1.77-3.396 3.448-5.247zM123.317 75.828c0 7.266-3.606 11.238-6.505 14.427-1.679 1.851-3.13 3.45-3.45 5.247-.496 2.802-3.942 3.177-7.245 3.177-.627 0-1.254-.013-1.86-.025-.551-.013-1.081-.025-1.578-.025-.492 0-1.027.013-1.578.025-.602.013-1.229.025-1.86.025-3.303 0-6.749-.374-7.245-3.177-.32-1.797-1.767-3.395-3.45-5.247-2.899-3.189-6.505-7.161-6.505-14.427 0-11.242 9.063-20.052 20.637-20.052s20.639 8.81 20.639 20.052zm-10.363 19.602c.905-5.108 9.95-8.225 9.95-19.602 0-11.171-9.054-19.636-20.225-19.636s-20.225 8.465-20.225 19.636c0 11.377 9.046 14.494 9.95 19.602.442 2.491 3.669 2.836 6.837 2.836 1.208 0 2.402-.05 3.437-.05s2.234.05 3.437.05c3.175 0 6.397-.341 6.839-2.836z"/><path fill="#FFBB2A" d="M122.905 75.828c0 11.377-9.046 14.494-9.95 19.602-.442 2.495-3.665 2.836-6.837 2.836-1.203 0-2.402-.05-3.437-.05s-2.23.05-3.437.05c-3.168 0-6.395-.345-6.837-2.836-.905-5.108-9.95-8.225-9.95-19.602 0-11.171 9.054-19.636 20.225-19.636s20.223 8.465 20.223 19.636z"/></g><path fill="#fff" d="M106.652 72.944l-.433 1.489 1.389.689-1.074 1.117.91 1.256-1.471.49.222 1.534-1.53-.249-.516 1.462-1.239-.932-1.138 1.055-.663-1.401-1.496.405.063-1.549-1.514-.336.776-1.343-1.184-1.001 1.312-.828-.584-1.437 1.545-.123.152-1.543 1.426.608.851-1.296.98 1.202 1.356-.752.309 1.519z"/><g fill="#323436"><path d="M100.929 95.46c-.099-3.085-.845-6.654-1.695-8.853l.091-.132c.436-.695.481-1.633.135-2.866-.277-.985-.675-1.761-1.174-2.297.17-1.239-.363-2.66-1.474-3.912l.188-1.218c-.022.016-.539.397-.915 1.101l-.116.218.169.179c.945.996 1.471 2.107 1.493 3.1l-.196-.103c-.611-.286-1.282-.282-1.938.01-.879.392-1.098 1.294-.857 1.942.233.629.926 1.127 1.952.82.657-.196 1.175-.67 1.466-1.325.3.432.553.996.741 1.668.242.861.267 1.549.075 2.053-.199-.342-.428-.621-.692-.825-.456-.351-.984-.46-1.572-.326-1.026.235-1.351 1.052-1.217 1.712.148.733.868 1.413 1.91 1.231.566-.099 1.026-.269 1.389-.514.721 2.16.838 5.81.921 8.446.033 1.034.062 1.927.117 2.642l1.314-.14c-.054-.699-.082-1.585-.115-2.611zm-4.533-12.666c-.544.164-.959.013-1.113-.401-.135-.366-.009-.853.493-1.078.244-.109.485-.164.718-.164.223 0 .44.049.65.148.136.064.267.148.394.25-.176.628-.591 1.08-1.142 1.245zm.789 4.169c-.618.11-1.033-.265-1.119-.691-.07-.346.076-.766.698-.908.11-.025.214-.038.316-.038.252 0 .478.078.685.239.257.198.477.507.665.899-.294.24-.706.404-1.245.499zM104.434 95.46c.098-3.085.845-6.654 1.694-8.853l-.09-.132c-.438-.695-.482-1.633-.135-2.866.276-.985.674-1.761 1.174-2.297-.17-1.239.363-2.66 1.474-3.912l-.189-1.218c.023.016.54.397.915 1.101l.116.218-.17.179c-.945.996-1.471 2.107-1.493 3.1l.196-.103c.611-.286 1.282-.282 1.938.01.879.392 1.098 1.294.857 1.942-.233.629-.926 1.127-1.952.82-.657-.196-1.174-.67-1.465-1.325-.301.432-.553.996-.742 1.668-.241.861-.266 1.549-.075 2.053.2-.342.429-.621.693-.825.455-.351.984-.46 1.571-.326 1.027.235 1.351 1.052 1.217 1.712-.148.733-.869 1.413-1.91 1.231-.566-.099-1.027-.269-1.388-.514-.722 2.16-.838 5.81-.922 8.446-.033 1.034-.061 1.927-.117 2.642l-1.313-.14c.055-.699.083-1.585.116-2.611zm4.533-12.666c.543.164.959.013 1.112-.401.136-.366.01-.853-.493-1.078-.244-.109-.484-.164-.718-.164-.223 0-.44.049-.65.148-.136.064-.267.148-.393.25.176.628.59 1.08 1.142 1.245zm-.789 4.169c.619.11 1.033-.265 1.119-.691.07-.346-.076-.766-.697-.908-.11-.025-.215-.038-.316-.038-.253 0-.478.078-.685.239-.257.198-.477.507-.666.899.294.24.705.404 1.245.499z"/></g><g><path fill="#323436" d="M141.194 126.582c.16-1.195.21-2.352.126-3.395v-.021c-.063-.829-.215-1.586-.454-2.238l-.076-.194c-.151-.383-.341-.724-.568-1.014-.257-.341-.568-.614-.93-.804-.156-.088-.32-.156-.492-.202l-.177-.046c.034-.236.055-.467.067-.698 4.279.492 3.879 12.155.05 16.914l-.105-.185c-.055-.109-.105.185-.252.602l-.008.008.004-.013-.257.265-.219.194-.147.126c-.118.101-.24.189-.366.273l-.156.101-.185.109c1.384-1.456 2.516-3.635 3.269-5.97.395-1.22.686-2.478.858-3.698l.018-.114z"/><path fill="#FF74CF" d="M89.847 137.811l.025-.088.139-.328.059-.105.067-.118c.097-.156.219-.324.374-.492l.135-.135.168-.151.194-.147.244-.16.202-.109c1.578.24 2.718-.198 3.395-.963v-.004l.181-.223v-.004l.156-.24.067-.13.118-.261c.379-.985.248-2.196-.429-3.227 2.672-.454 1.586-3.299 3.513-4.414 1.67-.963 5.314 1.073 6.77-1.843.101-.206.185-.417.24-.631.135-.467.16-.951.097-1.426l.004.013c.492.029 2.083-.076 3.282-2.041 1.199-1.961-.109-3.778-1.691-4.796 2.365 1.893 2.099 3.812.963 4.965-.719.724-1.78 1.144-2.743 1.064h-.004l-.088-.227-.067-.151-.101-.206-.122-.21-.164-.248-.156-.21-.025-.029c-.189-.236-.404-.459-.648-.652-.24-.202-.505-.379-.791-.526-.501-.269-1.069-.454-1.687-.53h-.017l-.072-.013-.151-.013c1.086-.114 1.788-3.012-1.443-3.471 1.174.173 2.617 2.099 1.443 3.471l.328.046.013.004.198.055.13.046.24.101c.156.067.316.151.475.248l.143.088c.257.164.518.362.757.593l.143.139.139.147.135.156.126.164.097.135.139.215.198.379.084.198.076.206.05.177c.038.126.067.252.084.387l.021.147.017.189.008.24c0 .362-.05.745-.164 1.153-.694 2.457-4.081.959-6.349 1.771-2.272.816-.732 4.199-3.816 4.973 1.401 5.226-4.14 5.482-8.183 2.827 1.01.736 1.94 1.283 2.789 1.67.189.088.374.168.555.236.173.072.341.135.505.185l.307.097.463.118-.21.181-.202.198-.181.215-.164.236-.13.231-.013.025-.109.261-.08.265-.008.042-.046.261-.002.004zm35.944-28.324l-.463-.4-.412-.337c-.194-.156-.387-.303-.576-.442-.189-.147-.379-.282-.568-.412 2.646-.088 4.561.404 5.966 1.237.757.446 1.372.993 1.872 1.603l.324.421c.736 1.035 1.208 2.213 1.561 3.37l-.097-.539v-.008c-.067-.324-.156-.64-.257-.947l-.059-.164-.16-.417-.017-.042-.194-.429-.046-.088-.189-.358-.067-.118-.252-.404v-.004l-.303-.425-.004-.004c1.628-.046 3.017.61 4.085 1.666 2.482 2.47 3.231 7.123 1.216 10.165l.151-.231.139-.219c.189-.316.358-.635.501-.951l.101-.236.109-.273.118-.324.063-.189.109-.387.105-.467c.034-.156.059-.311.076-.467l.177.046c.173.05.337.122.492.202.358.194.669.467.93.804.223.29.412.631.568 1.014l.076.194c.236.652.387 1.409.454 2.238v.021c.08 1.048.034 2.2-.126 3.395l-.017.114c-.177 1.224-.467 2.482-.858 3.698-.753 2.335-1.885 4.515-3.269 5.97l.185-.109.156-.101c.126-.084.248-.173.366-.273l.147-.126.219-.194.252-.252-.025.076c1.266 4.153.341 7.489-1.927 9.622-.21.198-.433.383-.665.56-.231.177-.475.345-.728.496-.505.307-1.048.572-1.628.795-.29.109-.589.21-.896.295-1.229.345-2.588.501-4.031.45-.547-.017-1.107-.067-1.675-.151l.046-.231.042-.248c.034-.252.042-.467.042-.618l.248-.118.029-.013.248-.13c.395-.206.854-.492 1.304-.867l.265-.223.055-.05.299-.29c.231-.236.45-.501.652-.791l.164-.244c.114-.181.223-.37.32-.572l.08-.177c.122-.265.227-.547.307-.846l.067-.269c.05-.189.088-.387.109-.589l.038-.311.307-.013c.564-.013 1.052.008 1.485.151l.101.034c.324.126.614.324.884.631-.105-.13-.21-.252-.324-.358-.328-.337-.69-.593-1.052-.778l-.345-.156-.185-.067c-.299-.101-.585-.147-.837-.143 0-.202-.008-.412-.029-.631l-.034-.332c-.038-.337-.097-.69-.189-1.06-.05-.244-.118-.496-.198-.753l.215-.063c.143-.042.278-.097.408-.156.198-.08.379-.177.555-.286l.168-.105c.358-.227.677-.492.997-.77l.421-.366c-2.255 1.342-4.026 1.797-7.371 1.456.286.076.56.143.82.198l.164.034c.252.055.492.097.724.13.627.093 1.178.126 1.662.105h.013l.265-.017c.177-.008.341-.029.501-.059.084.547.164 1.111.215 1.679l.029.387.004.05c.013.236.021.475.021.711 0 1.54-.337 3.017-1.502 4.098-.109.105-.227.202-.353.299l-.4.278c-.143.088-.295.173-.454.252-.395.198-.85.37-1.363.509l-.173.858.013-.004-.017.08-.076.311c-.046.189-.101.362-.156.522l-.101.273-.076.177-.122.257-.004.013-.118.202-.038.067-.118.173-.156.198-.08.088c-.156.173-.328.316-.513.433l-.164.105c-.299.177-.631.307-.993.429l-.417.139c-.37.122-.774.244-1.199.408l-.269.109-.303.135-.307.147c-.316.16-.644.345-.98.572l-.345.24-.349.269c-2.062 1.658-4.435 2.453-6.429 2.453l-.4-.013-.252-.021-.181-.017-.055-.008-.236-.034-.101-.017-.29-.063-.345-.097-.273-.097-.05-.021-.311-.139-.269-.147-.042-.025-.244-.164-.008-.004-.24-.198-.021-.017-.202-.202-.139-.164-.059-.08-.135-.189-.16-.295-.055-.118-.017-.038-.076-.202-.088-.32.076-.034.328-.164.05-.029.189-.114.151-.101c.202-.143.383-.303.551-.475l.122-.126.029-.034.244-.299.059-.076.177-.244.059-.088.122-.189c.118-.185.231-.379.341-.576-1.043 1.527-3.736 2.71-7.132 2.735.875.156 1.632.227 2.293.227l.337-.008.341-.017.29-.034c.198-.021.387-.055.564-.097l.189-.046.316-.093.227-.084c0 .543.101 1.001.282 1.38.173.383.433.69.762.942l-.126.046-.164.063-.505.168-.164.05-.273.076-.059.017-.24.063c-.206.055-.429.105-.665.151l-.32.063-.046.008c-.252.046-.513.084-.787.118l-.135.017-.526.05c-2.718.215-6.345-.269-9.648-3.214-1.027-.942-2.259-2.142-2.63-4.586-1.889 1.75-4.241 3.265-6.795 3.248 1.914.539 4.199.034 6.341-2.121l.097.4.072.223.093.244.084.198.076.164.21.387.185.299c.501.762 1.136 1.405 1.675 1.834l-.332.147-.337.139-.337.13-.341.122-.337.114c-.442.139-.884.252-1.325.345-.244.05-.484.093-.719.126l-.341.046-.337.034c-.787.072-1.565.059-2.314-.034-.286-.038-.568-.088-.846-.147l-.417-.101c-.408-.109-.804-.248-1.186-.417-.766-.332-1.481-.783-2.112-1.355l-.307-.299c-.202-.202-.391-.421-.576-.648l-.265-.358c-.173-.244-.332-.505-.484-.774-1.073-1.952-1.565-4.615-1.17-8.07l.08-.606.097-.627.114-.644.135-.656.181.13.265.168.303.156c.429.206.871.345 1.308.484.875.273 1.658 1.006 2.423 1.481.194.118.374.244.568.379.194.13.395.252.61.353l.265.122.109.046.387.139c-.467.383-.778.795-.972 1.224l-.063.147-.055.151-.034.105-.046.173c-.042.168-.067.337-.08.509l-.013.177c-.008.198-.004.404.008.61.063-.194.13-.379.206-.56.072-.181.151-.358.236-.522l.08-.151.093-.168c.24-.421.526-.783.871-1.056l.143-.109.021-.013.173-.109.177-.097.038-.013.173-.076h.004c.795.118 1.607.08 2.386-.097.909-.206 1.792-.673 2.516-1.271.231-.189.45-.433.648-.715.105-.147.206-.303.299-.467l.017-.034.168-.328.114-.244.067-.168.109-.316.055-.177.046-.173h.046l.13.219.143.219.151.206.173.21.16.173c.833.863 1.961 1.334 3.214.98l-.147.021c-.173.017-.37.004-.572-.034h-.008c-.362-.067-.749-.21-1.119-.417-.37-.202-.719-.475-.985-.795l-.151-.198-.13-.21-.088-.173-.101-.278.219-.046c.24-.059.471-.143.69-.248.53-.248.985-.627 1.376-1.048.787-.846 1.338-1.86 2.074-2.731.362-.433.783-.829 1.292-1.081.505-.261 1.09-.345 1.654-.29 1.14.118 2.188.644 3.168 1.216-.854-.715-1.965-1.414-3.113-1.544-.568-.063-1.325-.139-1.847.114s-.892.618-1.262 1.052c-.749.871-1.275 2.125-2.062 2.949-.387.408-.833.85-1.342 1.086-.505.236-1.086.332-1.649.328h-.063l-.017.063c-.198.879-.715 1.818-1.418 2.373-.698.568-1.548.934-2.428 1.123-.884.185-1.805.189-2.68-.004-.438-.101-.858-.248-1.258-.454-.404-.194-.741-.484-1.144-.736-.791-.501-1.679-.829-2.55-1.107-.867-.282-1.729-.593-2.314-1.25-.593-.648-.921-1.506-1.149-2.369-.223-.871-.307-1.771-.278-2.672.063-1.792.564-3.58 1.431-5.15.438-.778.968-1.506 1.637-2.078.337-.29.694-.543 1.077-.749.383-.215.812-.362 1.245-.61.438-.248.804-.618 1.081-1.01.286-.391.513-.808.719-1.229.202-.421.395-.816.623-1.203.227-.383.471-.757.736-1.119 1.064-1.426 2.344-2.621 3.942-3.349l-.088.24c-.156.433-.29.93-.395 1.498-.042.227-.08.467-.114.719 1.826-6.282 5.255-3.997 8.167-5.709 3.076-1.809 4.914-5.945 11.713-7.544 4.549-1.066 10.666 1.24 13.839 3.937zm13.257 15.525l-.088.025h-.004l-.151.038-.164.029-.122.013c-.185.021-.391.029-.627.021-.185-.004-.383-.017-.602-.038-.295-.025-.623-.067-.997-.118.686 1.144 1.031 3.37.114 4.973 1.144-1.544 1.431-3.257.745-4.46l.265.008.08-.004.13-.017.13-.025.126-.029.202-.059.404-.139.223-.084.311-.126.025-.008zm.017-.008l.143-.055.168-.08-.311.135zm-5.932-5.68l.13-.341-.13.341c-.618 1.431-2.142 2.503-4.153 3.029.858.459 4.939 3.227 1.944 7.43-.589.825-1.186 1.439-1.792 1.881-.303.223-.61.4-.913.543-.358.164-.715.282-1.077.358l-.151.029c-.724.126-1.452.088-2.175-.042-.332-.063-.665-.139-.997-.231l-.248-.072-.492-.156-.143-.046-.475-.164-.606-.219-.724-.257-.076-.025-.635-.21-.509-.147-.425-.109-.463-.088-.4-.05-.038-.004.038-.362.004-.034.013-.37c0-.652-.101-1.313-.227-1.94.114 2.63-.459 3.429-2.116 5.714l.311-.168.046-.029.273-.177.038-.025.231-.177.244-.21.231-.236.177-.21.126-.173.076-.114.109-.185.067-.135.08-.177.135-.353v-.004l.05-.185c.555.021 1.081.084 1.578.168l.076.013c.374.072.728.156 1.073.244l.273.076.379.114.661.219.387.13.353.126.391.139.244.084.543.181.408.122.231.063c.311.08.623.143.93.185l.181.021c1.662.164 3.37-.4 5.638-2.811 2.285-2.428.799-6-1.712-7.771.652-.271 2.128-1.011 3.008-3.203zm-6.997.118c-1.414-.513-.686-3.429-1.67-5.398 0 0-.332-.694-1.027-1.388-.757-.757-1.944-1.51-3.593-1.367l-.412.05-.21.042c-.286.055-.585.143-.9.265-.156.055-.316.122-.48.202-.16.067-.328.151-.496.248-.252.13-.509.286-.774.463h-.004c-.088-.295-.215-.576-.374-.837l-.173-.261-.177-.227c-.143-.177-.311-.341-.492-.484l-.227-.177c-2.116-1.485-4.944-.846-6.484.757 2.684-1.372 4.628-1.195 5.941-.198 1.313.997 2.171 3.909 0 6.252l.206-.156.168-.135.21-.185.173-.164.164-.168.151-.173.273-.349c.383.408.715.85 1.001 1.292l.05.08.311.551.139.278c.215.463.37.913.459 1.317l.042.236c.034.215.042.417.029.593l-.349.088-.173.059c-.227.08-.45.194-.665.332l-.16.105-.156.109c-.316.231-.614.509-.9.825l-.143.16-.219.261-.059.076-.269.353c-.181.24-.349.492-.513.749l-.181.29-.269.45-.025.046-.227.404-.004.004-.215.396h-.004c-.13-.429-.311-.854-.534-1.254.206 1.006.278 1.893.181 2.667l-.05.328-.072.316-.093.303-.088.219c-.042.118-.097.227-.164.337-.097.177-.21.345-.341.501l-.206.227c-.29.299-.644.555-1.069.778-.21.109-.438.21-.686.303l-.198-.168-.004-.004-.244-.189c-.206-.156-.429-.307-.661-.442l-.231-.135c-.522-.286-1.102-.53-1.742-.724l-.278-.076-.324-.08-.332-.072-.341-.063c4.502.942 6.984 5.701 5.528 8.486-1.456 2.785-4.54 3.257-7.026 1.67.555.513.985 1.456.644 2.571.198-.442.383-1.128.299-1.67 2.398 1.157 6.126.126 6.854-3.257.151-.711.181-1.426.08-2.129l-.017-.118-.084-.425-.008-.029c-.038-.168-.088-.337-.143-.501l-.118-.311-.114-.265c-.16-.349-.353-.69-.589-1.01-.168-.24-.362-.471-.576-.694l.248-.109.067-.034.311-.151.059-.034.324-.189.303-.202.004-.004.278-.219.248-.227.177-.181.24-.295.126-.185c.122-.189.223-.383.303-.581l.097-.269.072-.269.004-.013c.105-.475.109-.963.038-1.447v-.012l.109-.269c.248-.572.673-1.321 1.216-2.032l.164-.21c.248-.311.513-.606.799-.875l.324-.29c.135-.114.273-.219.417-.316l.215-.139.168-.101.139-.067.139-.067.189-.076.164-.059.143-.042c.13-.038.265-.063.4-.072l.231-.013c.29 0 .589.055.884.177 2.503 1.039 1.847 3.631 2.954 5.272.9 1.325 1.759 1.456 3.644.686-4.498 1.367-2.785-3.774-4.801-5.785l-.177-.147-.345-.257-.168-.114-.337-.198-.164-.084c-.168-.08-.328-.143-.488-.194l-.316-.084c-.278-.059-.547-.076-.808-.059h-.013l-.177.017c.072-.366.076-1.018-.042-1.733-.034-.189-.072-.383-.122-.576l-.084-.299-.101-.299c-.118-.328-.269-.648-.463-.934l-.156-.223c-.114-.156-.244-.299-.391-.433l-.16-.126-.084-.063-.173-.109-.067-.046c.366-.694.518-1.418.475-2.112.627-.412 1.224-.724 1.805-.93l.177-.059.261-.08.185-.046c1.144-.265 2.247-.118 3.391.446 3.216 1.585 1.63 6.47 3.599 6.685zm-3.635 23.081c.433-.766 1.094-4.801-3.32-5.087-4.414-.282-3.913 6.917-9.95 6.366-.038 1.502-6.075 5.92-8.705.551.745 1.885 1.544 2.571 3.143 3.235 1.599.669 4.174-.438 5.945-3.235 3.669.913 5.596-3.488 7.312-5.486 1.712-1.999 4.557-.013 4.969 1.199.387 1.132.244 2.621-1.266 4.094-.101-.324-.248-.656-.45-.993l-.139-.231-.017-.025-.177-.261c-.122-.173-.261-.349-.408-.526 1.031 2.057.858 4.342-.686 6.286l.24-.173c.156-.114.303-.231.438-.353l.198-.185c.252-.244.467-.501.64-.77.13-.202.236-.408.324-.623.21-.551.261-1.14.135-1.759l-.05-.223.122-.067.13-.076.231-.16c.177-.126.353-.282.522-.45l.236-.248c.225-.257.427-.53.583-.8zm-32.258-15.769c0-4.313 2.272-6.61 7.426-6.08-2.684-.421-8.339-1.203-7.885 5.024-.884-.387-2.2-.471-3.429.257 1.389-.299 3.13-.156 3.888.799z"/><path fill="#323436" d="M139.377 124.869l-.168.08-.143.055.311-.135zM139.208 124.949l.168-.08-.168.08zM139.065 125.004l.143-.055-.143.055z"/><path fill="#fff" d="M139.065 125.004l.311-.135-.311.135z"/><path fill="#323436" d="M139.048 125.012l-.025.008-.063.017.088-.025zM139.023 125.021l-.311.126-.223.084-.404.139-.202.059-.126.029-.13.025-.13.017-.08.004-.265-.008c.686 1.203.4 2.916-.745 4.46.917-1.603.572-3.829-.114-4.973.374.05.703.093.997.118.219.021.417.034.602.038.236.008.442 0 .627-.021l.122-.013.164-.029.151-.038h.004l.063-.017zM138.804 125.075l.151-.038-.151.038zM136.423 145.006c2.268-2.133 3.193-5.47 1.927-9.622l.034-.084c.122-.13.24-.269.358-.417.564 1.006 3.004 5.895-1.304 9.925-4.111 3.841-9.467 3.299-10.712 2.928l.076-.286c.568.084 1.128.135 1.675.151 1.443.055 2.802-.101 4.031-.45.307-.084.606-.185.896-.295.581-.219 1.123-.484 1.628-.795.252-.151.496-.32.728-.496.23-.176.453-.362.663-.559zM131.113 109.731c3.648-.686 7.805 3.421 7.577 8.238l-.114-.013s-.059.181-.055.686l.101.025-.076.467-.105.467-.109.387-.063.189-.118.324-.109.273-.101.236c-.143.316-.311.635-.501.951l-.139.219-.151.231c2.015-3.042 1.266-7.695-1.216-10.165-1.069-1.06-2.457-1.717-4.085-1.67-.227-.298-.471-.58-.736-.845zM138.577 117.956l.114.013c-.013.231-.034.463-.067.698l-.101-.025c-.005-.505.054-.686.054-.686zM138.636 134.698l.105.185-.358.417c.148-.417.198-.712.253-.602zM138.518 125.117l.122-.013-.122.013zM138.548 119.134l.076-.467c-.017.156-.043.312-.076.467zM138.442 119.601l.105-.467-.105.467zM138.333 119.989l.109-.387-.109.387zM138.379 135.295l-.004.013-.252.252.256-.265zM138.152 120.502l.118-.324-.118.324zM137.942 121.011l.101-.236-.101.236zM137.757 135.88l.147-.126-.147.126zM137.29 125.101c.219.021.417.034.602.038-.186-.005-.384-.017-.602-.038zM137.302 122.181l.139-.219-.139.219zM137.235 136.254l.156-.101-.156.101zM133.57 141.307c.114.109.219.227.324.358-.269-.307-.56-.505-.884-.631l-.101-.034c-.433-.143-.921-.164-1.485-.151l-.307.008c.025-.219.034-.45.034-.686.252-.004.539.042.837.135l.185.067.345.156c.362.185.724.442 1.052.778zM133.495 114.527l-.097-.539.097.539zM133.398 113.989l.097.539c-.353-1.157-.825-2.335-1.561-3.37l-.324-.421c-.501-.61-1.115-1.157-1.872-1.603-1.409-.837-3.32-1.325-5.966-1.237h-.004c-.236-.168-.467-.324-.703-.471 3.206-.694 6.113.332 8.049 2.306l-.248.055s.572.459.799.799l.185-.008v.004l.004.004.303.425v.004l.252.404.067.118.189.358.046.088.194.429.017.042.16.417.059.164c.101.307.185.623.257.947v.007zM133.465 135.64l-.421.366c-.32.273-.64.539-.997.77l-.168.105c-.177.105-.362.202-.555.286l-.408.156-.215.063-.063-.206-.429.088.034.215-.501.063-.265.017h-.013c-.484.017-1.031-.013-1.662-.105l-.724-.13-.164-.034c-.261-.055-.534-.122-.82-.198 3.345.341 5.116-.114 7.371-1.456zM133.398 113.98c-.072-.324-.156-.64-.257-.947.101.308.189.623.257.947zM133.263 118.983l-.13.341.13-.341zM133.082 112.87l-.16-.417.16.417zM133.011 141.034l-.101-.034.101.034zM132.906 112.411l-.194-.429.194.429zM132.666 111.894l-.189-.358.189.358zM132.047 136.776c.358-.231.677-.496.997-.77-.319.278-.639.543-.997.77zM132.409 111.418l-.252-.404.252.404zM132.518 140.529l-.345-.156.345.156zM132.157 111.01l-.303-.425.303.425zM131.879 136.881l.168-.105-.168.105zM130.124 122.526c2.512 1.771 3.997 5.343 1.712 7.771-2.268 2.411-3.976 2.975-5.638 2.811l-.181-.021c-.307-.042-.618-.105-.93-.185l-.231-.063-.408-.122-.543-.181-.244-.084-.391-.139-.353-.126-.387-.13c-.215-.08-.433-.151-.661-.219l-.379-.114-.273-.076c-.345-.097-.698-.177-1.073-.244l-.076-.013c-.496-.093-1.018-.151-1.574-.173.038-.147.067-.295.088-.446l.038.004.4.05.463.088.425.109.509.147.635.21.076.025.724.257.606.219.475.164.143.046.492.156.248.072c.332.097.665.173.997.231.724.13 1.452.168 2.175.042l.151-.029c.362-.072.719-.189 1.077-.358.303-.139.61-.32.913-.543.606-.442 1.203-1.056 1.792-1.881 2.996-4.203-1.086-6.972-1.944-7.43 2.011-.526 3.534-1.599 4.153-3.029-.877 2.194-2.353 2.934-3.006 3.204zM131.85 110.577l-.185.008c-.227-.341-.799-.799-.799-.799l.248-.055c.264.265.508.547.736.846zM131.324 137.167c.194-.084.379-.181.555-.286-.177.11-.358.206-.555.286zM131.988 140.306c-.299-.093-.585-.139-.837-.135v-.008c.253-.004.539.042.837.143zM131.151 140.171c0 .236-.008.467-.034.686v.004l-.139.004s0-.4-.055-.686l.223-.017v.008h.005zM131.147 140.163h.004v.008h-.004zM131.151 140.163h-.004c0-.206-.008-.417-.025-.631.021.219.029.429.029.631zM131.122 139.532c.017.215.025.425.025.631l-.223.017c.055.286.055.686.055.686l.139-.004-.038.311c-.021.202-.059.4-.109.589l-.067.269c-.08.299-.185.581-.307.846l-.08.177c-.097.202-.206.391-.32.572l-.164.244c-.202.29-.421.555-.652.791l-.299.29-.055.05-.265.223c-.45.374-.909.661-1.304.867l-.248.13-.029.013-.248.118-.008-.227s0-.286-.484-.374c.513-.139.968-.311 1.363-.509.16-.08.311-.164.454-.252l.4-.278c.126-.093.244-.194.353-.299 1.165-1.081 1.502-2.558 1.502-4.098 0-.236-.008-.471-.021-.711l-.004-.05-.029-.387c-.05-.568-.13-1.132-.215-1.679.16-.025.311-.059.454-.101.08.257.143.509.202.753.084.366.147.719.189 1.06l.033.332zM131.088 139.199l.034.332-.034-.332zM130.915 137.323l.408-.156c-.13.059-.264.114-.408.156zM131.08 141.173l.038-.311-.038.311zM131.088 139.199c-.042-.341-.105-.694-.189-1.06.092.37.151.724.189 1.06zM130.903 142.031l.067-.269-.067.269zM130.899 138.139c-.059-.244-.122-.496-.202-.753h.004c.08.257.147.509.198.753zM130.638 137.18l.063.206h-.004c-.143.042-.295.076-.454.101v-.004l-.034-.215.429-.088zM130.516 143.053l.08-.177-.08.177zM130.491 139.603c.013.24.021.475.021.711 0-.235-.009-.475-.021-.711zM130.486 139.553l-.029-.387.029.387zM130.242 137.483v.004c-.16.029-.324.05-.501.059l.501-.063zM129.477 137.563l.265-.017-.265.017zM129.464 137.563c-.484.021-1.035-.013-1.662-.105.631.092 1.178.122 1.662.105zM129.081 144.951l.299-.29-.299.29zM128.761 145.224l.265-.223-.265.223zM128.219 132.207c.303-.143.61-.32.913-.543-.303.223-.611.404-.913.543zM127.209 146.222l.248-.13-.248.13zM127.802 137.458c-.231-.034-.471-.076-.724-.13l.724.13zM127.141 132.564c.362-.076.719-.194 1.077-.358-.357.169-.715.287-1.077.358zM126.931 146.352l.248-.118-.248.118zM126.923 146.125l.008.227c-.349.156-.593.236-.652.252.059-.261.114-.547.16-.854.484.089.484.375.484.375zM126.931 146.352c0 .151-.008.366-.042.618l-.042.248-.046.231-.105-.013-.173.227.202.072c-.227.74-.69 1.582-1.632 2.158-2.053 1.254-2.512.799-3.825 1.658-1.317.854-4.401 3.656-7.371 3.543-1.346-.055-2.6-.202-3.547-.627l.231-.147c-.257-.173-.686-.341-.686-.341l-.223.093.004-.004c-.328-.248-.589-.56-.77-.938-.177-.387-.273-.841-.273-1.384l.067-.029.088.32.076.202.017.038.055.118.16.295.135.189.059.08.139.164.202.202.021.017.24.198.008.004.244.164.042.025.269.147.311.139.05.021.273.097.345.097.29.063.101.017.236.034.055.008.181.017.252.021.4.013c1.994 0 4.367-.795 6.429-2.453l.349-.269.345-.24c.337-.227.665-.412.98-.572l.307-.147.303-.135.269-.109c.425-.164.829-.286 1.199-.408l.417-.139c.362-.122.694-.252.993-.429l.164-.105c.185-.118.358-.261.513-.433l.08-.088.156-.198.118-.173.038-.067.118-.202.004-.013.122-.257.076-.177.101-.273c.055-.16.109-.332.156-.522l.076-.311.017-.08c.059-.019.303-.099.652-.255zM126.847 147.219l.042-.248-.042.248zM126.695 147.438l.105.013-.076.286-.202-.072.173-.227zM126.094 137.096c.286.076.56.143.82.198-.261-.055-.534-.122-.82-.198zM126.439 145.75c-.046.307-.101.593-.16.854l-.013.004.173-.858zM124.815 132.552c.724.13 1.452.168 2.175.042-.724.126-1.452.088-2.175-.042zM125.328 109.087l.463.4c-3.172-2.697-9.29-5.003-13.838-3.93-6.799 1.599-8.638 5.735-11.713 7.544-2.912 1.712-6.341-.572-8.167 5.709.034-.252.072-.492.114-.719.105-.568.24-1.064.395-1.498l.088-.24.008-.017.505-.909-.063.021c1.872-3.017 5.432-1.54 7.291-3.492 3.278-3.442 12.445-11.002 22.653-4.531l-.084.017s.173.114.627.459l.16-.004h.004l.568.412.576.442.413.336zM125.328 109.087l-.412-.337.412.337zM124.466 114.044c.985 1.969.257 4.885 1.67 5.398-1.969-.215-.383-5.099-3.597-6.686-1.144-.564-2.247-.711-3.391-.446l-.185.046-.261.08-.177.059c-.581.206-1.178.518-1.805.93-.017-.295-.067-.585-.147-.863v-.004c.265-.177.522-.332.774-.463l.496-.248.48-.202c.311-.118.61-.202.9-.265l.21-.042.412-.05c1.654-.139 2.836.614 3.593 1.367.695.694 1.028 1.389 1.028 1.389zM124.916 108.751l-.576-.442c.189.139.382.286.576.442zM121.079 121.499c2.015 2.011.303 7.153 4.801 5.785-1.885.77-2.743.64-3.644-.686-1.107-1.641-.45-4.233-2.954-5.272-.295-.122-.593-.177-.884-.177l-.231.013c-.135.008-.269.034-.4.072l-.143.042-.164.059-.189.076-.139.067-.139.067-.168.101-.215.139c-.143.097-.282.202-.417.316l-.324.29c-.286.269-.551.564-.799.875l-.164.21c-.543.711-.968 1.46-1.216 2.032l-.109.269v.004c-.038-.223-.088-.446-.151-.669l.004-.004.215-.396.004-.004.227-.404.025-.046.269-.45.181-.29c.164-.257.332-.509.513-.749l.269-.353.059-.076.219-.261.143-.16c.286-.311.585-.589.9-.825l.156-.109.16-.105c.215-.135.438-.244.665-.332l.173-.059.349-.084-.042.295c.072.008.13-.109.168-.316l.177-.021h.013c.261-.017.53.004.808.059l.316.084c.16.05.32.118.488.194l.164.084.337.198.168.114.345.257.176.146zM124.339 108.309l-.568-.412c.19.13.379.265.568.412zM123.818 132.32c.332.093.665.168.997.231-.333-.058-.665-.134-.997-.231zM123.767 107.897l-.16.004c-.454-.345-.627-.459-.627-.459l.084-.017c.236.148.468.303.703.472zM123.077 132.093l.492.156-.492-.156zM122.934 132.047l-.475-.164.475.164zM119.181 137.437c4.414.286 3.753 4.321 3.32 5.087-.156.269-.358.543-.585.799l-.236.248c-.168.168-.345.324-.522.45l-.231.16-.13.076-.122.063-.046-.16c1.51-1.473 1.654-2.962 1.266-4.094-.412-1.212-3.257-3.198-4.969-1.199-1.717 1.999-3.644 6.399-7.312 5.486-1.771 2.798-4.346 3.904-5.945 3.235-1.599-.665-2.398-1.351-3.143-3.235 2.63 5.369 8.667.951 8.705-.551 6.037.552 5.537-6.647 9.95-6.365zM121.68 143.571l.236-.248-.236.248zM121.129 131.407l.724.257-.724-.257zM120.927 144.181l.231-.16-.231.16zM120.797 144.257l.13-.076-.13.076zM120.675 144.32l.122-.063-.122.067v-.004zM120.591 146.306c.206-.551.257-1.14.135-1.759.125.619.075 1.208-.135 1.759zM120.725 144.547c.122.618.072 1.208-.135 1.759-.088.215-.194.421-.324.623-.173.265-.387.522-.64.77l-.198.185c-.135.122-.282.24-.438.353l-.24.173c1.544-1.944 1.717-4.228.686-6.286.147.177.286.353.408.526l.177.261.017.025.139.231c.198.341.345.673.446.997l-.328.303c.118-.029.244-.076.374-.143l.056.223zM120.557 121.095l.345.257-.345-.257zM120.725 144.547l-.055-.223h.004l.051.223zM120.675 144.32v.004h-.004c-.13.067-.257.114-.374.143l.328-.303.004-.004.046.16zM120.418 131.172l.635.21-.635-.21zM120.628 144.16l-.004.004c-.101-.324-.248-.656-.446-.997.202.337.349.669.45.993zM119.846 111.288c1.649-.143 2.836.61 3.593 1.367-.757-.753-1.94-1.506-3.593-1.367zM120.052 120.784l.337.198-.337-.198zM120.178 143.167l-.139-.231.139.231zM120.023 142.91l-.177-.261.177.261zM120.267 146.928c-.173.269-.387.526-.64.77.252-.248.467-.505.64-.77zM119.484 130.915l.425.109-.425-.109zM119.846 111.288l-.412.05.412-.05zM119.4 120.506c.16.05.32.114.488.194-.168-.076-.328-.143-.488-.194zM119.434 111.338l-.21.042.21-.042zM118.992 148.237c.156-.114.303-.231.438-.353-.135.122-.283.239-.438.353zM119.021 130.827l-.4-.05.4.05zM118.411 128.067c.126.627.227 1.287.227 1.94l-.013.37-.004.034-.038.362-.231-.017-.173.454.316.008-.004.004-.05.185v.004l-.135.353-.08.177-.067.135-.109.185-.076.114-.126.173-.177.21-.231.236-.244.21-.231.177-.038.025-.273.177-.046.029-.311.168c1.656-2.284 2.228-3.084 2.114-5.713zM118.626 130.377l.013-.37-.013.37zM118.584 130.772l.038-.362-.038.362zM118.276 120.363c.261-.017.53 0 .808.059-.277-.055-.547-.076-.808-.059zM118.352 130.755l.231.017c-.021.151-.05.299-.088.446l-.316-.008.173-.455zM119.223 111.38c-.29.063-.589.147-.9.265.315-.122.614-.21.9-.265zM118.441 131.407l.05-.185-.05.185zM118.398 121.15l-.231.013.231-.013zM118.441 131.412l-.135.353.135-.353zM118.226 131.942l.08-.177-.08.177zM118.264 120.363l-.177.021v-.004l.177-.017zM118.045 118.646c.118.715.114 1.367.042 1.733l-.126.021c.017-.177.004-.379-.029-.593l-.042-.236c-.084-.404-.24-.854-.459-1.317l-.139-.278c-.093-.185-.198-.37-.311-.551l-.05-.08c-.282-.446-.614-.888-1.001-1.296.122-.164.223-.337.311-.509l.072.042.173.109.084.063.16.126c.147.135.278.278.391.433l.156.223c.194.286.345.606.463.934l.101.299.084.299c.049.196.086.389.12.578zM118.087 120.38v.004c-.038.206-.097.324-.168.316l.042-.295v-.004l.126-.021zM118.323 111.645l-.48.202c.164-.08.324-.147.48-.202zM117.961 120.401v.004l-.349.084.349-.088zM117.839 117.771l-.101-.299.101.299zM117.612 120.489l-.173.059.173-.059zM117.843 111.847l-.496.248c.168-.096.336-.18.496-.248zM117.46 121.335l-.189.076.189-.076zM117.439 120.548c-.227.088-.45.198-.665.332.215-.138.438-.252.665-.332zM116.825 121.646l-.215.139.215-.139zM116.774 120.881l-.16.105.16-.105zM116.72 113.425c.042.694-.109 1.418-.475 2.112h-.004c.366-.694.513-1.418.475-2.108l.004-.004zM116.728 115.882l-.16-.126.16.126zM116.72 113.425l-.004.004-.391.269s0-.597-.042-.942l.282-.189.008-.004c.079.277.13.568.147.862zM116.716 113.429c.038.69-.109 1.414-.475 2.108l-.067-.038c-.198.173-.332.454-.332.454l.088.097v.004l-.004-.004-.269.353-.151.173-.164.168-.173.164-.21.185-.168.135-.206.156c2.171-2.344 1.313-5.255 0-6.252-1.313-.997-3.257-1.174-5.941.198 1.54-1.603 4.367-2.243 6.484-.757l.227.177c.181.143.349.307.492.484l.177.227.173.261c.156.265.282.547.37.841v.004l-.282.189c.042.345.042.942.042.942l.389-.269zM116.615 120.986l-.156.109.156-.109zM116.572 112.558v.005l-.008.004v-.004l.004-.005zM116.568 112.558l-.004.004c-.088-.295-.215-.576-.37-.841.16.261.286.543.374.837zM116.484 115.693l-.173-.109.173.109zM116.244 115.537l-.004.004v-.004zM116.24 115.537v.004c-.088.173-.189.345-.311.509l-.088-.097s.135-.282.332-.454l.067.038zM116.194 111.721l-.173-.261.173.261zM116.021 111.46l-.177-.227.177.227zM115.925 116.05l.004.004-.273.349.269-.353zM116.459 121.095c-.316.236-.614.513-.9.825.286-.316.584-.593.9-.825zM115.504 116.576l.151-.173-.151.173zM115.559 121.92l-.143.16.143-.16zM115.415 122.08l-.219.261.219-.261zM115.352 110.749l-.227-.177.227.177zM115.167 116.909l.173-.164-.173.164zM115.138 122.416l-.269.353.269-.353zM115.07 123.266l-.164.21.164-.21zM114.789 117.229l.168-.135-.168.135zM114.355 123.519l-.181.29.181-.29zM114.174 123.809l-.269.45.269-.45zM113.88 124.305l-.227.404.227-.404zM113.648 124.713l-.215.396.215-.396zM113.581 125.778l.109-.269-.109.269zM113.581 125.791c.072.484.067.972-.038 1.447l-.004.013-.072.269-.097.269c-.08.198-.181.391-.303.581l-.126.185-.24.295-.177.181-.248.227-.278.219-.004.004-.303.202-.324.189-.059.034-.311.151-.067.034-.252.105c-.114-.122-.24-.244-.37-.358.244-.088.475-.189.686-.307.429-.219.787-.48 1.069-.778l.206-.227c.135-.156.248-.324.341-.501.067-.109.122-.219.164-.337l.088-.219.093-.303.072-.316.05-.328c.097-.774.025-1.662-.181-2.667.223.4.404.825.534 1.254v.004l-.147.286.173.812c.02-.113.058-.256.125-.42zM113.581 125.782v.008c-.067.164-.105.307-.126.421l-.173-.812.147-.286c.064.223.114.446.152.669zM112.331 133.553c.101.703.072 1.418-.08 2.129-.728 3.383-4.456 4.414-6.854 3.257.084.543-.101 1.229-.299 1.67.341-1.115-.088-2.057-.644-2.571 2.487 1.586 5.571 1.115 7.026-1.67 1.456-2.785-1.027-7.544-5.528-8.486l.341.063.332.072.324.08.278.076c.64.194 1.22.438 1.742.724l.231.135c.231.135.454.286.661.442l.244.189.004.004.198.173-.156.059.429.341.097-.042.004.004h-.004c.215.223.408.454.581.694.231.324.425.661.589 1.01l.114.265.118.311.143.501.008.029.084.425.017.116zM112.117 154.354l.181.017-.181-.017zM112.23 133.01l.084.425-.084-.425zM112.079 132.48c.055.164.105.332.143.501l-.143-.501zM111.961 132.169l-.114-.265.114.265zM111.848 131.904c-.164-.349-.358-.686-.589-1.01.235.32.429.661.589 1.01zM111.2 149.167c-.109.198-.223.391-.341.576l-.122.189-.059.088-.177.244-.059.076-.244.299-.029.034-.122.126c-.168.173-.349.332-.551.475l-.151.101-.189.114-.05.029-.328.164-.076.034-.059-.337-.017.366v.004l-.227.084-.316.093-.189.046c-.177.042-.366.076-.564.097l-.29.034-.341.017-.337.008c-.661 0-1.418-.072-2.293-.227 3.395-.025 6.087-1.207 7.131-2.734zM111.259 130.894c-.173-.24-.366-.471-.581-.694h.004c.215.223.408.454.577.694zM110.737 149.932l.122-.189-.122.189zM110.678 130.196l-.097.042-.429-.341.156-.059c.13.114.256.236.37.358zM110.501 150.265l.177-.244-.177.244zM110.581 154.321l-.231.147c-.248-.109-.475-.244-.677-.396l.223-.093s.429.169.685.342zM110.198 150.639l.244-.299-.244.299zM110.047 150.799l.122-.126-.122.126zM109.672 154.073c.202.151.429.286.677.396-4.308 2.609-11.394.581-14.339-1.948-14.654 5.146-17.309-6.854-14.671-14.385.13.139.269.265.421.374l-.135.656-.114.644c-.038.21-.072.421-.097.627l-.08.606c-.4 3.45.093 6.118 1.17 8.07.147.273.311.53.484.774l.265.358c.181.231.37.446.576.648l.307.299c.631.572 1.346 1.022 2.112 1.355.383.168.778.307 1.186.417l.417.101c.278.059.56.109.846.147.749.093 1.527.105 2.314.034l.337-.034.341-.046c.236-.034.475-.076.719-.126.442-.088.884-.202 1.325-.345l.337-.114.341-.122.337-.13.337-.139.332-.147c.16.126.311.231.446.316.021-.307.147-.606.147-.606 3.303 2.945 6.93 3.429 9.648 3.214l.526-.05.135-.017c.273-.034.539-.072.787-.118l.046-.008.32-.063c.236-.046.459-.097.665-.151l.24-.063.059-.017.273-.076.164-.05.505-.168.164-.063.13-.05zM109.677 154.068l-.004.004h-.004c-.328-.252-.589-.56-.762-.942.181.379.441.69.77.938zM109.344 151.376l.151-.101-.151.101zM109.155 151.489l.189-.114-.189.114zM109.201 129.03l-.231-.135.231.135zM107.156 115.785c1.582 1.018 2.89 2.836 1.691 4.796-1.199 1.965-2.789 2.07-3.282 2.041l-.004-.013v-.004l-.004-.008c-.029-.265-.097-.526-.185-.783h.004c.968.084 2.028-.337 2.743-1.064 1.137-1.153 1.402-3.071-.963-4.965zM109.104 151.519l-.328.164.328-.164zM108.881 152.276l.055.118-.055-.118zM108.7 151.716l-.067.029h-.008l.017-.366.058.337zM108.633 151.746c0 .543.097.997.273 1.384-.181-.379-.282-.837-.282-1.38l.009-.004zM108.633 151.746l-.008.004v-.004zM107.893 151.973l.189-.046-.189.046zM107.039 152.104l.29-.034-.29.034zM107.228 128.172l-.278-.076.278.076zM106.95 128.096l-.324-.08.324.08zM106.361 152.129l.337-.008-.337.008zM106.626 128.016l-.332-.072.332.072zM103.639 132.354c1.149.13 2.259.829 3.113 1.544-.98-.572-2.028-1.098-3.168-1.216-.564-.055-1.149.029-1.654.29-.509.252-.93.648-1.292 1.081-.736.871-1.287 1.885-2.074 2.731-.391.421-.846.799-1.376 1.048-.219.105-.45.189-.69.248l-.219.046-.008-.029c-.459 0-.694.046-.694.046l-.08.063.063-.004-.042.173-.055.177-.109.316-.067.168-.114.244-.168.328-.017.034c-.097.164-.194.32-.299.467-.198.282-.417.526-.648.715-.724.597-1.607 1.064-2.516 1.271-.778.177-1.59.215-2.386.097.143-.055.29-.097.446-.126-.513-.084-1.199-.257-1.199-.257l-.206.16-.387-.139-.109-.046-.265-.122c-.215-.101-.417-.223-.61-.353-.194-.135-.374-.261-.568-.379-.766-.475-1.548-1.208-2.423-1.481-.438-.139-.879-.278-1.308-.484l-.303-.156-.265-.168-.181-.13.025-.126-.446-.248c-.665-.711-1.014-1.62-1.262-2.516-.244-.905-.345-1.843-.324-2.777.046-1.872.539-3.724 1.426-5.373.446-.825 1.001-1.607 1.721-2.238.353-.316.745-.602 1.165-.833.417-.236.863-.395 1.22-.61.719-.421 1.165-1.216 1.557-2.02.185-.408.391-.841.627-1.245.231-.408.484-.804.762-1.186 1.094-1.498 2.983-3.273 4.889-3.888-.16.261-.307.555-.442.888l-.008.017c-1.599.728-2.878 1.923-3.942 3.349-.265.362-.509.736-.736 1.119-.227.387-.421.783-.623 1.203-.206.421-.433.837-.719 1.229-.278.391-.644.762-1.081 1.01-.433.248-.863.395-1.245.61-.383.206-.74.459-1.077.749-.669.572-1.199 1.3-1.637 2.078-.867 1.569-1.367 3.357-1.431 5.15-.029.9.055 1.801.278 2.672.227.863.555 1.721 1.149 2.369.585.656 1.447.968 2.314 1.25.871.278 1.759.606 2.55 1.107.404.252.741.543 1.144.736.4.206.82.353 1.258.454.875.194 1.797.189 2.68.004.879-.189 1.729-.555 2.428-1.123.703-.555 1.22-1.494 1.418-2.373l.017-.063h.063c.564.004 1.144-.093 1.649-.328.509-.236.955-.677 1.342-1.086.787-.825 1.313-2.078 2.062-2.949.37-.433.741-.799 1.262-1.052s1.277-.18 1.845-.117zM105.465 124.036c.13-.471.156-.959.093-1.435l.004.004v.004c.063.476.038.96-.097 1.427zM105.558 122.601c.063.475.038.963-.093 1.435-.055.215-.139.425-.24.631-1.456 2.916-5.099.879-6.77 1.843-1.927 1.115-.841 3.959-3.513 4.414.677 1.031.808 2.243.429 3.227l-.118.261-.067.13-.156.24v.004l-.181.223v.004c-.682.762-1.818 1.199-3.387.959.316-.164.694-.295 1.144-.379-.665.021-1.178 0-1.178 0-.151.088-.299.185-.433.295h-.004l-.463-.118-.307-.097-.505-.185-.555-.236c-.85-.387-1.78-.934-2.789-1.67 4.043 2.655 9.584 2.398 8.183-2.827 3.084-.774 1.544-4.157 3.816-4.973 2.268-.812 5.655.686 6.349-1.771.114-.408.164-.791.164-1.153l-.008-.24-.017-.189-.021-.147c-.017-.135-.046-.261-.084-.387l-.05-.177-.076-.206-.084-.198-.198-.379-.139-.215-.097-.135-.126-.164-.135-.156-.139-.147-.143-.139c-.24-.231-.501-.429-.757-.593l-.143-.088c-.16-.097-.32-.181-.475-.248l-.24-.101-.13-.046-.198-.055c.581.08 1.111.257 1.586.505.286.151.551.328.791.526s.459.417.648.652l.025.029.156.21.164.248.122.21.101.206.067.151.088.227-.16-.017s.198.412.345.799v.007zM105.558 122.597l.004.009-.004-.005zM105.372 121.815c.088.257.156.518.185.783-.147-.387-.345-.799-.345-.799l.16.016zM105.116 121.23l-.122-.21.122.21zM104.994 121.019l-.164-.248.164.248zM104.884 122.858l-.008-.24.008.24zM104.83 120.771l-.156-.21.156.21zM104.754 121.895l-.05-.177.05.177zM104.703 121.718l-.076-.206.076.206zM104.628 121.512l-.084-.198.084.198zM104.544 121.314l-.198-.379.198.379zM104.649 120.531c-.189-.236-.408-.454-.648-.652.244.194.458.417.648.652zM104.207 120.721l-.097-.135.097.135zM103.984 120.422l-.135-.156.135.156zM103.849 120.266l-.139-.147.139.147zM103.711 120.119l-.143-.139.143.139zM104.001 119.879c-.24-.198-.505-.374-.791-.526.286.148.551.324.791.526zM102.81 119.387l-.143-.088.143.088zM103.21 119.353c-.475-.248-1.006-.425-1.586-.505l-.013-.004-.088-.021c.618.076 1.186.261 1.687.53z"/><path fill="#fff" d="M101.611 118.844l-.105-.021h.017l.088.021z"/><path fill="#323436" d="M101.506 118.823l-.034-.004-.038-.008.072.012zM101.472 118.819l-.189-.021.151.013.038.008zM101.434 118.81l-.151-.013.151.013zM101.283 118.798c1.174-1.372-.269-3.299-1.443-3.471 3.231.458 2.528 3.357 1.443 3.471zM99.436 140.23l.147-.021c-1.254.353-2.381-.118-3.214-.98l-.16-.173-.173-.21-.151-.206-.143-.219-.126-.219c.223-.004.446-.029.665-.076l.101.278.088.173.13.21.151.198c.265.32.614.593.985.795.366.21.757.353 1.119.417h.008c.207.037.396.05.573.033zM97.669 120.674c-5.154-.53-7.426 1.767-7.426 6.08-.757-.955-2.499-1.098-3.888-.799 1.229-.728 2.545-.644 3.429-.257-.454-6.227 5.2-5.444 7.885-5.024zM96.28 138.127l.219-.046-.219.046zM96.209 139.056l.16.173-.16-.173zM96.272 138.097l.008.029c-.219.046-.442.072-.665.076h-.004l-.004-.004-.029-.055s.235-.046.694-.046zM95.885 138.64l.151.206-.151-.206zM96.011 151.75s-.126.299-.147.606c-.135-.084-.286-.189-.446-.316l.593-.29zM95.616 138.202l.126.219-.13-.219h.004zM96.011 151.75l-.593.29c-.539-.429-1.174-1.073-1.675-1.834l-.185-.299-.21-.387-.076-.164-.084-.198-.093-.244-.072-.223-.097-.4c-2.142 2.154-4.426 2.659-6.341 2.121 2.554.017 4.906-1.498 6.795-3.248.372 2.445 1.604 3.644 2.631 4.586zM95.607 138.198l.004.004h-.046l.042-.004zM95.578 138.143l.029.055-.042.004.013-.059zM95.578 138.143l-.013.059h-.004l-.063.004.08-.063zM95.561 138.202h.004l-.046.173.042-.173zM95.464 138.552l.055-.177-.055.177zM95.254 134.411l.118-.261-.118.261zM95.031 134.782l.156-.24-.156.24zM94.85 135.009l.181-.223-.181.223zM93.188 149.158l.084.198-.084-.198zM93.184 115.428l-.505.909c.135-.332.282-.627.442-.888l.063-.021zM92.67 116.353l-.088.24.088-.24zM91.463 135.972c1.569.24 2.705-.198 3.387-.959-.677.766-1.818 1.203-3.395.963l.008-.004zM90.996 135.888c.135-.109.282-.206.433-.295 0 0 .513.021 1.178 0-.45.084-.829.215-1.144.379l-.008.004-.459-.084v-.004zM92.187 118.091c-.042.227-.08.467-.114.719.034-.252.071-.492.114-.719zM91.454 135.977l-.202.109-.244.16-.194.147-.168.151-.135.135c-.156.168-.278.337-.374.492l-.067.118-.059.105-.139.328-.025.08.046-.261.008-.042.08-.265.109-.261.013-.025.13-.231.164-.236.181-.215.202-.198.215-.177.459.086zM90.996 135.888v.004l-.215.177.21-.181h.005zM90.781 136.069l-.202.198.202-.198zM90.529 135.77l.463.118-.463-.118zM90.398 136.481l-.164.236.164-.236zM90.234 136.717l-.13.231.13-.231zM90.091 136.974l-.109.261.109-.261zM90.222 135.674c-.164-.05-.332-.114-.505-.185l.505.185zM89.982 137.235l-.08.265.08-.265zM89.893 137.542l-.046.261.046-.261zM89.161 135.253l.555.236c-.18-.068-.365-.148-.555-.236zM89.586 142.065c-.156.029-.303.072-.446.126h-.004l-.391-.067c-.189-.042-.379-.093-.564-.156l.206-.16s.686.173 1.199.257zM89.136 142.191l-.173.076-.038.013-.177.097-.173.109-.021.013-.143.109c-.345.273-.631.635-.871 1.056l-.093.168-.08.151c-.084.164-.164.341-.236.522-.076.181-.143.366-.206.56-.013-.206-.017-.412-.008-.61l.013-.177c.013-.173.038-.341.08-.509l.046-.173.034-.105.055-.151.063-.147c.194-.429.505-.841.972-1.224.185.063.374.114.564.156l.392.066zM88.181 141.968l-.387-.139.387.139zM87.369 143.983c-.084.164-.164.341-.236.522.072-.181.152-.358.236-.522zM87.058 143.596l-.046.173.046-.173zM81.761 138.509l.181.13-.181-.13zM81.786 138.383l-.025.126c-.151-.109-.29-.236-.421-.374l.446.248z"/></g><path fill="none" d="M49.903 39.166h105.185v126.221h-105.185z"/></svg>