<svg version="1.2" baseProfile="tiny" xmlns="http://www.w3.org/2000/svg" viewBox="0 0 960 609"><path fill="#E6007E" d="M620.94 307.111l1.556-7.398-2.271-.592.319-1.27 5.856 1.529-.301 1.256-2.288-.589-1.557 7.431zM633.193 307.111l1.294-6.261-3.005 4.6-1.424-.396-1.094-4.113-1.372 6.537-1.315-.367 1.949-9.257 1.318.364 1.478 5.434 4.117-5.934 1.315.365-1.946 9.395z"/><path fill="#FFED00" d="M680 504.198l-88.191-59.431 66.564-36.326-2.713-5.145 8.301-5.107-54.243-90.39 61.796-94.315-6.822-8.325 3.359-5.877-39.825-38.624-63.529-77.498-8.578 7.564-8.2-7.979-55.457 54.779-15.004-15.572-4.099 6.274-6.281-5.836-31.431 54.59-112.229-69.01-5.477 12.138-5.436-2.945-32.505 84.31 45.505 22.935-7.293 22.104-34.863 88.46 5.698-.078-3.678 11.16 63.444-4.484-48.221 12.238 7.19 8.771-4.143 1.306 41.611 45.375-37.359 108.594 15.824-3.009-3.483 12.408 107.428-26.725 14.757-58.169 97.339 84.673 128.61-11.773-10.226-7.792 21.86-3.269zm-162.636-173.02l-39.669-6.56-24.531-58.442 64.2 65.002zm-103.003-102.174l16.94 16.228-22.792-.093 5.852-16.135zm-3.07 108.219l52.064-3.666-14.093 45.581-37.971-41.915zm45.076 50.187l55.324 8.073-65.622 32.519 10.298-40.592zm66.951 2.308l8.971-36.041 13.442 24.923-22.413 11.118zm67.233-103.003l6.449 7.264-44.984 26.731 38.535-33.995z"/><path fill="#E6007E" d="M451.837 388.004l-48.313-51.036-92.27 28.967 45.005 49.044-29.983 106.378 97.922-24.34zM519.288 388.498l-62.045-5.217 12.63-50.915 62.038 5.228zM556.44 377.502l-108.263 59.757 105.228 81.569 115.174-17.154-85.911-57.909 75.513-46.973-59.376-98.944-66.894 39.746zM662.748 200.027l-114.807-111.356-59.713 59.039-20.124-18.603-54.016 93.779 115.554 110.683 59.704-59.048 19.286 19.278zM330.668 222.263l-39.305 119.112 183.485-12.885-36.025-76.744-39.384 2.1 21.962-73.155-106.661-57.534-29.388 76.252z"/><path fill="#fff" d="M326.559 304.883l-3.635-.964 5.389-25.614 3.637.961zM342.48 304.925c-5.225 0-9.528-4.308-9.528-9.532 0-5.22 4.304-9.526 9.528-9.526s9.483 4.305 9.483 9.526c0 5.224-4.259 9.532-9.483 9.532m0-15.546c-3.261 0-5.769 2.758-5.769 6.014 0 3.26 2.55 6.018 5.769 6.018 3.216 0 5.724-2.797 5.724-6.018 0-3.257-2.508-6.014-5.724-6.014"/><path fill="#fff" d="M369.932 304.883l-3.674-.964 2.883-13.497-9.319 5.016-1.964 9.445-3.677-.964 3.841-18.01 3.637.962-.879 4.054 8.984-5.016 3.596 3.007zM390.828 304.883l-3.637-.964.835-3.883-8.857 4.847-3.596-3.01 3.383-15.964 11.409 2.967 2.218-10.572 3.633.962-5.388 25.617zm-8.984-14.502l-2.131 10.031 9.274-5.018.626-2.963-7.769-2.05zM406.528 304.925c-5.223 0-9.526-4.308-9.526-9.532 0-5.22 4.304-9.526 9.526-9.526 5.223 0 9.485 4.305 9.485 9.526 0 5.224-4.262 9.532-9.485 9.532m0-15.546c-3.259 0-5.767 2.758-5.767 6.014 0 3.26 2.552 6.018 5.767 6.018 3.217 0 5.724-2.797 5.724-6.018.001-3.257-2.506-6.014-5.724-6.014"/><path fill="#fff" d="M433.984 304.883l-3.677-.964 2.881-13.497-9.316 5.016-1.968 9.445-3.675-.964 3.843-18.01 3.637.962-.88 4.054 8.987-5.016 3.594 3.007zM513.663 208.684c-.714-.073-1.441-.115-2.178-.115-.772 0-1.53.042-2.274.126-.924 10.721-8.61 19.506-18.812 22.146.637 11.024 9.832 19.815 21.086 19.815 11.231 0 20.42-8.79 21.058-19.806-10.233-2.631-17.956-11.421-18.88-22.166m46.27-3.403c-.654-11.037-9.832-19.81-21.061-19.81-11.25 0-20.386 8.763-21.034 19.796 10.192 2.629 17.882 11.402 18.819 22.155.726.076 1.473.118 2.216.118.77 0 1.534-.048 2.28-.13.94-10.735 8.603-19.499 18.78-22.129m-27.589 21.218c-1.198-7.947-6.833-14.452-14.324-16.887 1.181 7.95 6.805 14.463 14.324 16.887m-27.279-21.213c-.642-11.043-9.784-19.815-21.041-19.815-11.634 0-21.098 9.437-21.098 21.055 0 11.591 9.464 21.014 21.098 21.014.77 0 1.528-.044 2.271-.127.936-10.727 8.587-19.481 18.77-22.127m-.189 4.354c-7.465 2.449-13.077 8.926-14.275 16.845 7.482-2.44 13.094-8.923 14.275-16.845m82.271 16.853c-1.197-7.952-6.827-14.463-14.308-16.892 1.179 7.95 6.812 14.455 14.308 16.892m6.539 5.189c-.731 0-1.453-.047-2.176-.112-1.002 12.996-11.9 23.227-25.203 23.227-13.313 0-24.179-10.233-25.167-23.236-.747.073-1.499.121-2.268.121-.738 0-1.472-.047-2.204-.112-.996 12.996-11.872 23.227-25.184 23.227-13.347 0-24.216-10.231-25.207-23.227-.74.064-1.49.112-2.254.112-13.959 0-25.272-11.262-25.272-25.156 0-13.917 11.313-25.185 25.272-25.185 13.29 0 24.185 10.221 25.199 23.212.746-.067 1.495-.114 2.262-.114.735 0 1.453.047 2.173.106 1.019-12.985 11.926-23.204 25.215-23.204 13.304 0 24.168 10.221 25.175 23.212.747-.067 1.504-.114 2.26-.114.751 0 1.483.047 2.219.112 1.008-12.988 11.854-23.21 25.16-23.21 14.004 0 25.305 11.268 25.305 25.185 0 13.894-11.301 25.156-25.305 25.156m-33.945-22.053c-7.464 2.435-13.068 8.924-14.274 16.847 7.473-2.443 13.089-8.931 14.274-16.847m33.945-24.158c-11.225 0-20.378 8.763-21.04 19.796 10.182 2.623 17.911 11.397 18.847 22.158.73.073 1.455.115 2.193.115 11.685 0 21.159-9.423 21.159-21.014 0-11.618-9.474-21.055-21.159-21.055m-25.154 23.219c-.727-.079-1.467-.121-2.225-.121-.77 0-1.525.05-2.271.126-.919 10.721-8.578 19.495-18.764 22.143.631 11.022 9.801 19.818 21.035 19.818 11.27 0 20.398-8.79 21.037-19.809-10.196-2.631-17.894-11.42-18.812-22.157"/></svg>