<svg version="1.2" baseProfile="tiny" xmlns="http://www.w3.org/2000/svg" viewBox="0 0 205 205"><g><path fill="#323436" d="M140.244 108.467c1.679 4.272.843 11.505-1.658 15.903 1.325 3.464 1.297 7.944-2.352 11.512-1.708 1.676-3.585 2.641-5.293 3.19-1.708.541-3.259.668-4.315.668-.312 0-.616-.015-.921-.03-.439.623-.992 1.15-1.637 1.565-1.346.86-2.204 1.105-2.827 1.291-.376.104-.503.141-.772.326-.17.119-.446.326-.737.549-1.637 1.268-4.379 3.397-7.426 3.397l-.262-.007c-1.247-.045-2.253-.178-3.103-.415-1.424.668-3.068 1.009-4.896 1.009-3.224 0-6.887-1.15-9.417-2.885-2.041.645-3.947.972-5.676.972-2.388 0-4.478-.608-6.214-1.795-1.594-1.009-2.707-2.285-3.451-3.405-.333.037-.666.059-.999.059-3.288 0-5.633-1.862-6.908-3.234-2.969-.393-6.462-2.448-7.263-7.165-.602-3.531.078-6.364.631-7.922-.262-1.402-.347-3.345.524-5.838.949-2.715 2.685-4.829 4.825-5.964.17-2.863 1.601-5.778 3.812-7.633.701-1.699 1.941-3.835 4.563-5.43 2.466-3.731 7.525-6.29 12.591-6.29.843 0 1.651.074 2.423.223 2.508-1.424 5.413-2.196 8.276-2.196 3.132 0 6.051.935 8.503 2.722.616-.059 1.247-.089 1.871-.089 2.133 0 4.138.334 5.803.957 1.155.393 2.303.927 3.422 1.595.482-.067.957-.096 1.438-.096 2.452 0 4.762.86 6.625 2.455 2.076.015 4.209 1.061 5.867 2.878 1.566 1.721 2.551 3.916 2.82 6.223.772.534 1.552 1.431 2.133 2.9zm-2.764 10.867c1.467-5.029 1.275-10.674-1.722-11.393-.085.675-.262 1.372-.531 2.055l-.028.074-.071.171-.05.119-.071.141-.12.252-.043.089-.106.193-.057.096-.106.193-.05.089-.17.267.12-.2.043-.074.078-.141.043-.089.064-.126.05-.104.057-.119.043-.104.05-.119.043-.111.043-.119.043-.111.043-.119.035-.119.035-.119.035-.126.028-.111.035-.134.021-.104.028-.141.021-.096.028-.156.014-.089.021-.163.014-.082.021-.171.007-.074.014-.185.007-.059.007-.2.007-.045v-.215l.007-.037v-.245l-.007-.237v-.007c-.142-3.746-2.522-7.492-6.164-7.38.099.134.191.274.276.415l.043.067.213.363.05.082.205.401.021.045c.142.304.269.623.376.942l.043.126.106.356.043.156.078.349.035.148.085.497-.099-.312-.014-.059-.085-.26-.043-.126-.064-.185-.078-.208-.035-.104-.099-.26-.021-.052-.128-.297-.007-.007c-.517-1.172-1.24-2.277-2.338-3.13-1.105-.846-2.579-1.439-4.591-1.595l-.524-.037h-.021l-.517-.007h-.05l-.524.007h-.05l.007.007.531.401.007.007.524.423.028.022.496.43.057.045.539.497c-2.948-2.796-9.006-5.274-13.484-4.169-6.49 1.602-8.248 5.734-11.188 7.544-2.785 1.713-6.058-.571-7.801 5.711l.05-.363.007-.045.05-.304v-.015c.12-.668.276-1.239.461-1.728-1.523.727-2.742 1.921-3.762 3.345-.255.363-.489.734-.701 1.12-.22.386-.404.779-.595 1.202-.198.423-.418.838-.687 1.231s-.616.764-1.034 1.009c-.418.252-.822.401-1.19.608-.368.208-.709.46-1.027.749-.645.571-1.148 1.305-1.566 2.084-.829 1.565-1.304 3.353-1.368 5.148-.028.898.057 1.802.262 2.67.22.86.538 1.721 1.098 2.366.56.66 1.389.972 2.211 1.254.836.282 1.686.601 2.437 1.105.39.252.709.549 1.098.742.376.2.779.349 1.197.445.836.2 1.722.193 2.558.007.843-.185 1.658-.556 2.324-1.12.673-.556 1.162-1.498 1.353-2.374l.014-.067h.064c.531.007 1.091-.089 1.573-.326.489-.237.914-.675 1.282-1.083.751-.823 1.254-2.084 1.97-2.952.354-.43.709-.801 1.205-1.053.496-.252 1.226-.171 1.764-.111 1.098.134 2.161.831 2.976 1.543-.935-.571-1.941-1.098-3.026-1.216-.539-.052-1.098.03-1.58.289-.489.252-.886.653-1.24 1.083-.694.868-1.226 1.884-1.977 2.73-.376.423-.808.801-1.311 1.053-.276.134-.567.23-.872.297.149.556.546 1.038 1.013 1.402.475.356 1.034.593 1.523.675l.113.015h.021l.085.007h.043l.064.007h.057l.043-.007h.071l.028-.007.099-.015-.156.045-.035.007-.113.022-.05.007-.099.015-.064.007-.085.007-.078.007h-.213l-.099-.007h-.043l-.113-.015h-.021l-.128-.022h-.014c-1.049-.208-1.927-1.031-2.487-2.084l-.043.007c-.156.682-.517 1.491-.971 2.092l-.007.007-.113.141-.014.022-.106.111-.035.037-.085.089-.128.119c-.687.593-1.53 1.068-2.402 1.268l-.305.067-.106.015-.198.03-.135.015-.17.022-.156.007-.142.007h-.283c-.262-.007-.524-.022-.786-.067l-.17.082-.028.007-.156.089-.028.015-.149.104-.028.022-.142.104-.021.022-.142.126-.007.015c-.191.193-.361.415-.517.66l-.021.03-.092.156-.035.067-.078.141-.043.089-.064.134-.05.111-.057.134-.05.119-.05.126-.057.156-.035.104-.092.267-.007-.223-.007-.059v-.156l.007-.082v-.126l.007-.096.007-.119.014-.104.014-.096.021-.111.014-.096.028-.111.021-.089.035-.119.028-.082.05-.119.028-.074.057-.126.035-.067.071-.126.035-.059.078-.134.043-.052.099-.134.035-.045.113-.141.035-.037.142-.141.021-.022.17-.156-.361-.134-.014-.007-.354-.163c-.198-.104-.397-.223-.581-.356s-.354-.26-.539-.378c-.737-.475-1.481-1.209-2.317-1.476-.418-.141-.843-.282-1.254-.49l-.248-.134-.099-.059-.106-.074-.248-.178-.014-.007c-2.785 13.5 5.881 16.986 13.052 13.529-.22-.178-.453-.401-.687-.653l-.05-.052-.128-.148-.071-.082-.113-.134-.092-.111-.099-.134-.099-.134-.085-.119-.149-.223-.05-.089-.142-.23-.057-.104-.099-.185-.05-.119-.085-.185-.05-.119-.078-.185-.035-.119-.064-.208-.028-.104-.071-.312c-2.048 2.151-4.23 2.655-6.058 2.121 2.437.015 4.691-1.498 6.49-3.249.354 2.44 1.53 3.642 2.515 4.584l.269.245.092.082.184.156.106.089.17.134.113.089.163.126.113.082.163.119.113.082.17.111.106.074.177.111.099.067.213.119.071.044.56.304.057.022.227.111.078.037.198.089.085.037.198.082.085.037.198.074.078.03.213.074.064.022.234.074.043.015c.376.119.751.215 1.12.289h.007l.262.052h.028l.241.044h.035l.241.037h.021l.255.03h.007c.446.052.886.067 1.304.067 1.516 0 2.827-.274 3.734-.534l.142-.044.021-.007.106-.03.035-.015.092-.03.043-.015.071-.022.057-.015.05-.022.064-.015.021-.015.453-.171c-.631-.497-.999-1.231-.999-2.322l-.163.059-.035.015-.156.052-.057.022-.156.045-.064.015-.163.037-.071.015-.163.03-.078.015-.17.022-.05.007-.383.03-.092.007-.156.007h-.45399999999999996l-.149-.007-.177-.007-.149-.007-.191-.022-.156-.015-.213-.022-.149-.022-.248-.03-.128-.022-.39-.067c3.245-.03 5.817-1.209 6.816-2.737l-.106.185-.021.044-.085.148-.028.044-.078.141-.028.045-.085.141-.028.045-.092.141-.021.037-.106.141-.021.03-.113.148-.007.015c-.305.378-.652.719-1.084.987l-.269.156-.213.096-.007.007.021.059.064.252.05.119.064.178.057.126.078.148.078.119.085.141.085.111.099.126.099.104.106.111.106.096.12.104.12.089.128.089.135.082.135.074.142.074.142.067.149.059.156.059.156.052.163.052.163.037.17.037.163.03.177.03.177.022.184.015.177.015h.191l.184.007.191-.007.191-.007.198-.015.191-.022.205-.022.191-.03.205-.037.198-.045.213-.044.198-.052.213-.059.198-.059.213-.074.205-.067.213-.082.205-.082.213-.096.198-.089.22-.104.198-.096.22-.126.191-.104.227-.141.184-.111.241-.156.17-.119.255-.185.142-.104.397-.319.163-.134.05-.037.113-.089.057-.045.099-.082.064-.037.099-.074.057-.037.099-.074.057-.03.106-.074.043-.03.113-.067.043-.022.113-.067.035-.022.12-.067.021-.015.135-.074.014-.007c2.515-1.32 4.23-.63 4.988-4.265l-.014.007.163-.86.404-.126.128-.045.248-.096.142-.059.213-.096.135-.074.184-.096.135-.074.17-.104.12-.089.156-.104.113-.096.135-.111.106-.104.128-.111.099-.111.106-.119.092-.111.099-.126.078-.119.092-.126.071-.126.078-.134.064-.126.071-.134.057-.134.057-.141.05-.134.05-.141.043-.141.043-.141.035-.141.028-.148.035-.148.021-.148.028-.148.014-.148.021-.156.014-.148.007-.156.014-.148.007-.163v-.622l-.007-.148-.007-.171-.007-.141-.014-.178-.007-.134-.014-.178-.014-.134-.014-.185-.014-.126-.028-.193-.007-.111-.028-.2-.014-.096-.028-.223-.014-.074-.035-.237v-.007c-.694.126-1.545.119-2.636-.082l-.128-.022-.163-.037-.177-.037-.149-.03-.227-.059-.12-.03-.361-.096c3.196.349 4.889-.111 7.043-1.454l-.17.156c-.73.668-1.417 1.291-2.473 1.595.298 1.024.425 1.951.432 2.774.418-.007.935.141 1.445.445l.035.022.128.082.057.037.113.082.078.059.092.074.092.082.078.074.106.096.064.067.113.126.057.059.092.119-.064-.067-.05-.052-.085-.082-.064-.052-.078-.059-.071-.052-.078-.044-.078-.045-.071-.037-.085-.037-.064-.03-.092-.037-.071-.022-.092-.022-.064-.022-.106-.015-.064-.015-.113-.015-.064-.007-.113-.015-.064-.007h-.128l-.064-.007h-.391l-.142.007h-.057l-.163.007h-.007c-.177 1.995-1.134 3.36-2.133 4.258l-.007.007-.149.134h-.007c-.156.134-.305.252-.461.363l-.014.007-.135.096-.021.015-.432.267-.014.007-.12.074-.021.007-.113.067-.014.007-.248.126h-.007l-.099.052h-.007c0 .237-.021.638-.128 1.098 4.662.697 8.623-.898 10.472-4.094v-.007l.135-.245.014-.015.12-.237.007-.03.106-.23.021-.037.092-.237.021-.045.085-.223.021-.059.071-.223.021-.067.064-.223.021-.074.057-.215.021-.089.043-.208.021-.104.035-.2.014-.111.035-.2.014-.119.021-.193.007-.134.014-.185.007-.148.014-.178v-.675l-.007-.163-.007-.178-.014-.178-.014-.171-.021-.178-.014-.171-.028-.2-.021-.163-.035-.208-.028-.148-.035-.223-.035-.148-.05-.245-.028-.126-.071-.274-.028-.104-.106-.386.028-.082c-.135.156-.283.304-.432.438l-.05.045-.12.111-.17.134-.078.059-.142.096-.064.052-.213.126.198-.223.078-.089.113-.141.078-.104.113-.141.085-.119.099-.134.085-.126.099-.141.078-.126.092-.141.092-.141.085-.141.085-.148.085-.141.085-.148.078-.148.085-.156.071-.148.085-.171.071-.134.092-.185.057-.126.092-.2.057-.119.092-.215.05-.111.092-.23.043-.104.092-.237.035-.096.099-.252.028-.082.099-.274.021-.067.099-.297.014-.045.099-.319.014-.03.099-.334.018-.01zm-31.254-24.285c.999-.378 2.09-.653 3.21-.823-2.785-1.877-5.371-2.566-7.674-2.566-1.637 0-3.132.349-4.45.868l-.291.119-.028.015-.269.119-.035.015-.262.119-.028.015-.262.134-.014.007-.673.363c-.22.126-.432.252-.631.386l-.213.141-.043.022-.191.134-.057.037-.17.119-.064.052-.163.119-.064.045-.156.119-.064.045-.156.119-.05.045-.156.126-.021.015-.482.408-.05.045-.106.104-.064.052-.099.096-.064.059-.099.089-.057.052-.092.089-.057.052-.078.082-.057.059-.078.074-.043.045-.078.082-.028.03c-.248.26-.425.467-.531.593l.17.089.028.015.156.096.043.03.135.104.064.052.12.104.064.067.106.111.078.089.092.119.092.119.071.104.163.252c-.794-.89-2.189-1.283-3.635-1.343l.269-.082.106-.022.149-.037.128-.022.113-.022.149-.015.092-.007.149-.007h.064c.205 0 .397.015.581.059.687-1.127 1.771-2.188 3.118-3.063l-.007-.007-.312-.059h-.028l-.326-.052h-.028l-.34-.03-.035-.007-.347-.015h-.043l-.354-.007-.043.007-.368.007h-.043l-.376.022-.05.007-.376.037-.05.007-.39.045-.05.007-.39.067-.05.007-.404.074-.05.007-.404.089-.043.015-.418.104-.035.007-.425.119-.021.007-.439.134h-.014c-2.586.838-5.158 2.329-6.731 4.354l.404-.171.007-.007.397-.148.043-.015.383-.134.078-.022.461-.141-.298.126-.17.074-.12.052-.198.089-.078.03-.205.104-.057.022-.213.104-.043.022-.22.111-.021.015-.227.119-.007.007-.227.126c-1.786 1.031-2.763 2.27-3.791 4.591l.142-.067.135-.059.17-.067.163-.067.17-.052.22-.067.12-.037.34-.074.12-.022.269-.037.113-.015.39-.037.446-.007h.128l.305.007.135.007.276.022.128.015.262.037.12.015.262.052.099.022.262.067.078.022.276.089.043.015.305.119c.085-.438.17-.89.291-1.335l.05-.185.007-.007.05-.178.007-.022.057-.163.007-.03.057-.163.007-.03.064-.156.014-.037.064-.148.014-.037.064-.148.021-.045.071-.141.021-.045.071-.134.028-.045.078-.134.028-.045.085-.134.028-.045.085-.134.035-.045.092-.126.035-.045.099-.126.035-.037.106-.119.043-.052.113-.111.043-.045.12-.111.05-.045.128-.111.043-.037.142-.111.05-.037.149-.104.05-.037.163-.104.043-.03.177-.104.043-.022.191-.104.043-.022.213-.104.035-.015.255-.111-.135.089c-1.382.927-2.423 2.337-2.983 5.697l.291.193.028.022.205.163c.198.156.383.326.538.512l.021.03.191.223.014.022c.128.171.248.341.347.519l.021.037.12.23.021.052.12.252v.007l.106.274.014.045.071.223.021.067.057.208.014.059.05.26.007.045.035.208.007.082.021.171.007.074.014.237c.05 2.114-1.474 4.799-4.421 4.747 2.671-.801 3.982-1.936 3.925-5.014-.057-3.093-3.316-4.117-4.995-4.117-.928 0-4.081.697-5.605 3.382l-.135.245-.071.126-.057.111-.064.126-.05.096-.057.126-.043.096-.057.119-.043.089-.043.111-.043.096-.035.104-.035.096-.035.089-.035.104-.021.082-.035.104-.021.074-.028.104-.021.067-.021.104-.014.059-.028.104-.007.052-.021.111-.007.045-.014.111-.007.037-.014.111v.03l-.007.119-.007.022-.007.119v.14100000000000001c0 .579.106 1.016.156 1.417h.007c.765-.059 1.474.074 2.034.371l.12-.356.021-.045.135-.326.007-.022.163-.334.007-.022.156-.282.035-.059.184-.282.205-.274.043-.052.177-.208.05-.052.241-.23.241-.208.071-.052.205-.156.064-.037.276-.171.057-.03.241-.126.092-.037.255-.111.057-.022.326-.104.092-.022.262-.067.099-.022.361-.067c-2.997 1.372-4.251 4.97-4.691 7.032 0-.927.085-1.78.262-2.559-.198-.074-.631-.208-1.212-.23l-.092-.007h-.318l-.291.022-.043.007-.064.007-.057.007-.064.007-.064.007-.057.015-.071.015-.057.007-.071.015-.057.015-.078.022-.05.015-.085.022-.05.015-.106.03-.021.007-.142.052h.002l-.128.052-.035.015-.099.045-.05.022-.092.037-.05.03-.092.045-.05.022-.092.052-.05.03-.092.052-.05.03-.099.067-.043.03-.12.082-.021.015-.291.215-.035.03-.106.089-.05.045-.099.082-.05.052-.092.082-.057.052-.085.089-.057.059-.085.089-.057.067-.092.096-.05.059-.106.126-.035.045-.142.178-.014.022-.128.163-.05.067-.085.134-.057.082-.085.119-.057.089-.078.126-.057.096-.078.134-.057.096-.078.141-.057.096-.078.148-.057.104-.085.171-.043.089-.135.267c-2.388 5.155 1.467 7.655.276 9.888v-.408l-.014-.193-.007-.119-.014-.171-.021-.134-.021-.148-.028-.141-.021-.141-.035-.148-.028-.126-.043-.163-.028-.104-.05-.178-.028-.089-.057-.2-.021-.052-.581-1.758v-.007l-.078-.267-.007-.022-.007.171c-.985 2.685-.928 5.422-.22 7.937s5.803 5.956 8.078 1.313l.184-.393.043-.104.106-.267.043-.126.078-.237.035-.119.057-.223.028-.119.043-.215.014-.111.028-.2v-.111l.014-.193v-.104l-.007-.193-.007-.089-.014-.193-.014-.082-.035-.2-.014-.059-.043-.208-.014-.052-.071-.215-.007-.03-.085-.23v-.007c-.588-1.483-1.821-2.796-2.317-5.014l-.007-.022-.071-.356v-.015c-.631-.334-1.077-.816-1.396-1.35-.106-.171-.191-.349-.276-.534l-.014-.03-.064-.163-.007-.007-.064-.171-.014-.037-.043-.134-.021-.052-.05-.163c1.722 1.802 2.14 2.307 3.932 3.101-.68-.015-1.24-.134-1.715-.334.645 2.366 2.211 3.909 2.799 5.422v.007l.057.156.014.03.035.141.014.037.035.134.007.052.021.119.014.059.014.126.007.059.007.178-.007.312-.007.096-.014.2-.007.119-.021.178-.014.119-.021.171-.021.111-.035.178-.021.104-.035.178-.021.089-.071.26-.007.007-.078.252-.028.082-.064.163-.035.089-.064.148-.043.096-.064.134-.043.089-.071.134-.043.089-.085.141-.043.067-.128.2-.007.015-.128.171-.05.067-.092.119-.057.067-.092.104-.064.067-.092.096-.057.059-.099.096-.064.052-.113.104-.05.037-.333.245-.05.03-.128.082-.057.03-.12.067-.057.03-.128.052-.05.03-.142.052-.043.015-.163.052-.014.007-.191.052c2.168 2.626 4.599 2.811 7.376 2.292-.872-3.701-.779-5.741-.234-8.078l.014-.074.043-.185.057-.208.007-.052.22-.823c-1.474-2.485-2.374-7.714-.085-11.052 1.885-3.256 3.77-2.833 4.995-4.629.985-.949.879-2.774 3.607-5.489l.283-.274.064-.059.234-.223.035-.03.248-.215.057-.052.17-.141.085-.067.149-.119.149-.111.057-.045c.057-.942-.135-1.662-.546-2.388l-.028-.052-.071-.119-.057-.096-.057-.089-.135-.193.135.126.043.045.085.096.05.059.071.096.057.067.106.148.064.104.043.067.064.119.035.059.071.134.007.015c.078.171.156.349.213.534v.007c.106.319.177.66.205 1.009v.007l.014-.007.191-.119.007-.007.184-.104.425-.215.191-.096.057-.022.05-.022.106-.052c2.211-2.744 3.564-1.372 6.469-2.693l.248-.119.078-.045.156-.089.085-.059.142-.089.078-.067.142-.104.071-.052.184-.163.071-.074.113-.104.092-.096.085-.089.092-.104.071-.082.106-.119.028-.03c.475-.564.921-1.194 1.495-1.847l.014-.022c.092-.363.156-.697.177-1.024l.007-.022c.014-.208.014-.415 0-.623v-.059l-.035-.312-.043-.312-.021-.082-.071-.326.099.26.007.022.085.252v.007c.177.534.305 1.09.326 1.654l.177-.171.05-.052.198-.178.035-.03.184-.156.057-.052.22-.178.057-.045.22-.163.035-.022.255-.185.057-.037.283-.178.028-.022.291-.171.043-.022.312-.178.064-.037.347-.171.425-.2.12-.052.39-.163.065-.029z"/><path fill="#FF74CF" d="M136.113 114.297l-.05.015-.035.015-.085.015-.035.007-.092.022h-.028l-.361.037h-.49500000000000005l-.461-.037-.078-.007-.128-.015-.106-.015-.12-.015-.135-.015-.106-.015-.262-.037c.659 1.142.985 3.375.106 4.97 1.098-1.543 1.368-3.256.716-4.458l.064.015h.198l.028-.007h.057l.028-.007.071-.007.014-.007.085-.015c.281-.06.664-.194 1.21-.439zm.028-.007h.007v-.007l-.007.007zm.043-.015l.12-.045.021-.015.156-.074-.297.134zm-5.01 16.586l-.092-.119-.057-.059-.113-.126-.064-.067-.106-.096-.078-.074-.092-.082-.092-.074-.078-.059-.113-.082-.057-.037-.128-.082-.035-.022c-.51-.304-1.027-.452-1.445-.445-.007-.823-.135-1.751-.432-2.774 1.056-.304 1.743-.927 2.473-1.595l.17-.156c-2.154 1.343-3.847 1.802-7.043 1.454l.361.096.12.03.227.059.149.03.177.037.163.037.128.022c1.091.2 1.941.208 2.636.082v.007l.035.237.014.074.028.223.014.096.028.2.007.111.028.193.014.126.014.185.014.134.014.178.007.134.014.178.007.141.007.171.007.148v.622l-.005.165-.014.148-.007.156-.014.148-.021.156-.014.148-.028.148-.021.148-.035.148-.028.148-.035.141-.043.141-.043.141-.05.141-.05.134-.057.141-.057.134-.071.134-.064.126-.078.134-.071.126-.092.126-.078.119-.099.126-.092.111-.106.119-.099.111-.128.111-.106.104-.135.111-.113.096-.156.104-.12.089-.17.104-.135.074-.184.096-.135.074-.213.096-.142.059-.248.096-.128.045-.404.126-.163.86.014-.007c-.758 3.635-2.473 2.945-4.988 4.265l-.014.007-.135.074-.021.015-.12.067-.035.022-.113.067-.043.022-.113.067-.043.03-.106.074-.057.03-.099.074-.057.037-.099.074-.064.037-.099.082-.057.045-.113.089-.05.037-.163.134-.397.319-.142.104-.255.185-.17.119-.241.156-.184.111-.227.141-.191.104-.22.126-.198.096-.22.104-.198.089-.213.096-.205.082-.213.082-.205.067-.213.074-.198.059-.213.059-.198.052-.213.044-.198.045-.205.037-.191.03-.205.022-.191.022-.198.015-.191.007-.191.007-.184-.007h-.191l-.177-.015-.184-.015-.177-.022-.177-.03-.163-.03-.17-.037-.163-.037-.163-.052-.156-.052-.156-.059-.149-.059-.142-.067-.142-.074-.135-.074-.135-.082-.128-.089-.12-.089-.12-.104-.106-.096-.106-.111-.099-.104-.099-.126-.085-.111-.085-.141-.078-.119-.078-.148-.057-.126-.064-.178-.05-.119-.064-.252-.021-.059.007-.007.213-.096.269-.156c.432-.267.779-.608 1.084-.987l.007-.015.113-.148.021-.03.106-.141.021-.037.092-.141.028-.045.085-.141.028-.045.078-.141.028-.044.085-.148.021-.044.106-.185c-.999 1.528-3.571 2.707-6.816 2.737l.39.067.128.022.248.03.149.022.213.022.156.015.191.022.149.007.177.007.149.007h.45399999999999996l.156-.007.092-.007.383-.03.05-.007.17-.022.078-.015.163-.03.071-.015.163-.037.064-.015.156-.045.057-.022.156-.052.035-.015.163-.059c0 1.09.368 1.825.999 2.322l-.453.171-.021.015-.064.015-.05.022-.057.015-.071.022-.043.015-.092.03-.035.015-.106.03-.021.007-.142.044c-.907.26-2.218.534-3.734.534-.418 0-.857-.015-1.304-.067h-.007l-.255-.03h-.021l-.241-.037h-.035l-.241-.044h-.028l-.262-.052h-.007c-.368-.074-.744-.171-1.12-.289l-.043-.015-.234-.074-.064-.022-.213-.074-.078-.03-.198-.074-.085-.037-.198-.082-.085-.037-.198-.089-.078-.037-.227-.111-.057-.022-.56-.304-.071-.044-.213-.119-.099-.067-.177-.111-.106-.074-.17-.111-.113-.082-.163-.119-.113-.082-.163-.126-.113-.089-.17-.134-.106-.089-.184-.156-.092-.082-.269-.245c-.985-.942-2.161-2.144-2.515-4.584-1.8 1.751-4.053 3.264-6.49 3.249 1.828.534 4.01.03 6.058-2.121l.071.312.028.104.064.208.035.119.078.185.05.119.085.185.05.119.099.185.057.104.142.23.05.089.149.223.085.119.099.134.099.134.092.111.113.134.071.082.128.148.05.052c.234.252.468.475.687.653-7.171 3.457-15.836-.03-13.052-13.529l.014.007.248.178.106.074.099.059.248.134c.411.208.836.349 1.254.49.836.267 1.58 1.001 2.317 1.476l.539.378s.383.252.581.356l.354.163.014.007.361.134-.17.156-.021.022-.142.141-.035.037-.113.141-.035.045-.099.134-.043.052-.078.134-.035.059-.071.126-.035.067-.057.126-.028.074-.05.119-.028.082-.035.119-.021.089-.028.111-.014.096-.021.111-.014.096-.014.104-.007.119-.007.096v.126l-.007.082v.156l.007.059.007.223.092-.267.035-.104.057-.156.05-.126.05-.119.057-.134.05-.111.064-.134.043-.089.078-.141.035-.067.092-.156.021-.03c.156-.245.326-.467.517-.66l.007-.015.142-.126.021-.022.142-.104.028-.022.149-.104.028-.015.156-.089.028-.007.17-.082c.262.045.524.059.786.067h.283l.142-.007.156-.007.17-.022.135-.015.198-.03.106-.015.305-.067c.872-.2 1.715-.675 2.402-1.268l.128-.119.085-.089.035-.037.106-.111.014-.022.113-.141.007-.007c.453-.601.815-1.409.971-2.092l.043-.007c.56 1.053 1.438 1.877 2.487 2.084h.014l.128.022h.021l.113.015h.043l.099.007h.213l.078-.007.085-.007.064-.007.099-.015.05-.007.113-.022.035-.007.156-.045-.099.015-.028.007h-.071l-.043.007h-.057l-.064-.007h-.043l-.085-.007h-.021l-.113-.015c-.489-.082-1.049-.319-1.523-.675-.468-.363-.864-.846-1.013-1.402.305-.067.595-.163.872-.297.503-.252.935-.63 1.311-1.053.751-.846 1.282-1.862 1.977-2.73.354-.43.751-.831 1.24-1.083.482-.26 1.042-.341 1.58-.289 1.084.119 2.09.645 3.026 1.216-.815-.712-1.878-1.409-2.976-1.543-.539-.059-1.268-.141-1.764.111s-.85.623-1.205 1.053c-.716.868-1.219 2.129-1.97 2.952-.368.408-.794.846-1.282 1.083-.482.237-1.042.334-1.573.326h-.064l-.014.067c-.191.875-.68 1.817-1.353 2.374-.666.564-1.481.935-2.324 1.12-.836.185-1.722.193-2.558-.007-.418-.096-.822-.245-1.197-.445-.39-.193-.709-.49-1.098-.742-.751-.504-1.601-.823-2.437-1.105-.822-.282-1.651-.593-2.211-1.254-.56-.645-.879-1.506-1.098-2.366-.205-.868-.291-1.773-.262-2.67.064-1.795.539-3.583 1.368-5.148.418-.779.921-1.513 1.566-2.084.319-.289.659-.541 1.027-.749.368-.208.772-.356 1.19-.608.418-.245.765-.616 1.034-1.009s.489-.809.687-1.231c.191-.423.376-.816.595-1.202.213-.386.446-.757.701-1.12 1.02-1.424 2.239-2.618 3.762-3.345-.184.49-.34 1.061-.461 1.728v.015l-.05.304-.007.045-.05.363c1.743-6.283 5.017-3.998 7.801-5.711 2.941-1.81 4.698-5.941 11.188-7.544 4.478-1.105 10.536 1.372 13.484 4.169l-.539-.497-.057-.045-.496-.43-.028-.022-.524-.423-.007-.007-.531-.401-.007-.007h.05l.524-.007h.05l.517.007h.021l.524.037c2.012.156 3.486.749 4.591 1.595 1.098.853 1.821 1.958 2.338 3.13l.007.007.128.297.021.052.099.26.035.104.078.208.064.185.043.126.085.26.014.059.099.312-.085-.497-.035-.148-.078-.349-.043-.156-.106-.356-.043-.126c-.106-.319-.234-.638-.376-.942l-.021-.045-.205-.401-.05-.082-.213-.363-.043-.067c-.085-.141-.177-.282-.276-.415 3.642-.111 6.023 3.635 6.164 7.38v.007l.007.237v.245l-.007.037v.215l-.007.045-.007.2-.007.059-.014.185-.007.074-.021.171-.014.082-.021.163-.014.089-.028.156-.021.096-.028.141-.021.104-.035.134-.028.111-.035.126-.035.119-.035.119-.043.119-.043.111-.043.119-.043.111-.05.119-.043.104-.057.119-.05.104-.064.126-.043.089-.078.141-.043.074-.12.2.17-.267.05-.089.106-.193.057-.096.106-.193.043-.089.12-.252.071-.141.05-.119.071-.171.028-.074c.269-.682.446-1.38.531-2.055 2.997.719 3.189 6.364 1.722 11.393l-.007.015-.099.334-.014.03-.099.319-.014.045-.099.297-.021.067-.099.274-.028.082-.099.252-.035.096-.092.237-.043.104-.092.23-.05.111-.092.215-.057.119-.092.2-.057.126-.092.185-.071.134-.085.171-.071.148-.085.156-.078.148-.085.148-.085.141-.085.148-.085.141-.092.141-.092.141-.078.126-.099.141-.085.126-.099.134-.085.119-.113.141-.078.104-.113.141-.078.089-.198.223.213-.126.064-.052.142-.096.078-.059.17-.134.12-.111.05-.045c.149-.134.298-.282.432-.438l-.028.082.106.386.028.104.071.274.028.126.05.245.035.148.035.223.028.148.035.208.021.163.028.2.014.171.021.178.014.171.014.178.007.178.007.163v.6749999999999999l-.014.178-.007.148-.014.185-.007.134-.021.193-.014.119-.035.2-.014.111-.035.2-.021.104-.043.208-.021.089-.057.215-.021.074-.064.223-.021.067-.071.223-.021.059-.085.223-.021.045-.092.237-.021.037-.106.23-.007.03-.12.237-.014.015-.135.245v.007c-1.849 3.197-5.81 4.792-10.472 4.094.106-.46.128-.86.128-1.098h.007l.099-.052h.007l.248-.126.014-.007.113-.067.021-.007.12-.074.014-.007.432-.267.021-.015.135-.096.014-.007c.156-.111.305-.23.461-.363h.007l.149-.134.007-.007c.999-.898 1.956-2.262 2.133-4.258h.007l.163-.007h.057l.142-.007h.391l.064.007h.128l.064.007.113.015.064.007.113.015.064.015.106.015.064.022.092.022.071.022.092.037.064.03.085.037.071.037.078.045.078.044.071.052.078.059.064.052.085.082.05.052.051.06zm-.659-22.268c-.595 1.432-2.048 2.5-3.968 3.034.815.452 4.719 3.219 1.856 7.425l-.184.26-.043.059-.142.193-.057.067-.128.163-.057.074-.128.141-.064.074-.12.134-.064.067-.128.126-.057.059-.128.119-.064.052-.12.111-.064.052-.128.104-.057.045-.135.096-.057.037-.135.089-.05.037-.135.082-.057.03-.135.082-.05.022-.142.074-.05.015-.142.067-.05.022-.142.052-.043.015-.156.052-.035.015-.156.045-.028.007-.163.045h-.028l-.17.037h-.021l-.17.03h-.014l-.184.022h-.007c-2.622.237-5.265-1.662-7.61-1.884l.035-.312v-.03l.014-.312v-.379c-.007-.215-.028-.43-.05-.645l-.007-.03-.043-.304-.007-.052-.043-.297-.014-.045-.05-.297c.106 2.626-.439 3.427-2.019 5.711l.227-.126.05-.037.17-.096.078-.059.12-.082.099-.082.085-.067.12-.104.05-.045.128-.126.028-.022.142-.156c.418-.475.666-1.001.801-1.558 3.932.156 6.15 2.5 8.949 1.773h.007l.177-.052h.014l.17-.059.021-.007.17-.059.021-.015.17-.067.021-.015.17-.082.028-.015.163-.082.035-.022.163-.089.043-.022.163-.104.035-.022.17-.119.043-.022.163-.126.043-.03.17-.126.043-.037.177-.141.043-.03.177-.156.043-.037.184-.163.035-.037.191-.185.035-.037.198-.2.035-.03.213-.223.021-.022.241-.26c2.182-2.433.765-6.001-1.637-7.774.635-.272 2.045-1.014 2.888-3.202zm-30.425-.526c1.034-.111 1.701-3.012-1.382-3.471 1.119.17 2.501 2.098 1.382 3.471zm.226.029l-.071-.015h-.028l.099.015zm-11.159 18.982c.05-.156.361-1.202 1.538-1.832 2.473.393 3.812-1.031 3.932-2.722v-.007l.014-.23-.007-.223v-.03l-.021-.193v-.037l-.035-.208-.007-.045-.043-.178-.014-.052-.057-.2-.014-.045-.057-.171-.021-.052-.092-.2-.007-.03-.092-.178-.028-.052-.113-.2c2.551-.452 1.509-3.301 3.351-4.413 1.594-.964 5.08 1.076 6.469-1.84l.106-.245.014-.045.078-.215v-.015c.156-.504.191-1.016.128-1.528.468.03 1.991-.074 3.132-2.04 1.148-1.966-.099-3.783-1.616-4.799l.17.148.05.037.113.104.057.059.092.089.057.059.085.089.05.059.078.089.057.059.071.082.043.059.071.089.043.059.057.089.043.059.057.082.035.059.05.082.035.059.043.089.035.059.043.082.021.059.035.082.028.059.028.082.021.059.028.082.014.059.028.074.014.059.014.082.014.059.014.074.007.059.007.074.007.059.007.074.007.059v.259l-.007.067-.007.067-.007.059-.007.067-.007.059-.014.067-.014.052-.014.067-.014.052-.021.074-.014.037-.021.082-.014.037-.028.074-.014.03-.035.089-.014.022-.043.089-.007.015-.05.089-.007.015c-.616 1.083-1.913 1.765-3.068 1.662v-.007l-.092-.252-.028-.067-.092-.185-.028-.067-.106-.193-.028-.052-.135-.215-.007-.015c-.666-.979-1.729-1.721-3.061-1.921l.078.03.028.007.092.03.043.015.092.037.043.015.092.037.05.03.092.045.057.022.092.052.057.03.099.059.057.037.099.059.057.037.099.067.149.111.064.052.092.074.071.059.085.074.071.059.085.082.064.067.085.089.057.067.085.096.064.074.078.104.057.067.078.119.05.067.078.126.043.067.085.156.021.045.106.215.085.215.021.067.057.163.021.089.035.148.021.096.028.148.014.104.021.148.007.111.007.148v.111l-.007.163v.111l-.021.171-.014.111-.028.193-.014.096-.071.297c-.666 2.455-3.897.957-6.065 1.773-2.168.816-.694 4.198-3.642 4.97 1.332 5.229-3.961 5.489-7.822 2.826l.326.245.099.074.22.156.149.104.163.111.191.126.113.067.22.141.071.045.262.156.021.015c.957.549 1.814.89 2.579 1.068-.425.349-.772.786-.957 1.335l-.007.022-.078.26-.007.045-.056.264zm34.676-18.366c-1.353-.512-.659-3.427-1.601-5.4v-.007c-.071-.156-2.416-5.029-7.539-1.476-.17-.586-.482-1.127-.907-1.573l-.014-.015-.191-.178-.043-.045-.227-.178c-2.019-1.483-4.719-.846-6.193.757 2.565-1.372 4.414-1.194 5.676-.2 1.254 1.001 2.069 3.916 0 6.253l.22-.171.085-.074.12-.104.106-.096.071-.067c.262-.26.489-.534.68-.816.567.63 1.027 1.343 1.353 2.025l.135.289c.12.289.22.564.298.831.128.452.184.868.163 1.209-1.814.341-3.238 2.552-4.329 4.71l-.007-.015-.085-.282-.021-.059c-.071-.193-.149-.386-.234-.571l-.028-.059-.142-.274.057.282.043.252v.03c.418 2.744-.269 4.517-2.565 5.415l-.163-.141-.05-.037-.163-.141-.064-.052c-.177-.134-.361-.267-.553-.386l-.092-.067-.163-.096-.12-.067-.163-.089-.191-.096-.198-.089-.191-.089-.135-.059-.205-.082-.128-.045-.333-.111-.05-.015-.312-.089-.113-.03-.276-.067-.113-.03-.383-.074c4.294.942 6.668 5.697 5.279 8.486-1.396 2.782-4.343 3.256-6.717 1.669.531.519.942 1.461.616 2.574.191-.445.368-1.127.283-1.669 2.296 1.157 5.86.126 6.554-3.256l.057-.349.014-.096.028-.252.014-.111.014-.252v-.43l-.021-.341c-.113-1.335-.652-2.611-1.608-3.657.22-.096.425-.193.616-.304.191-.104.361-.215.524-.334l.014-.007c.163-.111.305-.23.439-.356l.014-.007.12-.119.021-.03c.12-.119.22-.237.312-.356l.043-.052.078-.111.028-.037.12-.2.043-.074.05-.096.043-.082.057-.134.05-.119.028-.089.035-.104.028-.082.043-.171.014-.059.028-.134.014-.074.021-.156.007-.03.014-.193v-.059l.007-.156v-.238l-.007-.045-.007-.163-.007-.052-.021-.2c.326-.927 1.247-2.552 2.416-3.605v-.007l.191-.163.007-.007.198-.156h.007c.198-.148.404-.282.616-.386l.014-.007.198-.089.021-.015.198-.074h.021l.205-.059h.007l.213-.037.007-.007.205-.015h.021l.198.007h.035l.198.03.028.007.198.045.028.007.205.082c2.395 1.038 1.764 3.635 2.827 5.274.857 1.328 1.679 1.454 3.479.682-4.301 1.372-2.657-3.768-4.584-5.786l-.177-.156-.057-.045-.128-.096-.057-.045-.128-.096-.05-.03c-.177-.126-.361-.237-.531-.326l-.021-.007-.17-.074v-.007c-.546-.237-1.056-.297-1.538-.23v-.007l.014-.082v-.022l.014-.089.014-.349v-.305l-.007-.059-.028-.401v-.052l-.014-.126-.007-.052-.021-.141-.007-.045c-.035-.223-.078-.445-.142-.675v-.022l-.05-.163-.007-.015c-.262-.905-.737-1.78-1.523-2.24.347-.697.489-1.424.453-2.114l.354-.237.014-.007.291-.178.092-.052.255-.134.12-.067.227-.104.142-.059.213-.082.149-.059.205-.067.156-.045.191-.045.17-.037.184-.03.17-.015.177-.022h.17l.177-.007.177.015.17.015.184.022.163.022.184.045.17.037.191.059.156.052.22.089.135.052.347.163c3.085 1.589 1.569 6.477 3.453 6.692zm-3.479 23.083c.418-.764 1.049-4.799-3.167-5.081-4.216-.289-3.741 6.913-9.509 6.357-.035 1.506-5.803 5.927-8.311.556.709 1.884 1.474 2.566 2.997 3.234 1.53.668 3.989-.438 5.676-3.234 3.507.912 5.357-3.494 6.993-5.489 1.637-1.995 4.351-.015 4.747 1.202l.057.208.007.015.043.2.007.03.028.2.007.037.014.208.007.03v.245l-.014.223v.03l-.028.23-.007.015c-.028.171-.064.334-.12.504l-.007.015-.085.252-.007.022-.113.245-.014.022-.128.252-.021.022-.156.26-.014.015-.184.26-.014.015c-.135.178-.291.363-.468.541-.149-.482-.39-.987-.744-1.506l-.007-.007-.163-.237-.021-.03-.205-.26c.985 2.062.822 4.347-.652 6.29l.255-.193.064-.052.191-.163.043-.037.22-.208.028-.022.177-.193.035-.037c.135-.148.248-.297.354-.452l.007-.022.149-.237c.425-.749.539-1.58.312-2.47.475-.245.978-.712 1.375-1.239l.035-.045.057-.082.05-.074.05-.067.057-.089.035-.059.082-.15zm-30.815-15.769c0-4.317 2.168-6.609 7.1-6.082-2.572-.415-7.971-1.202-7.539 5.022-.843-.378-2.097-.467-3.274.26 1.325-.298 2.99-.157 3.713.8z"/><path fill="#323436" d="M136.481 114.142l-.156.074-.021.015-.12.045.297-.134zM136.148 114.282v.007h-.007l.007-.007zM136.063 114.312l.05-.015c-.546.245-.928.378-1.212.438l-.085.015-.014.007-.071.007-.028.007h-.057l-.028.007h-.198l-.064-.015c.652 1.202.383 2.915-.716 4.458.879-1.595.553-3.827-.106-4.97l.262.037.106.015.135.015.12.015.106.015.128.015.078.007.461.037h.495l.361-.037h.028l.092-.022.035-.007.085-.015.037-.014zM127.638 111.798c2.402 1.773 3.819 5.341 1.637 7.774l-.241.26-.021.022-.213.223-.035.03-.198.2-.035.037-.191.185-.035.037-.184.163-.043.037-.177.156-.043.03-.177.141-.043.037-.17.126-.043.03-.163.126-.043.022-.17.119-.035.022-.163.104-.043.022-.163.089-.035.022-.163.082-.028.015-.17.082-.021.015-.17.067-.021.015-.17.059-.021.007-.17.059h-.014l-.177.052h-.007c-2.799.727-5.017-1.617-8.949-1.773-.135.556-.383 1.083-.801 1.558l-.142.156-.028.022-.128.126-.05.045-.12.104-.085.067-.099.082-.12.082-.078.059-.17.096-.05.037-.227.126c1.58-2.285 2.126-3.086 2.019-5.711l.05.297.014.045.043.297.007.052.043.304.007.03c.021.215.043.43.05.645v.37899999999999995l-.014.312v.03l-.035.312c2.345.223 4.988 2.121 7.61 1.884h.007l.184-.022h.014l.17-.03h.021l.17-.037h.028l.163-.045.028-.007.156-.045.035-.015.156-.052.043-.015.142-.052.05-.022.142-.067.05-.015.142-.074.05-.022.135-.082.057-.03.135-.082.05-.037.135-.089.057-.037.135-.096.057-.045.128-.104.064-.052.12-.111.064-.052.128-.119.057-.059.128-.126.064-.067.12-.134.064-.074.128-.141.057-.074.128-.163.057-.067.142-.193.043-.059.184-.26c2.863-4.206-1.042-6.972-1.856-7.425 1.92-.534 3.373-1.602 3.968-3.034-.854 2.185-2.264 2.927-2.888 3.202zM122.232 103.312c.942 1.973.248 4.888 1.601 5.4-1.885-.215-.368-5.103-3.444-6.691l-.347-.163-.135-.052-.22-.089-.156-.052-.191-.059-.17-.037-.184-.045-.163-.022-.184-.022-.17-.015-.177-.015-.177.007h-.17l-.177.022-.17.015-.184.03-.17.037-.191.045-.156.045-.205.067-.149.059-.213.082-.142.059-.227.104-.12.067-.255.134-.092.052-.291.178-.014.007-.354.237c.035.69-.106 1.417-.453 2.114.786.46 1.261 1.335 1.523 2.24l.007.015.05.163v.022c.064.23.106.452.142.675l.007.045.021.141.007.052.014.126v.052l.028.401.007.059v.305l-.014.349-.014.089v.022l-.014.082v.007c.482-.067.992-.007 1.538.23v.007l.17.074.021.007c.17.089.354.2.531.326l.05.03.128.096.057.045.128.096.057.045.177.156c1.927 2.018.283 7.158 4.584 5.786-1.8.771-2.622.645-3.479-.682-1.063-1.639-.432-4.235-2.827-5.274l-.205-.082-.028-.007-.198-.045-.028-.007-.198-.03h-.035l-.198-.007h-.021l-.205.015-.007.007-.213.037h-.007l-.205.059h-.021l-.198.074-.021.015-.198.089-.014.007c-.213.104-.418.237-.616.386h-.007l-.198.156-.007.007-.191.163v.007c-1.169 1.053-2.09 2.678-2.416 3.605l.021.2.007.052.007.163.007.045v.238l-.007.156v.059l-.014.193-.007.03-.021.156-.014.074-.028.134-.014.059-.043.171-.028.082-.035.104-.028.089-.05.119-.057.134-.043.082-.05.096-.043.074-.12.2-.028.037-.078.111-.043.052c-.092.119-.191.237-.312.356l-.021.03-.12.119-.014.007c-.135.126-.276.245-.439.356l-.014.007c-.163.119-.333.23-.524.334-.191.111-.397.208-.616.304.957 1.046 1.495 2.322 1.608 3.657l.021.341v.43000000000000005l-.014.252-.014.111-.028.252-.014.096-.057.349c-.694 3.382-4.258 4.413-6.554 3.256.085.541-.092 1.224-.283 1.669.326-1.113-.085-2.055-.616-2.574 2.374 1.587 5.321 1.113 6.717-1.669 1.389-2.789-.985-7.544-5.279-8.486l.383.074.113.03.276.067.113.03.312.089.05.015.333.111.128.045.205.082.135.059.191.089.198.089.191.096.163.089.12.067.163.096.092.067c.191.119.376.252.553.386l.064.052.163.141.05.037.163.141c2.296-.898 2.983-2.67 2.565-5.415v-.03l-.043-.252-.057-.282.142.274.028.059c.085.185.163.378.234.571l.021.059.085.282.007.015c1.091-2.158 2.515-4.369 4.329-4.71.021-.341-.035-.757-.163-1.209-.078-.267-.177-.541-.298-.831l-.135-.289c-.326-.682-.786-1.394-1.353-2.025-.191.282-.418.556-.68.816l-.071.067-.106.096-.12.104-.085.074-.22.171c2.069-2.337 1.254-5.252 0-6.253-1.261-.994-3.111-1.172-5.676.2 1.474-1.602 4.173-2.24 6.193-.757l.227.178.043.045.191.178.014.015c.425.445.737.987.907 1.573 5.123-3.553 7.468 1.32 7.539 1.476l-.009.006zM117.187 126.714c4.216.282 3.585 4.317 3.167 5.081l-.085.148-.035.059-.057.089-.05.067-.05.074-.057.082-.035.045c-.397.527-.9.994-1.375 1.239.227.89.113 1.721-.312 2.47l-.149.237-.007.022c-.106.156-.22.304-.354.452l-.035.037-.177.193-.028.022-.22.208-.043.037-.191.163-.064.052-.255.193c1.474-1.943 1.637-4.228.652-6.29l.205.26.021.03.163.237.007.007c.354.519.595 1.024.744 1.506.177-.178.333-.363.468-.541l.014-.015.184-.26.014-.015.156-.26.021-.022.128-.252.014-.022.113-.245.007-.022.085-.252.007-.015c.057-.171.092-.334.12-.504l.007-.015.028-.23v-.03l.014-.223v-.245l-.007-.03-.014-.208-.007-.037-.028-.2-.007-.03-.043-.2-.007-.015-.057-.208c-.397-1.216-3.111-3.197-4.747-1.202-1.637 1.995-3.486 6.401-6.993 5.489-1.686 2.796-4.145 3.902-5.676 3.234-1.523-.668-2.289-1.35-2.997-3.234 2.508 5.37 8.276.949 8.311-.556 5.771.558 5.296-6.644 9.512-6.355zM104.178 111.894c.064.512.028 1.024-.128 1.528v.015l-.078.215-.014.045-.106.245c-1.389 2.915-4.875.875-6.469 1.84-1.842 1.113-.801 3.961-3.351 4.413l.113.2.028.052.092.178.007.03.092.2.021.052.057.171.014.045.057.2.014.052.043.178.007.045.035.208v.037l.021.193v.03l.007.223-.014.23v.007c-.12 1.691-1.46 3.115-3.932 2.722-1.176.63-1.488 1.676-1.538 1.832l.05-.26.007-.045.078-.26.007-.022c.184-.549.531-.987.957-1.335-.765-.178-1.623-.519-2.579-1.068l-.021-.015-.262-.156-.071-.045-.22-.141-.113-.067-.191-.126-.163-.111-.149-.104-.22-.156-.099-.074-.326-.245c3.862 2.663 9.155 2.403 7.822-2.826 2.948-.771 1.474-4.154 3.642-4.97 2.168-.816 5.399.682 6.065-1.773l.071-.297.014-.096.028-.193.014-.111.021-.171v-.111l.007-.163v-.111l-.007-.148-.007-.111-.021-.148-.014-.104-.028-.148-.021-.096-.035-.148-.021-.089-.057-.163-.021-.067-.085-.215-.106-.215-.021-.045-.085-.156-.043-.067-.078-.126-.05-.067-.078-.119-.057-.067-.078-.104-.064-.074-.085-.096-.057-.067-.085-.089-.064-.067-.085-.082-.071-.059-.085-.074-.071-.059-.092-.074-.064-.052-.149-.111-.099-.067-.057-.037-.099-.059-.057-.037-.099-.059-.057-.03-.092-.052-.057-.022-.092-.045-.05-.03-.092-.037-.043-.015-.092-.037-.043-.015-.092-.03-.028-.007-.078-.03c1.332.2 2.395.942 3.061 1.921l.007.015.135.215.028.052.106.193.028.067.092.185.028.067.092.252v.007c1.155.104 2.452-.579 3.068-1.662l.007-.015.05-.089.007-.015.043-.089.014-.022.035-.089.014-.03.028-.074.014-.037.021-.082.014-.037.021-.074.014-.052.014-.067.014-.052.014-.067.007-.059.007-.067.007-.059.007-.067.007-.067v-.259l-.007-.059-.007-.074-.007-.059-.007-.074-.007-.059-.014-.074-.014-.059-.014-.082-.014-.059-.028-.074-.014-.059-.028-.082-.021-.059-.028-.082-.028-.059-.035-.082-.021-.059-.043-.082-.035-.059-.043-.089-.035-.059-.05-.082-.035-.059-.057-.082-.043-.059-.057-.089-.043-.059-.071-.089-.043-.059-.071-.082-.057-.059-.078-.089-.05-.059-.085-.089-.057-.059-.092-.089-.057-.059-.113-.104-.05-.037-.17-.148c1.516 1.016 2.763 2.833 1.616 4.799-1.135 1.962-2.658 2.066-3.126 2.036z"/><path fill="#FF74CF" d="M109.436 94.226c-1.12.171-2.211.445-3.21.823l-.057.022-.39.163-.12.052-.425.2-.347.171-.064.037-.312.178-.043.022-.291.171-.028.022-.283.178-.057.037-.255.185-.035.022-.22.163-.057.045-.22.178-.057.052-.184.156-.035.03-.198.178-.05.052-.177.171c-.021-.564-.149-1.12-.326-1.654v-.007l-.085-.252-.007-.022-.099-.26.071.326.021.082.043.312.035.312v.059c.014.208.014.415 0 .623l-.007.022c-.021.326-.085.66-.177 1.024l-.014.022c-.574.653-1.02 1.283-1.495 1.847l-.028.03-.106.119-.071.082-.092.104-.085.089-.092.096-.113.104-.071.074-.184.163-.071.052-.142.104-.078.067-.142.089-.085.059-.156.089-.078.045-.248.119c-2.905 1.32-4.258-.052-6.469 2.693l-.106.052-.05.022-.057.022-.191.096-.425.215-.184.104-.007.007-.191.119-.014.007v-.007c-.028-.349-.099-.69-.205-1.009v-.007c-.057-.185-.135-.363-.213-.534l-.007-.015-.071-.134-.035-.059-.064-.119-.043-.067-.064-.104-.106-.148-.057-.067-.071-.096-.05-.059-.085-.096-.043-.045-.135-.126.135.193.057.089.057.096.071.119.028.052c.411.727.602 1.446.546 2.388l-.057.045-.149.111-.149.119-.085.067-.17.141-.057.052-.248.215-.035.03-.234.223-.064.059-.283.274c-2.728 2.715-2.622 4.54-3.607 5.489-1.226 1.795-3.111 1.372-4.995 4.629-2.289 3.338-1.389 8.567.085 11.052l-.22.823-.007.052-.057.208-.043.185-.014.074c-.546 2.337-.638 4.376.234 8.078-2.778.519-5.208.334-7.376-2.292l.191-.052.014-.007.163-.052.043-.015.142-.052.05-.03.128-.052.057-.03.12-.067.057-.03.128-.082.05-.03.333-.245.05-.037.113-.104.064-.052.099-.096.057-.059.092-.096.064-.067.092-.104.057-.067.092-.119.05-.067.128-.171.007-.015.128-.2.043-.067.085-.141.043-.089.071-.134.043-.089.064-.134.043-.096.064-.148.035-.089.064-.163.028-.082.078-.252.007-.007.071-.26.021-.089.035-.178.021-.104.035-.178.021-.111.021-.171.014-.119.021-.178.007-.119.014-.2.007-.096.007-.312-.007-.178-.007-.059-.014-.126-.014-.059-.021-.119-.007-.052-.035-.134-.014-.037-.035-.141-.014-.03-.057-.156v-.007c-.588-1.513-2.154-3.056-2.799-5.422.475.2 1.034.319 1.715.334-1.793-.794-2.211-1.298-3.932-3.101l.05.163.021.052.043.134.014.037.064.171.007.007.064.163.014.03c.085.185.17.363.276.534.319.534.765 1.016 1.396 1.35v.015l.071.356.007.022c.496 2.218 1.729 3.531 2.317 5.014v.007l.085.23.007.03.071.215.014.052.043.208.014.059.035.2.014.082.014.193.007.089.007.193v.104l-.014.193v.111l-.028.2-.014.111-.043.215-.028.119-.057.223-.035.119-.078.237-.043.126-.106.267-.043.104-.184.393c-2.274 4.643-7.369 1.202-8.078-1.313s-.765-5.252.22-7.937l.007-.171.007.022.078.267v.007l.581 1.758.021.052.057.2.028.089.05.178.028.104.043.163.028.126.035.148.021.141.028.141.021.148.021.134.014.171.007.119.014.193v.408c1.19-2.233-2.664-4.732-.276-9.888l.135-.267.043-.089.085-.171.057-.104.078-.148.057-.096.078-.141.057-.096.078-.134.057-.096.078-.126.057-.089.085-.119.057-.082.085-.134.05-.067.128-.163.014-.022.142-.178.035-.045.106-.126.05-.059.092-.096.057-.067.085-.089.057-.059.085-.089.057-.052.092-.082.05-.052.099-.082.05-.045.106-.089.035-.03.291-.215.021-.015.12-.082.043-.03.099-.067.05-.03.092-.052.05-.03.092-.052.05-.022.092-.045.05-.03.092-.037.05-.022.099-.045.035-.015.128-.052h.007l.142-.052.021-.007.106-.03.05-.015.085-.022.05-.015.078-.022.057-.015.071-.015.057-.007.071-.015.057-.015.064-.007.064-.007.057-.007.064-.007.043-.007.291-.022h.318l.092.007c.581.022 1.013.156 1.212.23-.177.779-.262 1.632-.262 2.559.439-2.062 1.693-5.66 4.691-7.032l-.361.067-.099.022-.262.067-.092.022-.326.104-.057.022-.255.111-.092.037-.241.126-.057.03-.276.171-.064.037-.205.156-.071.052-.241.208-.241.23-.05.052-.177.208-.043.052-.205.274-.184.282-.035.059-.156.282-.007.022-.163.334-.007.022-.135.326-.021.045-.12.356c-.56-.297-1.268-.43-2.034-.371h-.007c-.05-.401-.156-.838-.156-1.417v-.14100000000000001l.007-.119.007-.022.007-.119v-.03l.014-.111.007-.037.014-.111.007-.045.021-.111.007-.052.028-.104.014-.059.021-.104.021-.067.028-.104.021-.074.035-.104.021-.082.035-.104.035-.089.035-.096.035-.104.043-.096.043-.111.043-.089.057-.119.043-.096.057-.126.05-.096.064-.126.057-.111.071-.126.135-.245c1.523-2.685 4.676-3.382 5.605-3.382 1.679 0 4.939 1.024 4.995 4.117.057 3.078-1.254 4.213-3.925 5.014 2.948.052 4.471-2.633 4.421-4.747l-.014-.237-.007-.074-.021-.171-.007-.082-.035-.208-.007-.045-.05-.26-.014-.059-.057-.208-.021-.067-.071-.223-.014-.045-.106-.274v-.007l-.12-.252-.021-.052-.12-.23-.021-.037c-.099-.178-.22-.349-.347-.519l-.014-.022-.191-.223-.021-.03c-.156-.185-.34-.356-.538-.512l-.205-.163-.028-.022-.291-.193c.56-3.36 1.601-4.769 2.983-5.697l.135-.089-.255.111-.035.015-.213.104-.043.022-.191.104-.043.022-.177.104-.043.03-.163.104-.05.037-.149.104-.05.037-.142.111-.043.037-.128.111-.05.045-.12.111-.043.045-.113.111-.043.052-.106.119-.035.037-.099.126-.035.045-.092.126-.035.045-.085.134-.028.045-.085.134-.028.045-.078.134-.028.045-.071.134-.021.045-.071.141-.021.045-.064.148-.014.037-.064.148-.014.037-.064.156-.007.03-.057.163-.007.03-.057.163-.007.022-.05.178-.007.007-.05.185c-.12.445-.205.898-.291 1.335l-.305-.119-.043-.015-.276-.089-.078-.022-.262-.067-.099-.022-.262-.052-.12-.015-.262-.037-.128-.015-.276-.022-.135-.007-.305-.007h-.128l-.446.007-.39.037-.113.015-.269.037-.12.022-.34.074-.12.037-.22.067-.17.052-.163.067-.17.067-.135.059-.142.067c1.027-2.322 2.005-3.56 3.791-4.591l.227-.126.007-.007.227-.119.021-.015.22-.111.043-.022.213-.104.057-.022.205-.104.078-.03.198-.089.12-.052.17-.074.298-.126-.461.141-.078.022-.383.134-.043.015-.397.148-.007.007-.404.171c1.573-2.025 4.145-3.516 6.731-4.354h.014l.439-.134.021-.007.425-.119.035-.007.418-.104.043-.015.404-.089.05-.007.404-.074.05-.007.39-.067.05-.007.39-.045.05-.007.376-.037.05-.007.376-.022h.043l.368-.007.043-.007.354.007h.043l.347.015.035.007.34.03h.028l.326.052h.028l.312.059.007.007c-1.346.875-2.43 1.936-3.118 3.063-.184-.045-.376-.059-.581-.059h-.064l-.149.007-.092.007-.149.015-.113.022-.128.022-.149.037-.106.022-.269.082c1.445.059 2.841.452 3.635 1.343l-.163-.252-.071-.104-.092-.119-.092-.119-.078-.089-.106-.111-.064-.067-.12-.104-.064-.052-.135-.104-.043-.03-.156-.096-.028-.015-.17-.089c.106-.126.283-.334.531-.593l.028-.03.078-.082.043-.045.078-.074.057-.059.078-.082.057-.052.092-.089.057-.052.099-.089.064-.059.099-.096.064-.052.106-.104.05-.045.482-.408.021-.015.156-.126.05-.045.156-.119.064-.045.156-.119.064-.045.163-.119.064-.052.17-.119.057-.037.191-.134.043-.022.213-.141c.198-.134.411-.26.631-.386.22-.126.446-.245.673-.363l.014-.007.262-.134.028-.015.262-.119.035-.015.269-.119.028-.015.291-.119c1.318-.519 2.813-.868 4.45-.868 2.286.006 4.872.696 7.657 2.573z"/><path fill="#323436" d="M100.246 108.081l.071.015-.099-.015h.028zM98.708 104.595c3.082.46 2.416 3.36 1.382 3.471 1.119-1.372-.263-3.3-1.382-3.471zM96.639 109.943c-4.932-.527-7.1 1.765-7.1 6.082-.723-.957-2.388-1.098-3.713-.801 1.176-.727 2.43-.638 3.274-.26-.432-6.222 4.967-5.436 7.539-5.021z"/></g><path fill="#23B1E5" d="M173.614 83.375c-1.113-43.906-34.135-72.018-70.665-72.018-40.151 0-69.697 32.14-70.686 72.018h6.449c.983-36.763 27.617-66.413 64.237-66.413 36.582 0 63.247 29.65 64.231 66.413h6.434z"/><path fill="#201D1A" d="M37.346 144.985h5.756v10.301h-5.756z"/><path fill="#23B1E5" d="M167.179 82.885v7.806l6.435 5.818v-13.624zM38.712 83.095v7.686l-6.435 5.728v-13.414zM143.576 150.549c0 1.761 1.443 3.203 3.204 3.203h4.047c1.761 0 3.204-1.442 3.204-3.203v-61.453c0-1.762-1.443-3.204-3.204-3.204h-4.047c-1.761 0-3.204 1.442-3.204 3.204v61.453z"/><path fill="#262421" d="M174.733 99.868v37.048c3.031-1.202 5.784-3.086 5.784-5.252v-26.562c.001-2.135-2.753-4.019-5.784-5.234z"/><path fill="#23B1E5" d="M50.8 150.549c0 1.761 1.443 3.203 3.205 3.203h4.046c1.762 0 3.205-1.442 3.205-3.203v-61.453c0-1.762-1.443-3.204-3.205-3.204h-4.046c-1.762 0-3.205 1.442-3.205 3.204v61.453z"/><path fill="#262421" d="M24.482 105.102v26.578c0 2.151 2.753 4.035 5.784 5.236v-37.048c-3.03 1.215-5.784 3.099-5.784 5.234z"/><path fill="#423E3C" d="M162.159 89.308h-8.127v61.191h8.127c7.3 0 13.202-4.625 13.202-10.322v-40.547c-.001-5.696-5.903-10.322-13.202-10.322zM29.642 99.599v40.432c0 5.68 5.883 10.306 13.17 10.306h8.093v-61.029h-8.093c-7.287 0-13.17 4.61-13.17 10.291z"/><path fill="#262421" d="M154.032 89.308h2.805v61.191h-2.805zM47.996 89.308h2.805v61.191h-2.805z"/><path fill="#423E3C" d="M169.944 50.908l-1.125-2.269c-6.366-12.813-16.15-23.364-28.34-30.573v-.021l-3.225-1.831-.044.044c-10.528-5.518-22.339-8.425-34.263-8.425-12.3 0-23.84 2.813-34.332 8.368l-.02-.021-.957.554c-.145.078-2.236 1.246-2.236 1.246v.057c-12.025 7.179-21.762 17.786-28.206 30.728l-1.128 2.268-1.851 3.677 12.014 6.497 2.094-4.672c4.766-10.642 12.101-19.546 21.257-25.837l1.261-.817c9.625-6.236 20.425-9.396 32.106-9.396 11.669 0 22.468 3.165 32.087 9.399l1.14.736c9.22 6.293 16.595 15.225 21.382 25.912l2.091 4.672 12.135-6.494-1.84-3.802z"/><path fill="#23B1E5" d="M38.744 155.286h2.961v41.881h-2.961z"/><path fill="#fff" d="M105.772 152.73l-13.637-61.763-9.959 27.092-20.705-1.205 17.378-2.002 14.349-39.017 13.474 61.02 10.805-31.903 9.392 13.64 16.294 2.005-18.957 1.203-5.332-7.741z"/></svg>