<svg version="1.2" baseProfile="tiny" xmlns="http://www.w3.org/2000/svg" viewBox="0 0 960 609"><path fill="#0A4068" d="M412.729 244.826c.097-2.831-.879-4.588-2.44-5.759-1.562-1.171-3.807-1.562-6.248-1.562-3.611 0-8.297 1.074-8.297 5.661 0 5.272 10.445 5.564 17.279 8.005 12.104 4.295 16.204 10.933 16.204 19.229 0 16.791-16.302 24.697-31.433 24.697-16.009 0-30.456-7.321-29.577-25.087h20.791c0 3.807.879 6.15 2.636 7.906 1.854 1.562 4.393 1.757 7.907 1.757 4.198 0 9.371-2.148 9.371-6.735 0-5.076-7.126-5.759-16.79-8.98-8.492-2.831-16.692-7.321-16.692-18.937 0-15.716 15.228-22.94 29.285-22.94 14.837 0 28.21 5.565 27.82 22.744h-19.816zM443.77 223.742h34.556c12.788 0 21.085 7.029 21.085 22.452 0 14.056-11.811 26.161-30.163 26.161h-14.447l-4.393 21.085h-21.182l14.544-69.698zm14.544 32.018h8.2c8.59 0 11.42-3.222 11.42-7.907 0-5.369-4.783-6.247-9.273-6.247h-7.321l-3.026 14.154zM539.822 222.082c19.719 0 31.725 9.274 31.725 30.553 0 23.429-15.423 42.463-39.142 42.463-19.719 0-31.725-10.445-31.725-30.553 0-23.427 15.421-42.463 39.142-42.463zm-6.833 55.641c12.886 0 17.083-15.228 17.083-25.575 0-6.346-2.441-12.69-10.835-12.69-12.886 0-17.083 15.227-17.083 25.575.001 6.345 2.442 12.69 10.835 12.69zM582.772 223.742h35.337c12.886 0 22.744 3.515 22.744 18.254 0 10.153-6.246 17.571-16.301 19.23v.195c6.344 1.758 7.223 7.712 7.223 14.252 0 6.54-.78 13.666.976 17.766h-20.498c-.781-1.757-.878-3.71-.878-6.833 0-3.319 1.073-7.614 1.073-11.128 0-3.612-2.732-6.345-8.687-6.345h-9.274l-5.077 24.306h-21.085l14.447-69.697zm14.838 30.456h11.323c7.126 0 10.445-3.611 10.445-7.809 0-2.733-1.659-6.052-7.224-6.052h-11.616l-2.928 13.861zM663.109 241.606h-19.327l3.709-17.864h60.13l-3.709 17.864h-19.327l-10.738 51.833h-21.474l10.736-51.833zM382.078 318.208h57.593l-3.612 17.864h-36.117l-1.854 8.687h33.482l-3.416 16.595h-33.58l-1.854 8.687h36.898l-3.709 17.864h-58.374l14.543-69.697zM446.113 318.208h21.281l13.08 38.071h.196l7.808-38.071h20.402l-14.642 69.697h-21.085l-12.788-39.046h-.195l-8.102 39.046h-20.402l14.447-69.697zM553.098 381.169l-.195-.195c-4.492 6.053-11.421 8.591-18.841 8.591-24.404 0-28.307-20.695-28.307-29.382 0-21.866 12.494-43.634 39.825-43.634 15.618 0 28.699 7.908 28.894 26.063h-20.303c-.585-6.443-4.392-8.687-9.858-8.687-11.811 0-17.083 12.593-17.083 24.599 0 8.199 3.514 13.665 12.201 13.665 5.76 0 10.64-2.049 12.788-7.711h-9.76l3.122-14.935h28.504l-8.004 38.363h-13.569l.586-6.737zM587.264 318.208h21.475l-10.739 51.833h30.847l-3.709 17.864h-52.321l14.447-69.697zM667.503 318.208h21.085l10.835 69.697h-21.085l-1.171-9.957h-22.744l-5.368 9.957h-21.866l40.314-69.697zm-5.272 44.805h13.374l-2.344-20.89h-.195l-10.835 20.89zM716.991 318.208h21.28l13.081 38.071h.195l7.809-38.071h20.402l-14.642 69.697h-21.085l-12.788-39.046h-.195l-8.102 39.046h-20.402l14.447-69.697zM786.102 318.208h32.114c12.788 0 28.894 8.004 27.723 30.748-1.171 23.232-15.717 38.949-39.924 38.949h-34.459l14.546-69.697zm10.737 51.833h10.349c14.055 0 17.278-14.543 17.278-20.986 0-10.445-5.37-12.982-12.593-12.982h-7.907l-7.127 33.968z"/><path fill-rule="evenodd" fill="#0A4068" d="M318.077 301.198l.392 3.801c0 46.309-28.471 85.794-68.337 102.881l-.38-37.585s0-32.263 19.726-49.36c22.399-19.357 48.599-19.737 48.599-19.737zM164.328 407.881c-40.237-16.707-68.328-56.573-68.328-102.882l.38-3.801s25.82.38 48.59 19.738c19.738 17.096 19.358 49.36 19.358 49.36v37.585zM167.738 260.962c0-21.259 17.478-38.725 39.126-38.725 21.238 0 38.706 17.467 38.706 38.725 0 21.259-17.468 38.725-38.706 38.725-21.648 0-39.126-17.467-39.126-38.725zm34.175 155.262h10.254000000000001v-52.391s.38-43.268 30.762-69.078c30.351-25.82 67.936-30.382 67.936-30.382-16.324-41.377-56.561-70.598-103.63-70.598-47.079 0-87.324 29.221-103.632 70.598 0 0 37.195 4.562 67.938 30.382 30.372 25.81 30.762 69.078 30.762 69.078v52.02l-.39.371z"/></svg>