<svg version="1.2" baseProfile="tiny" xmlns="http://www.w3.org/2000/svg" viewBox="0 0 960 609"><g fill="#4C545C"><path d="M229.125 523.153c-13.748 0-19.958-9.423-19.958-21.841v-43.794c0-4.324 3.216-7.76 7.43-7.76 4.101 0 7.427 3.437 7.427 7.76v7.54h13.859c3.657 0 6.873 2.772 6.873 6.651 0 3.66-3.216 6.432-6.873 6.432h-13.859v22.837c0 5.323 2.329 8.204 7.206 8.204 2.439 0 4.879-.665 6.875-1.217 5.655-1.331 9.202 2.216 9.202 6.318 0 2.439-1.218 4.99-4.657 6.542-3.882 1.773-9.313 2.328-13.525 2.328zM293.65 470.713c0 2.992-2.327 6.984-6.986 6.984-2.55 0-4.99-1.109-8.315-.998-3.657.113-5.766 2.105-5.766 7.208v31.375c0 4.212-3.214 7.539-7.427 7.539-4.103 0-7.429-3.327-7.429-7.539v-34.147c0-11.532 6.764-18.96 19.512-18.96 3.659 0 7.319.333 9.536.887 4.548 1.22 6.875 3.992 6.875 7.651zM351.303 490.336c0 4.323-2.217 7.428-7.649 7.428h-29.49v1.109c0 6.986 5.32 10.754 12.748 10.754 3.992 0 8.093-.998 11.863-2.44 5.875-2.216 9.756 1.776 9.756 5.879 0 2.105-.776 4.433-3.768 6.208-4.105 2.439-11.2 3.879-18.295 3.879-15.3 0-25.609-9.645-26.72-23.502-.332-4.325-.219-10.422 0-13.859 1.333-14.414 11.644-23.617 26.166-23.617 15.079 0 25.389 10.089 25.389 25.722v2.439zm-15.522-2.661c.776 0 1.22-.443 1.22-1.331.333-6.76-3.879-11.308-11.087-11.308-7.871 0-11.75 4.988-11.75 12.639h21.617zM413.946 490.336c0 4.323-2.218 7.428-7.652 7.428h-29.49v1.109c0 6.986 5.323 10.754 12.75 10.754 3.992 0 8.093-.998 11.863-2.44 5.877-2.216 9.758 1.776 9.758 5.879 0 2.105-.776 4.433-3.77 6.208-4.103 2.439-11.198 3.879-18.295 3.879-15.298 0-25.609-9.645-26.718-23.502-.333-4.325-.224-10.422 0-13.859 1.329-14.414 11.641-23.617 26.165-23.617 15.079 0 25.391 10.089 25.391 25.722v2.439zm-15.524-2.661c.776 0 1.22-.443 1.22-1.331.331-6.76-3.881-11.308-11.087-11.308-7.871 0-11.752 4.988-11.752 12.639h21.619zM441.551 466.5c2.44-2.218 8.093-4.325 13.968-4.325 14.081 0 22.397 8.427 22.397 24.281v28.494c0 4.434-3.105 7.871-7.538 7.871-4.103 0-7.319-3.436-7.319-7.871v-27.718c0-6.764-3.879-10.534-9.976-10.534-4.659 0-9.204 2.105-11.532 4.657v33.815c0 4.214-3.103 7.651-7.318 7.651-4.101 0-7.539-3.436-7.539-7.651v-64.859c0-4.324 3.216-7.651 7.43-7.651 4.101 0 7.427 3.327 7.427 7.651v16.189zM517.497 523.153c-14.522 0-25.5-9.312-26.609-22.506-.333-4.435-.333-11.419 0-15.855 1.109-13.304 12.087-22.617 26.609-22.617 14.635 0 25.389 9.313 26.498 22.617.333 4.436.333 11.309 0 15.744-1.109 13.305-11.863 22.617-26.498 22.617zm11.754-36.033c-.333-6.319-4.768-10.752-11.754-10.752s-11.309 4.433-11.863 10.752c-.222 2.996-.222 8.206 0 11.087.554 6.321 4.877 10.756 11.863 10.756s11.31-4.435 11.754-10.756c.218-2.881.218-8.092 0-11.087zM556.965 470.379c0-4.434 2.662-7.871 7.319-7.871 4.212 0 7.539 3.437 7.539 7.871v28.272c0 6.653 4.324 10.312 10.643 10.312 4.877 0 8.536-1.441 10.865-2.883v-35.922c0-4.212 3.105-7.649 7.428-7.649 4.101 0 7.43 3.437 7.43 7.649v41.466c0 2.55-.666 3.992-2.663 5.21-3.438 2.44-11.53 6.319-23.395 6.319-15.964 0-25.168-8.647-25.168-24.28v-28.494zM666.727 503.863c0 12.417-10.31 19.29-23.169 19.29-10.424 0-17.075-2.992-21.176-6.43-2.662-2.216-3.438-6.429-1.331-9.201 2.216-2.994 5.986-3.659 9.647-1.331 3.435 2.216 7.98 3.659 13.192 3.659 5.766 0 8.427-2.107 8.427-5.099 0-2.44-1.776-4.103-6.43-5.212-3.992-.887-3.881-.776-8.204-1.883-9.093-2.329-16.188-7.429-16.188-16.964 0-11.974 9.649-18.516 22.619-18.516 6.984 0 14.191 1.774 18.071 4.99 3.216 2.661 2.992 7.206.665 9.867-2.216 2.439-5.988 2.772-9.645.887-2.883-1.442-6.764-2.439-9.645-2.439-5.544 0-7.873 2.107-7.873 4.768 0 2.328 1.663 3.879 6.653 4.988l7.871 1.774c11.085 2.66 16.516 8.093 16.516 16.852zM728.26 490.336c0 4.323-2.215 7.428-7.649 7.428h-29.492v1.109c0 6.986 5.322 10.754 12.752 10.754 3.99 0 8.092-.998 11.863-2.44 5.875-2.216 9.754 1.776 9.754 5.879 0 2.105-.776 4.433-3.768 6.208-4.103 2.439-11.198 3.879-18.294 3.879-15.301 0-25.613-9.645-26.72-23.502-.332-4.325-.222-10.422 0-13.859 1.329-14.414 11.641-23.617 26.165-23.617 15.077 0 25.389 10.089 25.389 25.722v2.439zm-15.521-2.661c.776 0 1.22-.443 1.22-1.331.333-6.76-3.881-11.308-11.087-11.308-7.873 0-11.752 4.988-11.752 12.639h21.619z"/></g><path fill="#4C545C" d="M735.934 471.263c0 .719-.55 1.268-1.273 1.268-.755 0-1.303-.582-1.303-1.268v-5.907h-1.922c-.652 0-1.201-.55-1.201-1.202 0-.721.548-1.234 1.201-1.234h6.351c.652 0 1.202.513 1.202 1.234 0 .652-.55 1.202-1.202 1.202h-1.853v5.907zm7.758-6.937l1.1 4.807 1.132-4.807c.204-.961 1.03-1.546 1.887-1.546.996 0 1.788.586 1.992 1.786l.998 6.318c.134.755-.141 1.511-.896 1.647-.892.173-1.474-.342-1.58-1.097l-.684-5.323-1.238 4.978c-.24.861-.755 1.442-1.612 1.442-.792 0-1.34-.513-1.615-1.442l-1.236-5.011-.688 5.357c-.102.755-.686 1.269-1.578 1.097-.755-.136-1.03-.892-.892-1.647l.995-6.282c.208-1.236 1.03-1.821 1.992-1.821.893-.002 1.719.583 1.923 1.544z"/><path fill="#75B860" d="M587.318 115.513c-11.329-6.404-29.421 3.897-40.41 23.01l-19.894 34.608c-7.27 14.387-6.274 31.517 2.946 44.742l.582.833c9.218 13.224 21.579 25.449 25.673 29.809 2.402 2.564 4.239 5.728 5.255 9.347 3.357 12.015-3.657 24.479-15.668 27.841-12.016 3.361-24.483-3.652-27.843-15.669-.845-3.015-1.031-6.059-.653-8.98.646-4.965-.947-13.05-8.067-20.988-7.116-7.937-21.663 7.055-26.368 22.473l-.218.708c-4.704 15.417-7.67 28.872-6.785 30.167.531.771 1.021 1.58 1.472 2.427 6.598 12.419 1.883 27.836-10.535 34.434-12.418 6.602-27.834 1.885-34.436-10.532-6.601-12.418-1.885-27.836 10.534-34.436.557-.297 1.121-.57 1.689-.821.95-.417 3.639-6.899 5.974-14.554 2.338-7.657 4.232-13.863 4.232-13.863.247-.815.465-1.62.661-2.418l12.567-44.872-13.439 27.589c-1.594-5.238-4.228-5.426-9.998-1.298-3.477 2.49-9.229 7.391-12.039 9.4-5.276 3.776-9.691 11.109-12.025 15.602-1.375 2.643-3.303 5.055-5.762 7.051-9.624 7.808-23.754 6.335-31.562-3.287-7.806-9.621-6.334-23.751 3.287-31.559 2.821-2.289 6.03-3.78 9.352-4.502 5.653-1.228 24.879-12.973 36.464-21.262 2.074-1.483 3.814-2.886 5.23-4.188l30.929-23.49-26.937 14.555s-2.74-.278-6.101.095c-9.86 1.095-20.013 2.484-21.931 4.926-1.134 1.441-2.484 2.751-4.048 3.876-8.989 6.475-21.529 4.438-28.004-4.554-6.478-8.992-4.438-21.531 4.553-28.005 3.71-2.671 8.019-3.892 12.258-3.775 7.21.199 26.184 4.047 42.053 1.234l4.077-.723c15.873-2.812 34.877-16.631 42.452-30.862 0 0 7.413-13.023 16.557-29.088 9.148-16.066 8.471-33.664-1.506-39.304l-18.07-10.215c-9.116-5.153-24.036-5.163-33.159-.019l-124.446 70.156c-9.123 5.143-16.585 17.92-16.585 28.392v137.096c0 10.473 7.462 23.248 16.585 28.393l124.446 70.154c9.123 5.145 24.043 5.135 33.159-.019l124.019-70.115c9.119-5.154 16.578-17.939 16.578-28.413v-137.096c0-10.472-7.459-23.258-16.578-28.411-.004 0-9.19-5.193-20.517-11.6z"/></svg>