<svg version="1.2" baseProfile="tiny" xmlns="http://www.w3.org/2000/svg" viewBox="0 0 96 60.9"><circle fill="#472175" cx="59.413" cy="13.272" r="10.553"/><path fill="#5E2483" d="M59.413 13.272"/><path fill="#472175" d="M35.627 23.824c5.827 0 10.552-4.725 10.552-10.552 0-5.828-4.725-10.553-10.552-10.553v21.105z"/><path fill="#5E2483" d="M35.627 13.272"/><path fill="#472175" d="M35.627 34.245c-2.878 0-5.21-2.332-5.21-5.21s2.332-5.212 5.21-5.212v10.422z"/><path fill="#5E2483" d="M35.627 29.036"/><g fill="#472175"><circle cx="21.17" cy="29.035" r="5.211"/><path d="M21.17 29.036"/></g><path d="M16.466 39.275v4.727c0 .95.199 2.927 2.474 2.927 1.933 0 2.585-1.138 2.585-2.927v-4.727h.486v4.727c0 1.878-.707 3.347-3.071 3.347-2.805 0-2.96-2.297-2.96-3.347v-4.727h.486zM24.198 41.484h.42v1.214h.022c.287-.85 1.148-1.347 2.032-1.347 1.999 0 2.021 1.602 2.021 2.297v3.513h-.42v-3.59c0-.585-.066-1.855-1.613-1.855-1.27 0-2.043.982-2.043 2.375v3.07h-.42v-5.677zM31.032 47.161v-5.677h.42v5.677h-.42zm0-6.748v-1.138h.42v1.138h-.42zM36.021 47.161h-.519l-2.286-5.677h.486l2.054 5.191h.022l1.922-5.191h.464l-2.143 5.677zM40.058 44.013c.088-1.127.828-2.297 2.087-2.297 1.303 0 2.054 1.104 2.076 2.297h-4.163zm4.584.364c.077-1.623-.718-3.026-2.496-3.026-1.712 0-2.529 1.514-2.507 3.07-.022 1.568.85 2.872 2.507 2.872 1.347 0 2.231-.729 2.452-2.054h-.42c-.199 1.049-.961 1.69-2.032 1.69-1.403 0-2.11-1.215-2.087-2.552h4.583zM47.308 42.743h.033c.221-.74 1.148-1.336 2.176-1.292v.42c-.442-.056-1.06.055-1.568.552-.42.431-.596.784-.641 1.635v3.104h-.42v-5.677h.42v1.258zM51.356 45.272c.066 1.049.85 1.657 1.878 1.657.74 0 1.8-.221 1.8-1.204 0-.961-.972-1.104-1.944-1.303-.982-.199-1.955-.453-1.955-1.612 0-1.126 1.094-1.458 2.055-1.458 1.203 0 2.099.52 2.099 1.812h-.42c-.012-1.027-.729-1.447-1.679-1.447-.773 0-1.635.287-1.635 1.093 0 .906.972 1.049 1.888 1.248 1.127.209 2.011.475 2.011 1.667 0 1.226-1.226 1.568-2.22 1.568-1.292 0-2.264-.696-2.297-2.021h.419zM57.897 47.161v-5.677h.42v5.677h-.42zm0-6.748v-1.138h.42v1.138h-.42zM62.874 41.848h-1.237v3.965c0 .917.431 1.005 1.226.983v.365c-.862.055-1.69-.066-1.646-1.348v-3.965h-1.05v-.364h1.05v-1.768h.42v1.768h1.237v.364zM63.965 41.484h.497l2.109 5.18 1.944-5.18h.475l-2.429 6.284c-.232.552-.42.983-.662 1.171-.299.232-.686.254-1.326.254v-.365c.596 0 .894-.077 1.182-.364.165-.166.32-.586.585-1.337l-2.375-5.643zM72.178 44.322c0-1.359.762-2.607 2.187-2.607s2.187 1.248 2.187 2.607c0 1.358-.762 2.607-2.187 2.607s-2.187-1.248-2.187-2.607zm-.42 0c0 1.612.939 2.971 2.607 2.971 1.668 0 2.607-1.358 2.607-2.971s-.938-2.971-2.607-2.971c-1.668 0-2.607 1.359-2.607 2.971zM78.468 41.848v-.364h1.017v-1.171c0-.795.563-1.126 1.248-1.126.166 0 .332.022.497.055v.365c-.165-.033-.331-.056-.497-.056-.464 0-.828.166-.828.795v1.138h1.181v.364h-1.181v5.313h-.42v-5.313h-1.017zM18.354 51.456h1.06c.584 0 1.125.043 1.125.746 0 .778-.649.822-1.265.822h-.919v-1.568zm-2.379 5.743h2.379v-2.336h1.406c1.774 0 3.028-.876 3.028-2.747 0-1.103-.735-2.639-2.834-2.639h-3.98v7.722zM26.984 54.387c0 .595-.108 1.395-.919 1.395s-.919-.8-.919-1.395.108-1.385.919-1.385.919.79.919 1.385zm2.141 0c0-1.557-.952-2.941-3.061-2.941s-3.06 1.384-3.06 2.941.952 2.952 3.06 2.952 3.061-1.395 3.061-2.952zM29.892 51.586h2.055v.898h.022c.346-.67.8-1.038 1.579-1.038.216 0 .422.032.627.086v1.892c-.216-.076-.411-.141-.844-.141-.844 0-1.298.498-1.298 1.698v2.217h-2.141v-5.612zM38.111 51.586h1.146v1.319h-1.146v1.958c0 .519.119.746.66.746.162 0 .324-.011.487-.032v1.622l-1.373.065c-.909 0-1.914-.141-1.914-1.676v-2.682h-.952v-1.319h.952v-1.709h2.141v1.708zM43.725 53.219c-.011-.184-.108-.324-.249-.422-.13-.108-.303-.163-.476-.163-.303 0-.649.065-.649.433 0 .162.13.238.249.292.357.151 1.168.195 1.882.433.714.227 1.341.648 1.341 1.568 0 1.558-1.492 1.979-2.855 1.979-1.319 0-2.768-.53-2.801-1.979h2.044c.011.195.098.357.26.498.108.097.313.162.573.162.281 0 .725-.108.725-.432s-.184-.422-1.179-.595c-1.633-.281-2.293-.8-2.293-1.763 0-1.417 1.525-1.784 2.649-1.784 1.211 0 2.671.335 2.725 1.773h-1.946zM46.666 51.586h2.065v.746h.022c.433-.648 1.06-.886 1.839-.886.606 0 1.255.314 1.514.875.087-.065.52-.875 1.914-.875 1.438 0 1.925.995 1.925 1.903v3.851h-2.142v-3.04c0-.53-.054-1.006-.703-1.006-.54 0-.724.422-.724 1.006v3.039h-2.141v-3.039c0-.53-.054-1.006-.703-1.006-.541 0-.725.422-.725 1.006v3.039h-2.141v-5.613zM60.67 54.387c0 .595-.109 1.395-.919 1.395s-.92-.8-.92-1.395.109-1.385.92-1.385.919.79.919 1.385zm2.141 0c0-1.557-.952-2.941-3.06-2.941-2.109 0-3.06 1.384-3.06 2.941s.952 2.952 3.06 2.952 3.06-1.395 3.06-2.952zM69.483 57.199h-2.065v-.714h-.022c-.4.562-.973.854-1.827.854-1.006 0-1.925-.617-1.925-1.903v-3.85h2.141v2.942c0 .649.076 1.103.703 1.103.368 0 .855-.184.855-1.081v-2.963h2.141v5.612zM73.387 51.586h1.147v1.319h-1.147v1.958c0 .519.12.746.66.746.163 0 .324-.011.487-.032v1.622l-1.373.065c-.909 0-1.914-.141-1.914-1.676v-2.682h-.952v-1.319h.952v-1.709h2.141v1.708zM75.378 49.477h2.141v2.714h.022c.368-.432.844-.746 1.752-.746 1.006 0 1.925.616 1.925 1.903v3.851h-2.141v-2.942c0-.649-.076-1.103-.703-1.103-.368 0-.855.183-.855 1.081v2.963h-2.141v-7.721z"/></svg>